<?xml version="1.0" encoding="UTF-8"?>
<svg xmlns="http://www.w3.org/2000/svg" xmlns:i="http://ns.adobe.com/AdobeIllustrator/10.0/" id="Layer_1" version="1.1" viewBox="0 0 10457.27 2670.58">
  <defs>
    <style>
      .st0 {
        fill: #231f20;
      }

      .st1 {
        fill: #10b9b2;
      }
    </style>
  </defs>
  <g>
    <path class="st0" d="M10457.27,1887.58c-4.72,4.94-23.32,4.45-23.32-1.66v-51.59c-7.66-1.35-5.32.41-7.44,4.26-5.74,10.42-13.51,42.62-20.82,49.03-5.82,5.09-14.97,6.28-19.35-.86-8.98-14.63-13.46-36.63-21.55-51.5-2.13-3.91.16-5.57-7.45-4.25v59.91h-19.99v-93.19c42.98-10.47,37.59,42.22,58.34,66.54,6.72,1.51,4.63-2.62,6.44-6.67,11.01-24.6,20.18-74.97,55.15-56.54v86.53Z"></path>
    <path class="st0" d="M3619.8,779.29l406.38,908.63,399.79-908.63h286.49l5,4.99v1101.63l-5,4.99h-214.87v-921.91l-7.47,4.29-397.23,914.33c-2.55,3.42-6.17,3.03-9.85,3.48-24.01,2.89-96.41,2.97-120.3,0-3.66-.46-7.42.24-9.83-3.49l-385.58-892.81-7.54-9.15-8.28,4.98v900.28h-219.87V779.29h288.16Z"></path>
    <path class="st0" d="M6147.03,779.71l464.4-.55c215.18,8.02,450.45,72.73,578.58,257.34,136.48,196.64,111.71,487.11-55.66,658.09-252.36,257.8-661.34,187.02-987.98,194.87l.66-1109.75ZM6376.44,900.77v868.66c2.92,4.75,6.64,4.59,11.49,5.16,55.27,6.48,162.15,2.96,220.17-.03,229.35-11.82,407.19-154.83,434.17-388.29,32.87-284.43-156.52-477.06-434.17-490.63-58.49-2.86-164.51-6.56-220.17-.03-4.85.57-8.57.41-11.49,5.16Z"></path>
    <path class="st0" d="M9570.47,766.96c356.27-24.87,671.76,153.56,690.39,536.38,20.68,424.82-323.93,640.22-717.62,597.14-699.78-76.57-685.3-1083.78,27.23-1133.52ZM9597.11,883.44c-464.64,44.72-456.29,945.12,85.59,904.25,478.94-36.12,467.85-957.52-85.59-904.25Z"></path>
    <polygon class="st0" points="5913.39 895.78 5267.12 895.78 5267.12 1271.86 5856.76 1275.19 5856.76 1388.35 5267.12 1391.68 5267.12 1769.43 5272.12 1774.42 5913.39 1774.42 5913.39 1885.92 5908.39 1890.91 5037.26 1890.91 5037.26 784.28 5042.26 779.29 5908.39 779.29 5913.39 784.28 5913.39 895.78"></polygon>
    <path class="st0" d="M8914.88,779.29v116.49c-176.7,9.64-374.65-34.32-531.43,66.47-259.09,166.55-244.31,611.11,26.17,759.49,152.17,83.48,338.59,43.09,505.26,52.68v116.49c-241.8-6.49-490.48,35.14-705.95-98.46-311.73-193.29-329.05-682.44-31.31-896.05,216.23-155.14,486.34-110.48,737.26-117.1Z"></path>
    <polygon class="st0" points="7732.27 779.29 7732.27 1890.91 7514.08 1890.91 7509.08 1885.92 7509.08 784.28 7514.08 779.29 7732.27 779.29"></polygon>
    <path class="st0" d="M10314.02,1797.72l.02,13.3h-33.33v79.89h-19.99v-79.88l-27.8-.52c-6.29-2.21-6.03-6.77-5.52-12.79h86.61Z"></path>
  </g>
  <g>
    <path class="st1" d="M1789.5,1629.69l726.28,338.14c2.19,14.26-47.94,97.2-58.92,114.76-37.05,59.22-66.15,120.88-148.43,98.8-13.58-3.64-24.47-12.2-39.22-14.2-54.18-7.33-108.45,49.64-100.2,103.46,1.95,12.75,10.97,24.82,14.19,35.85,23.62,80.74-41.24,112.56-98.8,148.22-17.91,11.09-93.46,57.11-108.6,58.66-16.25,1.66-21.2-19.03-27.61-32.15-102.93-210.74-208.71-437.94-301.71-653.08-4.12-9.52-17.68-35.76-15.64-43.23,2.1-7.68,31.41-36.2,41.47-22.6l410.69,410.61,91.8-91.72-410.79-410.53c-14.96-14.33,14.56-32.15,25.48-40.99Z"></path>
    <path class="st1" d="M877.87,1629.55c12.96-2,44.79,27.18,31.11,41.34-141.55,132.45-272.4,275.08-410.81,410.77-1.08,6.17,76.94,80.2,88.45,88.16l8.11-1.82,413.99-410.72c8.97-1.99,27.71,20.22,32.39,28.49l-329.68,722.32c-10.47,14.49-48.14-10.25-62.09-17.48-33.41-17.33-130.15-73.28-149.54-100.91-43.79-62.4,19.22-101.64-1.25-158.94-13.79-38.61-55.94-69.9-97.69-62.96-14.71,2.45-27.83,11.54-41.78,14.99-75.54,18.68-105.69-39.64-139.81-93.53-9.38-14.81-65.8-111.19-63.93-120.16l722.52-339.56Z"></path>
    <path class="st1" d="M694.15,157.84c10.07-2.06,15.78-1.13,19.43,9.16l322.9,698.62c3.09,7.08,4.17,16.04,1.93,23.43-1.31,4.32-23.07,27.91-29.35,24.25l-414.32-410.72c-2.48-1.59-5.2-2.11-8.11-1.82-9.11.88-77.81,74.78-88.45,88.16l410.81,410.77c11.78,17.1-11.82,33.75-25.97,41.39L155.35,701.47c-1.87-8.97,54.55-105.34,63.93-120.16,34.84-55.01,65.36-113.63,142.42-92.8,13.66,3.69,25.68,12.89,41.88,14.88,57.2,7.03,112.45-55.03,97.49-110.75-2.46-9.17-8.11-16.84-10.76-25.95-22.96-78.73,24.51-103.93,81.39-140.82,22.89-14.85,100.37-63.53,122.44-68.04Z"></path>
    <path class="st1" d="M1966.65,157.6c12.62-4.19,65.78,27.55,80.18,35.72,35.24,19.99,121.92,69.19,134.92,105.5,20.23,56.49-17.88,77.77-13.19,123.32,3.97,38.56,46.33,79.44,84.87,82.24,46.46,3.38,83.71-47.85,141.6-1.48,28.61,22.91,87.79,125.44,105.6,161.49,4.82,9.76,16.66,28.5,15.14,38.35l-726.62,338.95c-6.75-.68-33.13-27.32-30.32-33.54l415.22-418.74c-1.15-4.78-4.62-8.09-7.48-11.81-11.78-15.29-56.47-59.88-71.8-71.73-3.23-2.5-9.06-8.75-13.5-6.75l-412.34,412.5c-13.43,9.66-28.2-16.92-38.09-25.97l335.81-728.06Z"></path>
    <path class="st1" d="M1403.21,807.98V213.92h-133.62v594.06c-12.58-2.3-42.87,5.64-49.57-5.54L949,65c-3.39-18.33,32.14-23.95,47.44-28.85,45.06-14.41,146.3-42.06,190.49-35.02,45.4,7.24,53.49,42.59,72.07,74.84,25.46,44.18,84.28,59.24,127.28,29.27,44.08-30.72,35.62-96.49,102.47-104.55,45.32-5.46,151.77,23.32,197.61,38.79,8.26,2.79,34.95,9.35,37.18,16.48,2.13,6.81-6.91,28.03-9.61,36.2-77.79,235.32-180.27,466.9-258.95,702.47-7.39,21.95-33.79,10.92-51.79,13.34Z"></path>
    <path class="st1" d="M1864.2,1448.77v-46.72h594.61v-133.5h-589.6c-7.11,0-7.1-38.98-1.93-45.32,241.76-95.62,489.11-180,732.44-272.79,25.39-11.36,27.58,16.79,33.69,35.2,14.66,44.15,44.89,154.7,38.9,197.51-11.52,82.34-134.89,57.69-119.67,166.88,11.14,79.92,105.03,58.53,118.47,135.28,7.67,43.83-22.12,151.88-36.94,197.08-3.94,12.03-8.23,40.2-23.23,40.28l-746.75-273.89Z"></path>
    <path class="st1" d="M1269.59,1862.61v594.06h133.62v-589.05c0-6.86,43.87-7.12,47.12-2.94l273.23,749.95c-2.25,7.17-37.97,16.88-47.2,19.82-44.71,14.23-143.5,40.74-187.59,35.45-66.8-8.02-58.41-73.83-102.47-104.55-42.63-29.72-102-14.68-127.28,29.27-18.58,32.31-26.02,67.51-72.07,74.84-43.06,6.86-146.27-20.87-190.49-35.02-15.31-4.9-50.83-10.52-47.44-28.85l271.02-737.44c6.7-11.18,36.99-3.24,49.57-5.54Z"></path>
    <path class="st1" d="M808.6,1268.54H215.65c-.35,0-5.01,4.65-5.01,5.01v123.48c0,.35,4.66,5.01,5.01,5.01h592.94c-2.42,17.99,8.61,44.34-13.34,51.75-235.48,78.68-467.61,181.92-703.13,258.7-19.5,6.36-34.18,19.26-44.39-2.5-11.6-24.71-21.89-67.53-28.59-94.92-10.2-41.7-31.63-120.03-8.39-157.41,23.27-37.42,68.66-35.59,94.45-72.51,22.01-31.51,20.07-73.19-3.05-103.33-30.13-39.29-92.31-35.44-101.1-95.9-6.37-43.77,17.48-133.41,30.87-177.67,3.17-10.49,16.72-57.49,23.95-59.74,1.86-.58,3.8-.57,5.72-.32l733.65,268.62c21.95,7.41,10.92,33.76,13.34,51.75Z"></path>
  </g>
  <metadata></metadata>
</svg>
