<svg xmlns="http://www.w3.org/2000/svg" viewBox="0 0 64 64" fill="#023752" ><title>jaw</title><g id="jaw"><path d="M32,20c-7.72,0-14,12.12-14,27,0,3.56.35,6,1.08,7.39,1.07,2.12,2.89,1.79,6.56.91a27.37,27.37,0,0,1,6.36-1,27.37,27.37,0,0,1,6.36,1c3.66.88,5.48,1.21,6.55-.88,0,0,0,0,0,0C45.65,53,46,50.58,46,47,46,32.12,39.72,20,32,20Zm1,30a1,1,0,0,1-2,0V25a1,1,0,0,1,2,0Z"></path><path d="M53,51h-.16c-1.11,2.47-3,3.11-5.6,3a9.49,9.49,0,0,1-.54,1.35,4.83,4.83,0,0,1-.35.59c3.44.3,7-.25,8.63-4.92ZM17.3,55.32A9.34,9.34,0,0,1,16.76,54c-2.62.11-4.49-.52-5.6-3H9c1.43,4,4.25,5,7.22,5a13.31,13.31,0,0,0,1.41-.07A5.59,5.59,0,0,1,17.3,55.32Z"></path><path d="M52.84,51c-1.11,2.47-3,3.11-5.6,3,.08-.25.15-.52.21-.8a11.87,11.87,0,0,0,.25-1.34c0-.27.08-.54.11-.83,0,0,0,0,0-.08,0-.38.08-.78.1-1.19s0-.85.06-1.3v-.1c0-.2,0-.4,0-.6s0-.47,0-.72c0-16-7.18-29-16-29S16,31,16,47c0,.25,0,.48,0,.72s0,.4,0,.6v.1c0,.45,0,.88.06,1.3,0,.24,0,.47.05.7s.06.64.1.94a14.85,14.85,0,0,0,.53,2.6c-2.62.11-4.49-.52-5.6-3A4,4,0,0,0,15,47V41a4,4,0,0,0-1-2.6,4.34,4.34,0,0,0,.41-1.48L15,31.8c0-.15,0-.33,0-.49a4.42,4.42,0,0,0-.26-1.5,3.87,3.87,0,0,0,.84-1.1l2.71-5.08a4.16,4.16,0,0,0,.51-1.94,4.34,4.34,0,0,0,1.77-1.27l3.33-3.91a4.44,4.44,0,0,0,.94-1.78l5.39-.54a4.1,4.1,0,0,0,1.77-.6,4.1,4.1,0,0,0,1.77.6l5.39.53a4.31,4.31,0,0,0,.94,1.78l3.33,3.93a4.41,4.41,0,0,0,1.77,1.26,4.46,4.46,0,0,0,.51,1.95l2.7,5.06a4.1,4.1,0,0,0,.85,1.12A4.36,4.36,0,0,0,49,31.31c0,.16,0,.34,0,.45l.53,5.15A4.4,4.4,0,0,0,50,38.4,4,4,0,0,0,49,41v6A4,4,0,0,0,52.84,51Z"></path><path d="M32,9.19V10a2.19,2.19,0,0,1-2,2.18l-5.62.56A2.19,2.19,0,0,1,23.5,8.5l2.78-.93A11.15,11.15,0,0,1,29.81,7,2.19,2.19,0,0,1,32,9.19Z"></path><path d="M13,31.31a2.09,2.09,0,0,1,0,.25l-.53,5.15A2.58,2.58,0,0,1,9.87,39a2.46,2.46,0,0,1-.67-.09A2.56,2.56,0,0,1,7.27,36.2l.53-5.14a2.59,2.59,0,0,1,2.59-2.3,3.07,3.07,0,0,1,.53,0h0a1.33,1.33,0,0,0,.3.11l.18,0h0A2.57,2.57,0,0,1,13,31.31Z"></path><rect x="7" y="39" width="6" height="10" rx="2" ry="2"></rect><path d="M16.81,21.54a2.46,2.46,0,0,1-.29,1.16l-2.7,5.07a2.27,2.27,0,0,1-2,1.23,1.75,1.75,0,0,1-.4,0h0l-.17-.06-.31-.09h0a2.45,2.45,0,0,1-1.1-3.37l2.69-5.07a2.3,2.3,0,0,1,2-1.23,2.17,2.17,0,0,1,1.11.3h0a1.39,1.39,0,0,0,.19.15l.1.06,0,0A2.48,2.48,0,0,1,16.81,21.54Z"></path><path d="M23,13.55a2.53,2.53,0,0,1-.62,1.66l-3.33,3.92a2.46,2.46,0,0,1-1.86.87A2.38,2.38,0,0,1,16,19.67l0,0-.09-.07-.2-.14h0a2.59,2.59,0,0,1-.3-3.65l3.34-3.92a2.43,2.43,0,0,1,4.19.86A2.52,2.52,0,0,1,23,13.55Z"></path><path d="M42,10.58a2.19,2.19,0,0,1-2.41,2.18L34,12.2A2.19,2.19,0,0,1,32,10V9.19A2.19,2.19,0,0,1,34.19,7a11.15,11.15,0,0,1,3.53.57l2.78.93A2.19,2.19,0,0,1,42,10.58Z"></path><path d="M54.8,38.91a2.46,2.46,0,0,1-.67.09,2.58,2.58,0,0,1-2.59-2.29L51,31.56a2.09,2.09,0,0,1,0-.25A2.57,2.57,0,0,1,52.58,29h0l.18,0a1.83,1.83,0,0,0,.28-.1h0a3.07,3.07,0,0,1,.53,0,2.59,2.59,0,0,1,2.59,2.3l.53,5.14A2.56,2.56,0,0,1,54.8,38.91Z"></path><rect x="51" y="39" width="6" height="10" rx="2" ry="2"></rect><path d="M53.08,28.81h0l-.29.08-.17.06h0a1.75,1.75,0,0,1-.4,0,2.27,2.27,0,0,1-2-1.23l-2.7-5.07a2.48,2.48,0,0,1,.56-3l0,0,.1-.06a1.39,1.39,0,0,0,.19-.15h0a2.17,2.17,0,0,1,1.11-.3,2.3,2.3,0,0,1,2,1.23l2.69,5.07A2.45,2.45,0,0,1,53.08,28.81Z"></path><path d="M48.37,19.44h0l-.2.14-.09.07,0,0a2.38,2.38,0,0,1-1.23.33A2.46,2.46,0,0,1,45,19.13l-3.33-3.92a2.51,2.51,0,0,1-.48-2.48,2.43,2.43,0,0,1,4.19-.86l3.34,3.92A2.59,2.59,0,0,1,48.37,19.44Z"></path></g></svg>