<svg version="1.1" xmlns="http://www.w3.org/2000/svg" width="512px" height="512px" transform="rotate(0) scale(1, 1)">
<path d="M0 0 C0.95261719 0.46277344 1.90523438 0.92554688 2.88671875 1.40234375 C11.46774381 5.99010748 18.19351032 12.15687936 25 19 C25.77988281 19.77988281 26.55976562 20.55976562 27.36328125 21.36328125 C41.80876544 36.65383947 53.98553363 55.17951773 61 75 C61.4021875 76.08861328 61.4021875 76.08861328 61.8125 77.19921875 C65.19666234 88.03323845 63.71379298 100.44147903 58.78125 110.48046875 C55.06689385 117.13535685 50.18648657 122.46713999 45 128 C43.82744371 129.34907014 42.66035411 130.70292036 41.5 132.0625 C38.89055674 135.08043087 36.11894441 137.85322951 33.25 140.625 C28.00235516 145.89946415 25.87248765 149.47756641 25.5 157 C26.18954487 182.31204299 48.02347548 206.01161684 64 224 C65.18812989 225.37445575 66.37573409 226.74936636 67.5625 228.125 C74.46647766 235.96966561 81.52841621 243.61086227 88.9765625 250.94140625 C90.79715306 252.79362869 92.46390986 254.69334864 94.125 256.6875 C98.77384724 262.12022781 104.1584099 266.8204162 109.40625 271.66015625 C112.14787735 274.19290445 114.82120236 276.77448276 117.4375 279.4375 C121.12299363 283.1701428 125.0155212 286.59127512 129 290 C130.05387488 290.91740678 131.10721762 291.83542505 132.16015625 292.75390625 C165.51341539 322.51736391 165.51341539 322.51736391 206.9921875 334.43359375 C214.35694261 333.37192126 218.46232649 328.88560785 223.375 323.75 C224.70800119 322.38902244 226.04261727 321.02962455 227.37890625 319.671875 C228.32467529 318.70797852 228.32467529 318.70797852 229.28955078 317.72460938 C240.53004162 306.3910628 253.73656555 296.28938402 270.22265625 295.9296875 C290.8183375 296.71914992 309.12456828 307.58578159 325 320 C326.08216731 320.80625492 327.16557109 321.61085205 328.25 322.4140625 C345.39214329 335.27731796 361.47447962 350.18357626 366 372 C367.24110657 386.51139989 362.53749623 399.58740264 353.67114258 410.99682617 C347.17569477 418.63885373 340.45941635 426.00268431 333.40356445 433.13183594 C332.25676681 434.29674349 331.11807964 435.46968977 329.98754883 436.65039062 C316.46000171 450.7755715 302.82603304 456.99568675 283.18359375 458.2421875 C249.8139904 458.87914705 218.02550268 447.42535469 188 434 C187.27248535 433.67950684 186.5449707 433.35901367 185.79541016 433.02880859 C158.05223575 420.76265409 132.27793832 404.07016168 108 386 C106.57167679 384.94522826 105.14329174 383.89054025 103.71484375 382.8359375 C95.96965268 377.09468385 88.37175561 371.21764437 81 365 C80.46165527 364.54657227 79.92331055 364.09314453 79.36865234 363.62597656 C71.63435486 357.09750556 64.07922809 350.40866075 56.66381836 343.52050781 C55.44139651 342.40337747 54.20585199 341.30056339 52.96313477 340.20605469 C45.53267593 333.63791508 38.50573265 326.69187204 31.49536133 319.68066406 C29.44306576 317.63055982 27.38288085 315.58861249 25.32226562 313.546875 C18.78283347 307.03470712 12.52804885 300.51228855 6.80053711 293.26611328 C4.52332296 290.40006559 2.08472201 287.7770712 -0.4375 285.125 C-5.55762528 279.63607495 -10.14571455 273.80679982 -14.64160156 267.79980469 C-16.08537328 265.88688501 -17.55168054 263.99302554 -19.0234375 262.1015625 C-60.17824728 209.10450348 -105.98319292 136.60844226 -97.68652344 66.34521484 C-93.85284652 42.60289091 -69.53493913 21.22762511 -51.07275391 7.15014648 C-35.91271748 -3.67813953 -17.35455616 -8.51211759 0 0 Z " fill="#023752" transform="translate(98,54)"/>
<path d="M0 0 C5.99635118 5.34154554 11.7078661 10.97905302 17.40307617 16.63745117 C18.31855225 17.54358154 19.23402832 18.44971191 20.17724609 19.38330078 C26.21840451 25.45300443 31.70757203 31.80659315 37.02807617 38.51245117 C37.95729117 39.64671977 38.88797052 40.77979278 39.82104492 41.91088867 C68.16721493 77.1470739 88.40426036 118.56125435 95.02807617 163.51245117 C95.13047607 164.16552246 95.23287598 164.81859375 95.33837891 165.49145508 C96.3244079 172.76309138 96.21414937 180.10692035 96.21337891 187.4309082 C96.21555825 189.74343484 96.23374723 192.05547769 96.25268555 194.36791992 C96.35842447 221.55228774 96.35842447 221.55228774 87.39135742 231.28979492 C81.26354721 236.92187217 74.30846481 239.48457108 66.02807617 239.51245117 C58.26377304 238.89453085 51.76053533 235.47194556 46.42260742 229.80932617 C41.31388087 223.15749454 40.75054005 216.41151798 41.00854492 208.30151367 C41.04331173 206.49319345 41.07645323 204.68484141 41.1081543 202.87646484 C41.13631226 201.47006241 41.13631226 201.47006241 41.16503906 200.0352478 C41.46903495 182.60413115 41.10348058 166.33387866 36.02807617 149.51245117 C35.62588867 148.15047607 35.62588867 148.15047607 35.21557617 146.76098633 C29.14367477 126.89729501 19.39397765 107.22312884 7.02807617 90.51245117 C5.98973633 89.06999023 5.98973633 89.06999023 4.93041992 87.59838867 C-11.49924861 65.17058719 -30.73986757 45.20701429 -52.97192383 28.51245117 C-53.78234131 27.89273438 -53.78234131 27.89273438 -54.60913086 27.26049805 C-83.8306244 4.98473553 -121.23347303 -11.837781 -158.53442383 -11.61254883 C-159.68962524 -11.61182373 -159.68962524 -11.61182373 -160.86816406 -11.61108398 C-166.1161269 -11.57992605 -171.30475844 -11.27561389 -176.53442383 -10.86254883 C-186.91337378 -10.17404423 -193.90779845 -11.64478613 -201.97192383 -18.48754883 C-207.95004346 -24.96020877 -209.47701524 -31.70524047 -209.27270508 -40.39379883 C-208.57690266 -47.55062374 -206.13431864 -52.78140363 -201.03442383 -57.86254883 C-148.26449487 -100.754363 -40.01993501 -34.76351995 0 0 Z " fill="#023752" transform="translate(415.971923828125,66.487548828125)"/>
<path d="M0 0 C37.21964196 28.0816357 64.74227894 69.05176415 72.4765625 115.4765625 C73.57123031 124.07187837 72.88949498 131.89499982 68.4765625 139.4765625 C64.41520844 144.55325508 58.64986667 148.41879444 52.4765625 150.4765625 C42.98997484 151.151395 35.43690205 150.74711333 27.7890625 144.8515625 C20.31244001 137.74814912 18.31002737 128.81210832 16.1640625 119.0390625 C11.01425872 97.18122795 1.90364494 77.34836328 -14.5234375 61.4765625 C-15.1834375 60.8165625 -15.8434375 60.1565625 -16.5234375 59.4765625 C-16.5234375 58.8165625 -16.5234375 58.1565625 -16.5234375 57.4765625 C-17.08289063 57.24066406 -17.64234375 57.00476563 -18.21875 56.76171875 C-21.06568882 55.17418846 -23.05971011 53.18525825 -25.3984375 50.9140625 C-39.75717213 37.49123586 -58.51429182 28.52849983 -77.62109375 24.3359375 C-97.08340964 20.05974898 -97.08340964 20.05974898 -104.8984375 12.0390625 C-109.72169404 4.43315796 -111.52110104 -3.33605229 -109.8359375 -12.2734375 C-107.76677841 -19.98206939 -102.72862407 -24.82291541 -96.5234375 -29.5234375 C-69.50353343 -43.67672059 -21.84343407 -15.94704696 0 0 Z " fill="#023752" transform="translate(341.5234375,130.5234375)"/>
</svg>