<svg xmlns="http://www.w3.org/2000/svg" viewBox="0 0 512 512" fill="#023752" ><g id="Dental_Crown"><path d="M488.1807,308.83a601.0961,601.0961,0,0,0-113.0755-34.7476L381.47,238.314l11.0173-58.7A100.3416,100.3416,0,0,0,349.6182,76.77c-20.61-13.7822-47.6963-14.8828-70.6817-2.8721a47.1776,47.1776,0,0,1-42.8691,0c-22.9863-12.0088-50.07-10.9092-70.6836,2.8721A100.3235,100.3235,0,0,0,122.5049,179.558l11.0281,58.7589,6.2629,35.1956A600.91,600.91,0,0,0,25.1934,308.26l-1.3565.5635a8,8,0,0,0-4.9307,7.3877V438.4056a8,8,0,0,0,8,8H485.0938a8,8,0,0,0,8-8V316.2113A8.0018,8.0018,0,0,0,488.1807,308.83ZM195.22,235.725l-.0246-.2041a7.9945,7.9945,0,0,0,7.46-7.9727V197.7377a32.5334,32.5334,0,0,1,32.4961-32.4961h41.6972a32.5334,32.5334,0,0,1,32.4961,32.4961v29.3916a8.0013,8.0013,0,0,0,7.19,7.959l-.0285.2509c16,1.8243,32.0673,4.42,47.8671,7.73L338.3418,389.36a11.4968,11.4968,0,0,1-19.5391,5.92,71.2206,71.2206,0,0,1-20.31-49.961v-24.751A93.7308,93.7308,0,0,0,280.44,265.0765a28.0786,28.0786,0,0,0-22.9375-11.6787h-.0009a28.0837,28.0837,0,0,0-22.94,11.6787,93.7322,93.7322,0,0,0-18.0508,55.4912v24.751A71.2246,71.2246,0,0,1,196.2,395.28a11.4976,11.4976,0,0,1-19.5283-5.8584L150.63,243.0707C165.3545,239.9857,180.32,237.52,195.22,235.725ZM174.2773,90.0707c15.7461-10.5283,36.5821-11.291,54.3809-1.9912a63.1771,63.1771,0,0,0,57.6875,0c17.7979-9.3018,38.6338-8.5362,54.38,1.9912a84.4023,84.4023,0,0,1,36.0478,86.5361l-9.5206,50.7244c-13.8441-2.8892-27.8822-5.2508-41.9081-7.0391V197.7377a48.5506,48.5506,0,0,0-48.4961-48.4961H235.1514a48.5506,48.5506,0,0,0-48.4961,48.4961v22.9467c-13.0172,1.7347-26.0471,3.9667-38.9051,6.65l-9.5314-50.7837A84.3838,84.3838,0,0,1,174.2773,90.0707Z"></path></g></svg>