<?xml version="1.0" encoding="UTF-8"?>
<svg width="40" height="40" viewBox="0 0 40 40" fill="none" xmlns="http://www.w3.org/2000/svg">
  <path d="M20 10C22.7614 10 25 7.76142 25 5C25 2.23858 22.7614 0 20 0C17.2386 0 15 2.23858 15 5C15 7.76142 17.2386 10 20 10Z" fill="var(--primary)"/>
  <path d="M28.75 15H11.25C10.5596 15 10 15.5596 10 16.25V21.25C10 21.9404 10.5596 22.5 11.25 22.5H13.75V37.5C13.75 38.8807 14.8693 40 16.25 40H23.75C25.1307 40 26.25 38.8807 26.25 37.5V22.5H28.75C29.4404 22.5 30 21.9404 30 21.25V16.25C30 15.5596 29.4404 15 28.75 15Z" fill="var(--primary)"/>
</svg>
