<svg xmlns="http://www.w3.org/2000/svg" viewBox="0 0 64 64" fill="#023752"><title>denture</title><g id="denture"><path d="M31,23v6a1,1,0,0,1-1,1H24a1,1,0,0,1-1-1V23a4,4,0,0,1,6.83-2.84A4,4,0,0,1,31,23Z"></path><path d="M21,22.5V28a1,1,0,0,1-1,1H15a1,1,0,0,1-1-1V22.5A3.5,3.5,0,0,1,17.5,19,3.5,3.5,0,0,1,21,22.5Z"></path><path d="M12,23v4a1,1,0,0,1-1,1H7a1,1,0,0,1-1-1V23a3,3,0,1,1,6,0Z"></path><path d="M41,23v6a1,1,0,0,1-1,1H34a1,1,0,0,1-1-1V23a4,4,0,0,1,8,0Z"></path><path d="M50,22.5V28a1,1,0,0,1-1,1H44a1,1,0,0,1-1-1V22.5A3.5,3.5,0,0,1,46.5,19,3.5,3.5,0,0,1,50,22.5Z"></path><path d="M58,23v4a1,1,0,0,1-1,1H53a1,1,0,0,1-1-1V23a3,3,0,0,1,6,0Z"></path><path d="M31,35v6a4,4,0,0,1-8,0V35a1,1,0,0,1,1-1h6A1,1,0,0,1,31,35Z"></path><path d="M21,35v5.5A3.5,3.5,0,0,1,17.5,44,3.5,3.5,0,0,1,14,40.5V35a1,1,0,0,1,1-1h5A1,1,0,0,1,21,35Z"></path><path d="M12,34v4a3,3,0,0,1-6,0V34a1,1,0,0,1,1-1h4A1,1,0,0,1,12,34Z"></path><path d="M41,35v6a4,4,0,0,1-6.83,2.84A4,4,0,0,1,33,41V35a1,1,0,0,1,1-1h6A1,1,0,0,1,41,35Z"></path><path d="M50,35v5.5A3.5,3.5,0,0,1,46.5,44,3.5,3.5,0,0,1,43,40.5V35a1,1,0,0,1,1-1h5A1,1,0,0,1,50,35Z"></path><path d="M58,34v4a3,3,0,1,1-6,0V34a1,1,0,0,1,1-1h4A1,1,0,0,1,58,34Z"></path><path d="M60,23.71V23a5,5,0,0,0-8.54-3.53,1.71,1.71,0,0,0-.22.25A5.49,5.49,0,0,0,46.5,17a5.39,5.39,0,0,0-3.88,1.61,5.71,5.71,0,0,0-.74.9,6,6,0,0,0-9.13-.75,6.47,6.47,0,0,0-.75.91,7.27,7.27,0,0,0-.76-.92,6,6,0,0,0-9.12.77,4.5,4.5,0,0,0-.73-.9A5.4,5.4,0,0,0,17.5,17a5.46,5.46,0,0,0-4.73,2.72l-.24-.26A5,5,0,0,0,4,23v.71a1.87,1.87,0,0,1-.85-1.58,1.51,1.51,0,0,1,0-.3A14,14,0,0,1,17,10H47A14,14,0,0,1,60.83,21.83,1.89,1.89,0,0,1,60,23.71Z"></path><path d="M60.84,40.18A15,15,0,0,1,46,53H18A15,15,0,0,1,3.16,40.18,1.89,1.89,0,0,1,4,38.29a5,5,0,0,0,8.16,3.57A5.5,5.5,0,0,0,17.5,46a5.39,5.39,0,0,0,3.88-1.61,5.48,5.48,0,0,0,.4-.44,6,6,0,0,0,9.47,1.29,6.47,6.47,0,0,0,.75-.91,7.27,7.27,0,0,0,.76.92A6,6,0,0,0,42.22,44a5.22,5.22,0,0,0,.39.43A5.4,5.4,0,0,0,46.5,46a5.5,5.5,0,0,0,5.32-4.14A5,5,0,0,0,60,38.29,1.87,1.87,0,0,1,60.84,40.18Z"></path></g></svg>