<svg xmlns="http://www.w3.org/2000/svg" viewBox="0 0 64 64 " fill="#023752"><title>implant</title><g id="implant"><path d="M52.93,14.51A12.81,12.81,0,0,0,41.56,3.05a12.32,12.32,0,0,0-5.24.65,12.94,12.94,0,0,1-8.64,0,12.32,12.32,0,0,0-5.24-.65A12.81,12.81,0,0,0,11.07,14.51a13.07,13.07,0,0,0,2.8,9.56c1.22,1.52,2.14,6.25,2.78,8.1a4.29,4.29,0,0,0,4,2.83H43.31a4.29,4.29,0,0,0,4-2.83c.64-1.85,1.56-6.58,2.78-8.1A13.07,13.07,0,0,0,52.93,14.51ZM41.76,8.05A20.58,20.58,0,0,1,32,10.72a20.58,20.58,0,0,1-9.76-2.67,1,1,0,1,1,1-1.7A18.93,18.93,0,0,0,32,8.72a18.93,18.93,0,0,0,8.72-2.37,1,1,0,1,1,1,1.7Z"></path><path d="M28.05,61H36l1.22-2.33-11-1.3C26.73,58.48,27.34,59.64,28.05,61Z"></path><path d="M43.09,40l-1.35-.12.2-2.88H22.06l.07,1.1-1-.1a1,1,0,0,0-.18,2l22,2H43a1,1,0,0,0,.09-2Z"></path><path d="M43.09,45l-1.69-.15.07-1L22.41,42.14l.07,1L21.09,43a1,1,0,0,0-.18,2l22,2H43a1,1,0,0,0,.09-2Z"></path><path d="M42.1,50l-1-.1.07-1.06L22.76,47.17l.06.91L22.1,48a1,1,0,0,0-.2,2l20,2H42a1,1,0,0,0,.1-2Z"></path><path d="M40.12,55l-1-.12.58-1.11L23.41,52.15l.49,1L23.12,53a1,1,0,0,0-.24,2l17,2H40a1,1,0,0,0,.12-2Z"></path></g></svg>