<?xml version="1.0" encoding="UTF-8"?>
<svg version="1.1" xmlns="http://www.w3.org/2000/svg" width="512" height="512">
<path d="M0 0 C4.18746634 0.59820948 4.88643093 1.26845528 7.5 4.5 C8.66570101 7.04104638 9.68078353 9.50130403 10.63671875 12.1171875 C11.21963535 13.62671485 11.80365498 15.13581663 12.38867188 16.64453125 C13.2915066 19.00556528 14.18524569 21.36888288 15.05932617 23.74072266 C18.9983475 35.50855877 18.9983475 35.50855877 28.04199696 43.31168556 C30.5 44.5 30.5 44.5 32.53178692 45.79120445 C40.59330056 50.6542992 48.81431924 50.18892578 57.89575195 50.11181641 C59.64279243 50.11536234 61.38982958 50.12114539 63.13685608 50.12898254 C66.88117703 50.14111195 70.62504139 50.13775335 74.36934853 50.12215042 C80.29032266 50.09775136 86.21090017 50.10936063 92.13188171 50.12582397 C102.55772475 50.15026537 112.98338566 50.14453263 123.40924072 50.13201904 C139.12231182 50.11339735 154.83534921 50.11826926 170.54839486 50.15205324 C176.43458661 50.16356715 182.32048816 50.15912962 188.20666373 50.14203286 C191.86378421 50.13414107 195.52081999 50.13838216 199.17793846 50.14574242 C200.8738753 50.14655321 202.56982365 50.14219576 204.26573181 50.13229942 C206.58021696 50.11944582 208.89396737 50.12494862 211.20845032 50.13491821 C212.50348638 50.13303308 213.79852243 50.13114796 215.13280201 50.1292057 C218.75074489 50.52761191 220.65224254 51.26379064 223.5 53.5 C224.3125 56.1875 224.3125 56.1875 224.5 58.5 C227.60579494 58.47720599 230.70790484 58.39992181 233.8125 58.3125 C234.69357422 58.30669922 235.57464844 58.30089844 236.48242188 58.29492188 C238.91990443 58.21150992 241.13147785 58.0865295 243.5 57.5 C245.43393742 55.16638434 245.43393742 55.16638434 246.5 52.5 C249.78785648 50.27806675 252.6656355 50.24202107 256.56616211 50.2253418 C257.79100815 50.21580978 259.01585419 50.20627777 260.27781677 50.19645691 C262.25758263 50.19782402 262.25758263 50.19782402 264.27734375 50.19921875 C265.64970529 50.19532973 267.02206564 50.19099463 268.39442444 50.18623352 C271.26844182 50.17877941 274.14233634 50.17905665 277.01635742 50.18432617 C280.69283511 50.19011974 284.36880883 50.17318923 288.04520321 50.1499815 C290.87885969 50.13522386 293.71239535 50.13437519 296.54608345 50.13749123 C298.55849043 50.1367306 300.57087871 50.12287404 302.58323669 50.10881042 C303.81123489 50.11503922 305.03923309 50.12126801 306.30444336 50.12768555 C307.38269882 50.12705612 308.46095428 50.1264267 309.57188416 50.1257782 C315.08292803 50.83010579 318.20461641 53.9556365 321.75 58 C322.53117187 58.89074219 323.31234375 59.78148437 324.1171875 60.69921875 C327.16875919 64.28606613 330.1540215 67.92195339 333.1171875 71.58203125 C335.70755848 74.75417407 338.34682867 77.88043294 341 81 C345.12124182 85.84939906 349.16991814 90.75161371 353.1875 95.6875 C355.76146392 98.81799666 358.37569086 101.91172461 361 105 C365.12101634 109.84959381 369.16991354 114.75160806 373.1875 119.6875 C375.76146468 122.81799759 378.37572994 125.91169048 381 129 C385.13445011 133.86654019 389.21871414 138.76778825 393.21875 143.74609375 C394.86758867 145.73655824 396.53008802 147.6402691 398.28125 149.53515625 C406.14306708 158.16570857 406.14306708 158.16570857 406.5625 163.3125 C406.00893016 167.70942614 403.73559101 169.93089762 400.48828125 172.76171875 C398.48782009 174.51064845 396.8351359 176.34446393 395.125 178.375 C392.44204705 181.46281296 389.70382135 184.48222472 386.875 187.4375 C386.16085937 188.18902344 385.44671875 188.94054687 384.7109375 189.71484375 C382.17640986 191.76127331 380.72905768 192.26651429 377.5 192.5 C376.66855469 192.25894531 375.83710938 192.01789063 374.98046875 191.76953125 C374.16191406 191.68058594 373.34335937 191.59164062 372.5 191.5 C369.98198352 193.43306193 369.98198352 193.43306193 367.8125 196.1875 C367.04550781 197.07824219 366.27851563 197.96898437 365.48828125 198.88671875 C363.81348085 201.087979 362.44280973 202.90998247 361.5 205.5 C361.9021875 207.0778125 361.9021875 207.0778125 362.3125 208.6875 C362.56151789 213.75086377 360.86128074 215.42446343 357.6640625 219.17578125 C354.74680638 222.30893539 351.7425084 225.33749179 348.6796875 228.328125 C346.13955575 230.85915233 343.80638052 233.51836147 341.47265625 236.23828125 C338.88532015 239.20475174 336.22623658 242.10217747 333.5625 245 C333.06508301 245.54116455 332.56766602 246.0823291 332.05517578 246.63989258 C330.8708304 247.92725155 329.68551944 249.21372212 328.5 250.5 C329.95019531 251.62921875 329.95019531 251.62921875 331.4296875 252.78125 C334.15006287 254.89951562 334.49406684 255.48154129 335.625 259 C335.46804433 263.39475881 334.59556249 264.42865944 331.5 267.5 C329.75390625 268.30761719 329.75390625 268.30761719 327.77734375 269.0078125 C321.45795625 271.28025491 316.27559911 273.52869818 312.71337891 279.48974609 C309.53213625 286.36771503 307.05039309 293.47653324 304.80761719 300.71020508 C303.23331456 304.06897209 301.61875985 305.52878081 298.5 307.5 C294.19394529 307.57554482 292.27417455 307.23342852 289.125 304.25 C287.53393533 301.55742902 286.85259093 299.58517061 286.5 296.5 C283.37068388 298.77586627 280.79759408 301.21632937 278.296875 304.14453125 C274.58146 308.43675311 270.71950077 312.56998241 266.8125 316.6875 C261.97257543 321.80851722 257.14528055 326.93899457 252.375 332.125 C248.10310688 336.7686778 243.80897268 341.39070142 239.5 346 C235.15119826 350.65256524 230.81486849 355.3159449 226.5 360 C221.59340861 365.3264067 216.65605861 370.62343075 211.7109375 375.9140625 C207.95970457 379.92969951 204.22313543 383.95830753 200.5 388 C195.59340861 393.3264067 190.65605861 398.62343075 185.7109375 403.9140625 C181.95970193 407.92970234 178.22349209 411.95863363 174.5 416 C173.03581884 417.58690011 171.57125545 419.17344609 170.10644531 420.75976562 C168.95420965 422.00796255 167.80258832 423.25672668 166.65136719 424.50585938 C164.72883944 426.58996846 162.802316 428.67031918 160.875 430.75 C160.27042969 431.40677734 159.66585938 432.06355469 159.04296875 432.74023438 C158.47964844 433.34673828 157.91632813 433.95324219 157.3359375 434.578125 C156.58642822 435.38878418 156.58642822 435.38878418 155.82177734 436.21582031 C153.9072379 438.07590111 152.50718174 438.49863205 149.875 439 C140.85699672 437.66399951 134.052288 426.80488606 128.15917969 420.31640625 C125.29964313 417.18589536 122.39802457 414.09483845 119.5 411 C114.65987233 405.82274243 109.84093808 400.62679374 105.0390625 395.4140625 C100.62769572 390.62924668 96.18575692 385.87333477 91.74169922 381.11889648 C85.96732325 374.93759059 80.22959404 368.72280085 74.5 362.5 C71.28378547 368.7278891 68.61348225 375.02829941 66.14453125 381.58398438 C63.42777313 388.46193084 63.42777313 388.46193084 59.5 390.5 C56.5625 391 56.5625 391 53.5 390.5 C46.76846581 385.57234098 45.11729475 377.16329586 42.51367188 369.58203125 C40.21736055 363.37280543 38.51443885 359.41609273 32.46899414 356.37451172 C31.81922607 356.08592285 31.16945801 355.79733398 30.5 355.5 C29.47132813 354.92894531 28.44265625 354.35789062 27.3828125 353.76953125 C25.52882863 352.79001852 23.67465888 351.81085754 21.8203125 350.83203125 C19.5 349.5 19.5 349.5 17.5 347.5 C16.86323155 341.86005089 16.86323155 341.86005089 17.5 339.5 C21.71451605 335.35800909 27.05936986 333.03823223 32.32421875 330.5 C36.08349077 328.76988261 36.08349077 328.76988261 38.27441406 325.47753906 C38.73276089 323.4333483 38.73276089 323.4333483 37.3125 321.859375 C36.714375 321.32828125 36.11625 320.7971875 35.5 320.25 C32.18984343 317.26494809 29.32142392 314.03199918 26.40917969 310.66748047 C23.89392829 307.81193035 21.27752531 305.06215863 18.65039062 302.30981445 C13.33299564 296.73795879 8.0327129 291.14405622 3 285.3125 C2.3090625 284.51457031 1.618125 283.71664063 0.90625 282.89453125 C-0.86605458 279.87669039 -0.83598801 277.9485436 -0.5 274.5 C-0.17 273.51 0.16 272.52 0.5 271.5 C-0.04269531 270.96890625 -0.58539063 270.4378125 -1.14453125 269.890625 C-1.85996094 269.18421875 -2.57539062 268.4778125 -3.3125 267.75 C-4.37404297 266.70585938 -4.37404297 266.70585938 -5.45703125 265.640625 C-7.5 263.5 -7.5 263.5 -8.98828125 261.19921875 C-9.73658203 260.35810547 -9.73658203 260.35810547 -10.5 259.5 C-12.59362131 259.50989427 -12.59362131 259.50989427 -14.875 260.0625 C-18.86121545 260.25509899 -20.87171008 259.4664535 -23.80078125 256.90234375 C-27.82652292 252.99717818 -31.50506787 248.79560579 -35.18139648 244.56518555 C-39.40949813 239.70677087 -43.75446794 234.98439247 -48.1875 230.3125 C-53.02742457 225.19148278 -57.85471945 220.06100543 -62.625 214.875 C-66.89689342 210.23132187 -71.19106797 205.60933688 -75.5 201 C-85.76357931 190.01774555 -85.76357931 190.01774555 -90.07519531 185.28222656 C-92.62450842 182.48881199 -95.21839373 179.770237 -97.9140625 177.1171875 C-98.47206543 176.55338379 -99.03006836 175.98958008 -99.60498047 175.40869141 C-100.6667276 174.33812001 -101.74560412 173.2841473 -102.84423828 172.25146484 C-105.65926908 169.37209048 -106.91038574 167.0133652 -107.19921875 163.0703125 C-106.85734358 157.69508702 -104.2096037 154.84844077 -100.5625 151.125 C-99.35684208 149.81884339 -98.15241976 148.51154521 -96.94921875 147.203125 C-96.3567334 146.57212891 -95.76424805 145.94113281 -95.15380859 145.29101562 C-92.95042578 142.90483075 -90.90757285 140.40738584 -88.875 137.875 C-85.63270852 133.87261089 -82.33606872 129.92404365 -79 126 C-75.62711398 122.03100848 -72.28823226 118.0398282 -69 114 C-65.71176388 109.96016705 -62.37273558 105.96912329 -59 102 C-54.87151309 97.14047892 -50.80729475 92.23409572 -46.78125 87.2890625 C-42.72421194 82.32891665 -38.60986355 77.4163921 -34.5 72.5 C-37.76263634 69.98352713 -41.14909536 67.86883443 -44.6953125 65.78125 C-46.5 64.5 -46.5 64.5 -48.5 61.5 C-48.16971985 55.33477053 -48.16971985 55.33477053 -46.24584961 52.93676758 C-44.19498016 51.24898031 -42.14396191 50.17150078 -39.75390625 49.01171875 C-38.83416016 48.55216797 -37.91441406 48.09261719 -36.96679688 47.61914062 C-35.03837286 46.6685456 -33.10607979 45.72575763 -31.16992188 44.79101562 C-30.24888672 44.32759766 -29.32785156 43.86417969 -28.37890625 43.38671875 C-27.5391626 42.97639404 -26.69941895 42.56606934 -25.83422852 42.14331055 C-20.772977 38.58015984 -18.76094607 33.10885078 -16.625 27.4921875 C-16.10953046 26.16270013 -15.59390071 24.83327487 -15.078125 23.50390625 C-14.28490717 21.43376518 -13.49520538 19.36235938 -12.70898438 17.28955078 C-11.93997119 15.2701756 -11.15815307 13.25611285 -10.375 11.2421875 C-9.91867188 10.0444873 -9.46234375 8.84678711 -8.9921875 7.61279297 C-6.7769837 2.99174446 -5.16353569 0.73764796 0 0 Z " fill="#010102" transform="translate(106.5,36.5)"/>
<path d="M0 0 C46.2 0 92.4 0 140 0 C138.66853095 6.65734526 137.2493368 12.93740985 135.25 19.375 C134.70688657 21.15360166 134.16392157 22.93224865 133.62109375 24.7109375 C133.21093018 26.04656738 133.21093018 26.04656738 132.79248047 27.40917969 C131.84544571 30.50527729 130.91908276 33.60723457 129.99487305 36.71020508 C127.81091194 44.03878155 125.58904961 51.35558712 123.3515625 58.66796875 C123.11372543 59.44536407 122.87588837 60.2227594 122.63084412 61.02371216 C121.43749555 64.92318689 120.24277408 68.82223461 119.04614258 72.72070312 C116.82518535 79.96513483 114.63102725 87.21569552 112.50390625 94.48828125 C109.68992447 104.10899755 106.74672859 113.68909172 103.80224609 123.27050781 C101.32533646 131.33478403 98.86796209 139.40297636 96.5 147.5 C93.68755688 157.11688473 90.74552135 166.69302011 87.80224609 176.27050781 C85.0728567 185.15680293 82.38137382 194.05188163 79.76997375 202.97361755 C77.95148399 209.18293151 76.07999462 215.37533768 74.1875 221.5625 C73.87619141 222.58279297 73.56488281 223.60308594 73.24414062 224.65429688 C72.49685393 227.10309789 71.7488144 229.5516658 71 232 C70.34 232 69.68 232 69 232 C68.57161458 230.59244792 68.14322917 229.18489583 67.71484375 227.77734375 C67.43527832 226.85880615 67.15571289 225.94026855 66.86767578 224.99389648 C66.23706454 222.92181717 65.60653321 220.84971353 64.97607422 218.77758789 C63.4168466 213.65325531 61.85678309 208.52918486 60.29296875 203.40625 C56.80242418 191.96541899 53.34924578 180.51375795 49.9175415 169.05514526 C47.46418906 160.86420514 44.99653238 152.67789346 42.5 144.5 C39.60808909 135.02696473 36.7584705 125.54147563 33.91699219 116.05322266 C31.46381959 107.86292457 28.99633773 99.67725583 26.5 91.5 C23.60870981 82.02899801 20.75895765 72.54575862 17.91900635 63.05926514 C15.42835259 54.74036075 12.915194 46.42889636 10.375 38.125 C7.89992307 30.01108357 5.46127073 21.8868155 3.0625 13.75 C2.75554199 12.71891113 2.44858398 11.68782227 2.13232422 10.62548828 C1.85275879 9.6714209 1.57319336 8.71735352 1.28515625 7.734375 C1.03644775 6.89100586 0.78773926 6.04763672 0.53149414 5.17871094 C0 3 0 3 0 0 Z " fill="#74CDF8" transform="translate(186,207)"/>
<path d="M0 0 C47.85 0 95.7 0 145 0 C152.49065421 23.54205607 152.49065421 23.54205607 155.62109375 34.328125 C157.65663883 41.28509028 159.82135727 48.20343608 161.97045898 55.12597656 C163.8299822 61.13316139 165.64063971 67.15221012 167.40625 73.1875 C170.02863884 82.148381 172.75734057 91.07532096 175.5 100 C178.42586323 109.52082856 181.3206752 119.04800382 184.11645508 128.60791016 C186.5061189 136.76043793 189.00444172 144.879394 191.5 153 C194.19530532 161.77058765 196.87812893 170.5424979 199.4453125 179.3515625 C201.27385466 185.61984346 203.18967376 191.85717179 205.1484375 198.0859375 C205.68362904 199.79425978 206.21878526 201.50259312 206.75390625 203.2109375 C207.57268088 205.82366771 208.39418785 208.43540252 209.22314453 211.04492188 C210.03960802 213.61864929 210.8450013 216.19561856 211.6484375 218.7734375 C211.90039886 219.55770111 212.15236023 220.34196472 212.41195679 221.1499939 C214.11373199 226.65880404 214.11373199 226.65880404 213 230 C211.64242826 228.6701338 210.28916504 227.33586929 208.9375 226 C208.18339844 225.2575 207.42929688 224.515 206.65234375 223.75 C203.95215605 220.9503945 201.41140382 218.05143863 198.86303711 215.11474609 C195.76595352 211.59922545 192.53667878 208.21109768 189.3125 204.8125 C187.91242561 203.32844079 186.51268983 201.84406206 185.11328125 200.359375 C183.10838748 198.23395311 181.10306543 196.10895715 179.09521484 193.98632812 C177.39192486 192.18289891 175.69511568 190.37360954 174 188.5625 C173.23490112 187.75679565 173.23490112 187.75679565 172.4543457 186.93481445 C169 183.22840634 169 183.22840634 169 181 C169.969375 180.443125 170.93875 179.88625 171.9375 179.3125 C175.28609193 177.23447529 175.28609193 177.23447529 176.1875 173.5 C176.39327854 169.93388679 176.39327854 169.93388679 173.9609375 168.015625 C170.0029126 165.32124393 165.80109932 163.31281103 161.43945312 161.3515625 C156.00526844 158.66450836 154.14648501 155.56381314 152 150 C151.67443115 149.1848291 151.3488623 148.3696582 151.01342773 147.52978516 C149.6381114 144.0277149 148.30458788 140.51143401 147 136.98242188 C146.67 136.12583984 146.34 135.26925781 146 134.38671875 C145.566875 133.22982544 145.566875 133.22982544 145.125 132.04956055 C143.76338702 129.56893099 142.42608488 128.43461187 140 127 C136.57893371 127.06981768 134.74337579 127.28317335 132.25 129.6875 C130.7945431 132.38009526 129.86606528 135.06870213 129 138 C125.68110468 136.89370156 124.9804266 136.0827837 122.8046875 133.4609375 C119.0528449 129.0394747 115.11781502 124.82857098 111.125 120.625 C105.85414225 115.05854602 100.6500828 109.45723748 95.6015625 103.6875 C93.34604292 101.31095254 92.37667894 101.01602889 89.0625 100.875 C85.95801915 100.85995188 85.95801915 100.85995188 83 102 C73.40546697 92.77448747 73.40546697 92.77448747 70 87 C70.33 86.34 70.66 85.68 71 85 C71.53474627 81.65783579 71.74017894 79.15589588 69.859375 76.21875 C67.98020801 74.06591791 66.00369006 72.03770856 64 70 C62.64011619 68.52361211 61.28056097 67.04690706 59.92675781 65.56494141 C54.40307394 59.52873212 48.79953821 53.56526196 43.21264648 47.58764648 C38.9700414 43.04629105 34.74973793 38.48500963 30.5390625 33.9140625 C26.70948364 29.76028648 22.85765396 25.62770029 19 21.5 C17.24939148 19.62493834 15.49909297 17.74958816 13.74902344 15.87402344 C12.57045108 14.61122034 11.39140468 13.34885952 10.21191406 12.08691406 C8.51375862 10.26860168 6.8189559 8.44722419 5.125 6.625 C4.60679688 6.07134766 4.08859375 5.51769531 3.5546875 4.94726562 C0 1.11425781 0 1.11425781 0 0 Z " fill="#AFE2F7" transform="translate(25,207)"/>
<path d="M0 0 C47.85 0 95.7 0 145 0 C143.02 2.31 141.04 4.62 139 7 C136.96446569 10.05330147 136.75870404 10.58865171 136.875 14 C136.89304687 14.680625 136.91109375 15.36125 136.9296875 16.0625 C136.95289063 16.701875 136.97609375 17.34125 137 18 C137 22.07907331 135.43302134 23.05743168 132.6875 26 C131.88699219 26.86625 131.08648437 27.7325 130.26171875 28.625 C129.51535156 29.40875 128.76898438 30.1925 128 31 C127.49597656 31.61230469 126.99195313 32.22460938 126.47265625 32.85546875 C125 34 125 34 122.984375 33.86328125 C122.24703125 33.68152344 121.5096875 33.49976563 120.75 33.3125 C118.03618223 32.91728382 116.56156841 32.71112736 114.1015625 33.9765625 C112.24628297 35.54641441 110.62197152 37.19014053 109 39 C108.50628906 39.5465625 108.01257813 40.093125 107.50390625 40.65625 C106.39377326 41.91864562 105.29599564 43.19195547 104.20703125 44.47265625 C100.66954695 48.52354535 96.96482244 52.41746207 93.28198242 56.3359375 C88.9797786 60.92249398 84.78635085 65.58344779 80.671875 70.33984375 C79 72 79 72 77 72 C76.68248779 71.22285645 76.36497559 70.44571289 76.0378418 69.64501953 C74.85429352 66.7607277 73.66252539 63.88001514 72.46508789 61.00146484 C71.94874764 59.75543937 71.43569667 58.50804551 70.92602539 57.25927734 C70.19244757 55.4635474 69.44599382 53.67309445 68.69921875 51.8828125 C68.25408936 50.80402832 67.80895996 49.72524414 67.3503418 48.61376953 C66.1321588 45.7380993 66.1321588 45.7380993 63 44 C60.04279372 43.33319632 60.04279372 43.33319632 57 44 C52.23571522 49.82409507 50.06676297 57.06950877 47.44335938 64.03320312 C43.95554558 72.93710212 39.67029404 77.03174095 31.25 81.25 C26.8424236 83.2354493 26.8424236 83.2354493 23 86 C22.49929679 89.37357334 22.49929679 89.37357334 23 93 C27.23709228 97.12345379 32.53253654 99.42571632 37.82421875 101.91210938 C40.78889981 103.40032056 42.70492653 104.43535323 44.265625 107.421875 C43.86292223 111.33046073 41.85040813 112.69330849 39 115.3125 C35.02008805 119.01663 31.37485857 122.79014132 27.82568359 126.90942383 C24.75315139 130.4277567 21.52724336 133.79954001 18.3125 137.1875 C13.47257543 142.30851722 8.64528055 147.43899457 3.875 152.625 C-0.39689312 157.2686778 -4.69102732 161.89070142 -9 166.5 C-13.34880174 171.15256524 -17.68513151 175.8159449 -22 180.5 C-26.90659139 185.8264067 -31.84394139 191.12343075 -36.7890625 196.4140625 C-41.02212779 200.94549363 -45.23330573 205.49646992 -49.43457031 210.05737305 C-55.59081782 216.73489905 -61.79710476 223.36583837 -68 230 C-69.37230155 225.88309536 -67.99559323 222.96213502 -66.71875 218.984375 C-66.46998611 218.18545334 -66.22122223 217.38653168 -65.96492004 216.56340027 C-65.15126597 213.95635725 -64.32558992 211.35328509 -63.5 208.75 C-62.93681461 206.95154407 -62.3745616 205.15279591 -61.81323242 203.35375977 C-60.70783055 199.81359605 -59.59861323 196.27466978 -58.48583984 192.73681641 C-56.7294281 187.14670225 -55.01134557 181.54536001 -53.3125 175.9375 C-52.91708008 174.6366748 -52.91708008 174.6366748 -52.51367188 173.30957031 C-49.95973549 164.89642152 -47.43886091 156.47330839 -44.91616821 148.05075073 C-42.18943411 138.94697949 -39.43880805 129.85095534 -36.6640625 120.76171875 C-34.25136917 112.84852733 -31.87334368 104.92505966 -29.5 97 C-26.57905591 87.24639522 -23.63684317 77.49965917 -20.6640625 67.76171875 C-18.25136883 59.8485262 -15.87353675 51.92500249 -13.5 44 C-10.70261974 34.66205923 -7.89687433 25.32678734 -5.0625 16 C-4.63904297 14.60394531 -4.63904297 14.60394531 -4.20703125 13.1796875 C-3.9440625 12.31601563 -3.68109375 11.45234375 -3.41015625 10.5625 C-3.18465088 9.82128906 -2.95914551 9.08007812 -2.72680664 8.31640625 C-1.85342904 5.53286352 -0.92254532 2.76763595 0 0 Z " fill="#6ABCF4" transform="translate(342,207)"/>
<path d="M0 0 C3.70016395 1.23338798 4.54703034 2.63820444 6.9375 5.6875 C10.54078891 10.2047939 14.22111886 14.6286824 18 19 C22.32019064 24.01239838 26.55099728 29.08540533 30.72265625 34.22265625 C33.28204054 37.34396367 35.88593791 40.4245003 38.5 43.5 C42.61871109 48.34675531 46.66600931 53.24530894 50.6796875 58.1796875 C53.29429248 61.35770904 55.95663571 64.4921578 58.625 67.625 C71 82.18180042 71 82.18180042 71 84 C26.12 84 -18.76 84 -65 84 C-55.74839022 71.66452029 -46.2875297 59.49612438 -36.81445312 47.33056641 C-33.87486662 43.55482734 -30.9375226 39.77734485 -28 36 C-26.8424592 34.51170997 -25.68490708 33.02342875 -24.52734375 31.53515625 C-23.66278564 30.42358154 -23.66278564 30.42358154 -22.78076172 29.28955078 C-15.18717448 19.52636719 -7.59358724 9.76318359 0 0 Z " fill="#74CCF7" transform="translate(417,108)"/>
<path d="M0 0 C6.6 0 13.2 0 20 0 C20.99 1.98 21.98 3.96 23 6 C25.3511843 7.17559215 26.82717914 7.15516463 29.44970703 7.20532227 C30.37051056 7.22526749 31.29131409 7.24521271 32.24002075 7.26576233 C33.23589203 7.28247482 34.23176331 7.29918732 35.2578125 7.31640625 C36.78509476 7.3475779 36.78509476 7.3475779 38.3432312 7.37937927 C41.60375055 7.44489466 44.86435206 7.50376902 48.125 7.5625 C50.33203983 7.60568332 52.53907128 7.64929755 54.74609375 7.69335938 C60.16397501 7.80057805 65.58193846 7.90234074 71 8 C70.06472851 9.4218525 69.12688316 10.84201213 68.18798828 12.26147461 C67.66600861 13.05251083 67.14402893 13.84354706 66.60623169 14.65855408 C64.22577374 18.12860986 61.57235927 21.33688192 58.875 24.5625 C54.42004289 29.96382377 50.10551093 35.43678644 45.9375 41.0625 C41.53483773 47.00087351 37.00173922 52.81034336 32.36132812 58.56445312 C29.16921967 62.5263492 26.02966414 66.52217076 22.9375 70.5625 C22.14085937 71.59890625 21.34421875 72.6353125 20.5234375 73.703125 C19.19167489 75.43854835 17.86575767 77.17784627 16.54785156 78.92382812 C15.06084221 80.89303275 13.56242565 82.85312423 12.0625 84.8125 C11.60157959 85.4300415 11.14065918 86.04758301 10.66577148 86.68383789 C9.51367827 88.1790624 8.2635474 89.59769366 7 91 C6.01 91 5.02 91 4 91 C2.0371168 88.66756163 0.26339061 86.35207695 -1.5 83.875 C-2.58455271 82.38961291 -3.67051645 80.90525516 -4.7578125 79.421875 C-5.3034082 78.67357422 -5.84900391 77.92527344 -6.41113281 77.15429688 C-8.66878993 74.09320799 -11.0111918 71.10444267 -13.375 68.125 C-14.28276743 66.97673271 -15.19031419 65.82829094 -16.09765625 64.6796875 C-16.56445801 64.08897461 -17.03125977 63.49826172 -17.51220703 62.88964844 C-20.89323674 58.59539673 -24.24008232 54.27439073 -27.59277344 49.95800781 C-30.58452435 46.10635245 -33.57888478 42.25684244 -36.58203125 38.4140625 C-42.40121212 30.96305206 -48.18580545 23.48842677 -53.875 15.9375 C-54.65254639 14.90955322 -54.65254639 14.90955322 -55.44580078 13.86083984 C-59 9.11987263 -59 9.11987263 -59 8 C-58.33236633 7.99635437 -57.66473267 7.99270874 -56.97686768 7.98895264 C-50.03370236 7.9471717 -43.0912008 7.87785674 -36.1484375 7.79248047 C-33.55670812 7.76423893 -30.96489211 7.74304035 -28.37304688 7.72900391 C-24.64928729 7.70761938 -20.92657299 7.66098914 -17.203125 7.609375 C-16.04258606 7.60814636 -14.88204712 7.60691772 -13.68634033 7.60565186 C-12.60552185 7.58593323 -11.52470337 7.5662146 -10.41113281 7.54589844 C-8.98550018 7.53257477 -8.98550018 7.53257477 -7.53106689 7.51898193 C-4.25075863 6.846372 -3.0685735 5.58331888 -1 3 C-0.67 2.01 -0.34 1.02 0 0 Z " fill="#B0E2F7" transform="translate(331,95)"/>
<path d="M0 0 C0.66 0 1.32 0 2 0 C3.48443685 1.73593235 4.88462191 3.5439466 6.25 5.375 C7.15551591 6.57737611 8.06180913 7.77916711 8.96875 8.98046875 C9.70158203 9.9557251 9.70158203 9.9557251 10.44921875 10.95068359 C13.17919509 14.55827512 15.96732581 18.12050501 18.75 21.6875 C19.95324217 23.2329817 21.15636576 24.77855573 22.359375 26.32421875 C22.96201172 27.09813965 23.56464844 27.87206055 24.18554688 28.66943359 C27.70562453 33.19078199 31.22266224 37.71449524 34.74023438 42.23779297 C37.70599212 46.05126591 40.67255251 49.86410954 43.640625 53.67578125 C46.55873578 57.42348942 49.47351208 61.17377185 52.38671875 64.92529297 C53.93178768 66.9122778 55.48118161 68.89582073 57.03125 70.87890625 C57.93766667 72.0441412 58.84392725 73.2094976 59.75 74.375 C60.52859375 75.37273437 61.3071875 76.37046875 62.109375 77.3984375 C64 80 64 80 66 84 C23.1 84 -19.8 84 -64 84 C-61.69568519 80.15947531 -59.41929574 76.82480881 -56.6875 73.3125 C-56.04216309 72.48045044 -56.04216309 72.48045044 -55.38378906 71.6315918 C-53.92514553 69.75234363 -52.46253821 67.87621828 -51 66 C-49.90731465 64.59393448 -48.81487528 63.18767778 -47.72265625 61.78125 C-44.75579692 57.96237387 -41.78556169 54.14613711 -38.81445312 50.33056641 C-35.29500699 45.81002916 -31.77828803 41.2873695 -28.26196289 36.7644043 C-25.28587531 32.93681456 -22.30727389 29.11122524 -19.32421875 25.2890625 C-18.11192512 23.73441715 -16.89968478 22.17973023 -15.6875 20.625 C-15.10581055 19.88008301 -14.52412109 19.13516602 -13.92480469 18.36767578 C-11.30780586 15.00712646 -8.71325982 11.63582449 -6.19140625 8.203125 C-5.7735083 7.63513184 -5.35561035 7.06713867 -4.92504883 6.48193359 C-3.83415449 4.99008516 -2.75261446 3.49140878 -1.671875 1.9921875 C-1.12015625 1.33476563 -0.5684375 0.67734375 0 0 Z " fill="#8FD6F7" transform="translate(255,108)"/>
<path d="M0 0 C2.06505643 0.01308407 4.13013486 0.02303493 6.19522095 0.03001404 C11.58465419 0.05651856 16.97272999 0.12508581 22.3616333 0.20294189 C27.87892299 0.27503467 33.3964358 0.30662321 38.9140625 0.34179688 C49.70631988 0.41647654 60.49757755 0.53567264 71.2890625 0.68359375 C68.73217738 5.24616113 66.24302236 9.15479652 62.7890625 13.12109375 C58.80283892 17.7781696 55.06172297 22.56990866 51.4140625 27.49609375 C46.94956348 33.51677315 42.3576128 39.41012113 37.65332031 45.24487305 C33.18894149 50.78728957 28.84365407 56.41270003 24.52441406 62.06884766 C22.80149605 64.32089898 21.06936954 66.56580766 19.33789062 68.8112793 C15.28183504 74.07271531 11.25841621 79.35630324 7.2890625 84.68359375 C-1.09299429 76.47893499 -8.13149223 67.22384395 -15.10327148 57.82568359 C-18.58959886 53.13903569 -22.1700669 48.54347259 -25.8359375 43.99609375 C-29.68848768 39.21389962 -33.51606463 34.41611088 -37.2734375 29.55859375 C-38.05847656 28.54539063 -38.84351563 27.5321875 -39.65234375 26.48828125 C-41.52678005 23.93449518 -43.28992781 21.51607616 -44.7109375 18.68359375 C-42.47566083 11.53070841 -35.94890728 7.45683764 -29.69287109 3.91381836 C-20.26611825 -0.92221844 -10.33624521 -0.19423798 0 0 Z " fill="#B0E2F7" transform="translate(168.7109375,102.31640625)"/>
<path d="M0 0 C3.16109608 1.58054804 3.46575927 4.28271588 4.71484375 7.51953125 C4.97125137 8.17451096 5.227659 8.82949066 5.49183655 9.50431824 C6.31366603 11.60454219 7.12651405 13.70806711 7.9375 15.8125 C9.00196452 18.57185854 10.07481368 21.32775299 11.15234375 24.08203125 C11.62663818 25.31155518 12.10093262 26.5410791 12.58959961 27.80786133 C13.83601123 30.6288466 14.87533063 32.77880078 17 35 C20.45704496 35.83345815 20.45704496 35.83345815 24 35 C27.36228179 31.17073463 29.12515345 26.68711636 31 22 C35.05216282 23.54018858 36.83355678 26.06514841 39.375 29.5 C40.26219451 30.68421327 41.15026485 31.86777073 42.0390625 33.05078125 C42.51504883 33.68838379 42.99103516 34.32598633 43.48144531 34.98291016 C46.19347808 38.58529194 48.97573033 42.13297904 51.75 45.6875 C52.93630148 47.21215901 54.12249784 48.73689982 55.30859375 50.26171875 C57.85949635 53.53812625 60.41496794 56.81091875 62.97265625 60.08203125 C63.61557617 60.90550049 64.25849609 61.72896973 64.92089844 62.57739258 C66.1609895 64.16559904 67.40247731 65.75271612 68.64550781 67.33862305 C69.20206055 68.05187744 69.75861328 68.76513184 70.33203125 69.5 C71.07030151 70.44359375 71.07030151 70.44359375 71.82348633 71.40625 C73 73 73 73 74 75 C29.12 75 -15.76 75 -62 75 C-57.50385126 68.25577689 -57.50385126 68.25577689 -55.30078125 65.73828125 C-54.81859131 65.18261475 -54.33640137 64.62694824 -53.83959961 64.05444336 C-53.33565674 63.47960205 -52.83171387 62.90476074 -52.3125 62.3125 C-51.23599824 61.07116249 -50.16048591 59.82896629 -49.0859375 58.5859375 C-48.55967773 57.97717773 -48.03341797 57.36841797 -47.49121094 56.74121094 C-44.69063826 53.47112509 -41.99117022 50.11932535 -39.27734375 46.77734375 C-36.71795946 43.65603633 -34.11406209 40.5754997 -31.5 37.5 C-28.12716411 33.53096457 -24.78823355 29.53982979 -21.5 25.5 C-14.4792208 16.87843272 -7.25172024 8.42767488 0 0 Z " fill="#E2F3FC" transform="translate(86,117)"/>
<path d="M0 0 C3.17393226 1.58696613 3.54561976 4.88268599 4.6875 8.0625 C8.46627788 17.96864683 13.60460483 23.92404625 23 29 C21.11761796 30.97677878 19.54330673 32.2841647 17.1875 33.75 C8.1854081 40.10441781 5.01812993 49.09733068 1 59 C-1.81214877 55.66677661 -3.18764537 52.23821158 -4.75 48.1875 C-8.66306259 38.6449465 -13.66148636 34.09583932 -23 30 C-21.03378198 28.51110439 -19.0635883 27.0439935 -17.03515625 25.640625 C-8.5585857 19.66506239 -5.5106028 13.40604195 -2.015625 3.6953125 C-1 1 -1 1 0 0 Z " fill="#F9DB7A" transform="translate(106,66)"/>
<path d="M0 0 C0.66 0 1.32 0 2 0 C2.37511719 0.81984375 2.75023437 1.6396875 3.13671875 2.484375 C3.64847656 3.56203125 4.16023438 4.6396875 4.6875 5.75 C5.18636719 6.81734375 5.68523437 7.8846875 6.19921875 8.984375 C8.46538819 12.77934856 11.05990324 15.02995162 15 17 C15 17.66 15 18.32 15 19 C14.113125 19.53625 13.22625 20.0725 12.3125 20.625 C6.90473877 24.03840957 4.03123175 30.09096217 2 36 C1.34 36 0.68 36 0 36 C-0.23074219 35.41992188 -0.46148437 34.83984375 -0.69921875 34.2421875 C-3.16360127 28.33935823 -5.61219419 23.01437102 -11.3125 19.625 C-12.1478125 19.315625 -12.1478125 19.315625 -13 19 C-13 18.34 -13 17.68 -13 17 C-11.63875 16.1028125 -11.63875 16.1028125 -10.25 15.1875 C-4.23350526 11.13793623 -2.25474729 6.65150449 0 0 Z " fill="#F6D879" transform="translate(162,362)"/>
<path d="M0 0 C2.18325241 2.18325241 2.94184214 3.94408126 4.1875 6.75 C6.67059382 11.87974472 9.45849732 14.61613526 14 18 C12.948125 18.9590625 12.948125 18.9590625 11.875 19.9375 C7.02151362 24.79098638 3.38349115 30.58377739 1 37 C-1.19978339 34.80021661 -2.02870474 32.94349514 -3.3125 30.125 C-5.32474644 25.99959802 -7.103144 23.56372105 -11 21 C-12.0173873 20.01769502 -13.02596117 19.02530403 -14 18 C-13.0925 17.443125 -12.185 16.88625 -11.25 16.3125 C-5.15954565 11.97890749 -2.75926171 6.7367081 0 0 Z " fill="#F8DA79" transform="translate(402,278)"/>
</svg>
