<?xml version="1.0" encoding="UTF-8"?>
<svg version="1.1" xmlns="http://www.w3.org/2000/svg" width="512" height="512">
<path d="M0 0 C3.84670629 3.42599023 7.58605169 6.95809379 11.30419922 10.52246094 C12.25166016 11.41707031 13.19912109 12.31167969 14.17529297 13.23339844 C21.31220354 20.13747362 27.37255037 27.59257701 33.30419922 35.52246094 C33.73087891 36.08304199 34.15755859 36.64362305 34.59716797 37.22119141 C41.85143798 46.7772971 47.78392491 56.88019087 53.30419922 67.52246094 C53.69494629 68.27124512 54.08569336 69.0200293 54.48828125 69.79150391 C70.19067378 100.26719229 77.70308246 133.74565944 77.61987305 167.91699219 C77.61666245 170.67909496 77.64045831 173.44017325 77.66552734 176.20214844 C77.6677964 177.97818877 77.66850567 179.75423195 77.66748047 181.53027344 C77.67669022 182.34593781 77.68589996 183.16160217 77.69538879 184.00198364 C77.65009129 189.59258198 76.73357735 193.91999734 72.76904297 198.16699219 C67.87715523 201.90784752 65.23316859 202.67607243 59.19580078 202.69946289 C58.46387512 202.70603409 57.73194946 202.71260529 56.97784424 202.71937561 C54.55016989 202.73912158 52.12255749 202.75077508 49.69482422 202.76074219 C48.86567253 202.76481771 48.03652084 202.76889324 47.18224335 202.77309227 C42.79223377 202.79396023 38.4022555 202.80825783 34.01220703 202.81762695 C29.48153988 202.8286828 24.95136503 202.86307078 20.42087173 202.90279865 C16.93437804 202.92897047 13.44800143 202.93731936 9.96141815 202.94090843 C8.2916914 202.94577428 6.62196988 202.9573883 4.95233917 202.97594643 C2.61122415 203.00034704 0.27137957 202.99937159 -2.06982422 202.99243164 C-3.09873779 203.01164673 -3.09873779 203.01164673 -4.1484375 203.03125 C-9.10405457 202.97788598 -11.85716005 201.57661947 -15.69580078 198.52246094 C-20.90990856 193.04589806 -20.35705108 186.79584574 -20.44580078 179.64746094 C-20.49027344 177.89949219 -20.49027344 177.89949219 -20.53564453 176.11621094 C-20.60608679 173.25155898 -20.65891191 170.38770889 -20.69580078 167.52246094 C-21.20796143 168.55463745 -21.20796143 168.55463745 -21.73046875 169.60766602 C-33.20084254 192.7001991 -33.20084254 192.7001991 -39.19580078 204.02246094 C-39.60080811 204.79066162 -40.00581543 205.5588623 -40.4230957 206.3503418 C-42.08058067 209.4902375 -43.7495975 212.62051172 -45.45751953 215.73339844 C-45.92802734 216.61253906 -46.39853516 217.49167969 -46.88330078 218.39746094 C-47.26873047 219.09613281 -47.65416016 219.79480469 -48.05126953 220.51464844 C-49.54631831 225.17195189 -47.0000251 229.21062911 -44.94580078 233.33496094 C-31.98545953 260.84453144 -30.11572385 292.81475998 -40.41845703 321.53710938 C-51.28162119 350.0460917 -72.81999092 373.29138549 -100.63330078 385.89746094 C-127.74048145 397.73865094 -160.48089405 398.47583233 -188.05200195 387.83764648 C-216.50536659 376.2227008 -238.76267053 354.47184641 -251.06347656 326.3125 C-260.17118415 304.33489737 -262.7590652 275.47807031 -255.69580078 252.52246094 C-255.50244141 251.86600586 -255.30908203 251.20955078 -255.10986328 250.53320312 C-246.30027006 221.12710723 -226.66857344 197.54225803 -199.92944336 182.64941406 C-190.58157174 177.67934893 -180.63571771 174.24292482 -170.25830078 172.20996094 C-165.78074449 171.15709443 -163.2656858 169.62651409 -159.92298889 166.48374939 C-158.62195315 165.26730649 -158.62195315 165.26730649 -157.29463387 164.02628899 C-153.32661737 160.2033305 -149.38948468 156.35556898 -145.49829102 152.4543457 C-144.64012283 151.59792984 -143.78195465 150.74151398 -142.89778137 149.85914612 C-140.57832591 147.54329959 -138.26108481 145.22526799 -135.94503284 142.9060185 C-133.51003573 140.46846408 -131.07257088 138.03337917 -128.63551331 135.59788513 C-124.55477298 131.51895399 -120.47612362 127.43794099 -116.39868164 123.35571289 C-111.68454718 118.63610893 -106.96678177 113.92015744 -102.24717182 109.20602947 C-98.18230308 105.14569288 -94.1193787 101.08341842 -90.05808598 97.01950496 C-87.63746398 94.5973245 -85.21617243 92.17582372 -82.79311943 89.75607491 C-80.10257869 87.06806051 -77.4152416 84.3768846 -74.72875977 81.68481445 C-73.9252005 80.88327942 -73.12164124 80.08174438 -72.29373169 79.25592041 C-71.56636307 78.52573196 -70.83899445 77.79554352 -70.08958435 77.04322815 C-69.45455207 76.40781884 -68.81951979 75.77240953 -68.1652441 75.1177454 C-66.6049724 73.57167112 -66.6049724 73.57167112 -65.69580078 71.52246094 C-66.21529297 71.28914063 -66.73478516 71.05582031 -67.27001953 70.81542969 C-69.85681498 69.43663855 -72.21465273 67.82229863 -74.61645508 66.14648438 C-102.20717189 47.01919947 -135.66639093 40.23158164 -168.69580078 45.52246094 C-192.06891751 49.96344403 -212.75492119 59.96554831 -230.69580078 75.52246094 C-231.77749506 76.37870231 -232.86052601 77.23326236 -233.94580078 78.08496094 C-246.57732804 89.28108737 -255.9800215 104.17478668 -262.69580078 119.52246094 C-262.97794434 120.1626416 -263.26008789 120.80282227 -263.55078125 121.46240234 C-269.57281998 135.44048754 -272.70639309 149.5239747 -272.94970703 164.74511719 C-272.97068199 165.97454292 -272.97068199 165.97454292 -272.99208069 167.22880554 C-273.05247723 171.38025288 -273.06598236 175.52590115 -273.01733398 179.67749023 C-272.98293033 193.62821884 -272.98293033 193.62821884 -278.01464844 199.20117188 C-282.18928067 202.48219273 -285.83105989 202.8198505 -291.03125 202.81298828 C-291.76346771 202.81970551 -292.49568542 202.82642273 -293.25009155 202.83334351 C-295.66695979 202.85231719 -298.08355023 202.85624736 -300.50048828 202.85839844 C-302.1843375 202.86482688 -303.8681856 202.87155527 -305.55203247 202.87857056 C-309.08093861 202.89054178 -312.60974687 202.89425155 -316.13867188 202.89306641 C-320.65362505 202.89286324 -325.1679486 202.92016324 -329.68275261 202.95461082 C-333.16068385 202.9768831 -336.63846365 202.98090385 -340.11645889 202.97984695 C-341.78059178 202.9822025 -343.44472887 202.99102349 -345.10879135 203.00651169 C-347.44015945 203.02617885 -349.77017107 203.02033192 -352.1015625 203.00830078 C-352.78436279 203.01953979 -353.46716309 203.03077881 -354.1706543 203.0423584 C-359.11204583 202.97778379 -361.87121966 201.57335641 -365.69580078 198.52246094 C-370.51596644 193.18119629 -370.86111261 189.00685863 -370.89892578 182.03417969 C-370.90598541 181.18776917 -370.91304504 180.34135864 -370.9203186 179.46929932 C-371.15089147 143.61542345 -371.15089147 143.61542345 -367.69580078 127.52246094 C-367.49180664 126.56178711 -367.2878125 125.60111328 -367.07763672 124.61132812 C-358.95051 87.47733867 -342.57470991 53.32609539 -317.69580078 24.52246094 C-316.91591797 23.61238281 -316.13603516 22.70230469 -315.33251953 21.76464844 C-313.16663802 19.30179962 -310.95235384 16.90250695 -308.69580078 14.52246094 C-308.2273877 14.02681641 -307.75897461 13.53117187 -307.27636719 13.02050781 C-275.49791672 -20.37070155 -233.4537762 -41.12247932 -188.69580078 -50.47753906 C-187.8757959 -50.65833008 -187.05579102 -50.83912109 -186.2109375 -51.02539062 C-121.45846202 -64.85281375 -49.28793088 -42.9442208 0 0 Z " fill="#2C2E43" transform="translate(402.69580078125,85.4775390625)"/>
<path d="M0 0 C0.80953125 0.65613281 1.6190625 1.31226563 2.453125 1.98828125 C3.15953125 2.53097656 3.8659375 3.07367188 4.59375 3.6328125 C19.36720206 15.5853495 29.21035915 35.29212114 31.453125 53.98828125 C33.0085324 76.50579453 27.84504747 97.23164606 13.453125 114.98828125 C12.91042969 115.6946875 12.36773437 116.40109375 11.80859375 117.12890625 C0.1410708 131.55007817 -16.87004838 139.06946152 -34.546875 142.98828125 C-35.330625 143.18164062 -36.114375 143.375 -36.921875 143.57421875 C-57.05235084 146.74956166 -77.98960129 141.78218991 -94.546875 129.98828125 C-96.22812931 128.67338982 -97.89616642 127.34132107 -99.546875 125.98828125 C-100.25070313 125.446875 -100.95453125 124.90546875 -101.6796875 124.34765625 C-116.1094963 112.69063424 -123.62852108 95.66300672 -127.546875 77.98828125 C-127.73894531 77.20066406 -127.93101562 76.41304688 -128.12890625 75.6015625 C-131.56987564 54.08746414 -125.46926696 33.30202689 -113.02685547 15.75756836 C-100.81609458 -0.56626543 -82.23437327 -12.00912391 -62.16015625 -15.62109375 C-39.94740695 -18.02247205 -17.95676561 -13.94012067 0 0 Z " fill="#FAB824" transform="translate(304.546875,304.01171875)"/>
<path d="M0 0 C0 10.56 0 21.12 0 32 C-3.6196875 32.5878125 -3.6196875 32.5878125 -7.3125 33.1875 C-43.05182606 39.40485326 -74.39657489 54.99303491 -100 81 C-103.56764285 79.48623919 -105.83706287 77.39486871 -108.546875 74.6484375 C-109.39121094 73.79765625 -110.23554688 72.946875 -111.10546875 72.0703125 C-111.97816406 71.18085938 -112.85085937 70.29140625 -113.75 69.375 C-115.08224609 68.02921875 -115.08224609 68.02921875 -116.44140625 66.65625 C-118.63216969 64.44192996 -120.81812763 62.22307565 -123 60 C-111.57570489 36.0581907 -71.30743482 17.56128412 -48.08105469 9.24072266 C-38.90126981 6.13870902 -29.47051821 4.00162918 -20 2 C-18.86046875 1.7525 -17.7209375 1.505 -16.546875 1.25 C-10.7192657 0.07796685 -6.22112461 0 0 0 Z " fill="#6AE5FD" transform="translate(240,65)"/>
<path d="M0 0 C0.495 0.99 0.495 0.99 1 2 C-0.2284855 4.82618794 -1.52567539 7.53673617 -2.92578125 10.27734375 C-3.34740036 11.11729385 -3.76901947 11.95724396 -4.20341492 12.82264709 C-5.56569656 15.53140679 -6.93913031 18.2343482 -8.3125 20.9375 C-9.19665451 22.69431388 -10.08012555 24.45147192 -10.96289062 26.20898438 C-15.11175104 34.44829014 -19.32671211 42.64722589 -23.65625 50.79296875 C-28.14803206 59.26132746 -32.45091501 67.82159247 -36.73046875 76.3984375 C-37.07235544 77.08362268 -37.41424213 77.76880787 -37.76648903 78.47475624 C-40.24300966 83.44008588 -42.71561206 88.40736284 -45.1875 93.375 C-47.67471334 98.37330573 -50.1633706 103.37088291 -52.6554203 108.36677933 C-53.63348272 110.32924198 -54.60907577 112.2929176 -55.58451843 114.25668335 C-59.56950923 122.25890253 -63.7135537 130.15600717 -68 138 C-71.23559234 136.75043294 -73.76306874 135.58619259 -76.4375 133.375 C-87.93663777 124.5903427 -100.42521055 119.63105823 -114 115 C-112.50735847 111.38862821 -110.47769855 109.42739674 -107.53115845 106.89906311 C-101.96705191 102.01121965 -96.72679288 96.86078682 -91.50146484 91.61499023 C-90.49529172 90.60853418 -89.48889666 89.60229997 -88.4822998 88.5962677 C-85.78238868 85.89664043 -83.08554555 83.19396793 -80.38929319 80.49068713 C-77.55908293 77.65417401 -74.72599085 74.82054202 -71.89321899 71.98658752 C-66.54372676 66.63400224 -61.19678605 61.27887577 -55.8507849 55.92280394 C-49.75834917 49.81914374 -43.66303245 43.71836402 -37.56748652 37.61781013 C-25.04181005 25.08171521 -12.51970902 12.54205444 0 0 Z " fill="#4A5A5F" transform="translate(398,145)"/>
<path d="M0 0 C6.85483715 0 12.37418052 0.16045241 18.875 1.625 C19.68308105 1.80248779 20.49116211 1.97997559 21.32373047 2.1628418 C54.77474732 9.7542193 87.15284478 23.82438952 112 48 C108.05546206 52.84614661 103.81098523 57.35532348 99.4375 61.8125 C98.60665894 62.67524536 98.60665894 62.67524536 97.7590332 63.55541992 C91.87119653 69.49240235 91.87119653 69.49240235 88 70 C85.71954875 68.54937962 83.97946238 67.17110843 82 65.375 C58.6554783 45.79166253 29.76331461 36.25190209 0 32 C0 21.44 0 10.88 0 0 Z " fill="#40B2E4" transform="translate(272,65)"/>
<path d="M0 0 C5.43733055 4.52991796 10.46458931 9.34294216 15.4375 14.375 C16.53481445 15.47908203 16.53481445 15.47908203 17.65429688 16.60546875 C19.43852723 18.40136074 21.22036124 20.19955985 23 22 C21.5687717 26.74642038 19.54287832 31.00142662 17.25 35.375 C13.17174685 43.37564949 9.80006574 51.46871758 7 60 C6.42958984 61.73636719 6.42958984 61.73636719 5.84765625 63.5078125 C1.89691005 77.3130615 1.27115131 91.76310533 0 106 C-10.56 106 -21.12 106 -32 106 C-32.87344178 69.89773988 -22.89154629 28.80393242 0 0 Z " fill="#9EE9FD" transform="translate(96,150)"/>
<path d="M0 0 C3.8043783 1.39752672 6.6043362 3.45738583 9.75 5.9375 C15.78876764 10.54996823 22.83558942 13.89951946 30.58203125 13.515625 C38.37797806 11.85316138 45.34564111 7.12723784 51.4765625 2.19921875 C55.29594662 -0.80732208 59.33531691 -0.42549474 64 0 C69.27011062 1.82426906 71.83751204 4.57251686 75 9 C76.85628472 13.42652509 76.49836716 18.43844956 75.0625 22.9375 C67.28098649 34.49186855 52.97318593 42.04260802 39.703125 45.375 C21.90609682 48.37871784 6.89763848 43.96685354 -8 34 C-19.19957487 25.35167964 -19.19957487 25.35167964 -20.3359375 17.75390625 C-20.43292458 12.31293114 -19.6749113 9.27084287 -16 5 C-10.58582811 0.23037238 -7.09078353 -0.65008881 0 0 Z " fill="#2D2E41" transform="translate(228,376)"/>
<path d="M0 0 C0.66 0 1.32 0 2 0 C8.5582493 13.01239941 13.80321532 26.04431644 18 40 C18.49113281 41.61068359 18.49113281 41.61068359 18.9921875 43.25390625 C23.20831062 58.53191942 24.41139656 74.22979854 24 90 C13.44 90 2.88 90 -8 90 C-8.061875 87.89625 -8.12375 85.7925 -8.1875 83.625 C-8.57564055 75.83861436 -9.90117005 68.27154462 -11.375 60.625 C-11.58406982 59.53268066 -11.79313965 58.44036133 -12.00854492 57.31494141 C-13.16706987 51.49712173 -14.53424624 45.91908538 -16.53369141 40.32958984 C-17.71729555 34.41652662 -15.04772554 29.5464408 -12.40234375 24.4140625 C-12.04862198 23.71227875 -11.69490021 23.010495 -11.33045959 22.28744507 C-10.20697476 20.06273643 -9.0724534 17.84387603 -7.9375 15.625 C-7.17048627 14.11105059 -6.40420235 12.59673121 -5.63867188 11.08203125 C-3.76753342 7.38368567 -1.88648105 3.69054148 0 0 Z " fill="#125F98" transform="translate(424,166)"/>
<path d="M0 0 C5.67476113 1.96434039 9.31400331 5.62800662 12 11 C12.54360446 15.95482094 12.56437074 19.87125852 10.3125 24.375 C7.14745126 27.96775803 3.78798338 31.69412413 -1.171875 32.23828125 C-7.01846537 32.40659218 -10.43192863 32.02425335 -15 28 C-19.39893104 23.00661882 -20.35676337 20.08984773 -20.28125 13.5390625 C-19.73016315 8.56397287 -16.99302299 5.87480597 -13.375 2.6875 C-8.92314854 -0.47565762 -5.3540278 -0.48837416 0 0 Z " fill="#303041" transform="translate(300,328)"/>
<path d="M0 0 C5.67476113 1.96434039 9.31400331 5.62800662 12 11 C12.54360446 15.95482094 12.56437074 19.87125852 10.3125 24.375 C7.14745126 27.96775803 3.78798338 31.69412413 -1.171875 32.23828125 C-7.01846537 32.40659218 -10.43192863 32.02425335 -15 28 C-19.39893104 23.00661882 -20.35676337 20.08984773 -20.28125 13.5390625 C-19.73016315 8.56397287 -16.99302299 5.87480597 -13.375 2.6875 C-8.92314854 -0.47565762 -5.3540278 -0.48837416 0 0 Z " fill="#303041" transform="translate(220,328)"/>
<path d="M0 0 C0.99 0.495 0.99 0.495 2 1 C0.47241709 4.60373037 -1.66513479 6.91849407 -4.41796875 9.67675781 C-5.33231689 10.59741028 -6.24666504 11.51806274 -7.1887207 12.46661377 C-8.18805904 13.46237326 -9.18765838 14.45787087 -10.1875 15.453125 C-11.2114745 16.47844703 -12.23515198 17.50406577 -13.25854492 18.52996826 C-15.4005717 20.67493952 -17.54616444 22.81626131 -19.69433594 24.95507812 C-22.45195846 27.7012777 -25.20046722 30.45639659 -27.94639587 33.21428299 C-30.05653945 35.33163883 -32.17140501 37.44422622 -34.28775024 39.55538177 C-35.30354783 40.5698426 -36.31785467 41.58579835 -37.33065796 42.6032486 C-38.74295287 44.02060124 -40.16231931 45.43089711 -41.58203125 46.84082031 C-42.38874268 47.64594055 -43.1954541 48.45106079 -44.02661133 49.28057861 C-46 51 -46 51 -48 51 C-48 51.66 -48 52.32 -48 53 C-49.41738892 54.39491272 -49.41738892 54.39491272 -51.40869141 56.03540039 C-56.36019555 60.2488322 -60.89761167 64.80719774 -65.4609375 69.43359375 C-67.2485684 71.23385258 -69.0363326 73.03397904 -70.82421875 74.83398438 C-73.61761804 77.65234679 -76.40956749 80.47212388 -79.19873047 83.29467773 C-81.9068278 86.0327915 -84.62095739 88.76480702 -87.3359375 91.49609375 C-88.59523575 92.77558144 -88.59523575 92.77558144 -89.87997437 94.08091736 C-90.65483185 94.85915359 -91.42968933 95.63738983 -92.22802734 96.43920898 C-92.91005219 97.12869125 -93.59207703 97.81817352 -94.29476929 98.52854919 C-96 100 -96 100 -98 100 C-98 99.34 -98 98.68 -98 98 C-96.56859493 96.58748341 -96.56859493 96.58748341 -94.56639099 94.93330383 C-89.78815901 90.86644644 -85.36719311 86.50776911 -80.93774414 82.06713867 C-80.07011444 81.20126129 -79.20248474 80.33538391 -78.30856323 79.44326782 C-75.95385772 77.09218299 -73.60139002 74.73890491 -71.25009084 72.38441634 C-68.78171227 69.9134884 -66.31087491 67.44502104 -63.84043884 64.97615051 C-59.70066589 60.83818972 -55.5629904 56.69814042 -51.42651367 52.55688477 C-46.6431169 47.76802559 -41.85609927 42.98280852 -37.06722742 38.19942492 C-32.94719754 34.08392767 -28.82911269 29.96649178 -24.71265882 25.84741765 C-22.25735481 23.39055447 -19.80137958 20.93437249 -17.3436451 18.47994041 C-14.61173249 15.75144364 -11.8839044 13.01888637 -9.15649414 10.28588867 C-8.34044205 9.47186081 -7.52438995 8.65783295 -6.68360901 7.81913757 C-5.94493591 7.07764465 -5.20626282 6.33615173 -4.44520569 5.57218933 C-3.80020143 4.92680804 -3.15519716 4.28142675 -2.49064732 3.61648846 C-0.91125154 2.05381797 -0.91125154 2.05381797 0 0 Z " fill="#48565D" transform="translate(337,157)"/>
<path d="M0 0 C0.66 0.33 1.32 0.66 2 1 C-7.24 10.24 -16.48 19.48 -26 29 C-26.66 28.67 -27.32 28.34 -28 28 C-22.94542425 22.21401277 -17.73460026 16.6283106 -12.3125 11.1875 C-11.51162964 10.37986206 -11.51162964 10.37986206 -10.69458008 9.5559082 C-7.28253743 6.1565086 -3.74090468 3.03422704 0 0 Z " fill="#3D586C" transform="translate(113,82)"/>
<path d="M0 0 C0.66 0.33 1.32 0.66 2 1 C-4.6 7.6 -11.2 14.2 -18 21 C-18 16.81116298 -15.67400903 15.0691572 -12.9375 12.1875 C-12.43887451 11.65286133 -11.94024902 11.11822266 -11.42651367 10.56738281 C-7.83096005 6.75766304 -4.0942029 3.27536232 0 0 Z " fill="#65553A" transform="translate(186,279)"/>
</svg>
