<?xml version="1.0" encoding="UTF-8"?> <svg xmlns="http://www.w3.org/2000/svg" width="256" height="256" viewBox="0 0 256 256" fill="none"> <g clip-path="url(#clip0_1_2)"> <circle cx="128" cy="128" r="128" fill="#E32325"></circle> <path d="M224.095 72.5195C209.275 46.8522 185.348 28.4911 156.719 20.8202C128.09 13.1485 98.1877 17.0854 72.5191 31.9055C46.8508 46.7252 28.4906 70.6528 20.8197 99.2818C13.1488 127.91 17.0857 157.813 31.9049 183.481C46.7238 209.148 70.6523 227.509 99.2809 235.18C108.841 237.742 118.541 239.009 128.181 239.009C147.407 239.009 166.384 233.966 183.481 224.095C209.148 209.276 227.509 185.348 235.18 156.719C242.852 128.09 238.914 98.1877 224.095 72.5195ZM224.018 153.729C217.146 179.376 200.697 200.812 177.702 214.088C154.707 227.365 127.919 230.891 102.271 224.02C76.6234 217.148 55.1874 200.699 41.9109 177.704C28.635 154.709 25.1082 127.92 31.9808 102.272C38.8534 76.6251 55.3018 55.1896 78.2968 41.9128C93.6147 33.0689 110.613 28.5518 127.838 28.5518C136.472 28.5518 145.166 29.6871 153.727 31.9814C179.374 38.8535 200.811 55.3019 214.087 78.2972C227.363 101.292 230.89 128.081 224.018 153.729Z" fill="white"></path> <path d="M180.881 117.54L109.819 76.3983C106.048 74.215 101.546 74.2158 97.7748 76.3979C94.0038 78.5808 91.7522 82.4914 91.7522 86.8577V169.142C91.7522 173.508 94.0033 177.418 97.7748 179.602C99.6602 180.694 101.728 181.239 103.796 181.239C105.865 181.239 107.934 180.692 109.819 179.601L180.881 138.46C184.652 136.276 186.903 132.366 186.903 127.999C186.903 123.634 184.651 119.723 180.881 117.54ZM175.125 128.465L104.063 169.606C103.976 169.657 103.795 169.761 103.529 169.606C103.262 169.452 103.262 169.243 103.262 169.142V86.8582C103.262 86.7577 103.262 86.5489 103.529 86.3943C103.634 86.3337 103.725 86.3129 103.803 86.3129C103.924 86.3129 104.011 86.3635 104.064 86.3943L175.126 127.536C175.212 127.587 175.392 127.691 175.392 128C175.392 128.309 175.212 128.414 175.125 128.465Z" fill="white"></path> <path d="M195.886 75.6806C182.119 58.0044 161.423 46.1287 139.104 43.098C135.94 42.6675 133.018 44.8709 132.585 48.0199C132.153 51.168 134.37 54.0687 137.537 54.4992C156.875 57.1248 174.806 67.4133 186.731 82.7243C187.872 84.1889 189.583 84.9558 191.313 84.9558C192.55 84.9558 193.798 84.5633 194.852 83.7515C197.38 81.8068 197.843 78.1932 195.886 75.6806Z" fill="white"></path> </g> <defs> <clipPath id="clip0_1_2"> <rect width="256" height="256" fill="white"></rect> </clipPath> </defs> </svg> 