<?xml version="1.0" encoding="UTF-8"?>
<svg version="1.1" xmlns="http://www.w3.org/2000/svg" width="512" height="512">
<path d="M0 0 C1.0054184 0.00465271 2.01083679 0.00930542 3.04672241 0.01409912 C17.55398411 0.09270742 31.81520628 0.39095071 46.0625 3.375 C47.03735352 3.57367676 48.01220703 3.77235352 49.01660156 3.97705078 C88.16314494 12.16580594 124.38565091 27.85703981 156.0625 52.375 C156.949375 53.04917969 157.83625 53.72335938 158.75 54.41796875 C174.33357275 66.53020077 188.94397311 80.815951 201.0625 96.375 C202.20912109 97.77878906 202.20912109 97.77878906 203.37890625 99.2109375 C238.00752637 142.45502491 256.50115997 197.95439907 256.37817383 253.10229492 C256.3750221 256.04188487 256.39854926 258.9804558 256.42382812 261.91992188 C256.46848737 275.29306192 255.26301542 288.18916711 253.0625 301.375 C252.78031616 303.08055054 252.78031616 303.08055054 252.49243164 304.82055664 C245.46696967 343.93204746 228.48415906 381.11452178 204.0625 412.375 C203.30324219 413.34695313 202.54398437 414.31890625 201.76171875 415.3203125 C189.42736402 430.69991644 175.62645499 445.25265196 160.0625 457.375 C159.12664062 458.13941406 158.19078125 458.90382813 157.2265625 459.69140625 C125.27378299 485.2782721 86.10738322 501.78801276 46.0625 509.375 C45.25312988 509.53871094 44.44375977 509.70242188 43.60986328 509.87109375 C13.56860013 515.74227137 -21.0740176 514.64762909 -50.9375 508.375 C-52.46044678 508.06151611 -52.46044678 508.06151611 -54.01416016 507.74169922 C-91.15796555 499.84945344 -126.02195445 483.74595578 -155.9375 460.375 C-156.90945312 459.61574219 -157.88140625 458.85648437 -158.8828125 458.07421875 C-174.26241644 445.73986402 -188.81515196 431.93895499 -200.9375 416.375 C-202.08412109 414.97121094 -202.08412109 414.97121094 -203.25390625 413.5390625 C-228.8407721 381.58628299 -245.35051276 342.41988322 -252.9375 302.375 C-253.10121094 301.56562988 -253.26492187 300.75625977 -253.43359375 299.92236328 C-258.91920665 271.85393284 -258.66921328 238.3742117 -252.9375 210.375 C-252.64746094 208.88009033 -252.64746094 208.88009033 -252.3515625 207.35498047 C-244.38096681 167.01614011 -227.53949423 129.5642903 -201.9375 97.375 C-201.48938965 96.80974609 -201.0412793 96.24449219 -200.57958984 95.66210938 C-181.9420581 72.37727905 -181.9420581 72.37727905 -173.9375 68.375 C-170.26420036 68.24142547 -167.43897041 68.2078432 -163.9375 69.375 C-160.05920097 67.28621533 -156.8440282 64.68056917 -153.9375 61.375 C-153.38746608 58.834767 -153.48461645 57.08940849 -153.9765625 54.55078125 C-153.91457618 51.09814335 -152.31779162 49.8073605 -149.9375 47.375 C-147.49362351 45.48316667 -144.92964411 43.82861347 -142.3125 42.1875 C-141.56395752 41.7126416 -140.81541504 41.2377832 -140.04418945 40.74853516 C-114.03521324 24.43098277 -86.20230779 12.14720802 -56.125 5.5 C-55.31699951 5.32114258 -54.50899902 5.14228516 -53.67651367 4.95800781 C-50.77157255 4.36429722 -47.86303406 3.85861757 -44.9375 3.375 C-43.81506393 3.18868011 -43.81506393 3.18868011 -42.66995239 2.99859619 C-28.3933138 0.68680962 -14.44956184 -0.11998824 0 0 Z " fill="#E1395E" transform="translate(255.9375,-0.375)"/>
<path d="M0 0 C1.0054184 0.00465271 2.01083679 0.00930542 3.04672241 0.01409912 C17.55398411 0.09270742 31.81520628 0.39095071 46.0625 3.375 C47.03735352 3.57367676 48.01220703 3.77235352 49.01660156 3.97705078 C88.16314494 12.16580594 124.38565091 27.85703981 156.0625 52.375 C156.949375 53.04917969 157.83625 53.72335938 158.75 54.41796875 C174.33357275 66.53020077 188.94397311 80.815951 201.0625 96.375 C202.20912109 97.77878906 202.20912109 97.77878906 203.37890625 99.2109375 C238.00752637 142.45502491 256.50115997 197.95439907 256.37817383 253.10229492 C256.3750221 256.04188487 256.39854926 258.9804558 256.42382812 261.91992188 C256.46848737 275.29306192 255.26301542 288.18916711 253.0625 301.375 C252.78031616 303.08055054 252.78031616 303.08055054 252.49243164 304.82055664 C245.46696967 343.93204746 228.48415906 381.11452178 204.0625 412.375 C203.30324219 413.34695313 202.54398437 414.31890625 201.76171875 415.3203125 C189.42736402 430.69991644 175.62645499 445.25265196 160.0625 457.375 C159.12664062 458.13941406 158.19078125 458.90382813 157.2265625 459.69140625 C125.27378299 485.2782721 86.10738322 501.78801276 46.0625 509.375 C45.25312988 509.53871094 44.44375977 509.70242188 43.60986328 509.87109375 C13.56860013 515.74227137 -21.0740176 514.64762909 -50.9375 508.375 C-52.46044678 508.06151611 -52.46044678 508.06151611 -54.01416016 507.74169922 C-91.15796555 499.84945344 -126.02195445 483.74595578 -155.9375 460.375 C-156.90945312 459.61574219 -157.88140625 458.85648437 -158.8828125 458.07421875 C-174.26241644 445.73986402 -188.81515196 431.93895499 -200.9375 416.375 C-202.08412109 414.97121094 -202.08412109 414.97121094 -203.25390625 413.5390625 C-228.8407721 381.58628299 -245.35051276 342.41988322 -252.9375 302.375 C-253.10121094 301.56562988 -253.26492187 300.75625977 -253.43359375 299.92236328 C-258.91920665 271.85393284 -258.66921328 238.3742117 -252.9375 210.375 C-252.64746094 208.88009033 -252.64746094 208.88009033 -252.3515625 207.35498047 C-244.38096681 167.01614011 -227.53949423 129.5642903 -201.9375 97.375 C-201.48938965 96.80974609 -201.0412793 96.24449219 -200.57958984 95.66210938 C-181.9420581 72.37727905 -181.9420581 72.37727905 -173.9375 68.375 C-170.26420036 68.24142547 -167.43897041 68.2078432 -163.9375 69.375 C-160.05920097 67.28621533 -156.8440282 64.68056917 -153.9375 61.375 C-153.38746608 58.834767 -153.48461645 57.08940849 -153.9765625 54.55078125 C-153.91457618 51.09814335 -152.31779162 49.8073605 -149.9375 47.375 C-147.49362351 45.48316667 -144.92964411 43.82861347 -142.3125 42.1875 C-141.56395752 41.7126416 -140.81541504 41.2377832 -140.04418945 40.74853516 C-114.03521324 24.43098277 -86.20230779 12.14720802 -56.125 5.5 C-55.31699951 5.32114258 -54.50899902 5.14228516 -53.67651367 4.95800781 C-50.77157255 4.36429722 -47.86303406 3.85861757 -44.9375 3.375 C-43.81506393 3.18868011 -43.81506393 3.18868011 -42.66995239 2.99859619 C-28.3933138 0.68680962 -14.44956184 -0.11998824 0 0 Z M-63.9375 61.375 C-65.01064453 61.73464844 -65.01064453 61.73464844 -66.10546875 62.1015625 C-96.58812871 72.51027566 -123.08056778 89.76728142 -145.9375 112.375 C-146.82248169 113.23363647 -146.82248169 113.23363647 -147.7253418 114.10961914 C-151.54041934 117.84716496 -154.99421496 121.70614596 -158.25 125.9375 C-158.71656006 126.54045898 -159.18312012 127.14341797 -159.66381836 127.76464844 C-161.09696485 129.62839239 -162.51870967 131.50031165 -163.9375 133.375 C-164.36998047 133.94138184 -164.80246094 134.50776367 -165.24804688 135.09130859 C-197.47845022 177.56442487 -210.35532875 231.90133798 -203.25 284.4375 C-199.58230033 309.257186 -191.81656391 332.27303054 -179.9375 354.375 C-179.34710938 355.50679688 -178.75671875 356.63859375 -178.1484375 357.8046875 C-169.11930835 374.44133822 -157.20425092 388.96200455 -143.9375 402.375 C-143.36507568 402.96498779 -142.79265137 403.55497559 -142.20288086 404.1628418 C-138.46539881 407.97785424 -134.60663309 411.43216161 -130.375 414.6875 C-129.46621094 415.38951538 -129.46621094 415.38951538 -128.5390625 416.10571289 C-127.28377665 417.06975553 -126.02580233 418.03030782 -124.76513672 418.98730469 C-123.60142695 419.8708909 -122.44118793 420.7590807 -121.28564453 421.65332031 C-96.0517473 441.11394917 -64.68034761 454.06178909 -33.25 459.0625 C-32.50314941 459.18173828 -31.75629883 459.30097656 -30.98681641 459.42382812 C-10.39734565 462.51783763 11.51504722 463.02929103 32.0625 459.375 C32.90103516 459.2296582 33.73957031 459.08431641 34.60351562 458.93457031 C77.01346648 451.31902 114.23819372 431.18360564 145.0625 401.375 C145.73539062 400.74207031 146.40828125 400.10914063 147.1015625 399.45703125 C152.2454185 394.51282263 156.66891121 388.98473417 161.0625 383.375 C161.48547363 382.83907227 161.90844727 382.30314453 162.34423828 381.75097656 C174.64051287 366.04642104 184.05491978 348.84075712 191.30322266 330.28710938 C191.91998973 328.73388761 192.58400562 327.19948895 193.26171875 325.671875 C212.13067699 283.01162158 208.74946739 227.25145035 192.52758789 184.66381836 C181.78581907 157.53741383 166.55251386 133.83623444 146.39648438 112.77197266 C145.25891327 111.58068754 144.13571776 110.37570236 143.015625 109.16796875 C137.46490493 103.34445688 131.13574958 98.51216495 124.74511719 93.65625 C123.28241415 92.5424564 121.83152144 91.41318585 120.3828125 90.28125 C68.79318658 51.06670568 -2.98853754 40.81640619 -63.9375 61.375 Z " fill="#C32A53" transform="translate(255.9375,-0.375)"/>
<path d="M0 0 C1.0054184 0.00465271 2.01083679 0.00930542 3.04672241 0.01409912 C17.55398411 0.09270742 31.81520628 0.39095071 46.0625 3.375 C47.03735352 3.57367676 48.01220703 3.77235352 49.01660156 3.97705078 C88.16314494 12.16580594 124.38565091 27.85703981 156.0625 52.375 C156.949375 53.04917969 157.83625 53.72335938 158.75 54.41796875 C174.33357275 66.53020077 188.94397311 80.815951 201.0625 96.375 C202.20912109 97.77878906 202.20912109 97.77878906 203.37890625 99.2109375 C238.00752637 142.45502491 256.50115997 197.95439907 256.37817383 253.10229492 C256.3750221 256.04188487 256.39854926 258.9804558 256.42382812 261.91992188 C256.46848737 275.29306192 255.26301542 288.18916711 253.0625 301.375 C252.78031616 303.08055054 252.78031616 303.08055054 252.49243164 304.82055664 C245.46696967 343.93204746 228.48415906 381.11452178 204.0625 412.375 C203.30324219 413.34695313 202.54398437 414.31890625 201.76171875 415.3203125 C189.42736402 430.69991644 175.62645499 445.25265196 160.0625 457.375 C159.12664062 458.13941406 158.19078125 458.90382813 157.2265625 459.69140625 C125.27378299 485.2782721 86.10738322 501.78801276 46.0625 509.375 C45.25312988 509.53871094 44.44375977 509.70242188 43.60986328 509.87109375 C13.56860013 515.74227137 -21.0740176 514.64762909 -50.9375 508.375 C-52.46044678 508.06151611 -52.46044678 508.06151611 -54.01416016 507.74169922 C-91.15796555 499.84945344 -126.02195445 483.74595578 -155.9375 460.375 C-156.90945312 459.61574219 -157.88140625 458.85648437 -158.8828125 458.07421875 C-174.26241644 445.73986402 -188.81515196 431.93895499 -200.9375 416.375 C-202.08412109 414.97121094 -202.08412109 414.97121094 -203.25390625 413.5390625 C-228.8407721 381.58628299 -245.35051276 342.41988322 -252.9375 302.375 C-253.10121094 301.56562988 -253.26492187 300.75625977 -253.43359375 299.92236328 C-258.91920665 271.85393284 -258.66921328 238.3742117 -252.9375 210.375 C-252.64746094 208.88009033 -252.64746094 208.88009033 -252.3515625 207.35498047 C-244.38096681 167.01614011 -227.53949423 129.5642903 -201.9375 97.375 C-201.48938965 96.80974609 -201.0412793 96.24449219 -200.57958984 95.66210938 C-181.9420581 72.37727905 -181.9420581 72.37727905 -173.9375 68.375 C-167.80113636 67.80681818 -167.80113636 67.80681818 -164.5625 69.9375 C-162.37269162 73.22221256 -161.9375 75.42754066 -161.9375 79.375 C-164.74358354 84.3528681 -168.41172328 87.98055438 -172.5 91.875 C-178.82827881 98.06147787 -184.39728528 104.55026126 -189.66259766 111.65576172 C-190.9002098 113.32471322 -192.15803819 114.97677553 -193.41796875 116.62890625 C-215.22931944 145.70204672 -228.29182103 179.86439572 -234.9375 215.375 C-235.17210937 216.61765625 -235.40671875 217.8603125 -235.6484375 219.140625 C-245.77602108 278.7319139 -230.56504306 343.18079641 -195.8125 392.4375 C-174.96718279 421.36718657 -149.11005744 445.91089963 -117.9375 463.375 C-117.17228027 463.808125 -116.40706055 464.24125 -115.61865234 464.6875 C-91.1301403 478.42721905 -63.81900397 488.4004591 -35.9375 492.375 C-35.22432617 492.47796387 -34.51115234 492.58092773 -33.77636719 492.68701172 C-18.21274469 494.8222031 -2.61530387 494.6653297 13.0625 494.375 C13.82369141 494.36629883 14.58488281 494.35759766 15.36914062 494.34863281 C36.70732544 494.02998845 58.08374899 488.49111511 78.0625 481.375 C79.43068741 480.90926762 80.79915744 480.44436425 82.16796875 479.98046875 C106.5021387 471.51681035 129.19205069 458.74072064 149.0625 442.375 C149.61180176 441.92721191 150.16110352 441.47942383 150.72705078 441.01806641 C164.04844206 430.10218981 176.66170951 418.14231552 187.0625 404.375 C187.53864746 403.75351074 188.01479492 403.13202148 188.50537109 402.49169922 C195.03346517 393.92776628 201.00871774 385.15275051 206.375 375.8125 C206.82979736 375.02375488 207.28459473 374.23500977 207.75317383 373.42236328 C215.41145466 359.76090305 221.43501812 345.61371762 226.3125 330.75 C226.70003448 329.58078003 226.70003448 329.58078003 227.09539795 328.38793945 C231.33794296 315.51423614 234.47499228 302.86090446 236.0625 289.375 C236.28300253 287.76811207 236.50434507 286.16133917 236.7265625 284.5546875 C240.76130632 253.13171839 238.38465056 219.70849906 229.0625 189.375 C228.66901367 188.07151611 228.66901367 188.07151611 228.26757812 186.74169922 C219.37581998 157.8742881 205.27261144 130.71302453 186.0625 107.375 C185.6200293 106.83101563 185.17755859 106.28703125 184.72167969 105.7265625 C173.1681048 91.59195644 160.4821752 78.45014654 145.74951172 67.61767578 C144.09148451 66.39635039 142.45373502 65.15122084 140.81640625 63.90234375 C120.36043771 48.54897084 97.13274631 37.68742994 73.0625 29.375 C71.99128906 28.99601562 70.92007812 28.61703125 69.81640625 28.2265625 C18.94853096 11.33815769 -40.66190251 15.03493065 -89.9375 35.375 C-90.68016113 35.67631836 -91.42282227 35.97763672 -92.18798828 36.28808594 C-107.06953255 42.38258619 -121.11755357 50.03144346 -134.125 59.5 C-138.92955019 62.90652987 -141.99802833 64.79924798 -147.9375 64.375 C-150.93545835 63.03548669 -152.46529875 62.3194025 -153.9375 59.375 C-154.29559585 55.57918396 -154.48543052 53.22949418 -152.39453125 49.96875 C-149.3407495 46.74504399 -146.05926948 44.53695941 -142.3125 42.1875 C-141.56395752 41.7126416 -140.81541504 41.2377832 -140.04418945 40.74853516 C-114.03521324 24.43098277 -86.20230779 12.14720802 -56.125 5.5 C-55.31699951 5.32114258 -54.50899902 5.14228516 -53.67651367 4.95800781 C-50.77157255 4.36429722 -47.86303406 3.85861757 -44.9375 3.375 C-43.81506393 3.18868011 -43.81506393 3.18868011 -42.66995239 2.99859619 C-28.3933138 0.68680962 -14.44956184 -0.11998824 0 0 Z " fill="#171616" transform="translate(255.9375,-0.375)"/>
<path d="M0 0 C1.91619141 0.32484375 1.91619141 0.32484375 3.87109375 0.65625 C34.15979115 6.1336463 63.92875009 18.05719147 89 36 C89.96035156 36.68578125 90.92070312 37.3715625 91.91015625 38.078125 C110.20946773 51.48315423 126.46523091 66.78075518 140 85 C140.71800781 85.94617188 141.43601562 86.89234375 142.17578125 87.8671875 C163.28291114 116.14664308 177.67197897 150.08164729 183 185 C183.18691406 186.17691406 183.37382812 187.35382813 183.56640625 188.56640625 C186.768262 211.01790682 186.17161424 234.74586723 182 257 C181.83902832 257.90943359 181.67805664 258.81886719 181.51220703 259.75585938 C173.66709038 303.3147203 152.28974561 342.81207965 121.54541016 374.40771484 C120.2180971 375.77528763 118.90983314 377.16130336 117.60546875 378.55078125 C111.32712101 385.10868436 104.24313982 390.56278005 97 396 C96.43120117 396.42958008 95.86240234 396.85916016 95.27636719 397.30175781 C64.19120895 420.62909493 27.5390729 435.06848129 -11 440 C-11.72171387 440.09498779 -12.44342773 440.18997559 -13.18701172 440.2878418 C-20.94137559 441.19184795 -28.70181955 441.20076163 -36.5 441.1875 C-37.56696609 441.18609512 -37.56696609 441.18609512 -38.65548706 441.18466187 C-49.54790067 441.1535997 -60.25273693 440.90380089 -71 439 C-71.8362793 438.8546582 -72.67255859 438.70931641 -73.53417969 438.55957031 C-119.5099783 430.25308813 -160.08479227 408.94865 -193.47119141 376.48193359 C-194.74146022 375.25061266 -196.03054344 374.0387368 -197.32421875 372.83203125 C-203.61477687 366.84770719 -208.7711738 359.90339181 -214 353 C-214.72574219 352.04609375 -215.45148438 351.0921875 -216.19921875 350.109375 C-221.23938064 343.33634802 -225.76340025 336.3000179 -230 329 C-230.35175293 328.4004248 -230.70350586 327.80084961 -231.06591797 327.18310547 C-259.00380247 278.97926789 -266.50262797 218.97642362 -252.92919922 165.12280273 C-251.73776466 160.70884753 -250.41249105 156.34789037 -249 152 C-248.73848145 151.19449707 -248.47696289 150.38899414 -248.20751953 149.55908203 C-228.93564648 91.57824167 -187.10180961 46.09687643 -133.1171875 18.4609375 C-92.5086189 -1.59985248 -44.48798765 -8.43374174 0 0 Z M-101 24 C-102.07314453 24.35964844 -102.07314453 24.35964844 -103.16796875 24.7265625 C-133.65062871 35.13527566 -160.14306778 52.39228142 -183 75 C-183.88498169 75.85863647 -183.88498169 75.85863647 -184.7878418 76.73461914 C-188.60291934 80.47216496 -192.05671496 84.33114596 -195.3125 88.5625 C-195.77906006 89.16545898 -196.24562012 89.76841797 -196.72631836 90.38964844 C-198.15946485 92.25339239 -199.58120967 94.12531165 -201 96 C-201.43248047 96.56638184 -201.86496094 97.13276367 -202.31054688 97.71630859 C-234.54095022 140.18942487 -247.41782875 194.52633798 -240.3125 247.0625 C-236.64480033 271.882186 -228.87906391 294.89803054 -217 317 C-216.40960938 318.13179688 -215.81921875 319.26359375 -215.2109375 320.4296875 C-206.18180835 337.06633822 -194.26675092 351.58700455 -181 365 C-180.42757568 365.58998779 -179.85515137 366.17997559 -179.26538086 366.7878418 C-175.52789881 370.60285424 -171.66913309 374.05716161 -167.4375 377.3125 C-166.52871094 378.01451538 -166.52871094 378.01451538 -165.6015625 378.73071289 C-164.34627665 379.69475553 -163.08830233 380.65530782 -161.82763672 381.61230469 C-160.66392695 382.4958909 -159.50368793 383.3840807 -158.34814453 384.27832031 C-133.1142473 403.73894917 -101.74284761 416.68678909 -70.3125 421.6875 C-69.56564941 421.80673828 -68.81879883 421.92597656 -68.04931641 422.04882812 C-47.45984565 425.14283763 -25.54745278 425.65429103 -5 422 C-4.16146484 421.8546582 -3.32292969 421.70931641 -2.45898438 421.55957031 C39.95096648 413.94402 77.17569372 393.80860564 108 364 C108.67289062 363.36707031 109.34578125 362.73414063 110.0390625 362.08203125 C115.1829185 357.13782263 119.60641121 351.60973417 124 346 C124.42297363 345.46407227 124.84594727 344.92814453 125.28173828 344.37597656 C137.57801287 328.67142104 146.99241978 311.46575712 154.24072266 292.91210938 C154.85748973 291.35888761 155.52150562 289.82448895 156.19921875 288.296875 C175.06817699 245.63662158 171.68696739 189.87645035 155.46508789 147.28881836 C144.72331907 120.16241383 129.49001386 96.46123444 109.33398438 75.39697266 C108.19641327 74.20568754 107.07321776 73.00070236 105.953125 71.79296875 C100.40240493 65.96945688 94.07324958 61.13716495 87.68261719 56.28125 C86.21991415 55.1674564 84.76902144 54.03818585 83.3203125 52.90625 C31.73068658 13.69170568 -40.05103754 3.44140619 -101 24 Z " fill="#181616" transform="translate(293,37)"/>
<path d="M0 0 C3.75464842 2.38369317 7.38030152 4.90404088 11.00390625 7.48046875 C12.55089963 8.55639147 14.09913456 9.63053066 15.6484375 10.703125 C19.91529931 13.6658114 24.16332952 16.65444345 28.40722656 19.64990234 C32.59836656 22.6045063 36.80159783 25.54178288 41.00390625 28.48046875 C42.66672019 29.6444548 44.32948051 30.80851744 45.9921875 31.97265625 C49.36394156 34.33294999 52.73641035 36.69221785 56.109375 39.05078125 C64.6120109 44.99741004 73.10481331 50.95725777 81.57763672 56.94628906 C86.98077442 60.76338098 92.3965816 64.56211667 97.81640625 68.35546875 C99.05390625 69.22353149 99.05390625 69.22353149 100.31640625 70.10913086 C104.7218917 73.19681266 109.13991753 76.26419456 113.578125 79.3046875 C114.48651123 79.93068848 115.39489746 80.55668945 116.33081055 81.20166016 C118.06891941 82.39892174 119.81107337 83.59033932 121.55786133 84.77490234 C126.34763828 88.0845239 130.33869171 91.15003968 133.00390625 96.48046875 C133.40937653 101.75158233 133.01762789 105.09687364 130.00390625 109.48046875 C123.8298307 114.8554175 116.92332146 119.4063722 110.19140625 124.04296875 C108.1508651 125.45547412 106.11050381 126.86823936 104.0703125 128.28125 C103.05340332 128.98459473 102.03649414 129.68793945 100.98876953 130.41259766 C96.52567352 133.50456749 92.07595689 136.61548196 87.62890625 139.73046875 C86.80865967 140.30482666 85.98841309 140.87918457 85.14331055 141.47094727 C79.22871119 145.61547973 73.32705531 149.77812284 67.42944336 153.94677734 C59.48866757 159.55671551 51.52001238 165.12673939 43.55224609 170.69824219 C40.1985598 173.04370204 36.84586768 175.39058001 33.4934082 177.73779297 C31.84247896 178.89345963 30.19127737 180.04873732 28.53979492 181.20361328 C24.16777193 184.26156955 19.80112231 187.3268616 15.44140625 190.40234375 C14.53132813 191.04300781 13.62125 191.68367187 12.68359375 192.34375 C10.93724961 193.57331883 9.19238198 194.80498823 7.44921875 196.0390625 C6.26972656 196.86857422 6.26972656 196.86857422 5.06640625 197.71484375 C4.37675781 198.20178711 3.68710938 198.68873047 2.9765625 199.19042969 C-2.06120473 202.48492994 -6.01777974 203.30041112 -11.99609375 202.48046875 C-16.65280494 200.32458394 -18.49006642 198.15622498 -20.39431858 193.43175316 C-21.38565727 190.21729062 -21.4161791 187.02937543 -21.39050293 183.70043945 C-21.39659403 182.94802381 -21.40268514 182.19560816 -21.40896082 181.42039204 C-21.42552364 178.91552172 -21.42082481 176.41116349 -21.41601562 173.90625 C-21.42335975 172.10378494 -21.43194698 170.30132459 -21.44168091 168.49887085 C-21.46386635 163.61463182 -21.46682918 158.73056164 -21.4649334 153.84627914 C-21.46481359 149.76566353 -21.47338166 145.68508356 -21.48171091 141.60447788 C-21.50093326 131.97750526 -21.50383261 122.35061936 -21.49707031 112.72363281 C-21.4904259 102.79702656 -21.51331271 92.87079155 -21.55038404 82.9442606 C-21.58107973 74.41497183 -21.59244134 65.88580252 -21.58854723 57.35645962 C-21.58648009 52.26508329 -21.5919542 47.17399606 -21.61643982 42.08267212 C-21.63870297 37.29559243 -21.63683272 32.50911691 -21.6165123 27.72203445 C-21.61310181 25.96727657 -21.61819308 24.21247803 -21.63249588 22.45777512 C-21.6507045 20.05798027 -21.63793004 17.66023188 -21.61755371 15.26049805 C-21.63633048 14.22434341 -21.63633048 14.22434341 -21.65548658 13.16725636 C-21.55662549 7.71924766 -19.56655777 4.38676291 -15.99609375 0.48046875 C-10.81362811 -3.01036188 -5.40739039 -2.74247048 0 0 Z " fill="#FDFDFD" transform="translate(216.99609375,155.51953125)"/>
<path d="M0 0 C6.44856563 3.81936857 12.45525138 8.4755873 18.484375 12.91796875 C22.60127254 15.94614916 26.7767793 18.87257611 31 21.75 C36.98548717 25.8368649 42.94016205 29.96487929 48.875 34.125 C49.71530762 34.714021 50.55561523 35.30304199 51.42138672 35.90991211 C53.13456009 37.11115703 54.84761286 38.31257396 56.56054688 39.51416016 C60.74673128 42.44974987 64.93601509 45.38090866 69.125 48.3125 C70.78776803 49.47655163 72.45052843 50.64061414 74.11328125 51.8046875 C77.48503531 54.16498124 80.8575041 56.5242491 84.23046875 58.8828125 C101.85925559 71.21198225 101.85925559 71.21198225 109.88110352 76.90576172 C113.47076552 79.45200141 117.0766796 81.96875397 120.71484375 84.4453125 C140.87585432 98.23855667 140.87585432 98.23855667 144.125 111.3125 C145.22716416 120.17991164 143.63067975 127.99527084 138.5625 135.375 C131.20719946 144.43587747 120.6158904 150.48008735 111.0546875 156.95703125 C106.56234489 160.00409509 102.11536815 163.11018169 97.6875 166.25 C91.57542494 170.58117743 85.4511047 174.8939838 79.3125 179.1875 C78.475979 179.77265381 77.63945801 180.35780762 76.77758789 180.96069336 C75.07623593 182.15064498 73.37481967 183.34050466 71.67333984 184.53027344 C67.48956942 187.45626732 63.30733546 190.38445555 59.125 193.3125 C54.09062489 196.83705566 49.0558995 200.36110531 44.01953125 203.8828125 C42.32549166 205.06766663 40.63148106 206.2525622 38.9375 207.4375 C37.69709961 208.3049585 37.69709961 208.3049585 36.43164062 209.18994141 C31.70686042 212.49672819 26.99321889 215.81859014 22.28881836 219.15429688 C-4.81728625 238.36069843 -4.81728625 238.36069843 -20.875 236.3125 C-24.63190487 235.1513621 -27.64869844 233.53945003 -30.875 231.3125 C-31.45636719 230.93996094 -32.03773438 230.56742188 -32.63671875 230.18359375 C-38.75528351 225.7603492 -41.86862883 218.36693098 -43.875 211.3125 C-44.06081956 208.68079055 -44.15395093 206.15689841 -44.14242554 203.52778625 C-44.14695665 202.76271309 -44.15148776 201.99763992 -44.15615618 201.20938271 C-44.16877747 198.6555583 -44.16718128 196.10194778 -44.16552734 193.5480957 C-44.17151412 191.71286242 -44.17832001 189.87763165 -44.18588257 188.04240417 C-44.20353721 183.06282736 -44.2082378 178.08331931 -44.20951414 173.10371423 C-44.21093691 169.98958324 -44.21520894 166.87546966 -44.22050858 163.761343 C-44.23900896 152.88816597 -44.24717941 142.01503795 -44.24560547 131.1418457 C-44.24440493 121.02169886 -44.26549007 110.9017656 -44.2970928 100.78167278 C-44.32328843 92.08165402 -44.33397134 83.38170487 -44.33269465 74.681647 C-44.33218587 69.49067913 -44.3378223 64.29990099 -44.35905075 59.10897255 C-44.37848783 54.2226615 -44.37852027 49.33672006 -44.36401749 44.45039558 C-44.36193488 42.66345425 -44.36659738 40.87648946 -44.3787384 39.08958817 C-44.45313341 27.37541306 -44.26522214 15.94582401 -35.72265625 6.87890625 C-26.13965917 -1.24536823 -12.0211423 -5.53688341 0 0 Z M-25.5148325 21.4862318 C-27.20421278 24.99656547 -27.29560194 28.03321056 -27.26268005 31.84529114 C-27.26806559 32.59529237 -27.27345113 33.3452936 -27.27899987 34.11802214 C-27.29328734 36.62678213 -27.28617388 39.13501506 -27.27905273 41.64379883 C-27.28475599 43.44434534 -27.29172008 45.24488823 -27.29985046 47.04542542 C-27.31780443 51.9339924 -27.31660896 56.8223801 -27.31090808 61.71097016 C-27.30781866 65.79387445 -27.31390612 69.87674417 -27.31994683 73.95964354 C-27.33399856 83.59430003 -27.33242611 93.22886786 -27.32104492 102.86352539 C-27.30957008 112.79683955 -27.32362728 122.72988351 -27.3504414 132.66316205 C-27.3726107 141.19582068 -27.37923278 149.72839458 -27.37336498 158.26107997 C-27.36999631 163.35526444 -27.37240429 168.44927583 -27.38961601 173.54343605 C-27.40510202 178.33617568 -27.40111116 183.12851591 -27.38231087 187.92123985 C-27.3786292 189.67718302 -27.38172112 191.43315588 -27.39219666 193.18907166 C-27.66146979 205.36945678 -27.66146979 205.36945678 -22.875 216.3125 C-19.54182804 219.3599715 -15.98754545 220.14987899 -11.5546875 219.9609375 C-5.27217259 218.44067879 -0.07185574 214.00752883 5.125 210.3125 C6.67199338 209.23657728 8.22022831 208.16243809 9.76953125 207.08984375 C14.03639306 204.12715735 18.28442327 201.1385253 22.52832031 198.14306641 C26.71946031 195.18846245 30.92269158 192.25118587 35.125 189.3125 C36.78781394 188.14851395 38.45057426 186.98445131 40.11328125 185.8203125 C43.48503531 183.46001876 46.8575041 181.1007509 50.23046875 178.7421875 C58.03938668 173.28073569 65.8434538 167.81290068 73.625 162.3125 C79.71840119 158.00536782 85.82414261 153.71625779 91.9375 149.4375 C92.7625 148.8587915 93.5875 148.28008301 94.4375 147.68383789 C98.84298545 144.59615609 103.26101128 141.52877419 107.69921875 138.48828125 C108.60760498 137.86228027 109.51599121 137.2362793 110.4519043 136.59130859 C112.19001316 135.39404701 113.93216712 134.20262943 115.67895508 133.01806641 C120.78514829 129.48980876 125.08997613 126.41757162 127.125 120.3125 C127.67436648 114.48921529 126.68258115 111.89397035 123.125 107.3125 C121.00086578 105.39337229 118.72226205 103.75964048 116.375 102.125 C115.7152417 101.65360596 115.0554834 101.18221191 114.37573242 100.6965332 C112.30141877 99.22146027 110.21583361 97.76404465 108.125 96.3125 C107.48449707 95.86745117 106.84399414 95.42240234 106.18408203 94.96386719 C102.93869831 92.71571503 99.68266259 90.48354735 96.421875 88.2578125 C84.70933037 80.25114756 73.13770663 72.03638133 61.55224609 63.84741211 C53.61092242 58.23703627 45.64167976 52.66663047 37.67333984 47.09472656 C34.31965355 44.74926671 30.96696143 42.40238874 27.61450195 40.05517578 C25.96357271 38.89950912 24.31237112 37.74423143 22.66088867 36.58935547 C18.28886568 33.5313992 13.92221606 30.46610715 9.5625 27.390625 C8.65242188 26.74996094 7.74234375 26.10929687 6.8046875 25.44921875 C5.05834336 24.21964992 3.31347573 22.98798052 1.5703125 21.75390625 C0.78398437 21.20089844 -0.00234375 20.64789063 -0.8125 20.078125 C-1.50214844 19.59118164 -2.19179687 19.10423828 -2.90234375 18.60253906 C-10.83922901 13.41213044 -19.39441402 13.37311761 -25.5148325 21.4862318 Z " fill="#181717" transform="translate(222.875,138.6875)"/>
</svg>
