<?xml version="1.0" encoding="UTF-8"?>
<svg version="1.1" xmlns="http://www.w3.org/2000/svg" width="512" height="512">
<path d="M0 0 C1.48382172 -0.0092601 1.48382172 -0.0092601 2.99761963 -0.01870728 C38.2561375 -0.15995157 74.80205591 5.58467816 101.25 30.8125 C106.14915494 35.91816001 109.93469532 41.27023465 113.375 47.4375 C114.06529297 48.61892578 114.06529297 48.61892578 114.76953125 49.82421875 C127.91307414 73.84791498 125.48500472 105.07018813 118.1875 130.5625 C117.5937111 132.52400492 116.99379544 134.48373978 116.375 136.4375 C117.46683594 136.56898438 118.55867188 136.70046875 119.68359375 136.8359375 C126.04170119 137.87207353 130.11083584 141.58776776 134.05078125 146.46875 C138.72331082 153.41551962 139.26291784 161.28479986 138.375 169.4375 C137.1417905 175.25120191 135.23740174 180.72902765 132.65625 186.078125 C128.49866362 194.74189112 126.34472909 202.4479803 125.52514648 212.08007812 C124.81236409 219.28671599 122.39996441 224.11772974 117.53125 229.4609375 C112.87559785 233.26012534 109.57592934 235.4375 103.375 235.4375 C103.4575 236.571875 103.54 237.70625 103.625 238.875 C103.60187598 253.53562725 98.15036624 270.51070841 88.375 281.4375 C87.46492188 282.0665625 86.55484375 282.695625 85.6171875 283.34375 C81.93129508 288.42951097 83.58802761 293.53635197 84.5 299.5 C84.65726562 300.68400391 84.81453125 301.86800781 84.9765625 303.08789062 C85.75235563 309.8535065 85.75235563 309.8535065 87.375 316.4375 C89.61377143 317.59091852 89.61377143 317.59091852 92.375 318.3125 C102.46201113 321.67048168 111.32205755 327.99687671 116.8125 337.25 C118.375 340.4375 118.375 340.4375 118.375 342.4375 C119.85105713 342.71400391 119.85105713 342.71400391 121.35693359 342.99609375 C138.55240439 346.29571478 155.59974371 350.28099232 172.65966797 354.20996094 C177.13144574 355.23937156 181.60549023 356.25855864 186.08011818 357.27549744 C189.56628504 358.06965387 193.05075143 358.87108195 196.53480148 359.67446899 C198.1838242 360.05344854 199.83345364 360.42979918 201.48372269 360.80331421 C226.65936874 366.50958137 226.65936874 366.50958137 233.375 375.4375 C235.00681338 378.15289709 236.2208682 380.92845462 237.375 383.875 C237.70330811 384.68340332 238.03161621 385.49180664 238.36987305 386.32470703 C242.48108294 396.77793939 245.49240244 407.59258099 248.375 418.4375 C248.5699707 419.16888184 248.76494141 419.90026367 248.96582031 420.65380859 C252.81322277 435.35559407 252.81322277 435.35559407 250.0625 441.25 C248.375 443.4375 248.375 443.4375 245.375 445.4375 C246.86 457.3175 246.86 457.3175 248.375 469.4375 C250.025 469.7675 251.675 470.0975 253.375 470.4375 C255.84689851 472.37970597 256.35412836 473.37488507 257.375 476.4375 C257.66063869 480.53690765 257.65266471 484.64175792 257.6875 488.75 C257.71650391 489.87857422 257.74550781 491.00714844 257.77539062 492.16992188 C257.82439896 498.57493368 257.77048586 502.61767762 253.375 507.4375 C248.23858531 511.96243675 245.18700869 512.58446706 238.49315262 512.57172108 C237.2514328 512.57524942 237.2514328 512.57524942 235.98462772 512.57884905 C233.18059585 512.58556347 230.37661006 512.58508009 227.5725708 512.58467102 C225.55396794 512.58796812 223.53536575 512.59169336 221.5167644 512.5958125 C215.94609463 512.60585804 210.37543563 512.60955338 204.80475807 512.61220181 C198.80598108 512.61609729 192.80721268 512.62567611 186.80844116 512.63441467 C172.9955242 512.65326469 159.1826066 512.66343816 145.36968044 512.67187535 C138.54658306 512.67607954 131.72348656 512.68130183 124.90038993 512.68655988 C101.55273212 512.70445121 78.20507407 512.71944817 54.85741043 512.72688007 C53.39119841 512.72735483 51.92498639 512.72783072 50.45877437 512.72830774 C49.36809003 512.7286623 49.36809003 512.7286623 48.25537166 512.72902403 C44.57128944 512.73022525 40.88720722 512.73144069 37.203125 512.73266602 C36.47200241 512.73290617 35.74087981 512.73314632 34.98760199 512.73339374 C11.2769962 512.7412886 -12.43355959 512.7647237 -36.14414355 512.79722196 C-61.20131806 512.83150331 -86.25846331 512.85122963 -111.31566167 512.85452431 C-114.0652512 512.85494187 -116.81484072 512.85542143 -119.56443024 512.85594749 C-120.57999953 512.85613228 -120.57999953 512.85613228 -121.61608538 512.8563208 C-132.52175934 512.85865493 -143.42737533 512.87432671 -154.33302862 512.89478934 C-165.29077224 512.91502384 -176.24845554 512.92020192 -187.20621583 512.91101871 C-193.14512588 512.90645915 -199.08384733 512.90845618 -205.02273178 512.92778015 C-210.4559158 512.94530651 -215.88877217 512.94450013 -221.32195917 512.92888286 C-223.29104147 512.92649071 -225.26014585 512.93091278 -227.22919425 512.94271151 C-229.89979441 512.95772708 -232.56921802 512.94823002 -235.23978806 512.93248463 C-236.00958354 512.94270683 -236.77937903 512.95292904 -237.57250166 512.96346101 C-242.738076 512.89669918 -245.63909355 511.68214221 -249.625 508.4375 C-258.30368005 498.58602535 -255.16073538 482.45312414 -254.42285156 470.03564453 C-252.29103542 443.51665614 -246.2033321 417.57214645 -237.625 392.4375 C-237.35155762 391.62990234 -237.07811523 390.82230469 -236.79638672 389.99023438 C-233.11276 379.33461323 -229.16980663 371.48851411 -218.82232666 366.4032135 C-215.51521506 364.94975536 -212.17564548 364.10802099 -208.66015625 363.31640625 C-207.89327988 363.1351973 -207.1264035 362.95398834 -206.33628845 362.76728821 C-203.78889993 362.16825875 -201.2383834 361.58395211 -198.6875 361 C-196.87808973 360.57834618 -195.0688492 360.15596344 -193.25976562 359.73291016 C-188.19293507 358.55184976 -183.12272806 357.38591498 -178.05157471 356.22357178 C-174.40344726 355.3866748 -170.75611033 354.54639323 -167.10888672 353.70556641 C-159.2823352 351.90170583 -151.45408731 350.10532433 -143.625 348.3125 C-142.34392365 348.01892609 -141.06284729 347.72535217 -139.74295044 347.42288208 C-136.10005166 346.58922765 -132.4564252 345.75884251 -128.8125 344.9296875 C-127.1575779 344.55074089 -127.1575779 344.55074089 -125.46922302 344.16413879 C-124.46230911 343.93578842 -123.4553952 343.70743805 -122.41796875 343.47216797 C-121.5364917 343.27138641 -120.65501465 343.07060486 -119.74682617 342.86373901 C-117.625 342.4375 -117.625 342.4375 -115.625 342.4375 C-115.3878125 341.5609375 -115.150625 340.684375 -114.90625 339.78125 C-111.34490343 330.48700406 -102.45345651 323.53792056 -93.625 319.4375 C-90.66015636 318.28328153 -87.69201909 317.28204149 -84.625 316.4375 C-83.85374229 312.78633317 -83.23023437 309.11966781 -82.625 305.4375 C-82.49174316 304.68742676 -82.35848633 303.93735352 -82.22119141 303.16455078 C-80.08799348 293.41103127 -80.08799348 293.41103127 -81.84765625 284.01171875 C-83.6002198 282.33343389 -83.6002198 282.33343389 -85.6171875 280.93359375 C-95.10197199 273.86613761 -98.58425898 256.94827106 -100.35546875 245.890625 C-100.74213505 242.37140132 -100.75846179 238.97423738 -100.625 235.4375 C-101.65625 235.355 -102.6875 235.2725 -103.75 235.1875 C-110.17751654 233.94346454 -114.29412206 230.37989008 -118.30859375 225.390625 C-122.18424179 219.64040536 -122.796545 213.384354 -123.5 206.625 C-124.28500125 199.20497172 -126.41613996 193.19347598 -129.625 186.4375 C-130.55416753 184.29705001 -131.47102062 182.1512089 -132.375 180 C-132.78234375 179.05253906 -133.1896875 178.10507813 -133.609375 177.12890625 C-136.72043862 168.88458765 -136.9781839 158.87273914 -133.80078125 150.60546875 C-130.43175894 144.39348409 -125.42001695 138.75398305 -118.625 136.4375 C-117.305 136.4375 -115.985 136.4375 -114.625 136.4375 C-115.13160156 134.62378906 -115.13160156 134.62378906 -115.6484375 132.7734375 C-123.79804965 103.12492321 -125.66575153 72.9998824 -110.375 45.25 C-101.68149457 31.06883714 -101.68149457 31.06883714 -95.44921875 28.5625 C-92.53996466 28.1241943 -90.09604285 28.28470795 -87.30078125 29.19140625 C-83.43261143 29.54716493 -81.12304107 27.66860306 -78.0625 25.5625 C-71.22479291 20.98318988 -71.22479291 20.98318988 -67.625 20.4375 C-67.686875 19.365 -67.74875 18.2925 -67.8125 17.1875 C-67.60854528 13.10840563 -67.43917281 12.22897786 -64.625 9.4375 C-62.1834444 8.40187099 -59.97622761 7.62792801 -57.4375 6.9375 C-56.68033691 6.7310083 -55.92317383 6.5245166 -55.14306641 6.31176758 C-52.6436131 5.65712492 -50.13656787 5.04387317 -47.625 4.4375 C-46.83625488 4.23560059 -46.04750977 4.03370117 -45.23486328 3.82568359 C-30.29707534 0.14929282 -15.29409917 0.04042877 0 0 Z " fill="#383838" transform="translate(254.625,-0.4375)"/>
<path d="M0 0 C3.01250612 1.33095637 4.83640577 2.72528469 7 5.1875 C14.99918791 13.3568834 25.12913115 17.21788191 36 20 C36.98484375 20.2990625 37.9696875 20.598125 38.984375 20.90625 C61.76490706 27.02639294 91.01158709 24.27775647 112.09765625 13.40234375 C118.21796213 9.70658821 123.20747198 5.28688621 128 0 C140.04811872 5.84151211 146.22372059 20.58402186 150.49121094 32.56298828 C154.49729985 44.43946936 158.45659963 57.32680281 158.43359375 69.95703125 C159.38992531 73.40642024 161.1842011 74.88158937 164 77 C167.65968734 77.20096138 167.65968734 77.20096138 171.5 76.5 C175.40625 75.90625 175.40625 75.90625 179 76 C182.02351292 78.23318448 183.60978332 79.83124422 184.8046875 83.41015625 C185.02839604 91.84893948 181.98559781 98.18408729 178.43115234 105.6328125 C174.44516967 113.98710358 172.14134388 121.66789793 171.625 130.9375 C171.35362604 134.93882239 171.15018753 135.80745188 168.5625 139.125 C164.61093476 142.0163892 162.0677045 142.19404109 157.2890625 142.42578125 C154.01802412 143.24633183 152.94996249 144.22900068 151 147 C150.27660394 150.03985084 150.07273052 153.07445005 149.875 156.1875 C148.81204823 170.44688491 146.59006561 186.12244977 135.42578125 196.0625 C128.75772684 201.38835344 121.75552618 205.7457368 114.375 210 C107.56499154 213.93401572 101.74513457 218.02735725 96.328125 223.7734375 C87.56688524 232.97675816 77.37948807 238.00886401 64.6875 238.5 C51.24160552 238.19043486 41.86297685 231.69553149 32.4375 222.6875 C30 220 30 220 30 218 C29.13652954 217.57460938 29.13652954 217.57460938 28.25561523 217.140625 C16.07110912 210.9791343 4.3390791 203.94844273 -6 195 C-7.07507813 194.071875 -7.07507813 194.071875 -8.171875 193.125 C-18.69663451 182.69019569 -20.14481971 164.31570901 -20.4609375 150.3203125 C-20.74891744 146.96048337 -20.74891744 146.96048337 -22.765625 144.5859375 C-25.23174502 142.83550965 -26.39661284 142.54180193 -29.375 142.5 C-34.06254461 142.18285589 -36.38939491 140.9787492 -40 138 C-41.2447519 135.5104962 -41.30330056 133.18174265 -41.54394531 130.44042969 C-42.47027316 120.31228584 -45.03125342 111.84668445 -49.66015625 102.73046875 C-53.24545866 95.58529161 -55.82878515 89.07515521 -54 81 C-52.49609375 78.1640625 -52.49609375 78.1640625 -50 76 C-47.11630875 75.47227548 -44.35027702 75.66360859 -41.4375 75.875 C-36.12230908 76.50570771 -36.12230908 76.50570771 -31.3359375 74.80615234 C-29.66201533 72.54305361 -29.27403996 70.74813001 -28.75390625 67.984375 C-28.55877441 66.98792969 -28.36364258 65.99148437 -28.16259766 64.96484375 C-27.96456543 63.90394531 -27.7665332 62.84304687 -27.5625 61.75 C-27.12638769 59.55675511 -26.68759002 57.36404245 -26.24609375 55.171875 C-26.0332373 54.10775391 -25.82038086 53.04363281 -25.60107422 51.94726562 C-21.71794531 32.90700071 -14.88444294 13.25575009 0 0 Z " fill="#EECAAB" transform="translate(191,77)"/>
<path d="M0 0 C5.31009126 0.6039635 10.44975899 1.44345259 15.67578125 2.59375 C16.36762009 2.74533569 17.05945892 2.89692139 17.77226257 3.05310059 C19.21874783 3.37077805 20.66485729 3.69017125 22.1105957 4.01123047 C24.3235052 4.50244289 26.53760606 4.98796979 28.75195312 5.47265625 C39.54707582 7.84902527 39.54707582 7.84902527 43 9 C43 19.56 43 30.12 43 41 C39.04 42.65 35.08 44.3 31 46 C20.73614097 52.69382111 14.13727762 60.9545436 10.45361328 72.74951172 C9.48911417 77.53463162 9.77405166 82.49791121 9.75976562 87.36230469 C9.75006575 89.36144972 9.71885565 91.36045234 9.6875 93.359375 C9.68234375 94.63039063 9.6771875 95.90140625 9.671875 97.2109375 C9.6625293 98.36899902 9.65318359 99.52706055 9.64355469 100.72021484 C10.11424954 105.05125223 11.55255185 108.41308419 14.5 111.64453125 C19.41281174 115.46987164 22.75466176 116.54783669 29 116 C31.60314994 114.6469872 31.60314994 114.6469872 33 112 C33.57853498 109.03575377 33.39353376 107.09907833 33 104 C30.75416099 101.59927554 29.12739447 101.04246482 26 100 C25.85271542 96.37543986 25.76527774 92.75166479 25.6875 89.125 C25.64560547 88.11179687 25.60371094 87.09859375 25.56054688 86.0546875 C25.42699592 77.72110764 27.23335075 71.08906624 32.9765625 64.85424805 C38.3513806 59.78148698 43.73657522 56.92853516 51.1875 56.4375 C58.71479117 56.6759679 65.65866878 59.68452047 71.01953125 65.00390625 C75.09873988 70.23442437 77.26706185 75.02971743 77.1953125 81.73828125 C77.18886719 82.80498047 77.18242187 83.87167969 77.17578125 84.97070312 C77.15064453 86.62489258 77.15064453 86.62489258 77.125 88.3125 C77.11597656 89.43462891 77.10695313 90.55675781 77.09765625 91.71289062 C77.07414486 94.47547909 77.04128155 97.23762932 77 100 C75.5459375 100.680625 75.5459375 100.680625 74.0625 101.375 C70.92920418 102.65786221 70.92920418 102.65786221 70 105 C69.86642547 108.67329964 69.8328432 111.49852959 71 115 C75.58146409 116.5271547 79.72529186 116.97545313 84.1953125 115.05859375 C88.4127607 112.5763687 90.78756391 110.45303668 93 106 C93.56634791 101.40566719 93.51513218 96.80719899 93.50097656 92.18286133 C93.50001307 89.96755223 93.54146853 87.75581724 93.5859375 85.54101562 C93.69408398 72.83184094 90.58105691 63.00926077 82.16015625 53.1875 C75.64615689 46.59104495 68.8920645 44.233478 60 41 C60 32.09 60 23.18 60 14 C67.39509166 14.73950917 74.0811902 15.69262471 81.25 17.3125 C82.20390625 17.51294922 83.1578125 17.71339844 84.140625 17.91992188 C95.58391586 20.48671559 95.58391586 20.48671559 99.10424805 25.60571289 C102.26871635 31.45219154 104.0891644 37.93076346 106.0625 44.25 C106.57006836 45.83361328 106.57006836 45.83361328 107.08789062 47.44921875 C109.85228696 56.18620832 112.2959625 64.97875613 113.9375 74 C114.76749666 77.73161099 115.75976995 79.74984024 119 82 C121.97 82.99 121.97 82.99 125 84 C125.99 91.92 126.98 99.84 128 108 C125.03 109.485 125.03 109.485 122 111 C118.15099935 116.17257577 118.15099935 116.17257577 120 134 C67.53 134 15.06 134 -39 134 C-36.67093824 129.92414192 -34.35831859 125.969879 -31.85498047 122.01953125 C-21.78051704 105.88614395 -16.12253022 88.20811078 -11 70 C-10.79391113 69.28811523 -10.58782227 68.57623047 -10.37548828 67.84277344 C-6.62787742 54.80959748 -4.90243126 41.39915411 -3 28 C-2.88382324 27.20013672 -2.76764648 26.40027344 -2.64794922 25.57617188 C-1.41327537 17.06846683 -0.54975938 8.57913972 0 0 Z " fill="#C9CFD5" transform="translate(375,361)"/>
<path d="M0 0 C1.15371094 0.2165625 2.30742187 0.433125 3.49609375 0.65625 C24.34139122 5.30699366 44.60982376 14.9688709 56.54296875 33.34765625 C63.13108112 45.34049351 66.23263922 58.27771994 66.3125 71.875 C66.31805908 72.67180176 66.32361816 73.46860352 66.3293457 74.28955078 C66.2689216 79.2133405 65.56330395 83.32877307 64 88 C62.19040289 85.28560433 60.9492177 82.65280217 59.69189453 79.65673828 C53.60319171 65.15676804 45.47496507 47.46262815 30 41 C24.85044887 40.0806938 20.6452644 40.24317837 15.875 42.4375 C13.35813825 44.68078982 11.07807316 47.00397405 8.75 49.4375 C4.29273251 53.99198977 -0.11687659 56.63741234 -6 59 C-6.72960937 59.29519531 -7.45921875 59.59039062 -8.2109375 59.89453125 C-20.21407614 64.29279324 -32.40681204 64.33498561 -45 64 C-46.22203125 63.98195313 -47.4440625 63.96390625 -48.703125 63.9453125 C-64.32501153 63.33898357 -77.74231139 58.49189475 -88.75 47.25 C-89.79414063 46.11304687 -89.79414063 46.11304687 -90.859375 44.953125 C-94.79340132 41.36368493 -98.6793987 40.56826115 -103.96875 40.765625 C-112.03246621 41.69605379 -117.70846493 47.24727609 -123 53 C-131.80194263 64.29431161 -137.41296636 77.53570715 -142 91 C-142.33 91 -142.66 91 -143 91 C-144.30855881 84.99109795 -144.183876 78.99231222 -144.1875 72.875 C-144.20586914 71.27785156 -144.20586914 71.27785156 -144.22460938 69.6484375 C-144.25705662 51.82408634 -139.33807525 36.04110027 -127.0625 22.6875 C-124.58486489 19.45906638 -124.48134744 17.97633633 -125 14 C-125.3209216 12.66362497 -125.65191797 11.32955925 -126 10 C-111.3 0 -111.3 0 -107 0 C-106.62875 0.66 -106.2575 1.32 -105.875 2 C-104.03549876 4.38250396 -104.03549876 4.38250396 -100.375 4.5 C-95.83105696 4.30211861 -91.52510485 3.26679944 -87.125 2.1875 C-58.66525686 -4.71897072 -28.85391034 -5.44046794 0 0 Z " fill="#646C76" transform="translate(295,20)"/>
<path d="M0 0 C0.09498779 1.02544922 0.18997559 2.05089844 0.2878418 3.10742188 C2.15078323 22.97416739 4.066341 42.6153871 9 62 C9.25652344 63.02335449 9.51304687 64.04670898 9.77734375 65.10107422 C15.8909259 89.12028542 24.2926424 112.8067719 39 133 C39 133.33 39 133.66 39 134 C20.52 134 2.04 134 -17 134 C-15.95552137 131.38880343 -14.8976773 128.78016123 -13.7109375 126.23046875 C-9.10568798 115.74073374 -7.97545417 105.16686282 -11.5625 94.125 C-15.65788382 84.58819711 -21.33343612 77.66659946 -30 72 C-34.29 70.35 -38.58 68.7 -43 67 C-43 47.86 -43 28.72 -43 9 C-25.6875 5.0625 -25.6875 5.0625 -20.2331543 3.82446289 C-18.80514867 3.4989796 -17.37716842 3.17338496 -15.94921875 2.84765625 C-14.83867126 2.59622864 -14.83867126 2.59622864 -13.70568848 2.33972168 C-3.1003316 -0.08379275 -3.1003316 -0.08379275 0 0 Z " fill="#CAD0D6" transform="translate(137,361)"/>
<path d="M0 0 C3.38590789 2.64265981 6.3425232 5.28779143 9.125 8.5625 C12.24639335 12.23187129 15.57337996 15.62038507 19 19 C22.91288507 22.86427408 26.63714131 26.79356079 30.20703125 30.98046875 C37.59026281 40.14861381 37.59026281 40.14861381 47.8125 44.25 C51.71544666 44.17250467 53.93309157 43.56957193 57 41 C58.81978015 38.73784236 60.39597166 36.4289572 62 34 C65.89608498 35.48904175 69.59097018 37.24378713 73.3125 39.125 C74.38113281 39.66382813 75.44976562 40.20265625 76.55078125 40.7578125 C77.35902344 41.16773438 78.16726562 41.57765625 79 42 C77.97055585 51.24724833 75.78321177 60.028118 73.38647461 68.99780273 C71.64384484 75.52042753 69.98594864 82.05355017 68.4375 88.625 C68.23825928 89.46909424 68.03901855 90.31318848 67.83374023 91.18286133 C67.2205757 93.78812821 66.61001734 96.39399453 66 99 C65.08656126 102.89660074 64.16921808 106.79225912 63.25 110.6875 C63.03915771 111.59129395 62.82831543 112.49508789 62.61108398 113.42626953 C62.41458252 114.25884277 62.21808105 115.09141602 62.015625 115.94921875 C61.84321289 116.68487061 61.67080078 117.42052246 61.49316406 118.1784668 C61 120 61 120 60 122 C46.21826281 123.04231626 46.21826281 123.04231626 41.73046875 120.93359375 C39.84136338 119.09964474 38.47231514 117.18541235 37 115 C36.24847656 114.0615625 35.49695313 113.123125 34.72265625 112.15625 C14.93325428 86.99223515 7.38945286 54.41618051 2.40673828 23.515625 C2.05186951 21.32080638 1.68370762 19.12892528 1.30859375 16.9375 C0.360494 11.20912107 -0.22770714 5.806532 0 0 Z " fill="#AAAFB9" transform="translate(155,373)"/>
<path d="M0 0 C0.33 0 0.66 0 1 0 C1.42725705 8.91136135 -0.14022561 17.5001728 -1.625 26.25 C-1.76004944 27.05301544 -1.89509888 27.85603088 -2.03424072 28.68338013 C-4.19153899 41.40326326 -6.76970409 53.78604521 -11 66 C-11.29632324 66.8657666 -11.59264648 67.7315332 -11.89794922 68.62353516 C-18.06521471 86.35802023 -25.66206637 102.7010703 -38 117 C-38.75152344 117.93714844 -39.50304687 118.87429688 -40.27734375 119.83984375 C-44.01286374 122.80360638 -46.698112 122.58053862 -51.3125 122.3125 C-52.05306641 122.28994141 -52.79363281 122.26738281 -53.55664062 122.24414062 C-55.37197357 122.1855815 -57.18625681 122.09590886 -59 122 C-61.06205654 117.38849173 -62.12269364 112.65069574 -63.25 107.75 C-63.69367785 105.85408881 -64.13770282 103.95825883 -64.58203125 102.0625 C-64.8135791 101.06992187 -65.04512695 100.07734375 -65.28369141 99.0546875 C-66.48113572 93.94820378 -67.71070437 88.84949534 -68.9375 83.75 C-69.18419434 82.71939453 -69.43088867 81.68878906 -69.68505859 80.62695312 C-71.01092868 75.09065376 -72.3522542 69.55863416 -73.71484375 64.03125 C-73.99271729 62.8959082 -74.27059082 61.76056641 -74.55688477 60.59082031 C-75.09045981 58.41193612 -75.62849915 56.23413887 -76.17163086 54.05761719 C-76.41147705 53.07438477 -76.65132324 52.09115234 -76.8984375 51.078125 C-77.11161621 50.21606445 -77.32479492 49.35400391 -77.54443359 48.46582031 C-78.01437687 45.92218308 -78.08140287 43.58064415 -78 41 C-76.78763672 40.51080078 -76.78763672 40.51080078 -75.55078125 40.01171875 C-74.48214844 39.57472656 -73.41351563 39.13773437 -72.3125 38.6875 C-71.25675781 38.25824219 -70.20101563 37.82898438 -69.11328125 37.38671875 C-66.2462191 36.10967099 -63.64909614 34.67595878 -61 33 C-60.68546875 33.54269531 -60.3709375 34.08539063 -60.046875 34.64453125 C-56.93497437 40.24344565 -56.93497437 40.24344565 -52 44 C-46.37286458 44.53591766 -43.67481115 44.34105618 -39 41 C-36.27743571 38.53191928 -33.69997514 35.933199 -31.125 33.3125 C-30.44308594 32.62994141 -29.76117188 31.94738281 -29.05859375 31.24414062 C-25.07419711 27.22559201 -21.28718483 23.08883668 -17.58984375 18.8059082 C-15.47670655 16.40558943 -13.22780024 14.16821519 -10.9375 11.9375 C-7.96914811 9.00987245 -5.11997921 6.06689233 -2.4375 2.875 C-1.633125 1.92625 -0.82875 0.9775 0 0 Z " fill="#AAAFB9" transform="translate(356,373)"/>
<path d="M0 0 C10.25751083 3.89785411 17.74653229 9.46324293 25.2890625 17.3515625 C35.85108845 27.67008353 50.33489455 33.13991085 64.875 34.3125 C81.47159548 33.77927605 97.07393679 25.3585492 108.25 13.5625 C114.03754994 7.56795614 120.49254012 3.56476666 128 0 C128.66 0 129.32 0 130 0 C130.53825769 3.49754701 131.05238457 6.99824688 131.5625 10.5 C131.71396484 11.48226563 131.86542969 12.46453125 132.02148438 13.4765625 C133.14759234 21.33312971 133.92939751 28.24489971 129 35 C117.59712225 50.04258418 101.22039183 57.04528332 82.92333984 59.57446289 C76.46668851 60.2747705 70.05147333 60.32866585 63.5625 60.3125 C62.27279297 60.32861328 60.98308594 60.34472656 59.65429688 60.36132812 C47.59852342 60.36736507 35.65368941 58.91227103 24.625 53.75 C23.95927979 53.44698975 23.29355957 53.14397949 22.60766602 52.83178711 C13.77543034 48.66283402 6.87258993 42.79977061 1 35 C0.55269531 34.41992188 0.10539063 33.83984375 -0.35546875 33.2421875 C-6.22412837 23.98853308 -1.93226146 10.07402335 0 0 Z " fill="#E1B998" transform="translate(191,298)"/>
<path d="M0 0 C0 17.49 0 34.98 0 53 C-3.63 54.32 -7.26 55.64 -11 57 C-22.72087835 63.78577167 -28.73359399 72.20078196 -33 85 C-33.87854498 98.23578422 -31.98854158 108.02291684 -26 120 C-37.22 120 -48.44 120 -60 120 C-60 110.04438957 -59.8117986 100.5826835 -58.75 90.75 C-58.61577637 89.49002197 -58.48155273 88.23004395 -58.34326172 86.93188477 C-57.28938799 77.55552581 -55.79267538 68.41475507 -53.55029297 59.25244141 C-52.97193129 56.88511005 -52.42481524 54.5117285 -51.87890625 52.13671875 C-49.77196802 43.16470265 -47.27331096 34.37424276 -44.375 25.625 C-44.08584717 24.75117676 -43.79669434 23.87735352 -43.4987793 22.97705078 C-39.18937168 10.3049426 -39.18937168 10.3049426 -35 7 C-31.87719727 6.0168457 -31.87719727 6.0168457 -28.06640625 5.17578125 C-27.39206039 5.02465378 -26.71771454 4.87352631 -26.02293396 4.71781921 C-24.59936332 4.40099795 -23.17460066 4.08949207 -21.7487793 3.78295898 C-19.57127101 3.31438741 -17.39788493 2.8295847 -15.22460938 2.34179688 C-4.62906754 0 -4.62906754 0 0 0 Z " fill="#C9CFD5" transform="translate(77,375)"/>
<path d="M0 0 C3.3 0 6.6 0 10 0 C10.23074219 0.93457031 10.46148437 1.86914062 10.69921875 2.83203125 C12.35740937 9.51923145 14.04198589 16.19694632 15.81591797 22.85449219 C19.63837186 37.20145583 23.04453174 51.64246134 26.3125 66.125 C26.56978882 67.2533728 26.56978882 67.2533728 26.83227539 68.40454102 C27.48533274 71.33632269 28 73.98584065 28 77 C12.82 77 -2.36 77 -18 77 C-17.31052271 71.48418164 -16.48822857 66.41064764 -15.109375 61.08203125 C-14.92442474 60.35062424 -14.73947449 59.61921722 -14.54891968 58.86564636 C-14.15578719 57.31282134 -13.76055179 55.76052737 -13.36334229 54.20874023 C-12.32929263 50.16885672 -11.31031946 46.12516373 -10.2890625 42.08203125 C-10.08856293 41.29015411 -9.88806335 40.49827698 -9.68148804 39.68240356 C-8.11008902 33.46719774 -6.59382511 27.24029195 -5.125 21 C-3.47272279 13.9845821 -1.77002098 6.98692493 0 0 Z " fill="#D7525E" transform="translate(251,418)"/>
<path d="M0 0 C5.3360465 3.99051492 9.19715178 9.36326843 11.26171875 15.69140625 C12.3823818 24.03149865 11.18590658 30.81657397 6.26171875 37.69140625 C0.65277065 43.91053281 -5.43895837 47.69460274 -13.92578125 48.25390625 C-21.45307242 48.01543835 -28.39695003 45.00688578 -33.7578125 39.6875 C-39.41996873 32.42726561 -40.62250746 25.78306549 -39.73828125 16.69140625 C-38.01258022 8.9803624 -34.29310125 4.02915478 -27.73828125 -0.30859375 C-19.1387714 -5.3249745 -8.52961394 -4.82108614 0 0 Z " fill="#646C76" transform="translate(99.73828125,447.30859375)"/>
<path d="M0 0 C6.82451368 0.63979816 12.16069769 4.75510984 16.5 9.8125 C17.34463044 10.8660417 18.18239741 11.92534811 19 13 C17.6124182 16.13879381 16.00476592 18.22254795 13.55078125 20.609375 C12.86693359 21.28226562 12.18308594 21.95515625 11.47851562 22.6484375 C10.76373047 23.34195312 10.04894531 24.03546875 9.3125 24.75 C4.53969846 29.40337092 -0.04265523 34.11008312 -4.38989258 39.16503906 C-6.64794227 41.73842821 -9.05020252 44.10784481 -11.5 46.5 C-15.32283747 50.25936345 -18.95361382 54.10869948 -22.3671875 58.24609375 C-24.39393679 60.4231522 -26.64786582 62.18606601 -29 64 C-29.53367187 63.11699219 -30.06734375 62.23398437 -30.6171875 61.32421875 C-35.20597466 53.88474254 -40.03307583 47.38149275 -46.12890625 41.109375 C-48 39 -48 39 -48 37 C-47.04480469 36.70867187 -46.08960938 36.41734375 -45.10546875 36.1171875 C-25.18757057 29.88233432 -11.9661729 19.68653539 -1 2 C-0.67 1.34 -0.34 0.68 0 0 Z " fill="#E2E5E8" transform="translate(338,334)"/>
<path d="M0 0 C1.5078125 2.0546875 1.5078125 2.0546875 3.125 4.875 C12.39690763 20.0418889 26.05450679 30.62072028 43.03515625 35.953125 C45.00590402 36.3903749 47.00161726 36.71451675 49 37 C49 37.66 49 38.32 49 39 C47.67089844 40.23974609 47.67089844 40.23974609 45.859375 41.6484375 C41.95238408 44.88852514 39.14573574 48.48352039 36.25 52.625 C35.31771173 53.92968992 34.38542016 55.23437749 33.453125 56.5390625 C33.02837891 57.14008789 32.60363281 57.74111328 32.16601562 58.36035156 C30.81082765 60.26601372 29.41656691 62.13957546 28 64 C24.10885871 60.19982046 20.27634157 56.39453972 16.75 52.25 C13.6643841 48.65483285 10.36802709 45.32661904 7 42 C3.10677523 38.1544644 -0.6070866 34.25682409 -4.13671875 30.0703125 C-7.45806791 26.37992455 -11.12855736 23.01521371 -14.7421875 19.61328125 C-17.09490578 16.8901523 -17.95319098 15.57503928 -18 12 C-14.9635975 5.76877401 -6.94302227 0 0 0 Z " fill="#E2E5E8" transform="translate(174,334)"/>
<path d="M0 0 C6.39479179 3.20741089 12.12218898 7.09619477 16.41772461 12.89916992 C16.41772461 13.55916992 16.41772461 14.21916992 16.41772461 14.89916992 C2.98707772 21.85337839 -10.94603044 25.40843839 -26.07836914 22.14526367 C-31.46791295 20.4294913 -36.11394031 18.37454165 -40.58227539 14.89916992 C-39.7779525 9.17954045 -34.92052549 6.21585406 -30.58227539 2.89916992 C-21.08108159 -2.84079398 -10.41375993 -4.66804541 0 0 Z " fill="#E86270" transform="translate(268.582275390625,378.100830078125)"/>
</svg>
