<svg xmlns="http://www.w3.org/2000/svg" viewBox="0 0 512 512" fill="#023752">
<g id="Mouth"><path d="M445.2021,188.0768c.0535-.4048.1138-.809.1658-1.2139l-.0486.0058a7.9837,7.9837,0,0,0-3.4228-7.2208l-96.3526-66.1733c-.163-.1113-.3291-.2173-.5-.3164A61.9432,61.9432,0,0,0,266.48,126.6475L256,139.0166l-10.48-12.3691a61.9433,61.9433,0,0,0-78.5644-13.4893c-.1709.0991-.337.2051-.5.3164L70.1035,179.6479a7.9884,7.9884,0,0,0-3.3346,7.9683l-.0169.0029q.3888,2.2269.8337,4.44c8.2579,57.68,30.55,113.8159,63.2639,152.1335,34.7373,40.6865,79.1895,63.0937,125.169,63.0937,45.8984,0,90.291-22.3369,125.0009-62.8955,33.5347-39.1854,56.3575-97.11,64.17-156.2195.0053-.0313.0119-.0622.0175-.0935Zm-38.4863,9.6659-14.0234,30.68a22.43,22.43,0,0,1-20.35,13.0727H139.6211a22.4271,22.4271,0,0,1-20.3486-13.0722l-14.0245-30.68ZM256.0273,277.875c32.9737,0,62.104,11.9774,80.7308,33.01a176.0853,176.0853,0,0,1-161.4705.0035C193.9128,289.8314,222.9365,277.875,256.0273,277.875ZM175.2607,126.8379A45.9645,45.9645,0,0,1,233.3135,136.99l16.5644,19.5523a8.0395,8.0395,0,0,0,12.2442,0L278.6865,136.99a45.9626,45.9626,0,0,1,58.0528-10.1523l74.8486,51.4048H100.4121ZM368.8633,333.9873c-31.6211,36.95-71.6963,57.2988-112.8447,57.2988-41.2217,0-81.3526-20.4145-113.001-57.4829a242.8768,242.8768,0,0,1-36.5847-58.8777c.2495.3086.5088.61.76.9167q.971,1.19,1.9609,2.3645c.2914.3446.5824.6894.8764,1.0319a191.17,191.17,0,0,0,38.9482,34.6734c.2612.176.5272.3444.7893.5191.9549.6336,1.9124,1.2625,2.8776,1.8783.8758.5613,1.7589,1.11,2.6434,1.6563.2724.1677.5445.3358.8176.502,2.1382,1.3063,4.292,2.5852,6.4776,3.8038.1252.07.2565.12.384.1827A192.1393,192.1393,0,0,0,349.41,322.26c.156-.0747.3159-.1381.468-.2235a192.9418,192.9418,0,0,0,55.5843-46.7877A242.6017,242.6017,0,0,1,368.8633,333.9873Z"></path></g></svg>