<svg xmlns="http://www.w3.org/2000/svg" viewBox="0 0 64 64" fill="#023752" ><title>nerve</title><g id="nerve"><path d="M37.36,37.66,39,45.12v3.66a4.18,4.18,0,0,1-2.74-3l-1.81-7.41a2.52,2.52,0,0,0-4.9,0L27.74,45.8a4.15,4.15,0,0,1-1.48,2.3,3.94,3.94,0,0,1-1.26.68V45.12l1.64-7.45a5.52,5.52,0,0,1,10.72,0Z"></path><path d="M48,18.9A7.65,7.65,0,0,0,41.1,12a7.38,7.38,0,0,0-3.15.38A18.21,18.21,0,0,1,26,12.4a7.6,7.6,0,0,0-9.76,9.24,7.51,7.51,0,0,0,1.45,2.77,22.74,22.74,0,0,1,4.6,9.92c.17.81.4,1.84.67,2.94V29a.94.94,0,0,1,.07-.37l1.26-3.13L22.69,25a1,1,0,1,1,.62-1.9l1.19.39-1.17-2a1.62,1.62,0,0,1-.1-.18l-1.09-1.8a1,1,0,0,1,1.72-1l.48.8.94-1a1,1,0,0,1,1.44,1.38L25.4,21.06l1.46,2.43a1,1,0,0,1,.07.88l-.32.78a.09.09,0,0,1,0,.05c0,.06-.05.12-.07.17L25,29.19v.2l.55-.28a1,1,0,0,1,.9,1.78L25,31.62v4.64a7.51,7.51,0,0,1,14,0V29.19l-1.93-4.82a1,1,0,0,1,.07-.88l1.46-2.43-1.32-1.37a1,1,0,1,1,1.44-1.38l.94,1,.48-.8a1,1,0,0,1,1.72,1l-1.15,1.91a.43.43,0,0,1,0,.07l-1.56,2.6.25.62,1.19-.6a1,1,0,1,1,.9,1.78l-1.35.67.83,2.07A.94.94,0,0,1,41,29v8.27c.27-1.11.51-2.15.68-3a22.57,22.57,0,0,1,4.6-9.92A7.64,7.64,0,0,0,48,18.9Z"></path><path d="M52.53,23a12.46,12.46,0,0,1-2.4,4.59,17.86,17.86,0,0,0-3.56,7.75c-.68,3.33-1.53,7.47-2.12,10.31A4.19,4.19,0,0,1,41,49V45.14c.27-1,2-7.29,2.63-10.42a20.65,20.65,0,0,1,4.19-9,9.59,9.59,0,0,0,1.83-3.51A9.42,9.42,0,0,0,50,18.72,9.67,9.67,0,0,0,41.27,10a9.43,9.43,0,0,0-4,.48,16.25,16.25,0,0,1-10.6,0A9.61,9.61,0,0,0,14,18.72a9.34,9.34,0,0,0,.32,3.47,9.44,9.44,0,0,0,1.83,3.49,20.77,20.77,0,0,1,4.18,9.06c.64,3.11,2.36,9.38,2.63,10.4V49a4.18,4.18,0,0,1-3.45-3.3c-.59-2.84-1.44-7-2.12-10.31a17.86,17.86,0,0,0-3.56-7.75,12.58,12.58,0,0,1-2.82-9.13A12.67,12.67,0,0,1,22.47,7.05a12.5,12.5,0,0,1,5.21.63,13.19,13.19,0,0,0,8.64,0,12.5,12.5,0,0,1,5.21-.63A12.67,12.67,0,0,1,53,18.46,12.4,12.4,0,0,1,52.53,23Z"></path><path d="M57,23V40A17,17,0,0,1,41,57V54a1,1,0,0,0-2,0v3H25V55a1,1,0,0,0-2,0v2A17,17,0,0,1,7,40V23H9.4c0,.18.09.36.14.54a14.38,14.38,0,0,0,2.79,5.32,15.82,15.82,0,0,1,3.14,6.88c.68,3.33,1.53,7.47,2.12,10.31A6.2,6.2,0,0,0,23,51v1a1,1,0,0,0,2,0V50.85a6.16,6.16,0,0,0,4.68-4.58l1.81-7.4a.53.53,0,0,1,1,0l1.81,7.42A6.15,6.15,0,0,0,39,50.85V51a1,1,0,0,0,2,0v0a6.16,6.16,0,0,0,5.41-4.9c.59-2.85,1.44-7,2.12-10.31a15.72,15.72,0,0,1,3.14-6.88,14.37,14.37,0,0,0,2.78-5.32c0-.18.1-.36.14-.55Z"></path></g></svg>