<svg xmlns="http://www.w3.org/2000/svg" version="1.1" viewBox="285.73 298 1471.27 469.17">
<path d="M0 0 C0.81263306 -0.00626404 1.62526611 -0.01252808 2.46252441 -0.01898193 C49.93831844 -0.25033143 92.833435 20.3113684 126.375 53.25 C159.44958614 86.54678146 177.69092955 133.14103202 177.57363892 179.81204224 C177.56996307 180.5753183 177.56628723 181.33859436 177.5625 182.125 C177.55976578 183.30846512 177.55976578 183.30846512 177.55697632 184.51583862 C177.50966815 196.70331709 176.97114397 208.51341556 174.25 220.4375 C174.07307617 221.22817871 173.89615234 222.01885742 173.71386719 222.83349609 C165.70385639 257.67496795 148.81050782 287.64710332 124.25 313.4375 C123.26966797 314.49710938 123.26966797 314.49710938 122.26953125 315.578125 C116.21262072 321.93206952 109.28292346 327.21928559 102.25 332.4375 C101.39390137 333.07606934 101.39390137 333.07606934 100.52050781 333.72753906 C84.56520851 345.44886462 66.38813611 353.43921907 47.40332031 358.8046875 C43.65031901 359.90761033 39.95158702 361.1743375 36.25 362.4375 C37.00692139 362.75799316 37.76384277 363.07848633 38.54370117 363.40869141 C52.76774161 369.45142374 66.87406979 375.62865335 80.75 382.4375 C136.69983846 409.81229092 207.23022977 442.46097012 270.25 423.25 C281.18167297 419.23258038 290.1873764 413.22707019 298.20581055 404.85498047 C299.59375 403.46484375 299.59375 403.46484375 302.25 401.4375 C305.09375 401.62890625 305.09375 401.62890625 307.25 402.4375 C306.74122941 406.57932257 305.70849193 408.4629538 302.6875 411.3125 C301.95789063 412.0034375 301.22828125 412.694375 300.4765625 413.40625 C299.74179687 414.0765625 299.00703125 414.746875 298.25 415.4375 C297.33347656 416.28828125 297.33347656 416.28828125 296.3984375 417.15625 C294.38877095 418.96922578 292.3325058 420.70856055 290.25 422.4375 C289.31542969 423.22253906 288.38085938 424.00757813 287.41796875 424.81640625 C261.16442515 446.29507367 227.20200688 450.91428406 194.27124023 447.66479492 C139.85595012 441.57173497 88.55450613 417.31873118 39.71484375 393.875 C12.91136129 381.01632966 -14.02906824 368.45837641 -42.75 360.4375 C-44.60625 359.90189453 -44.60625 359.90189453 -46.5 359.35546875 C-59.27537305 356.11726655 -75.92394672 354.64846942 -87.75 361.4375 C-92.33813852 364.46449874 -96.2919334 367.88762583 -100.0625 371.875 C-102.75 374.4375 -102.75 374.4375 -106.75 374.4375 C-107.4296875 372.67578125 -107.4296875 372.67578125 -107.75 370.4375 C-101.20416498 359.33704551 -88.27077679 352.95184694 -76.75 348.4375 C-77.86375 347.85484375 -78.9775 347.2721875 -80.125 346.671875 C-95.10977459 338.68186887 -108.49037566 329.22704672 -120.75 317.4375 C-121.27271484 316.94588379 -121.79542969 316.45426758 -122.33398438 315.94775391 C-156.97766802 283.26931914 -176.5014926 236.79579119 -177.97265625 189.37109375 C-178.38880353 167.88364493 -176.2529851 146.96791269 -169.75 126.4375 C-169.5132959 125.68227051 -169.2765918 124.92704102 -169.03271484 124.14892578 C-161.02808111 99.24738201 -147.6994631 76.43459714 -129.75 57.4375 C-128.59935973 56.08741542 -127.4533304 54.73338411 -126.3125 53.375 C-105.40199529 29.55893541 -73.18687236 12.12271907 -42.75 4.4375 C-41.5439209 4.12425781 -41.5439209 4.12425781 -40.31347656 3.8046875 C-26.9717363 0.50191435 -13.67091489 0.0491947 0 0 Z M-96.75 39.4375 C-97.58660156 40.26765625 -98.42320312 41.0978125 -99.28515625 41.953125 C-107.7810983 50.5163883 -114.66200125 59.06401673 -120.75 69.4375 C-121.09804688 70.02515137 -121.44609375 70.61280273 -121.8046875 71.21826172 C-134.14819577 92.33795797 -140.67027435 116.312023 -143.75 140.4375 C-143.94916016 141.96697266 -143.94916016 141.96697266 -144.15234375 143.52734375 C-149.81834271 197.62599138 -132.34026438 255.83360212 -98.32421875 298.21386719 C-86.88756938 312.19283241 -74.46319237 323.97141471 -59.75 334.4375 C-59.09950684 334.90559082 -58.44901367 335.37368164 -57.77880859 335.85595703 C-49.06360586 342.00720334 -41.76065786 344.4473213 -31.05810547 345.22753906 C-12.93221844 346.87639276 5.0319415 351.69814717 22.25 357.4375 C44.1945917 359.92564144 69.40168706 347.94150565 86.2590332 334.70336914 C98.27891893 324.84357882 109.02228831 313.65301414 117.25 300.4375 C117.6320459 299.82471191 118.0140918 299.21192383 118.40771484 298.58056641 C131.73278215 276.82205341 139.70338282 252.6465487 143.25 227.4375 C143.3442627 226.80537598 143.43852539 226.17325195 143.53564453 225.52197266 C144.55512271 217.82390931 144.49374208 210.06426231 144.5 202.3125 C144.50067474 201.55972778 144.50134949 200.80695557 144.50204468 200.03137207 C144.48353843 186.97460734 143.66589284 174.29476385 141.25 161.4375 C141.07839355 160.5211377 140.90678711 159.60477539 140.72998047 158.66064453 C133.68498786 122.3905798 117.53075999 88.31485227 93.25 60.4375 C92.75967285 59.87272949 92.2693457 59.30795898 91.76416016 58.72607422 C68.00427544 31.58002114 35.4821417 11.06716255 -0.75 6.4375 C-37.72901259 4.42172676 -70.00128236 12.77070799 -96.75 39.4375 Z " fill="#111D43" transform="translate(463.75,318.5625)"/>
<path d="M0 0 C8.90034379 6.81582567 15.77065566 14.25382424 20.84765625 24.25390625 C21.17781738 24.90230469 21.50797852 25.55070312 21.84814453 26.21875 C26.69688814 36.32727672 26.71007723 46.41777156 26.71313477 57.39697266 C26.72080701 59.029118 26.72935546 60.66125942 26.7387085 62.293396 C26.75691681 65.79473927 26.76900043 69.29602991 26.77624702 72.79741287 C26.78779528 78.34712673 26.81328174 83.89672498 26.84056091 89.44638062 C26.88214396 98.23614324 26.91458136 107.02591162 26.94303507 115.81572568 C26.99399639 131.52671972 27.05660159 147.23766299 27.12837547 162.94857538 C27.15310394 168.45136547 27.17262252 173.95414114 27.18775761 179.45696568 C27.19806079 182.89932024 27.2122073 186.3416521 27.22723389 189.78398895 C27.23331882 191.36444683 27.23781697 192.94491186 27.24049187 194.52537918 C25.85174772 215.30933654 25.85174772 215.30933654 32.41015625 233.19140625 C35.84271057 233.32342757 38.27452651 233.09936143 41.02734375 230.8984375 C45.73691037 225.37140724 47.40655901 218.65047963 49.33203125 211.80078125 C50.16319516 209.01818903 50.9885816 206.698547 52.41015625 204.19140625 C54.06015625 204.52140625 55.71015625 204.85140625 57.41015625 205.19140625 C56.73662944 217.98841571 52.18332027 232.41824223 42.97265625 241.62890625 C36.64764674 245.48561937 31.78790819 246.677524 24.47265625 246.56640625 C23.71275391 246.57800781 22.95285156 246.58960938 22.16992188 246.6015625 C15.86530523 246.56925874 10.32532214 245.41448239 5.23828125 241.53515625 C-2.59170169 232.38725539 -4.69645591 221.99980635 -4.73460388 210.1552887 C-4.73813073 209.48272708 -4.74165757 208.81016547 -4.74529129 208.1172232 C-4.75589443 205.88225943 -4.75964464 203.64733841 -4.76342773 201.41235352 C-4.7697399 199.80183231 -4.77650643 198.19131283 -4.78369141 196.58079529 C-4.79832118 193.11980617 -4.81006253 189.65882359 -4.81963921 186.19781685 C-4.8351599 180.71102422 -4.85911204 175.22428808 -4.88453674 169.73753357 C-4.95554831 154.13731472 -5.01533855 138.53706324 -5.06665039 122.93676758 C-5.09508329 114.31500685 -5.13053606 105.69330215 -5.17330414 97.07160038 C-5.19986937 91.632637 -5.21790133 86.1937369 -5.22934139 80.75472176 C-5.23856122 77.34834587 -5.25596605 73.94204585 -5.27552032 70.5357151 C-5.28290318 68.97342389 -5.28707118 67.41111307 -5.28751564 65.84880447 C-5.29827325 44.90126357 -6.8469127 20.56845621 -21.83984375 4.37890625 C-37.09119945 -9.57091144 -55.87307309 -10.54616841 -75.46972656 -9.98339844 C-91.96767353 -9.05910031 -106.59425747 -0.72438094 -118.58984375 10.19140625 C-119.22277344 10.743125 -119.85570312 11.29484375 -120.5078125 11.86328125 C-130.62168157 21.21340277 -136.90260815 33.86224322 -142.58984375 46.19140625 C-142.94820187 46.95101151 -143.30655998 47.71061676 -143.67577744 48.49324036 C-144.78121349 51.75629668 -144.84161015 54.44766041 -144.84381104 57.89331055 C-144.84849101 58.88438875 -144.84849101 58.88438875 -144.85326552 59.89548874 C-144.86122176 62.10229246 -144.85493104 64.30881938 -144.84863281 66.515625 C-144.85134394 68.10116232 -144.85490556 69.68669838 -144.85925293 71.27223206 C-144.86837064 75.57642199 -144.86483364 79.88051603 -144.85849476 84.18470764 C-144.85342451 88.69898737 -144.85812972 93.213259 -144.86126709 97.72753906 C-144.86490673 105.31690947 -144.86011081 112.90624097 -144.85058594 120.49560547 C-144.83973275 129.24382446 -144.84320409 137.99194999 -144.85423875 146.74016666 C-144.86334924 154.26653112 -144.86457764 161.79286761 -144.85936141 169.3192358 C-144.85625827 173.8071082 -144.85578583 178.29493688 -144.86243439 182.7828064 C-144.86826097 187.01159409 -144.86411495 191.24026299 -144.85264587 195.46903801 C-144.85002609 197.01163474 -144.8507178 198.55424166 -144.8551712 200.09683418 C-145.6612804 217.38198326 -145.6612804 217.38198326 -138.58984375 232.19140625 C-132.46824293 234.59605903 -126.31907649 234.59104168 -119.8203125 234.84765625 C-116.58984375 235.19140625 -116.58984375 235.19140625 -114.58984375 237.19140625 C-115.12555804 240.72712054 -115.12555804 240.72712054 -116.58984375 242.19140625 C-119.28230025 242.29187807 -121.94913327 242.32757069 -124.64208984 242.32080078 C-125.90792152 242.32342926 -125.90792152 242.32342926 -127.19932556 242.32611084 C-130.00399805 242.33053133 -132.80860806 242.32759016 -135.61328125 242.32421875 C-137.55522677 242.32489186 -139.4971722 242.32586194 -141.43911743 242.32711792 C-145.5163859 242.32859526 -149.59363251 242.32643964 -153.67089844 242.32177734 C-158.90231256 242.3160876 -164.13367529 242.31935405 -169.36508751 242.32534981 C-173.3781676 242.3289609 -177.39123549 242.32781417 -181.40431595 242.32522202 C-183.33326854 242.32455387 -185.26222224 242.32537725 -187.19117355 242.32770157 C-189.8870818 242.3302362 -192.58290658 242.32637563 -195.27880859 242.32080078 C-196.07996597 242.32282501 -196.88112335 242.32484924 -197.70655823 242.32693481 C-200.9313045 242.31455821 -203.5080553 242.21866907 -206.58984375 241.19140625 C-206.58984375 239.54140625 -206.58984375 237.89140625 -206.58984375 236.19140625 C-203.60553101 234.69924988 -200.72229741 234.95405487 -197.40234375 234.81640625 C-189.59314381 234.36926984 -189.59314381 234.36926984 -182.58984375 231.19140625 C-177.13295413 224.87290248 -177.43987079 217.71643538 -177.45613098 209.72802734 C-177.45386542 208.90210775 -177.45159987 208.07618816 -177.44926566 207.22524071 C-177.44296115 204.47176063 -177.44375272 201.71833022 -177.44458008 198.96484375 C-177.44158644 196.98504574 -177.43818344 195.00524832 -177.43440247 193.02545166 C-177.42558086 187.65779563 -177.42322518 182.29015556 -177.42258668 176.92249298 C-177.42187534 173.56801691 -177.41973947 170.21354489 -177.41708946 166.85906982 C-177.40784342 155.15409081 -177.40375381 143.44912317 -177.40454102 131.74414062 C-177.4051422 120.83609425 -177.39458045 109.92809727 -177.37879735 99.0200634 C-177.36572305 89.65003667 -177.36035705 80.28002609 -177.36099643 70.90999031 C-177.36125137 65.31568794 -177.35840202 59.72142951 -177.34781837 54.12713623 C-177.33813884 48.86746248 -177.33805726 43.60787471 -177.34533501 38.34819794 C-177.3463809 36.41928736 -177.34401771 34.49037143 -177.33797455 32.56147003 C-177.33025256 29.92580735 -177.33490076 27.29044149 -177.34260559 24.65478516 C-177.33746203 23.89397833 -177.33231846 23.1331715 -177.32701904 22.34930992 C-177.35760482 17.60550079 -177.98565291 13.67215791 -179.58984375 9.19140625 C-182.91143742 5.97696077 -186.22085096 5.09922698 -190.75 4.91015625 C-191.54341797 4.87277344 -192.33683594 4.83539063 -193.15429688 4.796875 C-194.82356077 4.72639787 -196.49283165 4.65608614 -198.16210938 4.5859375 C-198.95423828 4.54855469 -199.74636719 4.51117188 -200.5625 4.47265625 C-201.28703369 4.44236328 -202.01156738 4.41207031 -202.75805664 4.38085938 C-204.58984375 4.19140625 -204.58984375 4.19140625 -206.58984375 3.19140625 C-206.58984375 1.54140625 -206.58984375 -0.10859375 -206.58984375 -1.80859375 C-176.09528024 -7.58510972 -176.09528024 -7.58510972 -161.46484375 -10.18359375 C-160.54372803 -10.35084961 -159.6226123 -10.51810547 -158.67358398 -10.69042969 C-157.81837158 -10.8402832 -156.96315918 -10.99013672 -156.08203125 -11.14453125 C-155.3535498 -11.2739209 -154.62506836 -11.40331055 -153.87451172 -11.53662109 C-151.13084012 -11.8632347 -148.35288741 -11.80859375 -145.58984375 -11.80859375 C-145.25984375 0.40140625 -144.92984375 12.61140625 -144.58984375 25.19140625 C-141.94984375 21.89140625 -139.30984375 18.59140625 -136.58984375 15.19140625 C-103.467162 -22.36136979 -40.89094829 -28.5558206 0 0 Z " fill="#15234C" transform="translate(1087.58984375,436.80859375)"/>
<path d="M0 0 C15.05631752 12.85630765 23.68173679 30.29146686 25.31640625 49.94140625 C25.4738923 54.86171184 25.4809411 59.7817192 25.48999023 64.70410156 C25.49630503 66.19318329 25.50307184 67.68226315 25.51025391 69.17134094 C25.52486131 72.36603656 25.53661125 75.5607252 25.54620171 78.75543976 C25.56173726 83.81695401 25.58568683 88.87840732 25.61109924 93.93988037 C25.68207956 108.3288588 25.74199393 122.71787167 25.79321289 137.10693359 C25.82160804 145.06321919 25.85703611 153.01944359 25.89986664 160.97566485 C25.92648002 165.99676079 25.94448218 171.01778765 25.95590389 176.03893995 C25.96509714 179.17635094 25.9824896 182.31367863 26.00208282 185.45104027 C26.00949022 186.89406955 26.01363522 188.33712031 26.01407814 189.78016853 C26.02108532 202.42219935 26.13541915 215.84218177 34.12890625 226.31640625 C40.52319559 231.06644976 47.59940269 231.86432037 55.31640625 232.94140625 C55.31640625 234.92140625 55.31640625 236.90140625 55.31640625 238.94140625 C49.8803514 240.75342453 44.00416672 240.1261044 38.31640625 240.12890625 C37.03894531 240.14115234 35.76148438 240.15339844 34.4453125 240.16601562 C23.06377732 240.18348983 12.02484757 240.140582 3.31640625 231.94140625 C-4.7192802 221.90119408 -6.1152597 210.23129829 -6.37109375 197.75390625 C-6.40525391 196.61115234 -6.43941406 195.46839844 -6.47460938 194.29101562 C-6.5561229 191.50791087 -6.62558045 188.72508289 -6.68359375 185.94140625 C-7.19148438 186.99199219 -7.699375 188.04257812 -8.22265625 189.125 C-20.27756277 213.82357525 -36.78062536 231.74110264 -63.13671875 240.93359375 C-87.0048689 247.71551306 -114.17885479 246.05542419 -136.0234375 234.0703125 C-152.43784323 224.673012 -162.88246498 211.65078072 -168.140625 193.390625 C-172.32997257 174.49335214 -169.70743084 155.47501123 -159.87988281 138.81054688 C-146.43452397 117.80285967 -121.9974307 107.50718925 -98.68359375 101.94140625 C-78.87552892 97.77888662 -59.35321111 97.42048548 -39.23455811 97.66674805 C-35.43185799 97.70863737 -31.62903911 97.72613684 -27.82617188 97.74609375 C-20.44500596 97.78822106 -13.064399 97.85591935 -5.68359375 97.94140625 C-5.8971936 91.32864038 -6.12938115 84.71669693 -6.37329102 78.10498047 C-6.4538662 75.8652146 -6.53049689 73.62530261 -6.6027832 71.38525391 C-6.96790064 60.14970893 -7.43738002 49.00216649 -9.0859375 37.87109375 C-9.20121292 37.0887738 -9.31648834 36.30645386 -9.43525696 35.50042725 C-11.90679615 20.29683224 -18.31130023 6.74310607 -30.2265625 -3.3046875 C-44.37127702 -13.40162998 -62.31644121 -13.83830181 -79.01318359 -11.77001953 C-92.49399296 -9.31146311 -104.05530899 -1.49735036 -112.68359375 8.94140625 C-115.86838065 13.94245094 -117.75553316 18.86658434 -117.96484375 24.79296875 C-118.00222656 25.72625 -118.03960938 26.65953125 -118.078125 27.62109375 C-118.1487169 29.59243793 -118.2190272 31.56379222 -118.2890625 33.53515625 C-118.32644531 34.46585937 -118.36382813 35.3965625 -118.40234375 36.35546875 C-118.43263672 37.21092285 -118.46292969 38.06637695 -118.49414062 38.94775391 C-118.68359375 40.94140625 -118.68359375 40.94140625 -119.68359375 41.94140625 C-125.66785663 42.52743576 -130.57465629 42.38696872 -135.68359375 38.94140625 C-140.35144374 35.01616876 -142.32030457 31.74296805 -142.90234375 25.65234375 C-143.26358909 15.92882338 -140.53365798 8.84347365 -134.23828125 1.4296875 C-126.02068025 -6.57430613 -115.58820119 -11.77392794 -104.68359375 -15.05859375 C-103.42675781 -15.45046875 -102.16992188 -15.84234375 -100.875 -16.24609375 C-68.64166736 -25.13273067 -26.84159265 -20.59027558 0 0 Z M-114.68359375 125.94140625 C-115.62332031 126.72064453 -115.62332031 126.72064453 -116.58203125 127.515625 C-128.28177412 138.02421758 -134.81797957 155.72735804 -135.82519531 171.10302734 C-136.752269 190.10024733 -134.06692014 207.21865411 -121.49609375 222.19140625 C-111.45872039 232.74824301 -99.47444445 237.91754903 -84.99145508 238.41210938 C-65.56146649 238.61945474 -50.37151385 232.34625808 -36.43359375 218.75390625 C-9.49965006 191.20782747 -5.54380023 153.50971326 -5.65625 116.76953125 C-5.65822388 115.53025879 -5.66019775 114.29098633 -5.66223145 113.01416016 C-5.66733507 109.98989885 -5.67449612 106.96565772 -5.68359375 103.94140625 C-12.9694574 103.87117428 -20.25524532 103.81823054 -27.54138184 103.78596973 C-30.92647455 103.77046797 -34.31133181 103.74952275 -37.69628906 103.71508789 C-66.67517249 103.44200529 -91.9523314 106.13943028 -114.68359375 125.94140625 Z " fill="#242937" transform="translate(1701.68359375,439.05859375)"/>
<path d="M0 0 C0.00203479 1.11674492 0.00203479 1.11674492 0.00411069 2.25605035 C0.08478999 46.39730701 0.17575658 90.53853222 0.28005161 134.67973973 C0.29257023 139.98180548 0.30500304 145.28387142 0.31738281 150.5859375 C0.31984881 151.6414674 0.3223148 152.69699731 0.32485552 153.78451297 C0.36456113 170.86742701 0.3973182 187.95034766 0.42749982 205.03328088 C0.45863217 222.56663103 0.49724922 240.09995323 0.54279006 257.63327193 C0.57064782 268.44910885 0.59269262 279.26492535 0.60726251 290.08078846 C0.61781819 297.5012453 0.63565502 304.92166257 0.65916704 312.34208956 C0.67251139 316.62095034 0.68269378 320.89975576 0.68421364 325.17863846 C0.68567842 329.10222102 0.69636273 333.02567045 0.71413441 336.94921204 C0.71895277 338.36259842 0.72049496 339.77600094 0.71827881 341.18939379 C0.42752489 355.63600565 0.42752489 355.63600565 4.75 369.125 C10.44612244 373.8717687 17.57896502 373.37701147 24.63671875 373.65625 C28 374 28 374 31 376 C30.625 377.9375 30.625 377.9375 30 380 C26.80134327 381.59932836 23.33118912 381.1382478 19.81835938 381.12939453 C18.97271927 381.13114685 18.12707916 381.13289917 17.2558136 381.13470459 C14.45177172 381.13911713 11.64779256 381.1361872 8.84375 381.1328125 C6.90083809 381.13348571 4.95792627 381.13445588 3.01501465 381.13571167 C-1.06047364 381.13718783 -5.13594003 381.13503669 -9.21142578 381.13037109 C-14.44403068 381.12467386 -19.6765843 381.1279533 -24.90918732 381.13394356 C-28.92222482 381.13755136 -32.9352501 381.13640957 -36.94828796 381.13381577 C-38.87806708 381.13314711 -40.80784729 381.1339728 -42.73762512 381.13629532 C-45.43123326 381.13882541 -48.12475751 381.13497616 -50.81835938 381.12939453 C-51.62154099 381.13141876 -52.4247226 381.13344299 -53.25224304 381.13552856 C-58.77147179 381.1142641 -58.77147179 381.1142641 -61 380 C-61.042721 378.33388095 -61.04063832 376.66617115 -61 375 C-59.07932308 373.07932308 -55.4940019 373.73078629 -52.9375 373.625 C-47.07348777 373.28918161 -42.20471504 372.84786295 -37 370 C-30.50903597 362.6768611 -31.8531952 352.9308386 -31.85955811 343.71520996 C-31.85697175 342.35709725 -31.85395784 340.9989853 -31.8505547 339.64087439 C-31.84251384 335.91908249 -31.84069677 332.19730991 -31.83995724 328.47551036 C-31.8381017 324.45773349 -31.83055208 320.43996654 -31.82382202 316.42219543 C-31.81026107 307.64349567 -31.80421808 298.86480049 -31.79981136 290.086092 C-31.79704636 284.60424325 -31.79280866 279.12239626 -31.78830719 273.64054871 C-31.77611974 258.46001547 -31.7658179 243.27948364 -31.7624321 228.09894562 C-31.76221253 227.1281083 -31.76199297 226.15727097 -31.76176675 225.15701434 C-31.76154847 224.18388137 -31.76133019 223.2107484 -31.7611053 222.20812654 C-31.76066183 220.23624452 -31.76021527 218.26436249 -31.75976562 216.29248047 C-31.7595442 215.31436289 -31.75932277 214.33624532 -31.75909463 213.32848781 C-31.75514383 197.46801794 -31.73767887 181.60759393 -31.7144061 165.74714178 C-31.69070016 149.46001581 -31.67823067 133.17291287 -31.67706418 116.88576937 C-31.67614724 107.7423582 -31.6703897 98.59900687 -31.65224457 89.45561218 C-31.63685414 81.67307143 -31.63171704 73.89060903 -31.63998267 66.10805595 C-31.6438923 62.13755859 -31.6429442 58.16721909 -31.62892532 54.1967411 C-31.61620589 50.56109748 -31.61736648 46.92573066 -31.62951604 43.29008752 C-31.63240407 41.35401042 -31.6205227 39.41792861 -31.60809398 37.48188925 C-31.64351965 31.26930723 -31.75573912 26.39381932 -35 21 C-41.34114436 17.26991508 -48.40104433 17.48698279 -55.5859375 17.2109375 C-59 17 -59 17 -61 16 C-61 14.35 -61 12.7 -61 11 C-3.41694772 0 -3.41694772 0 0 0 Z " fill="#101D43" transform="translate(719,298)"/>
<path d="M0 0 C1.13995926 0.00506058 1.13995926 0.00506058 2.302948 0.01022339 C32.1267921 0.20126914 58.5891052 8.77497554 80.6875 29.4375 C92.16717922 41.53608367 97.18654112 54.48930876 96.94140625 70.9296875 C96.54714106 76.3766128 95.07894327 79.35033509 92.0625 83.875 C88.44036502 86.25798354 84.90203704 85.76169516 80.6875 85.4375 C78.27932353 80.43590273 76.35211415 75.4730623 74.71850586 70.17797852 C67.34926444 46.55784452 52.46090675 25.96999885 30.296875 14.1640625 C12.39230884 5.21177942 -11.6534063 4.31071379 -30.6796875 10.046875 C-55.62633937 19.59634604 -73.81019838 36.11049237 -84.90185547 60.46826172 C-88.50658032 68.86492206 -91.09446183 77.58461938 -93.3125 86.4375 C-93.49329102 87.15760254 -93.67408203 87.87770508 -93.86035156 88.61962891 C-103.08317341 127.81203786 -95.55926384 175.5638133 -74.5625 209.75 C-59.47659117 233.24025001 -38.34193632 249.71324445 -10.94262695 255.97949219 C15.31160022 260.5513784 40.86375758 252.81990904 62.6875 238.4375 C74.98290716 229.73613493 84.64292827 219.36303678 92.62890625 206.6875 C94.22532945 204.16715066 95.8515124 201.78381003 97.6875 199.4375 C99.0075 199.7675 100.3275 200.0975 101.6875 200.4375 C102.3671875 202.12109375 102.3671875 202.12109375 102.6875 204.4375 C91.69058026 228.16162405 66.71607528 248.35969659 42.51171875 257.23535156 C28.23886085 262.04578635 14.2124675 263.85365006 -0.8125 263.8125 C-1.56095184 263.81195618 -2.30940369 263.81141235 -3.08053589 263.81085205 C-15.20442563 263.770431 -26.62888496 262.90748581 -38.3125 259.4375 C-39.39772949 259.12401611 -39.39772949 259.12401611 -40.50488281 258.80419922 C-72.2375491 249.36079541 -99.62735955 227.19657576 -115.55371094 198.17578125 C-132.87556769 165.05761157 -136.48958939 125.78446881 -125.63305664 89.89819336 C-117.43768328 65.08970685 -102.41155066 42.05709571 -81.3125 26.4375 C-80.57257813 25.86 -79.83265625 25.2825 -79.0703125 24.6875 C-68.33484652 16.66376072 -55.85882878 10.31504802 -43.1875 6 C-42.54554687 5.77755615 -41.90359375 5.5551123 -41.2421875 5.32592773 C-27.79112331 1.05843313 -14.0200779 -0.1219238 0 0 Z " fill="#1B2749" transform="translate(1403.3125,419.5625)"/>
<path d="M0 0 C0.00331015 1.15276019 0.00662029 2.30552038 0.01003075 3.4932127 C0.08916285 30.89863044 0.17842582 58.30399982 0.28005161 85.7093438 C0.29256948 89.08739755 0.30500241 92.46545161 0.31738281 95.84350586 C0.31984881 96.51597476 0.3223148 97.18844367 0.32485552 97.88129041 C0.3645067 108.74919217 0.39728773 119.61710423 0.42749982 130.48503586 C0.45868758 141.64852046 0.49747315 152.8119646 0.54279006 163.9754017 C0.56798511 170.24067589 0.58978697 176.50591962 0.60334396 182.7712307 C0.61622787 188.67516606 0.63835002 194.57899657 0.66738319 200.48287392 C0.67640965 202.64306628 0.6821376 204.8032755 0.68421364 206.96348572 C-0.43455822 226.78639062 -0.43455822 226.78639062 7 244 C12.6438379 246.61097155 18.5198388 246.41423695 24.63671875 246.65625 C28 247 28 247 31 249 C30.625 250.9375 30.625 250.9375 30 253 C26.80134327 254.59932836 23.33118912 254.1382478 19.81835938 254.12939453 C18.97271927 254.13114685 18.12707916 254.13289917 17.2558136 254.13470459 C14.45177172 254.13911713 11.64779256 254.1361872 8.84375 254.1328125 C6.90083809 254.13348571 4.95792627 254.13445588 3.01501465 254.13571167 C-1.06047364 254.13718783 -5.13594003 254.13503669 -9.21142578 254.13037109 C-14.44403068 254.12467386 -19.6765843 254.1279533 -24.90918732 254.13394356 C-28.92222482 254.13755136 -32.9352501 254.13640957 -36.94828796 254.13381577 C-38.87806708 254.13314711 -40.80784729 254.1339728 -42.73762512 254.13629532 C-45.43123326 254.13882541 -48.12475751 254.13497616 -50.81835938 254.12939453 C-51.62154099 254.13141876 -52.4247226 254.13344299 -53.25224304 254.13552856 C-58.77147179 254.1142641 -58.77147179 254.1142641 -61 253 C-61 251.35 -61 249.7 -61 248 C-58.01568726 246.50784363 -55.13245366 246.76264862 -51.8125 246.625 C-46.2816864 246.31882528 -41.78033546 245.93338767 -37 243 C-29.56081384 234.37535836 -31.7165096 220.19734224 -31.74121094 209.5246582 C-31.73849773 207.55426911 -31.73493495 205.58388104 -31.73059082 203.61349487 C-31.7215056 198.28524908 -31.72499461 192.95708109 -31.73134899 187.62883401 C-31.7364269 182.0440731 -31.73171276 176.45931867 -31.72857666 170.8745575 C-31.72494314 161.50091358 -31.72972095 152.12730123 -31.73925781 142.75366211 C-31.7501507 131.92223311 -31.74660824 121.09087936 -31.735605 110.25945216 C-31.72652601 100.94880826 -31.72524957 91.638187 -31.73048234 82.3275401 C-31.73359743 76.77129361 -31.73402381 71.21508248 -31.72740936 65.65883827 C-31.72162731 60.43769306 -31.7256486 55.21664485 -31.73719788 49.9955101 C-31.73983944 48.08111291 -31.73908798 46.16670754 -31.73467255 44.25231361 C-31.72919605 41.63650854 -31.73607662 39.02101309 -31.74603271 36.40522766 C-31.74157127 35.65035814 -31.73710983 34.89548862 -31.73251319 34.11774427 C-31.7677514 29.33463321 -32.4037587 25.46549313 -34 21 C-37.32159367 17.78555452 -40.63100721 16.90782073 -45.16015625 16.71875 C-45.95357422 16.68136719 -46.74699219 16.64398438 -47.56445312 16.60546875 C-49.23371702 16.53499162 -50.9029879 16.46467989 -52.57226562 16.39453125 C-53.36439453 16.35714844 -54.15652344 16.31976563 -54.97265625 16.28125 C-55.69718994 16.25095703 -56.42172363 16.22066406 -57.16821289 16.18945312 C-59 16 -59 16 -61 15 C-61 13.35 -61 11.7 -61 10 C-30.50543649 4.22348403 -30.50543649 4.22348403 -15.875 1.625 C-14.95388428 1.45774414 -14.03276855 1.29048828 -13.08374023 1.11816406 C-12.22852783 0.96831055 -11.37331543 0.81845703 -10.4921875 0.6640625 C-9.76370605 0.53467285 -9.03522461 0.4052832 -8.28466797 0.27197266 C-5.51149169 -0.05815327 -2.79059538 -0.01660199 0 0 Z " fill="#18254C" transform="translate(1220,425)"/>
<path d="M0 0 C0.00331015 1.15276019 0.00662029 2.30552038 0.01003075 3.4932127 C0.08916285 30.89863044 0.17842582 58.30399982 0.28005161 85.7093438 C0.29256948 89.08739755 0.30500241 92.46545161 0.31738281 95.84350586 C0.31984881 96.51597476 0.3223148 97.18844367 0.32485552 97.88129041 C0.3645067 108.74919217 0.39728773 119.61710423 0.42749982 130.48503586 C0.45868758 141.64852046 0.49747315 152.8119646 0.54279006 163.9754017 C0.56798511 170.24067589 0.58978697 176.50591962 0.60334396 182.7712307 C0.61622787 188.67516606 0.63835002 194.57899657 0.66738319 200.48287392 C0.67640965 202.64306628 0.6821376 204.8032755 0.68421364 206.96348572 C-0.43455822 226.78639062 -0.43455822 226.78639062 7 244 C12.6438379 246.61097155 18.5198388 246.41423695 24.63671875 246.65625 C28 247 28 247 31 249 C30.625 250.9375 30.625 250.9375 30 253 C26.80134327 254.59932836 23.33118912 254.1382478 19.81835938 254.12939453 C18.97271927 254.13114685 18.12707916 254.13289917 17.2558136 254.13470459 C14.45177172 254.13911713 11.64779256 254.1361872 8.84375 254.1328125 C6.90083809 254.13348571 4.95792627 254.13445588 3.01501465 254.13571167 C-1.06047364 254.13718783 -5.13594003 254.13503669 -9.21142578 254.13037109 C-14.44403068 254.12467386 -19.6765843 254.1279533 -24.90918732 254.13394356 C-28.92222482 254.13755136 -32.9352501 254.13640957 -36.94828796 254.13381577 C-38.87806708 254.13314711 -40.80784729 254.1339728 -42.73762512 254.13629532 C-45.43123326 254.13882541 -48.12475751 254.13497616 -50.81835938 254.12939453 C-51.62154099 254.13141876 -52.4247226 254.13344299 -53.25224304 254.13552856 C-58.77147179 254.1142641 -58.77147179 254.1142641 -61 253 C-61 251.35 -61 249.7 -61 248 C-58.01568726 246.50784363 -55.13245366 246.76264862 -51.8125 246.625 C-46.2816864 246.31882528 -41.78033546 245.93338767 -37 243 C-29.56081384 234.37535836 -31.7165096 220.19734224 -31.74121094 209.5246582 C-31.73849773 207.55426911 -31.73493495 205.58388104 -31.73059082 203.61349487 C-31.7215056 198.28524908 -31.72499461 192.95708109 -31.73134899 187.62883401 C-31.7364269 182.0440731 -31.73171276 176.45931867 -31.72857666 170.8745575 C-31.72494314 161.50091358 -31.72972095 152.12730123 -31.73925781 142.75366211 C-31.7501507 131.92223311 -31.74660824 121.09087936 -31.735605 110.25945216 C-31.72652601 100.94880826 -31.72524957 91.638187 -31.73048234 82.3275401 C-31.73359743 76.77129361 -31.73402381 71.21508248 -31.72740936 65.65883827 C-31.72162731 60.43769306 -31.7256486 55.21664485 -31.73719788 49.9955101 C-31.73983944 48.08111291 -31.73908798 46.16670754 -31.73467255 44.25231361 C-31.72919605 41.63650854 -31.73607662 39.02101309 -31.74603271 36.40522766 C-31.74157127 35.65035814 -31.73710983 34.89548862 -31.73251319 34.11774427 C-31.7677514 29.33463321 -32.4037587 25.46549313 -34 21 C-37.32159367 17.78555452 -40.63100721 16.90782073 -45.16015625 16.71875 C-45.95357422 16.68136719 -46.74699219 16.64398438 -47.56445312 16.60546875 C-49.23371702 16.53499162 -50.9029879 16.46467989 -52.57226562 16.39453125 C-53.36439453 16.35714844 -54.15652344 16.31976563 -54.97265625 16.28125 C-55.69718994 16.25095703 -56.42172363 16.22066406 -57.16821289 16.18945312 C-59 16 -59 16 -61 15 C-61 13.35 -61 11.7 -61 10 C-30.50543649 4.22348403 -30.50543649 4.22348403 -15.875 1.625 C-14.95388428 1.45774414 -14.03276855 1.29048828 -13.08374023 1.11816406 C-12.22852783 0.96831055 -11.37331543 0.81845703 -10.4921875 0.6640625 C-9.76370605 0.53467285 -9.03522461 0.4052832 -8.28466797 0.27197266 C-5.51149169 -0.05815327 -2.79059538 -0.01660199 0 0 Z " fill="#13214A" transform="translate(830,425)"/>
<path d="M0 0 C4.85553029 2.29998803 8.71387094 5.78467735 10.75 10.875 C11.47832574 17.0657688 11.06730088 21.47885842 8 27 C3.63982814 31.6716127 -0.60200471 33.56550117 -7 34 C-12.90044364 33.57009518 -16.93107631 31.35280209 -21 27 C-23.89196461 22.16598617 -24.46342991 17.62569443 -23.5703125 12.10546875 C-22.34563876 7.58424171 -19.84918292 4.827409 -16.5625 1.625 C-11.10589945 -0.86397569 -5.89748993 -0.74375988 0 0 Z " fill="#0F1C42" transform="translate(1211,351)"/>
<path d="M0 0 C4.85553029 2.29998803 8.71387094 5.78467735 10.75 10.875 C11.47832574 17.0657688 11.06730088 21.47885842 8 27 C3.63982814 31.6716127 -0.60200471 33.56550117 -7 34 C-12.90044364 33.57009518 -16.93107631 31.35280209 -21 27 C-23.89196461 22.16598617 -24.46342991 17.62569443 -23.5703125 12.10546875 C-22.34563876 7.58424171 -19.84918292 4.827409 -16.5625 1.625 C-11.10589945 -0.86397569 -5.89748993 -0.74375988 0 0 Z " fill="#0E193C" transform="translate(821,351)"/>
<path d="M0 0 C0.66 0 1.32 0 2 0 C2.15855469 0.7734375 2.31710937 1.546875 2.48046875 2.34375 C4.26489623 10.309592 6.45681719 16.3555834 12.1875 22.25 C17.10535837 25.31000076 22.52313713 27.17437904 28 29 C28 29.66 28 30.32 28 31 C27.07380859 31.22042969 27.07380859 31.22042969 26.12890625 31.4453125 C18.80716771 33.38440307 11.80022998 35.86112349 7.3984375 42.3671875 C4.95375372 47.07070191 3.23092432 51.85249828 2 57 C0.515 56.505 0.515 56.505 -1 56 C-2.02734375 53.234375 -2.02734375 53.234375 -2.9375 49.75 C-4.45871734 43.92854488 -6.1495479 39.8477805 -11.33203125 36.48828125 C-16.16996735 34.19502335 -20.78671799 32.24665439 -26 31 C-26 30.34 -26 29.68 -26 29 C-24.71416016 28.56300781 -24.71416016 28.56300781 -23.40234375 28.1171875 C-12.25679703 24.2641833 -12.25679703 24.2641833 -4.765625 15.67578125 C-2.61798585 10.59459152 -1.19474432 5.37634946 0 0 Z " fill="#0E1A3E" transform="translate(465,469)"/>
</svg>