<?xml version="1.0" encoding="UTF-8" standalone="no"?>
<svg
   xmlns:dc="http://purl.org/dc/elements/1.1/"
   xmlns:cc="http://creativecommons.org/ns#"
   xmlns:rdf="http://www.w3.org/1999/02/22-rdf-syntax-ns#"
   xmlns:svg="http://www.w3.org/2000/svg"
   xmlns="http://www.w3.org/2000/svg"
   xmlns:sodipodi="http://sodipodi.sourceforge.net/DTD/sodipodi-0.dtd"
   xmlns:inkscape="http://www.inkscape.org/namespaces/inkscape"
   version="1.1"
   id="svg2"
   xml:space="preserve"
   width="520.3139"
   height="126.44537"
   viewBox="0 0 520.3139 126.44536"
   sodipodi:docname="BEGO Logo.svg"
   inkscape:version="1.0.2 (e86c870879, 2021-01-15, custom)"><metadata
     id="metadata8"><rdf:RDF><cc:Work
         rdf:about=""><dc:format>image/svg+xml</dc:format><dc:type
           rdf:resource="http://purl.org/dc/dcmitype/StillImage" /><dc:title></dc:title></cc:Work></rdf:RDF></metadata><defs
     id="defs6"><clipPath
       clipPathUnits="userSpaceOnUse"
       id="clipPath20"><path
         d="M 0,0 H 595.276 V 841.89 H 0 Z"
         id="path18" /></clipPath><clipPath
       clipPathUnits="userSpaceOnUse"
       id="clipPath32"><path
         d="M 426.643,21.26 H 566.929 V 56.61 H 426.643 Z"
         id="path30" /></clipPath><clipPath
       clipPathUnits="userSpaceOnUse"
       id="clipPath64"><path
         d="M 0,841.89 H 595.276 V 431.818 H 0 Z"
         id="path62" /></clipPath><clipPath
       clipPathUnits="userSpaceOnUse"
       id="clipPath76"><path
         d="M 0,0 H 595.276 V 841.89 H 0 Z"
         id="path74" /></clipPath></defs><sodipodi:namedview
     pagecolor="#ffffff"
     bordercolor="#666666"
     borderopacity="1"
     objecttolerance="10"
     gridtolerance="10"
     guidetolerance="10"
     inkscape:pageopacity="0"
     inkscape:pageshadow="2"
     inkscape:window-width="1680"
     inkscape:window-height="988"
     id="namedview4"
     showgrid="false"
     fit-margin-top="0"
     fit-margin-left="0"
     fit-margin-right="0"
     fit-margin-bottom="0"
     inkscape:zoom="1.3095535"
     inkscape:cx="285.19013"
     inkscape:cy="192.94594"
     inkscape:window-x="-8"
     inkscape:window-y="-8"
     inkscape:window-maximized="1"
     inkscape:current-layer="g10" /><g
     id="g10"
     inkscape:groupmode="layer"
     inkscape:label="82472_18_Katalog_EN_web"
     transform="matrix(1.3333333,0,0,-1.3333333,-90.43642,1001.306)"><g
       id="g26"
       transform="matrix(2.8373734,0,0,2.8373734,-1146.622,595.8229)"><g
         id="g28"
         clip-path="url(#clipPath32)"><g
           id="g34"
           transform="translate(454.5171,42.6328)"><path
             d="M 0,0 C 8.866,-1.187 -7.96,-24.909 -4.853,-22.424 9.311,-11.092 15.268,6.378 6.401,7.566 -2.465,8.752 -13.808,1.76 -14.355,-2.328 -14.902,-6.416 -8.867,1.186 0,0"
             style="fill:#e8ac00;fill-opacity:1;fill-rule:nonzero;stroke:none"
             id="path36" /></g><g
           id="g38"
           transform="translate(435.8997,43.0083)"><path
             d="m 0,0 c -3.554,-8.151 16.809,-23.227 9.412,-19.414 -3.645,1.878 -20.354,17.172 -16.8,25.326 3.553,8.153 16.852,5.761 20.612,4.123 C 16.983,8.396 3.554,8.154 0,0"
             style="fill:#919292;fill-opacity:1;fill-rule:nonzero;stroke:none"
             id="path40" /></g><g
           id="g42"
           transform="translate(499.1815,28.5389)"><path
             d="M 0,0 H 18.168 V 3.869 H 5.293 v 3.446 h 11.552 v 3.629 H 5.293 v 3.257 h 12.875 v 3.898 H 0 Z"
             style="fill:#919292;fill-opacity:1;fill-rule:nonzero;stroke:none"
             id="path44" /></g><g
           id="g46"
           transform="translate(494.127,38.0206)"><path
             d="m 0,0 c 1.199,0.63 1.764,1.523 1.764,2.762 v 1.826 c 0,2.833 -2.049,4.211 -6.264,4.211 H -18.46 V -9.664 h 14.62 c 4.041,0 6.359,1.663 6.359,4.561 v 1.745 C 2.519,-1.883 1.516,-0.588 0,0 m -13.19,4.951 h 7.625 c 0.238,-0.004 0.725,-0.016 0.871,-0.016 1.81,0 1.871,-0.734 1.871,-1.702 V 3.222 C -2.823,2.255 -2.96,1.52 -4.694,1.52 -4.84,1.52 -5.327,1.508 -5.565,1.504 L -13.19,1.472 Z m 11.175,-8.984 c 0,-1.015 -0.144,-1.787 -1.964,-1.787 -0.153,0 -0.664,-0.012 -0.914,-0.016 l -8.327,-0.035 v 3.653 h 8.327 c 0.25,-0.005 0.761,-0.017 0.914,-0.017 1.899,0 1.964,-0.771 1.964,-1.786 z"
             style="fill:#919292;fill-opacity:1;fill-rule:nonzero;stroke:none"
             id="path48" /></g><g
           id="g50"
           transform="translate(540.4968,29.3008)"><path
             d="m 0,0 c 0.859,0.875 0.864,1.838 0.864,1.838 h 0.001 v 8.274 H -9.734 V 6.495 h 5.968 V 3.082 C -4.141,3.081 -4.635,3.079 -5.201,3.076 -6.292,3.071 -7.65,3.064 -8.97,3.064 c -1.847,0 -3.142,0.013 -3.962,0.038 -2.36,0.072 -2.678,1.158 -2.678,2.212 v 6.025 c 0,1.198 0.456,2.014 2.682,2.108 0.643,0.027 2.016,0.04 4.079,0.04 3.662,0 8.29,-0.043 8.336,-0.044 l 0.29,-0.003 0.004,4.013 -0.276,0.011 c -3.027,0.122 -6.728,0.148 -9.299,0.148 -1.039,0 -2.099,-0.004 -3.149,-0.012 -5.059,-0.038 -7.961,-2.099 -7.961,-5.655 V 4.63 c 0,-3.541 2.978,-5.655 7.963,-5.655 h 9.586 C -2.695,-0.982 -0.776,-0.79 0,0"
             style="fill:#919292;fill-opacity:1;fill-rule:nonzero;stroke:none"
             id="path52" /></g><g
           id="g54"
           transform="translate(564.8129,43.7162)"><path
             d="m 0,0 c -0.686,1.462 -2.154,3.205 -5.252,3.205 0,0 -1.97,0.137 -4.816,0.137 -2.847,0 -4.776,-0.137 -4.776,-0.137 h -0.014 c -0.061,-0.003 -1.51,-0.085 -2.978,-0.904 -1.369,-0.764 -3,-2.331 -3,-5.463 v -6.203 c 0,-0.064 0.008,-1.582 0.741,-3.122 0.686,-1.442 2.154,-3.161 5.251,-3.161 0,0 1.605,-0.167 4.796,-0.167 3.19,0 4.801,0.167 4.801,0.167 h 0.005 c 0.061,0.002 1.511,0.062 2.98,0.86 1.37,0.745 3.002,2.29 3.002,5.423 v 6.203 C 0.74,-3.097 0.732,-1.56 0,0 m -4.04,-8.956 c 0,-1.294 -1.059,-2.353 -2.354,-2.353 0,0 -1.302,-0.03 -3.592,-0.03 -2.29,0 -3.715,0.03 -3.715,0.03 -1.295,0 -2.355,1.059 -2.355,2.353 v 5.342 c 0,1.295 1.06,2.354 2.355,2.354 0,0 1.824,0.127 3.652,0.127 1.827,0 3.655,-0.127 3.655,-0.127 1.295,0 2.354,-1.059 2.354,-2.354 z"
             style="fill:#919292;fill-opacity:1;fill-rule:nonzero;stroke:none"
             id="path56" /></g></g></g></g></svg>
