<?xml version="1.0" encoding="UTF-8"?>
<svg version="1.1" xmlns="http://www.w3.org/2000/svg" width="446" height="113">
<path d="M0 0 C147.18 0 294.36 0 446 0 C446 37.29 446 74.58 446 113 C298.82 113 151.64 113 0 113 C0 75.71 0 38.42 0 0 Z " fill="#FEFEFE" transform="translate(0,0)"/>
<path d="M0 0 C93.72 0 187.44 0 284 0 C284 37.29 284 74.58 284 113 C271.79 113 259.58 113 247 113 C244.36 109.04 241.72 105.08 239 101 C204.69531579 55.83216579 152.05039837 29.83097293 98 16 C97.14245117 15.78005371 96.28490234 15.56010742 95.40136719 15.33349609 C63.93663287 7.36500243 32.26567051 3.758533 0 1 C0 0.67 0 0.34 0 0 Z " fill="#FEFEFE" transform="translate(162,0)"/>
<path d="M0 0 C9.47254743 -0.2026936 18.82381927 0.39949577 28.25 1.25 C28.99466522 1.31624573 29.73933044 1.38249146 30.50656128 1.45074463 C43.80436292 2.64893668 56.8826729 4.49052146 70 7 C71.53575684 7.28230469 71.53575684 7.28230469 73.10253906 7.5703125 C87.66748354 10.24851253 101.86886192 13.56790321 116 18 C116.9576123 18.29777344 117.91522461 18.59554688 118.90185547 18.90234375 C168.18574213 34.36521332 217.10545488 60.48587701 247 104 C246.67 104.66 246.34 105.32 246 106 C244.83984375 104.71416016 244.83984375 104.71416016 243.65625 103.40234375 C238.04592629 97.22411493 232.47480678 91.28577716 226 86 C224.89657139 85.06186092 223.79376894 84.12298511 222.69140625 83.18359375 C191.69349677 57.06866884 155.05281215 38.29327718 116.9206543 25.02832031 C114.11205703 24.03945367 111.32911331 22.99543402 108.54296875 21.9453125 C102.44337815 19.72239446 96.22711526 18.09052399 89.9375 16.5 C88.74938721 16.19666748 87.56127441 15.89333496 86.3371582 15.58081055 C76.92771414 13.19672765 67.51100553 10.93909634 58 9 C57.23671387 8.83935059 56.47342773 8.67870117 55.68701172 8.51318359 C37.30579761 4.68795423 18.6550371 2.91697226 0 1 C0 0.67 0 0.34 0 0 Z " fill="#F58328" transform="translate(158,1)"/>
<path d="M0 0 C17 0 17 0 24 4 C26.33909307 7.5086396 26.41291057 8.87089433 26 13 C24.5 15.875 24.5 15.875 23 18 C23.94875 18.598125 24.8975 19.19625 25.875 19.8125 C29 22 29 22 31 25 C31.3305085 29.09830543 31.39988545 31.900315 30 35.75 C28 38 28 38 20 42 C13.4 42 6.8 42 0 42 C0 28.14 0 14.28 0 0 Z " fill="#F58328" transform="translate(0,52)"/>
<path d="M0 0 C3.82431103 2.88642503 6.87492727 5.95079381 7.8125 10.82421875 C8.1238661 15.93256888 6.7764381 18.90437091 3.4375 22.875 C-2.01168038 27.90501266 -6.68640527 29.34782463 -13.99609375 29.1953125 C-19.82083288 28.46832832 -24.93124147 25.48390505 -28.5625 20.875 C-30.91035762 16.96190397 -30.79591422 13.48168906 -30.16015625 9.08984375 C-28.83157353 4.16627248 -25.7454634 1.61435212 -21.5625 -1 C-14.79892236 -3.45679188 -6.29608877 -3.65503281 0 0 Z " fill="#FDFDFD" transform="translate(335.5625,62.125)"/>
<path d="M0 0 C1.7634375 -0.01160156 1.7634375 -0.01160156 3.5625 -0.0234375 C8.02237522 0.49350258 11.34113453 1.82646288 14.64453125 4.91015625 C18.45061157 9.88733821 19.76639549 13.06081627 19 19.375 C17.09310554 24.48894424 15.13116651 26.65024327 10.375 29.3125 C4.43167791 31.95203422 -1.01718374 32.66598182 -7.265625 30.640625 C-12.2996515 28.36599081 -15.49972173 25.37555654 -18 20.375 C-19.17886346 10.06836516 -19.17886346 10.06836516 -15.875 5.875 C-10.81618451 1.47603001 -6.69726723 -0.04406097 0 0 Z " fill="#FDFDFD" transform="translate(182,59.625)"/>
<path d="M0 0 C4.15919298 4.04974054 7.18863841 7.11343329 7.6875 13 C7.60454064 17.57106093 6.38538934 20.85450175 3.375 24.3125 C-2.63333932 28.91285261 -9.23012945 30.19891305 -16.625 29.3125 C-21.40790437 27.69017919 -25.42718484 25.2777908 -28.625 21.3125 C-30.2811893 16.34393209 -30.94338538 10.262609 -28.75390625 5.36328125 C-22.21725509 -3.14508108 -9.27320339 -4.31683606 0 0 Z " fill="#FEFDFC" transform="translate(89.625,61.6875)"/>
<path d="M0 0 C1.98 0 3.96 0 6 0 C6 6.27 6 12.54 6 19 C15.57 19 25.14 19 35 19 C35 12.73 35 6.46 35 0 C36.65 0 38.3 0 40 0 C40 13.86 40 27.72 40 42 C38.35 42 36.7 42 35 42 C35 35.73 35 29.46 35 23 C25.43 23 15.86 23 6 23 C6 29.27 6 35.54 6 42 C4.02 42 2.04 42 0 42 C0 28.14 0 14.28 0 0 Z " fill="#B2B4B6" transform="translate(110,52)"/>
<path d="M0 0 C11 0 11 0 14.1875 1.6875 C16 4 16 4 16.625 6.5 C16 9 16 9 14 11.3125 C9.99741418 13.56395452 7.53996635 13.30779433 3 13 C3 14.32 3 15.64 3 17 C3.72445313 16.95359375 4.44890625 16.9071875 5.1953125 16.859375 C9.8931155 16.68399035 13.25711312 16.67979014 17.625 18.5625 C20 21 20 21 21.1875 24.4375 C21 28 21 28 18.75 30.875 C12.42107647 35.76553182 9.51173447 34 0 34 C0 22.78 0 11.56 0 0 Z " fill="#FEFAF7" transform="translate(5,56)"/>
<path d="M0 0 C5.11822797 2.55911398 8.80614172 5.67946407 11.0078125 11.03515625 C12.44706714 15.73731737 12.67153769 19.33757924 11.0078125 24.03515625 C7.46520027 29.52049131 2.69882702 33.54177755 -3.5703125 35.55859375 C-11.93106663 37.24735535 -19.3773353 36.80190906 -26.83203125 32.53515625 C-30.8001119 29.69764606 -33.36313596 26.73481088 -34.9296875 22.03515625 C-35.51024223 16.82675092 -35.91111686 11.71408727 -32.9921875 7.16015625 C-24.89497603 -2.49153421 -11.33695256 -4.36818065 0 0 Z M-28.3671875 8.22265625 C-30.53171878 12.11881256 -31.11832072 15.59441588 -30.9296875 20.03515625 C-28.98458074 25.98489458 -24.99361482 29.24786531 -19.6796875 32.34765625 C-12.94292992 34.03184564 -6.78049695 33.76992679 -0.6875 30.31640625 C2.70248782 27.84548179 5.18757217 24.80063691 7.0703125 21.03515625 C7.44851372 16.49674165 7.51777493 13.98601391 5.5703125 9.84765625 C1.5316449 5.30415521 -1.90218065 2.46981703 -8.05859375 1.5859375 C-16.44384067 1.30416211 -22.12544573 2.62109312 -28.3671875 8.22265625 Z " fill="#B1B3B5" transform="translate(335.9296875,57.96484375)"/>
<path d="M0 0 C3.812694 3.03282477 7.1075689 6.53394521 8.75 11.1875 C9.26611449 16.65831357 8.44835253 20.40010035 5.75 25.1875 C1.04470506 30.37913034 -4.27118085 33.82069465 -11.30078125 34.46875 C-19.49742079 34.6956466 -25.87768184 33.92937471 -32.5625 28.875 C-36.8198988 24.6176012 -38.409956 21.15917258 -38.6875 15.1875 C-38.4547566 8.70947523 -35.53036438 5.24072428 -30.9375 0.9375 C-22.19675868 -6.15159381 -9.45406541 -5.27245956 0 0 Z M-31.9296875 7.0234375 C-34.40402884 11.07901472 -33.84174054 15.6064974 -33.25 20.1875 C-30.92415314 25.10756067 -27.92856392 27.49981435 -23.25 30.1875 C-16.89948988 32.30433671 -10.96641902 31.87741896 -4.875 29.125 C-0.11883349 26.46274327 1.84310554 24.30144424 3.75 19.1875 C4.54118476 14.8444007 4.09043429 11.80967301 1.9375 7.875 C-2.11349692 2.89806093 -4.89999208 0.5677279 -11.51953125 -0.18359375 C-20.2894587 -0.34796946 -25.90815932 0.44176716 -31.9296875 7.0234375 Z " fill="#B0B2B5" transform="translate(197.25,59.8125)"/>
<path d="M0 0 C4.479541 3.44652316 6.98860962 7.14793265 7.98828125 12.74609375 C8.23158778 18.37387966 6.53859235 22.40682463 2.98828125 26.74609375 C-2.53087856 32.11194357 -8.50163732 33.91274345 -16.01171875 34.12109375 C-24.33123234 33.88010028 -30.1237381 31.6340744 -36.01171875 25.74609375 C-39.75006643 20.51240699 -39.7999828 14.95019553 -39.01171875 8.74609375 C-36.42667397 2.51848587 -30.85916581 -0.37703726 -25.01171875 -3.25390625 C-16.66575172 -5.94979889 -7.37900537 -4.59934121 0 0 Z M-32.51171875 5.80859375 C-34.83990388 10.36795629 -34.63200451 14.73085642 -34.01171875 19.74609375 C-32.00824003 24.70206742 -28.36575017 27.43829852 -23.76171875 29.99609375 C-16.92057089 31.86186135 -10.23890065 31.17240344 -4.01171875 27.74609375 C0.72638151 23.72900875 2.76708248 21.03181439 3.36328125 14.87109375 C3.23963892 9.76371432 0.72848942 6.77633661 -2.51171875 2.99609375 C-11.37143211 -4.38700071 -24.4496205 -0.84263731 -32.51171875 5.80859375 Z " fill="#F58328" transform="translate(94.01171875,60.25390625)"/>
<path d="M0 0 C18 0 18 0 24 4 C26 7 26 7 26.0625 10.3125 C24.94453585 14.19249324 24.41480457 14.82582885 21.43359375 17.23046875 C20.79349365 17.75406982 20.15339355 18.2776709 19.49389648 18.81713867 C19.00091064 19.20748291 18.5079248 19.59782715 18 20 C18.42410156 20.44915771 18.84820312 20.89831543 19.28515625 21.36108398 C21.19267284 23.38415206 23.09637793 25.41076723 25 27.4375 C25.66773438 28.14455078 26.33546875 28.85160156 27.0234375 29.58007812 C27.97089844 30.59038086 27.97089844 30.59038086 28.9375 31.62109375 C29.52402344 32.2442749 30.11054688 32.86745605 30.71484375 33.50952148 C32 35 32 35 32 36 C29.32421875 36.328125 29.32421875 36.328125 26 36 C23.33203125 33.734375 23.33203125 33.734375 20.8125 30.75 C19.97332031 29.77546875 19.13414062 28.8009375 18.26953125 27.796875 C16 25 16 25 14.3984375 22.6875 C13.00732708 20.66344399 13.00732708 20.66344399 9.8125 20.25 C8.884375 20.1675 7.95625 20.085 7 20 C7 18.68 7 17.36 7 16 C7.60328125 15.96261719 8.2065625 15.92523438 8.828125 15.88671875 C12.39483453 15.59332813 15.32238487 15.33054396 18.5625 13.75 C20.19568807 12.0417761 20.19568807 12.0417761 20.5 9.5 C20.17650452 6.43780041 20.17650452 6.43780041 16 4 C12.04 3.67 8.08 3.34 4 3 C4 13.89 4 24.78 4 36 C2.68 36 1.36 36 0 36 C0 24.12 0 12.24 0 0 Z " fill="#AFB1B3" transform="translate(214,57)"/>
<path d="M0 0 C9.24 0 18.48 0 28 0 C23.53749553 7.01250703 19.08919376 13.81951189 14.1875 20.5 C13.05557019 22.0517775 11.92404228 23.60384826 10.79296875 25.15625 C10.3033667 25.82462891 9.81376465 26.49300781 9.30932617 27.18164062 C8.17077428 28.76283297 7.08080734 30.37878899 6 32 C13.59 32.33 21.18 32.66 29 33 C29 34.32 29 35.64 29 37 C18.77 37 8.54 37 -2 37 C-0.46300072 33.1575018 0.7261457 30.70826418 3.046875 27.453125 C3.645 26.6075 4.243125 25.761875 4.859375 24.890625 C5.48328125 24.01921875 6.1071875 23.1478125 6.75 22.25 C7.97495902 20.52675256 9.19892467 18.80279854 10.421875 17.078125 C11.01677734 16.23958984 11.61167969 15.40105469 12.22460938 14.53710938 C14.88474961 10.73565485 17.44450523 6.87243686 20 3 C13.4 3 6.8 3 0 3 C0 2.01 0 1.02 0 0 Z " fill="#B3B5B7" transform="translate(267,57)"/>
<path d="M0 0 C0.639375 0.33 1.27875 0.66 1.9375 1 C1.9375 1.99 1.9375 2.98 1.9375 4 C0.47376953 3.94779297 0.47376953 3.94779297 -1.01953125 3.89453125 C-2.29183594 3.86746094 -3.56414062 3.84039062 -4.875 3.8125 C-6.13957031 3.77769531 -7.40414063 3.74289063 -8.70703125 3.70703125 C-12.00247796 3.70973375 -12.00247796 3.70973375 -14.015625 5.38671875 C-15.2540488 6.95938313 -15.2540488 6.95938313 -15 9 C-12.49458482 14.34488571 -5.95465799 15.74616404 -0.83984375 17.71875 C1.77870004 18.92674207 3.27029093 19.6760116 4.9375 22 C5.62630655 25.06518917 5.52643897 27.9202274 4.9375 31 C2.40781526 34.28175318 0.86018669 35.69243777 -3.0625 37 C-5.18500645 37.12040604 -7.31161587 37.17533819 -9.4375 37.1875 C-10.55898438 37.20167969 -11.68046875 37.21585938 -12.8359375 37.23046875 C-16.08139213 36.99865056 -18.24516331 36.62381042 -21.0625 35 C-21.875 32.875 -21.875 32.875 -22.0625 31 C-21.49402344 31.144375 -20.92554688 31.28875 -20.33984375 31.4375 C-14.40132394 32.86512413 -9.01946077 34.13245306 -3.125 31.875 C-0.79631538 30.1141123 -0.79631538 30.1141123 -0.375 27.0625 C-0.79008342 23.80426827 -0.79008342 23.80426827 -3.5625 21.8125 C-6.15197237 20.47152324 -8.40414764 19.49182339 -11.125 18.5625 C-15.09209271 17.13861068 -17.5314468 15.48019816 -20.0625 12 C-20.6875 8.5 -20.6875 8.5 -20.0625 5 C-14.75611947 -1.59712174 -7.8562683 -2.5653121 0 0 Z " fill="#B1B3B6" transform="translate(424.0625,57)"/>
<path d="M0 0 C0.33 0 0.66 0 1 0 C1 11.88 1 23.76 1 36 C2.32 36 3.64 36 5 36 C5 25.11 5 14.22 5 3 C17 3 17 3 20.25 4.6875 C22 7 22 7 22.625 9.5 C22 12 22 12 20.1875 14.3125 C15.38894728 16.85291026 11.38876469 16.2596995 6 16 C6 22.93 6 29.86 6 37 C4.02 37 2.04 37 0 37 C0 24.79 0 12.58 0 0 Z " fill="#F4F5F5" transform="translate(213,57)"/>
<path d="M0 0 C1.65 0 3.3 0 5 0 C5 12.21 5 24.42 5 37 C3.35 37 1.7 37 0 37 C0 24.79 0 12.58 0 0 Z " fill="#AEB0B3" transform="translate(252,57)"/>
<path d="M0 0 C1.65 0 3.3 0 5 0 C5 12.21 5 24.42 5 37 C3.35 37 1.7 37 0 37 C0 24.79 0 12.58 0 0 Z " fill="#F58834" transform="translate(41,57)"/>
<path d="M0 0 C1.65 0 3.3 0 5 0 C5 10.23 5 20.46 5 31 C0 27 0 27 -0.56762695 24.06738281 C-0.54144287 22.95717773 -0.51525879 21.84697266 -0.48828125 20.703125 C-0.47216797 19.49785156 -0.45605469 18.29257813 -0.43945312 17.05078125 C-0.39755859 15.79652344 -0.35566406 14.54226562 -0.3125 13.25 C-0.28994141 11.98027344 -0.26738281 10.71054688 -0.24414062 9.40234375 C-0.18520639 6.26704227 -0.10297079 3.13411405 0 0 Z " fill="#B4B6B8" transform="translate(390,57)"/>
<path d="M0 0 C0.66 0 1.32 0 2 0 C2.12375 1.794375 2.12375 1.794375 2.25 3.625 C2.96567128 9.17390331 5.34765835 12.47476156 9.4375 16.25 C14.72454688 18.84714584 20.18894338 19.34474732 26 20 C25.67 20.99 25.34 21.98 25 23 C16.82548545 23.45227847 10.33287843 22.74909045 3.6875 17.6875 C-0.24511333 13.75488667 -1.84893458 10.81278509 -2.3125 5.25 C-2 2 -2 2 0 0 Z " fill="#F58225" transform="translate(57,71)"/>
<path d="M0 0 C-3.12316281 3.12316281 -5.97466228 3.10453199 -10.1875 3.3125 C-16.26974142 3.82808073 -21.43484263 5.23154344 -25.67578125 9.80859375 C-27.24252947 12.40135407 -27.48966024 14.24283569 -27.6875 17.25 C-27.75324219 18.14203125 -27.81898437 19.0340625 -27.88671875 19.953125 C-27.92410156 20.62859375 -27.96148437 21.3040625 -28 22 C-28.33 22 -28.66 22 -29 22 C-29 19.36 -29 16.72 -29 14 C-30.98 14.99 -30.98 14.99 -33 16 C-32.28241311 10.9768918 -30.78645069 7.34803958 -26.66015625 4.234375 C-25.80292969 3.74453125 -24.94570313 3.2546875 -24.0625 2.75 C-23.20785156 2.24984375 -22.35320312 1.7496875 -21.47265625 1.234375 C-14.95988894 -2.01686429 -6.9605556 -1.85614816 0 0 Z " fill="#F58933" transform="translate(88,57)"/>
<path d="M0 0 C9.56675751 -0.21586881 18.9856333 0.44246206 28.5 1.3125 C29.24280212 1.37869537 29.98560425 1.44489075 30.75091553 1.51309204 C42.57495207 2.57121301 54.29848626 3.97307931 66 6 C65.67 7.32 65.34 8.64 65 10 C59.09093182 9.03223353 53.19099376 8.03671908 47.30430603 6.9400177 C37.22594356 5.08792742 27.12439939 3.8833321 16.9375 2.8125 C15.28054233 2.63398843 13.62364089 2.45495409 11.96679688 2.27539062 C7.97848315 1.84426768 3.9894894 1.42009827 0 1 C0 0.67 0 0.34 0 0 Z " fill="#F68E3C" transform="translate(158,1)"/>
<path d="M0 0 C1.98 0.99 1.98 0.99 4 2 C4 9.59 4 17.18 4 25 C2.68 25 1.36 25 0 25 C0 16.75 0 8.5 0 0 Z " fill="#ACAEB1" transform="translate(356,69)"/>
<path d="M0 0 C2.76314599 0.89802245 3.9089781 1.38409816 5.5 3.8125 C6.03852618 7.42831862 5.92236225 9.15361489 3.9375 12.25 C1.5 13.8125 1.5 13.8125 -2.25 13.5625 C-3.85875 13.19125 -3.85875 13.19125 -5.5 12.8125 C-5.5 11.8225 -5.5 10.8325 -5.5 9.8125 C-4.015 10.8025 -4.015 10.8025 -2.5 11.8125 C-1.51 11.4825 -0.52 11.1525 0.5 10.8125 C0.5 9.8225 0.5 8.8325 0.5 7.8125 C-0.49 7.8125 -1.48 7.8125 -2.5 7.8125 C-2.83 8.8025 -3.16 9.7925 -3.5 10.8125 C-3.5 8.1725 -3.5 5.5325 -3.5 2.8125 C-4.16 2.4825 -4.82 2.1525 -5.5 1.8125 C-2.5 -0.1875 -2.5 -0.1875 0 0 Z " fill="#D6D7D8" transform="translate(440.5,56.1875)"/>
<path d="M0 0 C0.99 0 1.98 0 3 0 C3.33 1.65 3.66 3.3 4 5 C4.99 5 5.98 5 7 5 C7 5.99 7 6.98 7 8 C7.66 8.33 8.32 8.66 9 9 C5.82606237 9.99752325 4.34445615 10.13012788 1.1875 8.9375 C-1 7 -1 7 -1.375 3.875 C-1 1 -1 1 0 0 Z " fill="#ECEDED" transform="translate(434,59)"/>
<path d="M0 0 C2.4377963 -0.05397335 4.87439685 -0.09365616 7.3125 -0.125 C8.00279297 -0.14175781 8.69308594 -0.15851563 9.40429688 -0.17578125 C13.17135396 -0.21217794 14.78431704 -0.14378864 18 2 C15.34150227 3.32924887 13.63290881 2.91993945 10.6875 2.625 C9.74261719 2.53476563 8.79773438 2.44453125 7.82421875 2.3515625 C5.17839038 2.02220627 2.60569116 1.56005748 0 1 C0 0.67 0 0.34 0 0 Z " fill="#F58422" transform="translate(189,4)"/>
<path d="M0 0 C10.55808656 -0.18451025 10.55808656 -0.18451025 15 1 C12.65454672 3.34545328 11.04014162 3.95508888 7.73828125 4.09765625 C6.93777344 4.08605469 6.13726562 4.07445312 5.3125 4.0625 C4.10013672 4.04896484 4.10013672 4.04896484 2.86328125 4.03515625 C1.94095703 4.01775391 1.94095703 4.01775391 1 4 C1 3.67 1 3.34 1 3 C2.98 2.67 4.96 2.34 7 2 C4.69 1.67 2.38 1.34 0 1 C0 0.67 0 0.34 0 0 Z " fill="#F79E5C" transform="translate(73,56)"/>
<path d="M0 0 C2.97 0 5.94 0 9 0 C8.67 0.99 8.34 1.98 8 3 C5.36 3 2.72 3 0 3 C0 2.01 0 1.02 0 0 Z " fill="#F47A10" transform="translate(74,91)"/>
<path d="M0 0 C2.97 0.33 5.94 0.66 9 1 C8.67 1.99 8.34 2.98 8 4 C5.36 3.67 2.72 3.34 0 3 C0 2.01 0 1.02 0 0 Z " fill="#F47E1B" transform="translate(223,8)"/>
<path d="M0 0 C2.64 0 5.28 0 8 0 C8.33 0.66 8.66 1.32 9 2 C5.7 2.33 2.4 2.66 -1 3 C-0.67 2.01 -0.34 1.02 0 0 Z " fill="#F47C17" transform="translate(72,57)"/>
<path d="M0 0 C3.39417765 3.12621626 5.6062718 5.56541027 7 10 C1.21538462 5.69230769 1.21538462 5.69230769 0.125 2.1875 C0.08375 1.465625 0.0425 0.74375 0 0 Z " fill="#F68E3B" transform="translate(398,97)"/>
<path d="M0 0 C2.31 0 4.62 0 7 0 C7 0.99 7 1.98 7 3 C4.36 3 1.72 3 -1 3 C-0.67 2.01 -0.34 1.02 0 0 Z " fill="#A9ABAE" transform="translate(321,91)"/>
<path d="M0 0 C2.31 0 4.62 0 7 0 C7 0.99 7 1.98 7 3 C4.69 3 2.38 3 0 3 C0 2.01 0 1.02 0 0 Z " fill="#A9ABAE" transform="translate(179,91)"/>
<path d="M0 0 C-0.33 0.99 -0.66 1.98 -1 3 C-4.63 2.67 -8.26 2.34 -12 2 C-12 1.67 -12 1.34 -12 1 C-7.93631321 0.22596442 -4.13574827 -0.0984702 0 0 Z " fill="#F47C1A" transform="translate(18,53)"/>
<path d="M0 0 C0.99 0 1.98 0 3 0 C3 0.99 3 1.98 3 3 C3.66 3.33 4.32 3.66 5 4 C3.35 4.33 1.7 4.66 0 5 C-0.33 4.34 -0.66 3.68 -1 3 C-0.67 2.01 -0.34 1.02 0 0 Z " fill="#F5F5F6" transform="translate(438,64)"/>
</svg>
