<?xml version="1.0" encoding="UTF-8"?>
<svg version="1.1" xmlns="http://www.w3.org/2000/svg" width="1000" height="268">
<path d="M0 0 C330 0 660 0 1000 0 C1000 88.44 1000 176.88 1000 268 C670 268 340 268 0 268 C0 179.56 0 91.12 0 0 Z " fill="#000001" transform="translate(0,0)"/>
<path d="M0 0 C14.26533771 -0.04687923 28.53066334 -0.08193315 42.79606247 -0.10362434 C49.42087231 -0.1140378 56.0456302 -0.12815239 62.67041016 -0.15087891 C69.07003537 -0.17269431 75.46961078 -0.18458695 81.86927032 -0.18975449 C84.30435215 -0.19343466 86.73943141 -0.20062093 89.17449188 -0.21146011 C92.5991341 -0.22609061 96.02357348 -0.22797312 99.44824219 -0.22705078 C100.44303085 -0.23424133 101.43781952 -0.24143188 102.4627533 -0.24884033 C125.6647982 -0.18172591 148.02861604 8.50504769 166 23 C166.70382813 23.55171875 167.40765625 24.1034375 168.1328125 24.671875 C186.72419673 39.98242672 199.33800451 65.14249328 202 89 C203.6037076 117.73781131 197.33711083 144.1754342 178.3671875 166.39453125 C172.97845393 172.3256951 167.47096166 178.2336373 161 183 C160.34 183 159.68 183 159 183 C158.67 134.16 158.34 85.32 158 35 C148.43 35 138.86 35 129 35 C125.89405503 38.10594497 124.06776134 40.24978151 121.875 43.875 C119.0893646 48.35468349 116.15160917 52.66591458 113.0625 56.9375 C110.08853656 61.05712532 107.16982516 65.19282073 104.375 69.4375 C100.4520453 75.38137076 96.38696135 81.22165919 92.3125 87.0625 C85.14885921 97.33504669 78.05196567 107.65055896 71 118 C69.74870435 119.83594188 68.49740202 121.67187922 67.24609375 123.5078125 C66.60824951 124.44367188 65.97040527 125.37953125 65.31323242 126.34375 C64.67361572 127.2821875 64.03399902 128.220625 63.375 129.1875 C62.42620972 130.5796875 62.42620972 130.5796875 61.45825195 132 C56.82204553 138.80049185 52.17478953 145.59315286 47.5 152.3671875 C45.82062809 154.80149445 44.15544707 157.2446782 42.5 159.6953125 C42.09894043 160.28497803 41.69788086 160.87464355 41.28466797 161.48217773 C40.20988179 163.06267909 39.13988944 164.6464375 38.0703125 166.23046875 C35.92587297 169.09916238 33.58990265 171.53192204 31 174 C11.98402415 156.14826757 0.58699923 131.35559914 -0.26156616 105.19332886 C-0.38264015 98.4815008 -0.33829135 91.77097512 -0.29296875 85.05859375 C-0.28736096 82.59424602 -0.28309647 80.1298949 -0.28010559 77.6655426 C-0.26874995 71.23603792 -0.23936436 64.8067424 -0.20599365 58.37731934 C-0.17509081 51.7938927 -0.16155739 45.21043167 -0.14648438 38.62695312 C-0.11448438 25.75121378 -0.06399418 12.87561811 0 0 Z " fill="#7696B8" transform="translate(0,0)"/>
<path d="M0 0 C1.04501678 -0.0076664 1.04501678 -0.0076664 2.11114502 -0.01548767 C4.40597216 -0.02934435 6.7004974 -0.02842906 8.99536133 -0.02612305 C10.60093801 -0.03001383 12.20651367 -0.03434928 13.81208801 -0.03910828 C17.17700535 -0.04656331 20.54181778 -0.04628566 23.90673828 -0.04101562 C28.19585604 -0.03524006 32.48453928 -0.05210882 36.77358532 -0.0753603 C40.09125739 -0.09017737 43.40882695 -0.09095825 46.72652626 -0.08785057 C48.3063982 -0.08836039 49.8862764 -0.09353359 51.46611595 -0.10366249 C71.53719533 -0.21650038 71.53719533 -0.21650038 77.52360535 4.58500671 C82.1427486 9.66347979 83.13802175 15.32132177 83.15731812 21.96514893 C83.16184923 22.61250464 83.16638034 23.25986036 83.17104876 23.92683291 C83.18364449 26.08223659 83.18207556 28.23738601 83.18041992 30.39282227 C83.18640828 31.94396792 83.19321453 33.4951106 83.20077515 35.04624939 C83.21841302 39.25099289 83.22312965 43.45565494 83.22440672 47.66043186 C83.22583035 50.29078831 83.23010401 52.92112419 83.23540115 55.55147552 C83.25389548 64.73769948 83.26207268 73.92386547 83.26049805 83.11010742 C83.25929744 91.65682743 83.28038548 100.20329459 83.31198537 108.74995065 C83.3381889 116.10049758 83.34886361 123.45096215 83.34758723 130.8015554 C83.34707871 135.18599324 83.35270052 139.57020638 83.37394333 143.95459747 C83.39339413 148.08170952 83.39340385 152.20838413 83.37891006 156.33551216 C83.37682918 157.84390214 83.38147966 159.35231999 83.39363098 160.86066246 C83.45663631 169.22844992 83.23200811 176.85979237 78.88989258 184.2746582 C71.54942448 191.6151263 58.41050796 190.53727024 48.65539551 190.57820129 C47.13981094 190.57794003 45.62422636 190.57700379 44.10864258 190.57543945 C42.52111704 190.57933573 40.93359254 190.58367229 39.34606934 190.58842468 C36.04488718 190.59582899 32.74381214 190.59563475 29.44262695 190.59033203 C25.21477503 190.58449529 20.98735524 190.60159658 16.75957489 190.6246767 C13.49277188 190.63939455 10.22607406 190.64028928 6.95924377 190.63716698 C5.3995324 190.63767954 3.83981504 190.64290518 2.28013611 190.6529789 C0.1074466 190.66531068 -2.0643849 190.65857609 -4.23706055 190.64697266 C-6.08805359 190.64791679 -6.08805359 190.64791679 -7.97644043 190.64888 C-11.34379931 190.24675077 -12.74470701 189.66328198 -15.11010742 187.2746582 C-15.59594727 185.03808594 -15.59594727 185.03808594 -15.57104492 182.45825195 C-15.56717773 181.52948242 -15.56331055 180.60071289 -15.55932617 179.64379883 C-15.53483398 178.67635742 -15.5103418 177.70891602 -15.48510742 176.7121582 C-15.48381836 175.74084961 -15.4825293 174.76954102 -15.48120117 173.76879883 C-15.39097257 166.55552335 -15.39097257 166.55552335 -13.11010742 164.2746582 C-10.28805542 163.9961853 -10.28805542 163.9961853 -6.64086914 163.95581055 C-5.97733429 163.94576492 -5.31379944 163.9357193 -4.63015747 163.92536926 C-2.4333789 163.89443832 -0.23672273 163.87747509 1.96020508 163.8605957 C3.48193421 163.84189197 5.00365289 163.82231916 6.52536011 163.8019104 C10.53332363 163.75049896 14.54132081 163.71092172 18.54943848 163.67376709 C23.35697957 163.62675568 28.16435249 163.56511944 32.97175598 163.50592041 C40.27773397 163.4175983 47.58367794 163.34791313 54.88989258 163.2746582 C55.21989258 150.4046582 55.54989258 137.5346582 55.88989258 124.2746582 C51.49547852 124.29786133 47.10106445 124.32106445 42.57348633 124.3449707 C39.05665449 124.35784407 35.53982937 124.36868564 32.02298737 124.37815857 C28.3176852 124.388694 24.61247542 124.40275957 20.90722656 124.42553711 C17.33458104 124.44736059 13.76202477 124.45924676 10.1893177 124.46441269 C8.83024759 124.46809146 7.47118203 124.47527499 6.11215019 124.48611832 C-10.20869458 124.61109005 -10.20869458 124.61109005 -15.03588867 120.72387695 C-15.49350586 120.14250977 -15.95112305 119.56114258 -16.42260742 118.9621582 C-16.89311523 118.38852539 -17.36362305 117.81489258 -17.84838867 117.22387695 C-21.30869044 111.87808568 -21.41181328 107.11501825 -21.41650391 100.9296875 C-21.42482742 99.99571136 -21.43315094 99.06173523 -21.44172668 98.09945679 C-21.46579594 95.01588759 -21.47459521 91.93253009 -21.48120117 88.84887695 C-21.49017 86.70042356 -21.49929189 84.5519708 -21.50856018 82.40351868 C-21.5250445 77.90034468 -21.53274926 73.39724498 -21.53564453 68.89404297 C-21.54102695 63.13384104 -21.57870419 57.37434083 -21.62438869 51.61433697 C-21.6541836 47.17641166 -21.66136863 42.73865482 -21.66237068 38.3006382 C-21.6665683 36.1776184 -21.67898407 34.05459789 -21.69988823 31.93167686 C-21.72685167 28.95653585 -21.72196198 25.98301477 -21.70947266 23.0078125 C-21.72430695 22.13740829 -21.73914124 21.26700409 -21.75442505 20.370224 C-21.68043913 14.15693296 -19.98178296 10.13237583 -16.11010742 5.2746582 C-11.36013722 0.82156113 -6.36164078 0.02334439 0 0 Z " fill="#02396D" transform="translate(707.110107421875,68.725341796875)"/>
<path d="M0 0 C1.60368481 -0.00202443 3.20736873 -0.00493893 4.81105042 -0.00869751 C8.16229062 -0.01310481 11.5132899 -0.00674238 14.86450195 0.00732422 C19.13908581 0.02440141 23.41310383 0.0145743 27.68766689 -0.00339317 C30.99673141 -0.0142862 34.30566404 -0.01075928 37.61473274 -0.0030098 C39.18984101 -0.00102228 40.76496164 -0.00341559 42.34005547 -0.01044846 C61.20730106 -0.07621156 61.20730106 -0.07621156 67.72265625 5.1171875 C68.16609375 5.705 68.60953125 6.2928125 69.06640625 6.8984375 C69.7625 7.78015625 69.7625 7.78015625 70.47265625 8.6796875 C73.21699953 12.99222694 72.71418514 17.61907873 72.71166992 22.53222656 C72.71502853 23.46751694 72.71838715 24.40280731 72.72184753 25.36643982 C72.73136422 28.46566081 72.73330118 31.56482779 72.734375 34.6640625 C72.7375877 36.8177696 72.74095179 38.97147647 72.74446106 41.12518311 C72.75045456 45.6444957 72.75230079 50.16378917 72.75170898 54.68310547 C72.75160749 60.46787632 72.76524543 66.25252407 72.78248119 72.03726578 C72.79361397 76.48800212 72.79562778 80.93870886 72.79509926 85.3894577 C72.79627799 87.5216489 72.8006938 89.65384089 72.80843163 91.78601837 C72.81825466 94.77312257 72.81534397 97.75996163 72.80932617 100.74707031 C72.81494568 101.62421188 72.82056519 102.50135345 72.82635498 103.40507507 C72.79600197 109.34949207 72.71788387 115.12040238 68.44140625 119.6484375 C59.49224069 125.09575567 51.0108936 124.84132408 40.87890625 124.796875 C39.25040558 124.79889916 37.62190579 124.80181344 35.9934082 124.80557251 C32.59089473 124.80997979 29.18861856 124.80361658 25.78613281 124.78955078 C21.44195157 124.77245972 17.09832652 124.78230951 12.75416565 124.80026817 C9.39452992 124.81114937 6.03502434 124.80763988 2.67538452 124.7998848 C1.07432996 124.79789475 -0.52673671 124.80029968 -2.1277771 124.80732346 C-20.5323071 124.87036054 -20.5323071 124.87036054 -26.4921875 119.56640625 C-26.94722656 118.91285156 -27.40226563 118.25929688 -27.87109375 117.5859375 C-28.34417969 116.94011719 -28.81726563 116.29429687 -29.3046875 115.62890625 C-31.96720824 110.3683549 -31.58209051 104.34280372 -31.57885742 98.58251953 C-31.58221603 97.71667236 -31.58557465 96.8508252 -31.58903503 95.95874023 C-31.59850261 93.1078954 -31.60048599 90.25710956 -31.6015625 87.40625 C-31.60477782 85.41616797 -31.6081421 83.42608618 -31.61164856 81.43600464 C-31.61762921 77.26836601 -31.61948953 73.10074809 -31.61889648 68.93310547 C-31.61879488 63.60476338 -31.63244978 58.2765546 -31.64966869 52.94824409 C-31.66081132 48.83889155 -31.662815 44.72957102 -31.66228676 40.62020493 C-31.66346335 38.65630509 -31.66786709 36.69240433 -31.67561913 34.72851944 C-31.68546539 31.97663394 -31.68252279 29.22503509 -31.67651367 26.47314453 C-31.68213318 25.66976654 -31.68775269 24.86638855 -31.69354248 24.03866577 C-31.65725772 17.46768385 -30.932278 11.73462178 -27.30859375 6.0859375 C-19.60213777 -1.11792353 -9.88935792 -0.04409082 0 0 Z " fill="#02396D" transform="translate(588.43359375,68.6015625)"/>
<path d="M0 0 C1.46083008 0.00290039 1.46083008 0.00290039 2.95117188 0.00585938 C3.96630859 0.01810547 4.98144531 0.03035156 6.02734375 0.04296875 C7.04634766 0.04361328 8.06535156 0.04425781 9.11523438 0.04492188 C16.68403389 0.09006382 16.68403389 0.09006382 18.96484375 1.23046875 C18.96484375 16.08046875 18.96484375 30.93046875 18.96484375 46.23046875 C23.40824219 46.1840625 27.85164063 46.13765625 32.4296875 46.08984375 C35.99280093 46.06408468 39.55588773 46.04240604 43.11904144 46.02346802 C46.86934879 46.00242418 50.61928918 45.97434604 54.36938477 45.92871094 C57.98745374 45.88496251 61.60516889 45.86127129 65.22348213 45.85095978 C66.59768804 45.84361994 67.97187655 45.82928791 69.3459301 45.80754852 C77.77196491 45.67964795 85.87485189 45.66024339 92.46997452 51.5819025 C97.54425898 57.17790643 97.39429899 64.64032592 97.3371582 71.72973633 C97.34080887 72.75021057 97.34445953 73.77068481 97.34822083 74.82208252 C97.3562846 78.17322766 97.34275538 81.5238831 97.328125 84.875 C97.32760609 87.21050516 97.32812497 89.54601077 97.32963562 91.8815155 C97.3295461 96.76442017 97.31915331 101.64715903 97.30102539 106.5300293 C97.2782761 112.79598045 97.27780764 119.06169086 97.28454304 125.327672 C97.28787906 130.14454804 97.28126088 134.9613689 97.2714138 139.77823448 C97.26755991 142.08956298 97.26641437 144.40089761 97.26799965 146.71222878 C97.26836934 149.9343303 97.25577901 153.15611916 97.23950195 156.37817383 C97.24197937 157.33664719 97.24445679 158.29512054 97.24700928 159.28263855 C97.23992447 160.15868744 97.23283966 161.03473633 97.22554016 161.93733215 C97.22246086 163.07905742 97.22246086 163.07905742 97.21931934 164.24384785 C96.96484375 166.23046875 96.96484375 166.23046875 94.96484375 169.23046875 C90.78655736 170.62323088 86.84060341 170.41471781 82.46484375 170.41796875 C81.59730469 170.43021484 80.72976563 170.44246094 79.8359375 170.45507812 C79.00191406 170.45701172 78.16789063 170.45894531 77.30859375 170.4609375 C76.54740234 170.46504639 75.78621094 170.46915527 75.00195312 170.47338867 C72.96484375 170.23046875 72.96484375 170.23046875 69.96484375 168.23046875 C69.65425532 165.21776094 69.53791883 162.40702865 69.54833984 159.39038086 C69.53975449 158.47485947 69.53116913 157.55933807 69.52232361 156.61607361 C69.49716194 153.57990947 69.492876 150.54407156 69.48828125 147.5078125 C69.47398153 145.40555309 69.4582264 143.30330311 69.44107056 141.20106506 C69.39912591 135.65959548 69.37418845 130.11818434 69.35357666 124.57659912 C69.31782141 115.70182709 69.25694421 106.82719919 69.19508743 97.95257759 C69.17592193 94.84313624 69.16424506 91.73373338 69.15365601 88.62425232 C69.14344907 86.72988805 69.13309159 84.83552459 69.12255859 82.94116211 C69.12151627 82.06893005 69.12047394 81.196698 69.11940002 80.29803467 C69.46996358 76.45393508 69.46996358 76.45393508 67.96484375 73.23046875 C66.43101696 73.10793325 64.89173856 73.05268937 63.35327148 73.02514648 C62.37233017 73.00520126 61.39138885 72.98525604 60.38072205 72.96470642 C59.31406815 72.94799393 58.24741425 72.93128143 57.1484375 72.9140625 C56.06224625 72.8932814 54.97605499 72.87250031 53.85694885 72.85108948 C50.37214748 72.78547433 46.88726807 72.72665364 43.40234375 72.66796875 C41.04621574 72.6247949 38.69009576 72.58118099 36.33398438 72.53710938 C30.54435438 72.42978083 24.754646 72.3280371 18.96484375 72.23046875 C18.97150558 73.41397415 18.97816742 74.59747955 18.98503113 75.81684875 C19.04577709 86.95600701 19.09078505 98.09513177 19.12028027 109.23441792 C19.13595368 114.96160585 19.15722262 120.68866035 19.19116211 126.41577148 C19.22369565 131.94004317 19.24168413 137.4641863 19.24947548 142.98854637 C19.25502979 145.09894015 19.26587562 147.20932668 19.28203392 149.31966591 C19.30372825 152.26966325 19.30681402 155.21912552 19.30541992 158.16918945 C19.31620575 159.04672379 19.32699158 159.92425812 19.33810425 160.8283844 C19.30742661 166.80524203 19.30742661 166.80524203 17.57535267 168.95515728 C15.43491018 170.65010652 14.11143832 170.60380583 11.40234375 170.59375 C10.52320313 170.59310547 9.6440625 170.59246094 8.73828125 170.59179688 C7.82304687 170.57568359 6.9078125 170.55957031 5.96484375 170.54296875 C5.04960937 170.54619141 4.134375 170.54941406 3.19140625 170.55273438 C-3.63432717 170.49768814 -3.63432717 170.49768814 -7.03515625 168.23046875 C-8.16433429 164.84293464 -8.16671775 162.26748235 -8.17559814 158.6950531 C-8.17856927 158.02828192 -8.18154039 157.36151075 -8.18460155 156.67453438 C-8.19328691 154.43592368 -8.19479662 152.19736646 -8.19628906 149.95874023 C-8.20091718 148.35565069 -8.20594183 146.75256225 -8.21133423 145.1494751 C-8.22445675 140.79221982 -8.23090235 136.43497995 -8.23534489 132.07770801 C-8.23827451 129.35781887 -8.242379 126.63793396 -8.24684906 123.91804695 C-8.26052065 115.41458895 -8.27019022 106.91114058 -8.27405095 98.40767235 C-8.27853769 88.57874384 -8.29611547 78.74995398 -8.32505155 68.92106766 C-8.34662629 61.33037765 -8.35675289 53.73972679 -8.35809207 46.14900643 C-8.35914269 41.61167293 -8.3651053 37.07446983 -8.38291168 32.5371685 C-8.39932087 28.27312234 -8.40158301 24.00930563 -8.39277267 19.74523926 C-8.39199857 18.17705231 -8.39639384 16.60885338 -8.40623093 15.0406971 C-8.41883808 12.906487 -8.41313637 10.77310361 -8.40264893 8.63890076 C-8.40411549 7.44262275 -8.40558205 6.24634474 -8.40709305 5.01381588 C-8.2843539 4.09531133 -8.16161476 3.17680677 -8.03515625 2.23046875 C-4.75802642 0.04571553 -3.79648241 -0.01746375 0 0 Z " fill="#01396C" transform="translate(436.03515625,22.76953125)"/>
<path d="M0 0 C1.62467668 -0.00456948 3.24935144 -0.00987732 4.87402344 -0.0158844 C8.26635632 -0.02478138 11.65845334 -0.02243089 15.05078125 -0.01245117 C19.3781354 -0.00095524 23.70467424 -0.02119946 28.03192139 -0.05036831 C31.38302702 -0.06879253 34.73393939 -0.06842572 38.08508301 -0.06273079 C39.67973984 -0.06257839 41.27441045 -0.06855476 42.86901855 -0.08102226 C61.10037591 -0.2035288 61.10037591 -0.2035288 67.75053883 5.78479576 C72.83264283 11.37304506 72.67943533 18.84592152 72.62231445 25.93286133 C72.62596512 26.95333557 72.62961578 27.97380981 72.63337708 29.02520752 C72.64144085 32.37635266 72.62791163 35.7270081 72.61328125 39.078125 C72.61276234 41.41363016 72.61328122 43.74913577 72.61479187 46.0846405 C72.61470235 50.96754517 72.60430956 55.85028403 72.58618164 60.7331543 C72.56343235 66.99910545 72.56296389 73.26481586 72.56969929 79.530797 C72.57303531 84.34767304 72.56641713 89.1644939 72.55657005 93.98135948 C72.55271616 96.29268798 72.55157062 98.60402261 72.5531559 100.91535378 C72.55352559 104.1374553 72.54093526 107.35924416 72.5246582 110.58129883 C72.52713562 111.53977219 72.52961304 112.49824554 72.53216553 113.48576355 C72.52508072 114.36181244 72.51799591 115.23786133 72.51069641 116.14045715 C72.50761711 117.28218242 72.50761711 117.28218242 72.50447559 118.44697285 C72.25 120.43359375 72.25 120.43359375 70.25 123.43359375 C66.07171361 124.82635588 62.12575966 124.61784281 57.75 124.62109375 C56.88246094 124.63333984 56.01492188 124.64558594 55.12109375 124.65820312 C54.28707031 124.66013672 53.45304687 124.66207031 52.59375 124.6640625 C51.83255859 124.66817139 51.07136719 124.67228027 50.28710938 124.67651367 C48.25 124.43359375 48.25 124.43359375 45.25 122.43359375 C44.93941157 119.42088594 44.82307508 116.61015365 44.83349609 113.59350586 C44.82491074 112.67798447 44.81632538 111.76246307 44.80747986 110.81919861 C44.78231819 107.78303447 44.77803225 104.74719656 44.7734375 101.7109375 C44.75913778 99.60867809 44.74338265 97.50642811 44.72622681 95.40419006 C44.68428216 89.86272048 44.6593447 84.32130934 44.63873291 78.77972412 C44.60297766 69.90495209 44.54210046 61.03032419 44.48024368 52.15570259 C44.46107818 49.04626124 44.44940131 45.93685838 44.43881226 42.82737732 C44.42860532 40.93301305 44.41824784 39.03864959 44.40771484 37.14428711 C44.40667252 36.27205505 44.40563019 35.399823 44.40455627 34.50115967 C44.75511983 30.65706008 44.75511983 30.65706008 43.25 27.43359375 C41.77645652 27.34055357 40.29849409 27.3161311 38.82202148 27.32006836 C37.88112167 27.32014389 36.94022186 27.32021942 35.97080994 27.32029724 C34.94790359 27.32545853 33.92499725 27.33061981 32.87109375 27.3359375 C31.308395 27.33805992 31.308395 27.33805992 29.71412659 27.34022522 C26.37188906 27.34584295 23.02971743 27.35839845 19.6875 27.37109375 C17.42773534 27.37610647 15.16796963 27.38066977 12.90820312 27.38476562 C7.35544609 27.39581814 1.80272775 27.41257351 -3.75 27.43359375 C-5.41534702 30.76428778 -4.90327178 34.50319071 -4.90771484 38.16601562 C-4.91279556 39.07017715 -4.91787628 39.97433868 -4.92311096 40.90589905 C-4.93382653 42.87297083 -4.94244204 44.8400549 -4.94923019 46.80714417 C-4.96099058 49.91637619 -4.98043449 53.0254675 -5.00234985 56.13464355 C-5.06407308 64.97594559 -5.11809297 73.81723295 -5.15136719 82.65869141 C-5.17225365 88.06219174 -5.20750585 93.46543547 -5.25212479 98.86878967 C-5.26633109 100.93251027 -5.2750176 102.99627626 -5.27817917 105.06004333 C-5.28306036 107.94069484 -5.30614453 110.82065889 -5.33349609 113.70117188 C-5.33048996 114.56045792 -5.32748383 115.41974396 -5.3243866 116.30506897 C-5.35800171 118.67590332 -5.35800171 118.67590332 -5.75 122.43359375 C-8.90672682 124.53807829 -9.7018109 124.68907636 -13.3125 124.69921875 C-14.63121094 124.70308594 -14.63121094 124.70308594 -15.9765625 124.70703125 C-16.89179688 124.69929688 -17.80703125 124.6915625 -18.75 124.68359375 C-20.12285156 124.69519531 -20.12285156 124.69519531 -21.5234375 124.70703125 C-22.40257812 124.70445312 -23.28171875 124.701875 -24.1875 124.69921875 C-24.99058594 124.69696289 -25.79367188 124.69470703 -26.62109375 124.69238281 C-28.75 124.43359375 -28.75 124.43359375 -31.75 122.43359375 C-32.66454458 119.68996002 -32.88093096 118.05644324 -32.89717102 115.22984314 C-32.90432632 114.37351288 -32.91148163 113.51718262 -32.91885376 112.63490295 C-32.92154266 111.69827316 -32.92423157 110.76164337 -32.92700195 109.79663086 C-32.93357315 108.80763794 -32.94014435 107.81864502 -32.94691467 106.79968262 C-32.9666558 103.52010015 -32.9783142 100.24056356 -32.98828125 96.9609375 C-32.99235678 95.8398163 -32.9964323 94.71869511 -33.00063133 93.56360054 C-33.02149887 87.62581694 -33.03579576 81.68805648 -33.04516602 75.75024414 C-33.05621163 69.62935406 -33.09058859 63.5088294 -33.13033772 57.3880682 C-33.15654279 52.67213791 -33.1648615 47.95629401 -33.16844749 43.24029732 C-33.17330598 40.98496607 -33.1848988 38.72963848 -33.20348549 36.47437859 C-33.22795147 33.30806861 -33.22689761 30.14269481 -33.2199707 26.97631836 C-33.23278076 26.05385818 -33.24559082 25.13139801 -33.25878906 24.1809845 C-33.20393701 17.26055673 -31.96190821 10.05337485 -27.2196703 4.70893097 C-20.12511544 -1.44751778 -8.77592446 -0.02169873 0 0 Z " fill="#01396C" transform="translate(252.75,68.56640625)"/>
<path d="M0 0 C1.49756836 -0.04350586 1.49756836 -0.04350586 3.02539062 -0.08789062 C7.26648873 -0.12462232 10.33905673 -0.10783987 14.17578125 1.79296875 C16.93799397 5.25243905 18.18560366 8.76284075 19.5625 12.9375 C20.1623509 14.660753 20.76395571 16.38339633 21.3671875 18.10546875 C21.66850586 18.9773584 21.96982422 19.84924805 22.28027344 20.74755859 C23.65047867 24.62144886 25.16876267 28.43249502 26.6875 32.25 C30.14187143 41.02949816 33.25260339 49.91685683 36.32910156 58.83447266 C37.74322791 62.91677711 39.18416505 66.98956142 40.625 71.0625 C41.12369957 72.47395775 41.62239766 73.88541602 42.12109375 75.296875 C42.47300781 76.29203125 42.82492187 77.2871875 43.1875 78.3125 C44.97644154 75.6290877 45.63958719 74.13983955 46.4140625 71.12109375 C46.63707031 70.27216553 46.86007812 69.4232373 47.08984375 68.54858398 C47.32832031 67.62505127 47.56679688 66.70151855 47.8125 65.75 C50.37589371 56.07689216 53.23053134 46.51966865 56.21191406 36.96801758 C58.70628367 28.95134414 61.05998208 20.90392413 63.28515625 12.80834961 C63.61966797 11.60770874 63.61966797 11.60770874 63.9609375 10.3828125 C64.24590088 9.34278076 64.24590088 9.34278076 64.53662109 8.28173828 C65.82767292 4.37565275 66.67567353 2.65371765 70.1875 0.3125 C72.42407227 0.05371094 72.42407227 0.05371094 75.00390625 0.046875 C75.93267578 0.04429688 76.86144531 0.04171875 77.81835938 0.0390625 C78.78580078 0.04679687 79.75324219 0.05453125 80.75 0.0625 C81.72130859 0.05476563 82.69261719 0.04703125 83.69335938 0.0390625 C84.62083984 0.04164062 85.54832031 0.04421875 86.50390625 0.046875 C87.35412354 0.04913086 88.20434082 0.05138672 89.08032227 0.05371094 C91.1875 0.3125 91.1875 0.3125 93.1875 2.3125 C92.97686867 10.62366133 90.2217577 18.28495297 87.6875 26.125 C87.23739993 27.53858976 86.78802922 28.95241195 86.33935547 30.36645508 C85.19015676 33.98068733 84.03082581 37.59156955 82.86755371 41.20129395 C82.20996619 43.24275439 81.55427523 45.28481198 80.89941406 47.32714844 C77.77816315 57.06122296 77.77816315 57.06122296 76.23242188 61.8371582 C74.20561694 68.10221837 72.23657989 74.38170609 70.30908203 80.67797852 C68.2275843 87.4231367 66.08682202 94.14968418 63.95678711 100.87963867 C62.74384097 104.71556641 61.53615525 108.55314695 60.328125 112.390625 C55.0769897 129.0600301 49.79771555 145.71903423 44.39746094 162.34082031 C42.4667938 168.29330128 40.57666202 174.24812203 38.84033203 180.26049805 C37.92570737 183.13537475 36.71806525 185.71719371 35.1875 188.3125 C32.85586164 189.47831918 31.46596518 189.44155609 28.87109375 189.4453125 C27.60168945 189.44724609 27.60168945 189.44724609 26.30664062 189.44921875 C25.42169922 189.44535156 24.53675781 189.44148437 23.625 189.4375 C22.29178711 189.44330078 22.29178711 189.44330078 20.93164062 189.44921875 C20.08666016 189.44792969 19.24167969 189.44664062 18.37109375 189.4453125 C17.20404907 189.44362061 17.20404907 189.44362061 16.01342773 189.44189453 C14.1875 189.3125 14.1875 189.3125 13.1875 188.3125 C12.85510144 182.45352313 13.61689627 177.8017127 15.41796875 172.25390625 C15.65026688 171.50648666 15.882565 170.75906708 16.12190247 169.98899841 C16.86236517 167.61419599 17.61809296 165.2446062 18.375 162.875 C18.86370398 161.32130088 19.35134189 159.76726602 19.83789062 158.21289062 C20.07823029 157.44552582 20.31856995 156.67816101 20.56619263 155.88754272 C20.80602875 155.12156769 21.04586487 154.35559265 21.29296875 153.56640625 C21.65236038 152.42022324 21.65236038 152.42022324 22.01901245 151.25088501 C22.74346283 148.93859317 23.46582805 146.62566038 24.1875 144.3125 C24.43276428 143.52897156 24.67802856 142.74544312 24.9307251 141.93817139 C25.64672141 139.63730194 26.35042369 137.33301526 27.05078125 135.02734375 C27.26679489 134.3385463 27.48280853 133.64974884 27.70536804 132.94007874 C29.55056165 126.79030424 29.81499682 122.16469083 27.46484375 116.1796875 C27.09480225 115.21901367 26.72476074 114.25833984 26.34350586 113.26855469 C25.94139893 112.25180664 25.53929199 111.23505859 25.125 110.1875 C24.28973852 108.02418097 23.45643203 105.86010619 22.625 103.6953125 C22.20992187 102.61797852 21.79484375 101.54064453 21.3671875 100.43066406 C19.69311829 96.00574438 18.15306642 91.53947439 16.625 87.0625 C13.98878432 79.38111294 11.03591064 71.86365521 7.96777344 64.34570312 C5.68784191 58.70764586 3.73212917 53.08962935 2.07421875 47.234375 C0.94879621 43.52593421 -0.43139047 39.93097205 -1.8125 36.3125 C-3.46545304 31.93444245 -5.10773381 27.55261803 -6.73852539 23.16625977 C-7.24859133 21.79894289 -7.76164241 20.43273609 -8.27758789 19.06762695 C-9.03001205 17.0752154 -9.77184519 15.0791319 -10.51171875 13.08203125 C-11.17433716 11.31243042 -11.17433716 11.31243042 -11.8503418 9.50708008 C-12.73979446 6.55389863 -13.02388004 4.36548813 -12.8125 1.3125 C-8.95634631 -0.61557685 -4.24200167 0.04060627 0 0 Z " fill="#02396C" transform="translate(815.8125,68.6875)"/>
<path d="M0 0 C1.53333984 -0.00386719 1.53333984 -0.00386719 3.09765625 -0.0078125 C4.16886719 -0.00007813 5.24007812 0.00765625 6.34375 0.015625 C7.95056641 0.00402344 7.95056641 0.00402344 9.58984375 -0.0078125 C10.61207031 -0.00523438 11.63429688 -0.00265625 12.6875 0 C14.09805664 0.00338379 14.09805664 0.00338379 15.53710938 0.00683594 C17.84375 0.265625 17.84375 0.265625 19.84375 2.265625 C20.08425903 4.17654419 20.08425903 4.17654419 20.07080078 6.53173828 C20.07064972 7.41250031 20.07049866 8.29326233 20.07034302 9.20071411 C20.06002045 10.15283783 20.04969788 11.10496155 20.0390625 12.0859375 C20.0362326 13.05973358 20.03340271 14.03352966 20.03048706 15.03683472 C20.01926913 18.15488849 19.9941617 21.27265768 19.96875 24.390625 C19.95872228 26.50129794 19.94959607 28.61197538 19.94140625 30.72265625 C19.91932458 35.90374335 19.88583129 41.08466385 19.84375 46.265625 C20.40360596 46.24991455 20.96346191 46.2342041 21.5402832 46.21801758 C24.0788359 46.15562652 26.61722729 46.11662282 29.15625 46.078125 C30.03732422 46.05298828 30.91839844 46.02785156 31.82617188 46.00195312 C33.09750977 45.98745117 33.09750977 45.98745117 34.39453125 45.97265625 C35.17481689 45.9569458 35.95510254 45.94123535 36.7590332 45.92504883 C39.37786773 46.35288279 40.23830063 47.19403113 41.84375 49.265625 C42.23193359 51.28686523 42.23193359 51.28686523 42.2421875 53.57421875 C42.24605469 54.40373047 42.24992187 55.23324219 42.25390625 56.08789062 C42.24230469 56.95091797 42.23070312 57.81394531 42.21875 58.703125 C42.23035156 59.56228516 42.24195313 60.42144531 42.25390625 61.30664062 C42.25003906 62.13744141 42.24617188 62.96824219 42.2421875 63.82421875 C42.23880371 64.58017334 42.23541992 65.33612793 42.23193359 66.11499023 C41.68743089 69.13167221 41.2334481 70.26934939 38.84375 72.265625 C35.60388982 72.76541375 32.42430894 72.63994034 29.15625 72.515625 C28.26357422 72.49757813 27.37089844 72.47953125 26.45117188 72.4609375 C24.24761496 72.41380259 22.04622399 72.34803157 19.84375 72.265625 C19.95109291 81.3752992 20.06369349 90.48488854 20.18308926 99.5944128 C20.23835687 103.82390114 20.29178285 108.05339633 20.34106445 112.28295898 C20.38865159 116.36137163 20.44099208 120.43969762 20.49669075 124.51800728 C20.51714 126.07737648 20.53584875 127.63676946 20.55282402 129.19618034 C20.57681144 131.3729809 20.60687319 133.54961624 20.63842773 135.72631836 C20.66174416 137.58830116 20.66174416 137.58830116 20.68553162 139.48789978 C20.52926514 142.17305716 20.52926514 142.17305716 21.84375 143.265625 C25.42523238 143.469204 28.99985704 143.61246576 32.5859375 143.6953125 C33.33875 143.72625 34.0915625 143.7571875 34.8671875 143.7890625 C35.55731934 143.80888184 36.24745117 143.82870117 36.95849609 143.84912109 C39.45242424 144.40009771 40.34433113 145.21248599 41.84375 147.265625 C42.20019531 149.30273437 42.20019531 149.30273437 42.171875 151.609375 C42.16671875 152.44339844 42.1615625 153.27742187 42.15625 154.13671875 C42.135625 155.00425781 42.115 155.87179688 42.09375 156.765625 C42.08601563 158.06693359 42.08601563 158.06693359 42.078125 159.39453125 C42.03368514 162.98860533 41.98910595 165.82955716 40.84375 169.265625 C36.59804322 171.38847839 31.03941782 170.49266391 26.36987305 170.50585938 C24.3132136 170.51547555 22.25759284 170.54645349 20.20117188 170.578125 C3.53578846 170.64344742 3.53578846 170.64344742 -3.09375 164.578125 C-6.96060116 158.36772768 -7.45362709 152.04832397 -7.38330078 144.921875 C-7.38359283 144.13066757 -7.38388489 143.33946014 -7.38418579 142.52427673 C-7.3828048 139.93794356 -7.36730231 137.35190715 -7.3515625 134.765625 C-7.34782798 132.96102048 -7.34498308 131.15641392 -7.34298706 129.35180664 C-7.33538514 124.62374176 -7.31576651 119.89580158 -7.2935791 115.16778564 C-7.27304623 110.3345305 -7.26396949 105.50125503 -7.25390625 100.66796875 C-7.23251712 91.20046633 -7.1984231 81.73305607 -7.15625 72.265625 C-8.43242187 72.28882812 -9.70859375 72.31203125 -11.0234375 72.3359375 C-12.6927025 72.35469329 -14.3619738 72.37289369 -16.03125 72.390625 C-16.87300781 72.40738281 -17.71476562 72.42414063 -18.58203125 72.44140625 C-19.38769531 72.44785156 -20.19335938 72.45429687 -21.0234375 72.4609375 C-21.76706543 72.47141113 -22.51069336 72.48188477 -23.27685547 72.49267578 C-25.15625 72.265625 -25.15625 72.265625 -27.15625 70.265625 C-27.41503906 68.05078125 -27.41503906 68.05078125 -27.421875 65.328125 C-27.42445313 64.35101563 -27.42703125 63.37390625 -27.4296875 62.3671875 C-27.42195313 61.34367187 -27.41421875 60.32015625 -27.40625 59.265625 C-27.41398437 58.24210937 -27.42171875 57.21859375 -27.4296875 56.1640625 C-27.42710937 55.18695313 -27.42453125 54.20984375 -27.421875 53.203125 C-27.41961914 52.30464844 -27.41736328 51.40617187 -27.41503906 50.48046875 C-27.15625 48.265625 -27.15625 48.265625 -25.15625 46.265625 C-23.27685547 46.03857422 -23.27685547 46.03857422 -21.0234375 46.0703125 C-20.21777344 46.07675781 -19.41210938 46.08320312 -18.58203125 46.08984375 C-17.74027344 46.10660156 -16.89851563 46.12335938 -16.03125 46.140625 C-14.75701172 46.15416016 -14.75701172 46.15416016 -13.45703125 46.16796875 C-11.35665116 46.19156853 -9.25641556 46.22744017 -7.15625 46.265625 C-7.16069122 45.71883087 -7.16513245 45.17203674 -7.16970825 44.6086731 C-7.21386356 38.93136196 -7.24408379 33.25409939 -7.26611328 27.57666016 C-7.27618751 25.4561973 -7.28984733 23.33574839 -7.30712891 21.21533203 C-7.33131489 18.17216557 -7.34271869 15.12918234 -7.3515625 12.0859375 C-7.36188507 11.13381378 -7.37220764 10.18169006 -7.38284302 9.20071411 C-7.38299408 8.31995209 -7.38314514 7.43919006 -7.38330078 6.53173828 C-7.387742 5.75452423 -7.39218323 4.97731018 -7.39675903 4.17654419 C-6.83388461 -0.29566841 -3.72903177 0.00894559 0 0 Z " fill="#02396D" transform="translate(369.15625,22.734375)"/>
<path d="M0 0 C1.10794922 -0.00960754 2.21589844 -0.01921509 3.35742188 -0.02911377 C4.54916016 -0.03336365 5.74089844 -0.03761353 6.96875 -0.04199219 C8.81049805 -0.0505423 8.81049805 -0.0505423 10.68945312 -0.05926514 C13.28514749 -0.06870867 15.88085382 -0.07524655 18.4765625 -0.07910156 C22.45333592 -0.08882948 26.42959738 -0.11986895 30.40625 -0.15136719 C32.92708026 -0.15789514 35.44791422 -0.16314642 37.96875 -0.16699219 C39.75635742 -0.18551239 39.75635742 -0.18551239 41.58007812 -0.20440674 C43.24200195 -0.19990509 43.24200195 -0.19990509 44.9375 -0.1953125 C45.91138672 -0.19895813 46.88527344 -0.20260376 47.88867188 -0.20635986 C50.90853006 0.22377276 52.27870298 1.0695959 54.46875 3.16113281 C54.98632812 5.29003906 54.98632812 5.29003906 55 7.72363281 C55.00773438 9.04234375 55.00773438 9.04234375 55.015625 10.38769531 C55.00015625 11.30292969 54.9846875 12.21816406 54.96875 13.16113281 C54.99195313 14.53398438 54.99195313 14.53398438 55.015625 15.93457031 C55.01046875 16.81371094 55.0053125 17.69285156 55 18.59863281 C54.99548828 19.40171875 54.99097656 20.20480469 54.98632812 21.03222656 C54.46875 23.16113281 54.46875 23.16113281 53.04870605 24.76220703 C49.05572245 26.92731666 45.14725896 26.64176502 40.671875 26.67285156 C39.72310486 26.69080276 38.77433472 26.70875397 37.79681396 26.72724915 C34.77083765 26.78136787 31.74501922 26.81525308 28.71875 26.84863281 C26.66534261 26.88180448 24.61195605 26.916294 22.55859375 26.95214844 C17.52875972 27.03709539 12.49897264 27.10389933 7.46875 27.16113281 C7.46066315 28.30483337 7.45257629 29.44853394 7.44424438 30.62689209 C7.36680595 41.39796396 7.27907241 52.16890916 7.18122292 62.93981552 C7.13124772 68.47742959 7.08491769 74.01502446 7.046875 79.55273438 C7.0100378 84.89554825 6.96368193 90.23820203 6.91068649 95.58087921 C6.89213425 97.62062018 6.87702937 99.66039547 6.86540604 101.70018768 C6.84855792 104.55419863 6.81952612 107.40784227 6.78759766 110.26171875 C6.78543747 111.10760559 6.78327728 111.95349243 6.78105164 112.82501221 C6.67612822 120.15232957 6.67612822 120.15232957 4.46875 123.16113281 C0.82495011 124.98303276 -3.45707485 124.38873686 -7.46875 124.41113281 C-8.84836914 124.44207031 -8.84836914 124.44207031 -10.25585938 124.47363281 C-11.13951172 124.47878906 -12.02316406 124.48394531 -12.93359375 124.48925781 C-13.74304443 124.49860352 -14.55249512 124.50794922 -15.38647461 124.51757812 C-18.10768458 124.06533378 -18.83232214 123.303655 -20.53125 121.16113281 C-20.91156673 119.1276598 -20.91156673 119.1276598 -20.91893005 116.75410461 C-20.92883469 115.85281326 -20.93873932 114.95152191 -20.94894409 114.0229187 C-20.94444244 113.03639313 -20.9399408 112.04986755 -20.93530273 111.03344727 C-20.94216599 109.99247391 -20.94902924 108.95150055 -20.95610046 107.87898254 C-20.9744455 104.42732206 -20.97051842 100.97611299 -20.96484375 97.52441406 C-20.96940329 95.12647859 -20.97470817 92.72854443 -20.98072815 90.33061218 C-20.98967548 85.29758406 -20.9872193 80.26471445 -20.97729492 75.23168945 C-20.96582933 68.78995271 -20.98597206 62.34876608 -21.01521206 55.90710163 C-21.03358816 50.95102981 -21.03327828 45.99508928 -21.02757454 41.03899193 C-21.02742136 38.66479918 -21.03346294 36.29059751 -21.04586601 33.91643715 C-21.06079239 30.58920846 -21.05008407 27.26298879 -21.03295898 23.93579102 C-21.04262695 22.9593866 -21.05229492 21.98298218 -21.06225586 20.97698975 C-20.99795662 14.99182723 -20.18140019 10.05954183 -16.53125 5.16113281 C-11.47347706 1.10230896 -6.31286704 0.04426005 0 0 Z " fill="#01396D" transform="translate(945.53125,68.8388671875)"/>
<path d="M0 0 C0.8910997 -0.00637985 1.7821994 -0.0127597 2.70030212 -0.01933289 C3.66488846 -0.02044571 4.62947479 -0.02155853 5.62329102 -0.02270508 C6.61216812 -0.02603348 7.60104523 -0.02936188 8.61988831 -0.03279114 C10.71387262 -0.03785972 12.80786503 -0.04019948 14.90185547 -0.04003906 C18.11056791 -0.042225 21.31893635 -0.06038 24.52758789 -0.0793457 C26.55948775 -0.0822797 28.59138925 -0.08426445 30.62329102 -0.08520508 C32.06713417 -0.09598335 32.06713417 -0.09598335 33.54014587 -0.10697937 C34.43439774 -0.10390274 35.3286496 -0.10082611 36.25 -0.09765625 C37.03672592 -0.09908127 37.82345184 -0.10050629 38.63401794 -0.10197449 C40.68969727 0.14526367 40.68969727 0.14526367 43.68969727 2.14526367 C44.05046082 5.04324341 44.05046082 5.04324341 44.03027344 8.7980957 C44.03093056 9.82265869 44.03093056 9.82265869 44.03160095 10.86791992 C44.0295077 13.12992756 44.00615269 15.39119773 43.98266602 17.65307617 C43.97707194 19.21963089 43.97280095 20.78619085 43.96980286 22.35275269 C43.95833918 26.47929329 43.92885922 30.60551796 43.89569092 34.73193359 C43.8596322 39.68114187 43.8458361 44.63045569 43.82833099 49.57975769 C43.79922243 57.10181286 43.74174657 64.6231746 43.68969727 72.14526367 C27.51969727 72.14526367 11.34969727 72.14526367 -5.31030273 72.14526367 C-6.74902407 69.267821 -6.42967426 66.79960445 -6.42382812 63.58422852 C-6.42397415 62.91094009 -6.42412018 62.23765167 -6.42427063 61.54396057 C-6.423573 59.31467486 -6.41578763 57.08547232 -6.40795898 54.85620117 C-6.40609427 53.31206305 -6.40467062 51.76792433 -6.40367126 50.2237854 C-6.39985028 46.15655895 -6.39002355 42.08936812 -6.37896729 38.02215576 C-6.36874418 33.87309247 -6.36417171 29.72402343 -6.35913086 25.57495117 C-6.34840092 17.43170565 -6.33132951 9.28848909 -6.31030273 1.14526367 C-3.97771427 -0.02103056 -2.59815024 0.01260115 0 0 Z " fill="#000003" transform="translate(719.310302734375,94.854736328125)"/>
<path d="M0 0 C0.89425186 -0.0030011 1.78850372 -0.0060022 2.70985413 -0.00909424 C3.67241623 0.00325256 4.63497833 0.01559937 5.62670898 0.02832031 C6.61654282 0.03019348 7.60637665 0.03206665 8.62620544 0.03399658 C10.71844858 0.04071938 12.81067909 0.05463835 14.90283203 0.07519531 C18.11364355 0.10635642 21.32396435 0.11616648 24.53491211 0.12207031 C26.56551708 0.13123995 28.59611704 0.1416156 30.62670898 0.15332031 C32.07358849 0.15969513 32.07358849 0.15969513 33.54969788 0.16619873 C34.88634743 0.18061005 34.88634743 0.18061005 36.25 0.1953125 C37.03593033 0.2021405 37.82186066 0.20896851 38.63160706 0.21600342 C40.56030273 0.35644531 40.56030273 0.35644531 42.56030273 1.35644531 C42.60658423 10.31836926 42.64215054 19.28025226 42.66392708 28.24226952 C42.67437719 32.40341784 42.68855865 36.56448458 42.71118164 40.72558594 C42.73286644 44.7391096 42.74486211 48.75255465 42.75005722 52.76613235 C42.75376085 54.29958967 42.76099285 55.83304255 42.77176285 57.36646652 C42.78622002 59.50954332 42.78828314 61.65229267 42.78735352 63.79541016 C42.79179474 65.01674652 42.79623596 66.23808289 42.80081177 67.49642944 C42.56030273 70.35644531 42.56030273 70.35644531 40.56030273 72.35644531 C38.57345581 72.59695435 38.57345581 72.59695435 36.1105957 72.58349609 C35.18979218 72.58334503 34.26898865 72.58319397 33.32028198 72.58303833 C32.32441071 72.57271576 31.32853943 72.56239319 30.30249023 72.55175781 C29.28430206 72.54892792 28.26611389 72.54609802 27.21707153 72.54318237 C23.95636373 72.53196302 20.6959279 72.50685527 17.43530273 72.48144531 C15.22827544 72.47141778 13.02124386 72.46229154 10.81420898 72.45410156 C5.39614701 72.43201799 -0.0217557 72.39852326 -5.43969727 72.35644531 C-7.58694136 68.85720185 -7.69787912 66.04838165 -7.71435547 61.9831543 C-7.72388748 60.69179062 -7.73341949 59.40042694 -7.74324036 58.06993103 C-7.74297897 56.66413343 -7.74204215 55.25833582 -7.74047852 53.85253906 C-7.74436643 52.40812558 -7.7487013 50.96371323 -7.75346375 49.51930237 C-7.76091752 46.49565926 -7.76064011 43.47213295 -7.75537109 40.44848633 C-7.74956687 36.57228371 -7.76653397 32.69655743 -7.78971577 28.82043362 C-7.8044376 25.83931175 -7.80532714 22.85830517 -7.80220604 19.8771534 C-7.80271969 18.44779578 -7.80796562 17.01843178 -7.81801796 15.58910942 C-7.8303383 13.59289056 -7.82166395 11.59657534 -7.81201172 9.6003418 C-7.81264114 8.46435043 -7.81327057 7.32835907 -7.81391907 6.15794373 C-7.43969727 3.35644531 -7.43969727 3.35644531 -6.19390869 1.48847961 C-3.97532871 0.05677725 -2.63312625 -0.01220171 0 0 Z " fill="#000002" transform="translate(591.439697265625,94.6435546875)"/>
<path d="M0 0 C2.33778172 0.04454923 4.67568766 0.08301902 7.01367188 0.11523438 C11.27422059 0.20864047 15.5336865 0.30213434 19.79077148 0.49975586 C21.0679026 0.55310341 21.0679026 0.55310341 22.37083435 0.60752869 C25.05873177 1.16551353 25.98527823 1.82789589 27.5625 4.0625 C27.92326355 6.05570984 27.92326355 6.05570984 27.90307617 8.3503418 C27.90284958 9.21100754 27.90262299 10.07167328 27.90238953 10.9584198 C27.88690567 11.88350845 27.87142181 12.80859711 27.85546875 13.76171875 C27.85122391 14.71190384 27.84697906 15.66208893 27.84260559 16.6410675 C27.82580484 19.67766588 27.78814992 22.71360202 27.75 25.75 C27.73495497 27.80793313 27.72126625 29.86587665 27.70898438 31.92382812 C27.67589671 36.97030748 27.62410462 42.01629144 27.5625 47.0625 C25.99789031 47.53938576 24.43266285 48.01424493 22.8671875 48.48828125 C21.99562012 48.75294189 21.12405273 49.01760254 20.22607422 49.2902832 C-3.62619633 56.20547402 -29.48323615 51.79765106 -51.4375 41.0625 C-50.14021769 37.55418731 -48.61206516 34.57719321 -46.53125 31.47265625 C-45.95117188 30.60447266 -45.37109375 29.73628906 -44.7734375 28.84179688 C-44.16757812 27.94525391 -43.56171875 27.04871094 -42.9375 26.125 C-42.36257812 25.26326172 -41.78765625 24.40152344 -41.1953125 23.51367188 C-39.9721852 21.69099856 -38.72001234 19.88757228 -37.44360352 18.10180664 C-35.92474623 15.80069257 -34.78655154 13.75396016 -33.63256836 11.28686523 C-26.43172761 -2.81233366 -14.19955195 -0.64547939 0 0 Z " fill="#7696B8" transform="translate(105.4375,149.9375)"/>
<path d="M0 0 C30.03 0 60.06 0 91 0 C91 0.33 91 0.66 91 1 C89.87464844 1.14695313 88.74929687 1.29390625 87.58984375 1.4453125 C67.72785098 4.25755301 50.33651255 11.85051241 35 25 C34.41089844 25.44472656 33.82179687 25.88945312 33.21484375 26.34765625 C16.34908704 39.38572349 4.59351897 63.0166373 1.5859375 83.87109375 C1.51632813 84.71800781 1.44671875 85.56492187 1.375 86.4375 C1.30023438 87.30246094 1.22546875 88.16742188 1.1484375 89.05859375 C1.09945312 89.69925781 1.05046875 90.33992188 1 91 C0.67 91 0.34 91 0 91 C0 60.97 0 30.94 0 0 Z " fill="#010102" transform="translate(0,0)"/>
<path d="M0 0 C0.33 0 0.66 0 1 0 C1.0462955 7.26692328 1.08185493 14.53381488 1.10362434 21.80085564 C1.11407142 25.17506994 1.12824725 28.54918352 1.15087891 31.92333984 C1.17504885 35.80048318 1.18646511 39.67748277 1.1953125 43.5546875 C1.20563507 44.76929657 1.21595764 45.98390564 1.22659302 47.23532104 C1.22681961 48.91683762 1.22681961 48.91683762 1.22705078 50.63232422 C1.231492 51.62271698 1.23593323 52.61310974 1.24050903 53.6335144 C1 56 1 56 -1 58 C-3.65291757 58.17510386 -6.19986174 58.23155483 -8.8515625 58.1953125 C-9.62559418 58.1924826 -10.39962585 58.18965271 -11.19711304 58.18673706 C-13.67323157 58.17552754 -16.1489905 58.15042203 -18.625 58.125 C-20.30207812 58.11497118 -21.97916189 58.10584516 -23.65625 58.09765625 C-27.77097223 58.07558574 -31.88542511 58.04105102 -36 58 C-31.7825176 50.52334494 -27.56977575 43.08801806 -22.8125 35.9375 C-17.87686568 28.41783797 -13.12271228 20.79492655 -8.4152832 13.13061523 C-2.6455588 3.75043254 -2.6455588 3.75043254 0 0 Z " fill="#7695B8" transform="translate(132,69)"/>
<path d="M0 0 C16 0 16 0 21 3 C23.33907154 6.50860731 22.95751873 7.93078811 22.2890625 11.96484375 C21.86919047 14.92096982 21.64329868 17.28659736 23 20 C23.39069343 24.14135035 23.43382227 26.31186812 21.1875 29.875 C15.19995335 35.69147389 9.15510225 33 0 33 C0 22.11 0 11.22 0 0 Z " fill="#4F4F4E" transform="translate(524,226)"/>
<path d="M0 0 C1.65 0 3.3 0 5 0 C5 10.89 5 21.78 5 33 C2.66666667 33 0.33333333 33 -2 33 C-3.11375 33.0825 -4.2275 33.165 -5.375 33.25 C-9 33 -9 33 -11.375 31.1875 C-14.7715502 26.61522088 -14.51487084 21.47159353 -14 16 C-12.83567931 13.51949071 -11.90574048 11.90574048 -10 10 C-6.99668982 9.85806663 -4.00782866 9.95763622 -1 10 C-0.67 6.7 -0.34 3.4 0 0 Z " fill="#545453" transform="translate(656,226)"/>
<path d="M0 0 C2.48859018 2.37939107 2.97722956 3.84079665 3.46875 7.27734375 C3.55280273 17.1220192 3.55280273 17.1220192 0.875 21.375 C-2.43351204 23.24502854 -4.2586477 23.49884697 -8 23 C-8.66 22.67 -9.32 22.34 -10 22 C-10 25.3 -10 28.6 -10 32 C-11.65 32 -13.3 32 -15 32 C-15 21.44 -15 10.88 -15 0 C-13.02 0 -11.04 0 -9 0 C-5.8168485 -1.59157575 -3.38676935 -0.77242108 0 0 Z " fill="#515150" transform="translate(493,236)"/>
<path d="M0 0 C1.98 0 3.96 0 6 0 C7.46218726 4.01944223 8.91905692 8.04079219 10.375 12.0625 C10.7875 13.19623047 11.2 14.32996094 11.625 15.49804688 C13.59961707 20.96009249 15.51629476 26.38311586 17 32 C15.02 32 13.04 32 11 32 C10.34 29.69 9.68 27.38 9 25 C4.71 25 0.42 25 -4 25 C-4.33 27.31 -4.66 29.62 -5 32 C-6.98 32 -8.96 32 -11 32 C-9.19473903 25.26986041 -6.83633824 18.86459906 -4.15771484 12.44311523 C-2.46349559 8.33898683 -1.14810644 4.27930584 0 0 Z " fill="#535351" transform="translate(30,227)"/>
<path d="M0 0 C2.27379807 1.76850961 3.78102954 3.27594449 5.25 5.75 C5.25 6.74 5.25 7.73 5.25 8.75 C2.9375 9 2.9375 9 0.25 8.75 C-0.224375 8.09 -0.69875 7.43 -1.1875 6.75 C-1.703125 6.09 -2.21875 5.43 -2.75 4.75 C-5.87623255 4.43099668 -7.92116253 4.33558126 -10.75 5.75 C-11.86083501 9.08250502 -11.91759585 11.68038958 -11.9375 15.1875 C-11.95167969 16.32058594 -11.96585937 17.45367187 -11.98046875 18.62109375 C-11.76071135 21.60457979 -11.30843386 23.24295423 -9.75 25.75 C-6.33343976 25.91677282 -6.33343976 25.91677282 -2.75 25.75 C-0.39046906 23.39046906 -0.25858587 21.97104383 0.25 18.75 C-2.06 18.75 -4.37 18.75 -6.75 18.75 C-6.75 17.1 -6.75 15.45 -6.75 13.75 C-2.46 13.75 1.83 13.75 6.25 13.75 C6.61743095 19.75137225 5.76731422 24.57697818 1.9453125 29.39453125 C-1.38177619 32.05466898 -5.63057156 31.96782359 -9.75 31.75 C-13.87415715 29.76156709 -16.18692109 28.03790565 -17.75 23.75 C-17.9946335 20.91111358 -18.1201245 18.21254244 -18.125 15.375 C-18.14949219 14.6325 -18.17398437 13.89 -18.19921875 13.125 C-18.22708421 7.86771702 -17.18560594 4.93694407 -13.75 0.75 C-9.64041807 -2.36761388 -4.5513482 -2.06879464 0 0 Z " fill="#515150" transform="translate(376.75,227.25)"/>
<path d="M0 0 C6.33333333 0 12.66666667 0 19 0 C19.7321875 -0.04640625 20.464375 -0.0928125 21.21875 -0.140625 C22.34796875 -0.19476563 22.34796875 -0.19476563 23.5 -0.25 C24.2528125 -0.29640625 25.005625 -0.3428125 25.78125 -0.390625 C28 0 28 0 30.265625 1.40625 C32.91840257 5.37346691 32.42874106 9.09585773 32.25 13.75 C32.23195312 14.63816406 32.21390625 15.52632812 32.1953125 16.44140625 C32.14827374 18.62870848 32.08257009 20.81379816 32 23 C30.35 23 28.7 23 27 23 C26.93941406 21.78441406 26.87882812 20.56882812 26.81640625 19.31640625 C26.73201668 17.73175772 26.6473679 16.14712298 26.5625 14.5625 C26.52318359 13.76005859 26.48386719 12.95761719 26.44335938 12.13085938 C26.5945704 8.24760439 26.5945704 8.24760439 25 5 C23.33382885 4.95936168 21.66611905 4.957279 20 5 C18.414131 8.171738 18.62133555 11.63513822 18.4375 15.125 C18.39431641 15.87910156 18.35113281 16.63320312 18.30664062 17.41015625 C18.2005168 19.27321888 18.09974999 21.13658524 18 23 C16.35 23 14.7 23 13 23 C12.67 17.06 12.34 11.12 12 5 C10.02 5 8.04 5 6 5 C4.414131 8.171738 4.62133555 11.63513822 4.4375 15.125 C4.39431641 15.87910156 4.35113281 16.63320312 4.30664062 17.41015625 C4.2005168 19.27321888 4.09974999 21.13658524 4 23 C2.68 23 1.36 23 0 23 C0 15.41 0 7.82 0 0 Z " fill="#545452" transform="translate(209,236)"/>
<path d="M0 0 C3.3854936 0.17450998 4.71489956 0.36779726 7.5625 2.3125 C10.35751205 6.68730147 10.73888061 11.42974269 10 16.5625 C7 22.0625 7 22.0625 4 23.5625 C-3.56097561 23.9825542 -3.56097561 23.9825542 -7 21.5625 C-9.34693138 18.04210293 -9.32723764 16.36192991 -9.375 12.1875 C-9.40335937 11.06601563 -9.43171875 9.94453125 -9.4609375 8.7890625 C-8.63238291 2.98918036 -5.96663244 -0.1546231 0 0 Z " fill="#535352" transform="translate(426,235.4375)"/>
<path d="M0 0 C3.5 1.5 3.5 1.5 6 3 C5.34 4.32 4.68 5.64 4 7 C3.484375 6.835 2.96875 6.67 2.4375 6.5 C-0.75195119 5.8457536 -3.75385905 5.87750412 -7 6 C-8.29633621 7.06645115 -8.29633621 7.06645115 -8.0625 9.5625 C-8.041875 10.366875 -8.02125 11.17125 -8 12 C-6.989375 12.268125 -5.97875 12.53625 -4.9375 12.8125 C-1.11498703 13.91020739 2.41205164 15.27778479 6 17 C7.72660813 20.45321627 7.49047852 24.22398729 7 28 C5.24824522 30.50250683 4.02714492 31.55979504 1.25 32.75 C-5.25079286 33.47231032 -9.28814854 33.42711088 -15 30 C-14.34 28.68 -13.68 27.36 -13 26 C-12.34 26.165 -11.68 26.33 -11 26.5 C-7.24365885 27.12605686 -3.80886246 27.12696208 0 27 C1.28322547 25.9404123 1.28322547 25.9404123 1.125 23.5 C1.28322547 21.0595877 1.28322547 21.0595877 0 20 C-1.60001738 19.70564343 -3.20523534 19.43929695 -4.8125 19.1875 C-7.93671219 18.5662332 -9.8937936 18.06574682 -12.625 16.375 C-14.60512604 12.9547823 -14.76824143 9.79601648 -14 6 C-10.25816539 0.13779244 -6.76772065 -0.75196896 0 0 Z " fill="#525252" transform="translate(85,226)"/>
<path d="M0 0 C8.04375 -0.04125 16.0875 -0.0825 24.375 -0.125 C26.91493652 -0.14320801 29.45487305 -0.16141602 32.07177734 -0.18017578 C34.07649524 -0.18601492 36.0812155 -0.19111184 38.0859375 -0.1953125 C39.13370361 -0.20554443 40.18146973 -0.21577637 41.26098633 -0.22631836 C42.75287476 -0.22668091 42.75287476 -0.22668091 44.27490234 -0.22705078 C45.14094086 -0.231492 46.00697937 -0.23593323 46.89926147 -0.24050903 C49 0 49 0 51 2 C51.18824486 4.89222553 51.25170246 7.6879814 51.22705078 10.58056641 C51.22734283 11.46843338 51.22763489 12.35630035 51.22793579 13.27107239 C51.22653907 16.21466747 51.21096184 19.15801147 51.1953125 22.1015625 C51.19158358 24.13894513 51.18873604 26.17632954 51.18673706 28.2137146 C51.17909104 33.58301725 51.15943425 38.95221216 51.1373291 44.32147217 C51.11689151 49.79763328 51.10773982 55.27381176 51.09765625 60.75 C51.07618926 71.50004741 51.04204166 82.25001475 51 93 C50.67 93 50.34 93 50 93 C49.67 62.97 49.34 32.94 49 2 C33.49 2 17.98 2 2 2 C2.01160156 7.5171875 2.02320313 13.034375 2.03515625 18.71875 C2.04027499 22.24609495 2.04508961 25.77343522 2.04882812 29.30078125 C2.05477045 34.88070647 2.06174536 40.46061505 2.07543945 46.04052734 C2.0864277 50.54688192 2.09231004 55.05321861 2.09487724 59.55958557 C2.09670314 61.26567363 2.10026741 62.97176089 2.10573006 64.67784119 C2.13894756 75.49775574 1.81890398 86.20817914 1 97 C0.34 97 -0.32 97 -1 97 C-0.67 64.99 -0.34 32.98 0 0 Z " fill="#001125" transform="translate(455,95)"/>
<path d="M0 0 C0.94746094 -0.02835938 1.89492187 -0.05671875 2.87109375 -0.0859375 C5.5625 0.375 5.5625 0.375 7.89453125 1.7890625 C10.45753345 5.76261626 9.98980806 9.50817095 9.8125 14.125 C9.79445312 15.01316406 9.77640625 15.90132812 9.7578125 16.81640625 C9.71077374 19.00370848 9.64507009 21.18879816 9.5625 23.375 C7.22916667 23.375 4.89583333 23.375 2.5625 23.375 C1.28375 23.4575 0.005 23.54 -1.3125 23.625 C-4.37570298 23.61386108 -5.27607054 23.47992915 -7.9375 21.75 C-9.89312482 18.65359404 -10.03774477 16.97646865 -9.4375 13.375 C-8.0625 11 -8.0625 11 -5.4375 9.375 C-2.07724091 9.04845445 1.19810493 9.14385835 4.5625 9.375 C4.2325 8.055 3.9025 6.735 3.5625 5.375 C2.86382812 5.40980469 2.16515625 5.44460937 1.4453125 5.48046875 C0.53523437 5.50753906 -0.37484375 5.53460938 -1.3125 5.5625 C-2.21742188 5.59730469 -3.12234375 5.63210937 -4.0546875 5.66796875 C-5.23417969 5.52294922 -5.23417969 5.52294922 -6.4375 5.375 C-7.0975 4.385 -7.7575 3.395 -8.4375 2.375 C-5.13363642 0.17242428 -3.86932123 0.05250097 0 0 Z " fill="#525251" transform="translate(156.4375,235.625)"/>
<path d="M0 0 C0.96550781 -0.02578125 1.93101562 -0.0515625 2.92578125 -0.078125 C6.17049991 0.30738613 7.34457373 1.00900724 9.6875 3.25 C10.14160156 5.42651367 10.14160156 5.42651367 10.078125 7.91796875 C10.05878906 9.25698242 10.05878906 9.25698242 10.0390625 10.62304688 C10.00554688 11.55181641 9.97203125 12.48058594 9.9375 13.4375 C9.91945313 14.37787109 9.90140625 15.31824219 9.8828125 16.28710938 C9.8356655 18.60909889 9.76988231 20.9290369 9.6875 23.25 C7.43856046 23.35823773 5.18812425 23.43569645 2.9375 23.5 C1.05804687 23.56960938 1.05804687 23.56960938 -0.859375 23.640625 C-4.3125 23.25 -4.3125 23.25 -6.734375 21.45703125 C-9.02232747 18.25729574 -8.86956379 16.07981357 -8.3125 12.25 C-6.875 10.3125 -6.875 10.3125 -4.3125 9.25 C-1.29428886 9.02142635 1.66762655 9.07577653 4.6875 9.25 C4.3575 7.93 4.0275 6.61 3.6875 5.25 C2.594375 5.25 1.50125 5.25 0.375 5.25 C-1.85416667 5.25 -4.08333333 5.25 -6.3125 5.25 C-6.3125 -0.56592129 -5.30732197 0.08435479 0 0 Z " fill="#4E4E4E" transform="translate(590.3125,235.75)"/>
<path d="M0 0 C0.95648438 -0.03738281 1.91296875 -0.07476562 2.8984375 -0.11328125 C5.625 0.3125 5.625 0.3125 7.9609375 1.72265625 C10.5166492 5.70020756 10.05231223 9.4455624 9.875 14.0625 C9.85695313 14.95066406 9.83890625 15.83882812 9.8203125 16.75390625 C9.77327374 18.94120848 9.70757009 21.12629816 9.625 23.3125 C7.37559705 23.39369503 5.12535129 23.45177819 2.875 23.5 C1.62203125 23.53480469 0.3690625 23.56960938 -0.921875 23.60546875 C-4.54383205 23.29817601 -5.95154045 22.9819047 -8.375 20.3125 C-9.12387999 17.58129062 -8.9224669 15.07864855 -8.375 12.3125 C-6.9375 10.3125 -6.9375 10.3125 -4.375 9.3125 C-1.35654755 9.08910335 1.60514438 9.13827756 4.625 9.3125 C4.295 7.9925 3.965 6.6725 3.625 5.3125 C2.531875 5.3125 1.43875 5.3125 0.3125 5.3125 C-1.91666667 5.3125 -4.14583333 5.3125 -6.375 5.3125 C-6.705 3.9925 -7.035 2.6725 -7.375 1.3125 C-4.81683084 0.03341542 -2.85652006 0.07275319 0 0 Z " fill="#555555" transform="translate(260.375,235.6875)"/>
<path d="M0 0 C0.99 0.33 1.98 0.66 3 1 C3.33 48.52 3.66 96.04 4 145 C4.99 144.01 5.98 143.02 7 142 C7.99 142.33 8.98 142.66 10 143 C8.8803014 144.00593243 7.7540588 145.0045849 6.625 146 C5.99851563 146.556875 5.37203125 147.11375 4.7265625 147.6875 C3 149 3 149 1 149 C0.67 99.83 0.34 50.66 0 0 Z " fill="#5E7187" transform="translate(158,34)"/>
<path d="M0 0 C1.98 0 3.96 0 6 0 C6.33 5.61 6.66 11.22 7 17 C8.98 17 10.96 17 13 17 C13.33 11.39 13.66 5.78 14 0 C15.65 0 17.3 0 19 0 C19 7.59 19 15.18 19 23 C16.9375 23.04125 14.875 23.0825 12.75 23.125 C11.58984375 23.14820313 10.4296875 23.17140625 9.234375 23.1953125 C6.11158862 23.00673844 4.50195229 22.82481842 2 21 C-0.89391008 17.32346016 -0.2207716 12.69232883 -0.125 8.25 C-0.11597656 7.45722656 -0.10695312 6.66445312 -0.09765625 5.84765625 C-0.07417012 3.89830719 -0.03830137 1.94911425 0 0 Z " fill="#4E4E4D" transform="translate(177,236)"/>
<path d="M0 0 C2.1796875 1.44140625 2.1796875 1.44140625 4 4 C4.49204148 7.26327047 4.37637146 10.45948159 4.25 13.75 C4.23195313 14.63816406 4.21390625 15.52632812 4.1953125 16.44140625 C4.14827374 18.62870848 4.08257009 20.81379816 4 23 C2.35 23 0.7 23 -1 23 C-1.06058594 21.78441406 -1.12117187 20.56882812 -1.18359375 19.31640625 C-1.26798332 17.73175772 -1.3526321 16.14712298 -1.4375 14.5625 C-1.47681641 13.76005859 -1.51613281 12.95761719 -1.55664062 12.13085938 C-1.4054296 8.24760439 -1.4054296 8.24760439 -3 5 C-4.66617115 4.95936168 -6.33388095 4.957279 -8 5 C-9.585869 8.171738 -9.37866445 11.63513822 -9.5625 15.125 C-9.60568359 15.87910156 -9.64886719 16.63320312 -9.69335938 17.41015625 C-9.7994832 19.27321888 -9.90025001 21.13658524 -10 23 C-11.65 23 -13.3 23 -15 23 C-15 15.41 -15 7.82 -15 0 C-12.69 0 -10.38 0 -8 0 C-5.02898609 -1.48550695 -3.16565278 -0.82306972 0 0 Z " fill="#50504F" transform="translate(627,236)"/>
<path d="M0 0 C2.3925 -0.0825 4.785 -0.165 7.25 -0.25 C7.99668945 -0.28641602 8.74337891 -0.32283203 9.51269531 -0.36035156 C12.63949291 -0.41249289 14.74324408 -0.14625337 17.46875 1.40625 C19.83411848 5.41289456 19.42497632 9.19388585 19.25 13.75 C19.23195313 14.63816406 19.21390625 15.52632812 19.1953125 16.44140625 C19.14827374 18.62870848 19.08257009 20.81379816 19 23 C17.35 23 15.7 23 14 23 C13.93941406 21.78441406 13.87882812 20.56882812 13.81640625 19.31640625 C13.73201668 17.73175772 13.6473679 16.14712298 13.5625 14.5625 C13.52318359 13.76005859 13.48386719 12.95761719 13.44335938 12.13085938 C13.5945704 8.24760439 13.5945704 8.24760439 12 5 C9.5 4.83333333 9.5 4.83333333 7 5 C4.88074396 7.11925604 5.58168983 11.6196093 5.4375 14.5625 C5.39431641 15.36880859 5.35113281 16.17511719 5.30664062 17.00585938 C5.20024738 19.00368805 5.09959112 21.0018207 5 23 C3.35 23 1.7 23 0 23 C0 15.41 0 7.82 0 0 Z " fill="#525252" transform="translate(282,236)"/>
<path d="M0 0 C1.65 0 3.3 0 5 0 C5.33 5.61 5.66 11.22 6 17 C7.98 17 9.96 17 12 17 C12.33 11.39 12.66 5.78 13 0 C14.65 0 16.3 0 18 0 C18 7.59 18 15.18 18 23 C16.68 23 15.36 23 14 23 C14 22.34 14 21.68 14 21 C13.46375 21.33 12.9275 21.66 12.375 22 C9.32806078 23.28292178 7.27967299 23.40995912 4 23 C1.828125 21.5859375 1.828125 21.5859375 0 19 C-0.49239436 15.73675457 -0.3763728 12.54055323 -0.25 9.25 C-0.23195313 8.36183594 -0.21390625 7.47367188 -0.1953125 6.55859375 C-0.14827374 4.37129152 -0.08257009 2.18620184 0 0 Z " fill="#494948" transform="translate(447,236)"/>
<path d="M0 0 C3.6196875 -0.0928125 3.6196875 -0.0928125 7.3125 -0.1875 C8.44619019 -0.22846802 8.44619019 -0.22846802 9.6027832 -0.27026367 C14.53883741 -0.33174125 14.53883741 -0.33174125 16.70507812 1.2265625 C18.37923423 3.51937357 18.34684886 4.84824274 18.29296875 7.66796875 C18.28330078 8.56064453 18.27363281 9.45332031 18.26367188 10.37304688 C18.23853516 11.30181641 18.21339844 12.23058594 18.1875 13.1875 C18.16719727 14.59805664 18.16719727 14.59805664 18.14648438 16.03710938 C18.11113096 18.35865038 18.06178674 20.67903653 18 23 C16.68 23 15.36 23 14 23 C13.93941406 21.86820312 13.87882812 20.73640625 13.81640625 19.5703125 C13.73200083 18.08852855 13.64735283 16.6067584 13.5625 15.125 C13.52318359 14.37863281 13.48386719 13.63226563 13.44335938 12.86328125 C13.28426376 8.80013136 13.28426376 8.80013136 12 5 C10.33388095 4.957279 8.66617115 4.95936168 7 5 C4.88074396 7.11925604 5.58168983 11.6196093 5.4375 14.5625 C5.39431641 15.36880859 5.35113281 16.17511719 5.30664062 17.00585938 C5.20024738 19.00368805 5.09959112 21.0018207 5 23 C3.35 23 1.7 23 0 23 C0 15.41 0 7.82 0 0 Z " fill="#545453" transform="translate(313,236)"/>
<path d="M0 0 C0.66 0 1.32 0 2 0 C2.0867982 3.79152334 2.14032207 7.58279296 2.1875 11.375 C2.21263672 12.45523438 2.23777344 13.53546875 2.26367188 14.6484375 C2.27333984 15.6796875 2.28300781 16.7109375 2.29296875 17.7734375 C2.3086792 18.72653809 2.32438965 19.67963867 2.34057617 20.66162109 C2.22818604 21.43328613 2.1157959 22.20495117 2 23 C-1 25 -1 25 -19 26 C-18.67 48.11 -18.34 70.22 -18 93 C-11.44763629 93.85468349 -11.44763629 93.85468349 -5 94.0625 C-4.236875 94.05347656 -3.47375 94.04445313 -2.6875 94.03515625 C-2.130625 94.02355469 -1.57375 94.01195312 -1 94 C-0.67 94.99 -0.34 95.98 0 97 C-3.1257396 96.89037184 -6.25024781 96.75968759 -9.375 96.625 C-10.26445312 96.5940625 -11.15390625 96.563125 -12.0703125 96.53125 C-12.92109375 96.49257812 -13.771875 96.45390625 -14.6484375 96.4140625 C-15.82672119 96.36693115 -15.82672119 96.36693115 -17.02880859 96.31884766 C-19 96 -19 96 -21 94 C-21.24050903 91.10202026 -21.24050903 91.10202026 -21.22705078 87.34716797 C-21.22734283 86.66412598 -21.22763489 85.98108398 -21.22793579 85.27734375 C-21.22654039 83.01549659 -21.21096967 80.75397724 -21.1953125 78.4921875 C-21.19158311 76.92563049 -21.18873579 75.35907116 -21.18673706 73.79251099 C-21.17909476 69.66605203 -21.15944124 65.53973349 -21.1373291 61.41333008 C-21.11688346 57.20395813 -21.1077381 52.99456352 -21.09765625 48.78515625 C-21.07619583 40.523373 -21.04205279 32.26170396 -21 24 C-20.15236084 23.97812622 -20.15236084 23.97812622 -19.28759766 23.95581055 C-16.73269981 23.88143942 -14.17912502 23.78474758 -11.625 23.6875 C-10.29082031 23.65366211 -10.29082031 23.65366211 -8.9296875 23.61914062 C-8.07890625 23.58369141 -7.228125 23.54824219 -6.3515625 23.51171875 C-5.17327881 23.47244263 -5.17327881 23.47244263 -3.97119141 23.43237305 C-1.59959844 23.15110403 -1.59959844 23.15110403 0 20 C0.27478373 17.77514259 0.27478373 17.77514259 0.1953125 15.33203125 C0.18886719 14.43935547 0.18242187 13.54667969 0.17578125 12.62695312 C0.15902344 11.69818359 0.14226562 10.76941406 0.125 9.8125 C0.11597656 8.87212891 0.10695313 7.93175781 0.09765625 6.96289062 C0.07409056 4.64167032 0.04119116 2.32096356 0 0 Z " fill="#00091A" transform="translate(410,71)"/>
<path d="M0 0 C2.75 -0.0625 2.75 -0.0625 6 1 C11.49134784 8.06814855 10.55185617 17.47504149 10.48583984 25.92114258 C10.48798871 27.52187408 10.49187086 29.12260405 10.49734497 30.72332764 C10.50699289 35.04746108 10.49179515 39.37117813 10.47143888 43.69526124 C10.4538081 48.22706735 10.45739404 52.75886177 10.4581604 57.29069519 C10.45629098 64.89398121 10.43897071 72.49710697 10.41162109 80.1003418 C10.38011758 88.89086705 10.36962705 97.68121728 10.3710922 106.4717949 C10.37244253 115.8387284 10.3585699 125.20559446 10.34019899 134.57250762 C10.33593663 137.27008492 10.33451671 139.96765134 10.33372116 142.6652317 C10.33171334 146.89981115 10.31951242 151.13424351 10.29938889 155.36877441 C10.29354486 156.92321052 10.29108695 158.47766355 10.29224396 160.03211021 C10.29322485 162.15204137 10.28192015 164.27156002 10.26742554 166.39143372 C10.26407385 167.57807523 10.26072216 168.76471674 10.25726891 169.98731709 C10.00978095 172.88546264 9.51564818 174.55383454 8 177 C7.67 176.34 7.34 175.68 7 175 C7.33 174.01 7.66 173.02 8 172 C8.09811417 169.88736374 8.13501553 167.77172094 8.14044189 165.65681458 C8.14341302 165.010611 8.14638414 164.36440743 8.1494453 163.69862193 C8.15812953 161.52929283 8.15964032 159.36001894 8.16113281 157.19067383 C8.16576128 155.63672772 8.17078598 154.08278275 8.17617798 152.52883911 C8.18930349 148.30340819 8.19574753 144.07799315 8.20018864 139.85254502 C8.20311985 137.21167363 8.20722481 134.57080657 8.21169281 131.92993736 C8.22536975 123.66460242 8.23503476 115.39927741 8.2388947 107.13393193 C8.24337246 97.59824408 8.26090639 88.06269978 8.2898953 78.52705556 C8.31153107 71.15367967 8.32160004 63.78034411 8.32293582 56.40693682 C8.32398273 52.00466722 8.32986591 47.60253253 8.34775543 43.2002964 C8.36426833 39.05606301 8.36637607 34.91206545 8.35761642 30.76781082 C8.3568477 29.25052063 8.36116702 27.73321759 8.37107468 26.21595955 C8.66630871 13.06524367 8.66630871 13.06524367 2.3125 2 C1.549375 1.34 0.78625 0.68 0 0 Z " fill="#000410" transform="translate(781,71)"/>
<path d="M0 0 C1.65 0 3.3 0 5 0 C5 2.31 5 4.62 5 7 C6.32 7 7.64 7 9 7 C9 8.32 9 9.64 9 11 C7.68 11 6.36 11 5 11 C5 15.62 5 20.24 5 25 C6.32 25 7.64 25 9 25 C9 26.65 9 28.3 9 30 C5.88274982 30.34636113 4.439529 30.31212929 1.84375 28.46875 C-0.65308206 25.12553419 -0.44622316 22.24238664 -0.25 18.25 C-0.23195313 17.55261719 -0.21390625 16.85523438 -0.1953125 16.13671875 C-0.14838554 14.42388461 -0.07664605 12.71176176 0 11 C-0.66 11 -1.32 11 -2 11 C-2 9.68 -2 8.36 -2 7 C-1.34 7 -0.68 7 0 7 C0 4.69 0 2.38 0 0 Z " fill="#525250" transform="translate(104,229)"/>
<path d="M0 0 C0 0.66 0 1.32 0 2 C0.66 2 1.32 2 2 2 C1.67 2.66 1.34 3.32 1 4 C0.30849854 3.99476318 -0.38300293 3.98952637 -1.09545898 3.98413086 C-4.20946352 3.963425 -7.32345361 3.95036037 -10.4375 3.9375 C-11.52611328 3.92912109 -12.61472656 3.92074219 -13.73632812 3.91210938 C-15.28803711 3.90727539 -15.28803711 3.90727539 -16.87109375 3.90234375 C-17.82943115 3.89710693 -18.78776855 3.89187012 -19.77514648 3.88647461 C-21.97285339 3.7494687 -21.97285339 3.7494687 -23 5 C-23.12197808 6.38050858 -23.17768899 7.76697647 -23.20532227 9.15258789 C-23.22526749 10.03342545 -23.24521271 10.914263 -23.26576233 11.8217926 C-23.28247482 12.77907761 -23.29918732 13.73636261 -23.31640625 14.72265625 C-23.33718735 15.69786728 -23.35796844 16.67307831 -23.37937927 17.67784119 C-23.44498412 20.8059863 -23.50381028 23.93421822 -23.5625 27.0625 C-23.60567483 29.1777435 -23.64928877 31.29297809 -23.69335938 33.40820312 C-23.80067655 38.60537587 -23.9024222 43.80263577 -24 49 C-25.93166016 49.09087891 -25.93166016 49.09087891 -27.90234375 49.18359375 C-29.58074159 49.26798247 -31.25912636 49.3526313 -32.9375 49.4375 C-33.78763672 49.47681641 -34.63777344 49.51613281 -35.51367188 49.55664062 C-36.32255859 49.59853516 -37.13144531 49.64042969 -37.96484375 49.68359375 C-38.7137085 49.72025146 -39.46257324 49.75690918 -40.23413086 49.79467773 C-42.02461326 49.81771063 -42.02461326 49.81771063 -43 51 C-43.0991657 52.62257544 -43.13079777 54.24939831 -43.1328125 55.875 C-43.13410156 56.85984375 -43.13539063 57.8446875 -43.13671875 58.859375 C-43.13285156 59.89578125 -43.12898438 60.9321875 -43.125 62 C-43.12886719 63.03640625 -43.13273437 64.0728125 -43.13671875 65.140625 C-43.13542969 66.12546875 -43.13414062 67.1103125 -43.1328125 68.125 C-43.13168457 69.03507812 -43.13055664 69.94515625 -43.12939453 70.8828125 C-43.23560009 72.9852848 -43.23560009 72.9852848 -42 74 C-40.65984779 74.15582303 -39.31241097 74.25044142 -37.96484375 74.31640625 C-37.15595703 74.35830078 -36.34707031 74.40019531 -35.51367188 74.44335938 C-34.66353516 74.48267578 -33.81339844 74.52199219 -32.9375 74.5625 C-31.65649414 74.62727539 -31.65649414 74.62727539 -30.34960938 74.69335938 C-28.23327963 74.79976702 -26.11666187 74.90041731 -24 75 C-24 75.33 -24 75.66 -24 76 C-30.6 76 -37.2 76 -44 76 C-45.29361994 73.41276011 -45.12948949 71.51886997 -45.1328125 68.625 C-45.13410156 67.55765625 -45.13539063 66.4903125 -45.13671875 65.390625 C-45.13285156 64.27171875 -45.12898438 63.1528125 -45.125 62 C-45.12886719 60.88109375 -45.13273437 59.7621875 -45.13671875 58.609375 C-45.13542969 57.54203125 -45.13414062 56.4746875 -45.1328125 55.375 C-45.13168457 54.39273438 -45.13055664 53.41046875 -45.12939453 52.3984375 C-45 50 -45 50 -44 48 C-41.5300469 47.65736477 -39.16977448 47.44021291 -36.6875 47.3125 C-36.01009766 47.26544922 -35.33269531 47.21839844 -34.63476562 47.16992188 C-31.19013279 46.96452344 -28.30787844 47.06107458 -25 48 C-25.00222061 47.45320587 -25.00444122 46.90641174 -25.00672913 46.3430481 C-25.02880686 40.66571708 -25.04391705 34.9883982 -25.05493164 29.31103516 C-25.05996872 27.19058741 -25.06679859 25.07014315 -25.07543945 22.94970703 C-25.08753234 19.90656678 -25.09323447 16.86347234 -25.09765625 13.8203125 C-25.10281754 12.86818878 -25.10797882 11.91606506 -25.11329651 10.93508911 C-25.11340981 9.61394608 -25.11340981 9.61394608 -25.11352539 8.26611328 C-25.115746 7.48889923 -25.11796661 6.71168518 -25.12025452 5.91091919 C-25 4 -25 4 -24 2 C-21.29550299 1.098501 -19.42394211 0.81745499 -16.62109375 0.68359375 C-15.78255859 0.64169922 -14.94402344 0.59980469 -14.08007812 0.55664062 C-12.77200195 0.49766602 -12.77200195 0.49766602 -11.4375 0.4375 C-10.56158203 0.39431641 -9.68566406 0.35113281 -8.78320312 0.30664062 C-2.46056548 0 -2.46056548 0 0 0 Z " fill="#000819" transform="translate(386,20)"/>
<path d="M0 0 C0 1.32 0 2.64 0 4 C-2.93806897 4.97935632 -4.95277638 5 -8 5 C-10.11925604 7.11925604 -9.41831017 11.6196093 -9.5625 14.5625 C-9.60568359 15.36880859 -9.64886719 16.17511719 -9.69335938 17.00585938 C-9.79975262 19.00368805 -9.90040888 21.0018207 -10 23 C-11.65 23 -13.3 23 -15 23 C-15 15.41 -15 7.82 -15 0 C-4.875 -1.125 -4.875 -1.125 0 0 Z " fill="#515150" transform="translate(139,236)"/>
<path d="M0 0 C4.95 0 9.9 0 15 0 C15 1.32 15 2.64 15 4 C12.06193103 4.97935632 10.04722362 5 7 5 C4.88074396 7.11925604 5.58168983 11.6196093 5.4375 14.5625 C5.39431641 15.36880859 5.35113281 16.17511719 5.30664062 17.00585938 C5.20024738 19.00368805 5.09959112 21.0018207 5 23 C3.35 23 1.7 23 0 23 C0 15.41 0 7.82 0 0 Z " fill="#555554" transform="translate(394,236)"/>
<path d="M0 0 C4.95 0 9.9 0 15 0 C15 0.99 15 1.98 15 3 C11.83210307 4.75994274 9.75635569 5.24872886 6 6 C5.67 11.61 5.34 17.22 5 23 C3.35 23 1.7 23 0 23 C0 15.41 0 7.82 0 0 Z " fill="#535352" transform="translate(559,236)"/>
<path d="M0 0 C0.99 0.495 0.99 0.495 2 1 C2.33 14.86 2.66 28.72 3 43 C32.7 43.495 32.7 43.495 63 44 C63 44.33 63 44.66 63 45 C42.21 45 21.42 45 0 45 C0 30.15 0 15.3 0 0 Z " fill="#000A1D" transform="translate(455,24)"/>
<path d="M0 0 C0 0.33 0 0.66 0 1 C-2.31 1.33 -4.62 1.66 -7 2 C-4.69 2.33 -2.38 2.66 0 3 C1.05082025 6.76543923 1.3391456 8.3759721 -0.5625 11.875 C-3 14 -3 14 -6 14.5 C-9.38998695 13.93500217 -10.82200662 13.68060724 -13 11 C-13.56695897 8.22305812 -13.5499585 5.7787377 -13 3 C-9.93512303 -1.26417666 -4.750757 -0.27408213 0 0 Z " fill="#50504F" transform="translate(265,245)"/>
<path d="M0 0 C0.96550781 -0.02578125 1.93101562 -0.0515625 2.92578125 -0.078125 C6.31338361 0.32436241 7.54415612 0.55190829 9.6875 3.25 C10.17962309 6.49153402 10.06184313 9.66871046 9.9375 12.9375 C9.91945313 13.83017578 9.90140625 14.72285156 9.8828125 15.64257812 C9.83567759 17.84613504 9.76990657 20.04752601 9.6875 22.25 C8.0375 21.92 6.3875 21.59 4.6875 21.25 C4.69910156 20.17878906 4.71070313 19.10757813 4.72265625 18.00390625 C4.73203299 16.60677257 4.74113331 15.20963701 4.75 13.8125 C4.75837891 13.10544922 4.76675781 12.39839844 4.77539062 11.66992188 C4.78403588 9.86306441 4.73970011 8.05612397 4.6875 6.25 C3.5253461 4.85654835 3.5253461 4.85654835 0.3125 5.1875 C-1.481875 5.2184375 -1.481875 5.2184375 -3.3125 5.25 C-4.3025 5.25 -5.2925 5.25 -6.3125 5.25 C-6.3125 -0.56592129 -5.30732197 0.08435479 0 0 Z " fill="#545453" transform="translate(590.3125,235.75)"/>
<path d="M0 0 C0.33 0.66 0.66 1.32 1 2 C0.29475578 3.92339332 -0.41562698 5.84644162 -1.2109375 7.734375 C-3.24855012 13.58494588 -3.16597751 19.56032385 -3.20532227 25.67724609 C-3.21522186 26.63397217 -3.22512146 27.59069824 -3.23532104 28.57641602 C-3.26680172 31.72539837 -3.29164021 34.87439578 -3.31640625 38.0234375 C-3.33698738 40.2120502 -3.35798416 42.40065902 -3.37937927 44.58926392 C-3.4344802 50.33983213 -3.48394219 56.0904355 -3.53222656 61.84106445 C-3.58252919 67.71308508 -3.63816947 73.58505488 -3.69335938 79.45703125 C-3.80079438 90.9713107 -3.90227174 102.48563436 -4 114 C-4.33 114 -4.66 114 -5 114 C-5.09285115 100.74323539 -5.16384191 87.48654869 -5.20724869 74.22952461 C-5.22808616 68.07314661 -5.25633405 61.91699178 -5.30175781 55.76074219 C-5.34535188 49.81497898 -5.36916597 43.86942988 -5.37950897 37.92351913 C-5.38687597 35.65980537 -5.40126186 33.39610276 -5.42292023 31.13248062 C-5.45213387 27.95151068 -5.45594843 24.77141542 -5.45410156 21.59033203 C-5.46848267 20.66315872 -5.48286377 19.73598541 -5.49768066 18.78071594 C-5.45929958 12.63541927 -4.60001196 4.60001196 0 0 Z " fill="#03294B" transform="translate(225,74)"/>
<path d="M0 0 C2.08940868 3.13411302 2.27364412 3.97450472 2.25 7.5625 C2.25515625 8.34753906 2.2603125 9.13257813 2.265625 9.94140625 C2 12 2 12 0 14 C-3 14.3125 -3 14.3125 -6 14 C-8.53637054 10.19544419 -8.59473663 7.46052469 -8 3 C-6.00280668 -0.36369402 -3.74717861 -0.57648902 0 0 Z " fill="#060606" transform="translate(429,240)"/>
<path d="M0 0 C1.64341873 0.00418442 1.64341873 0.00418442 3.32003784 0.00845337 C5.63163995 0.02119894 7.94320228 0.05083607 10.25439453 0.09619141 C13.79925612 0.16395867 17.3412675 0.17818535 20.88671875 0.18359375 C23.13284123 0.20259187 25.37894053 0.22462348 27.625 0.25 C28.68751984 0.25647552 29.75003967 0.26295105 30.84475708 0.2696228 C31.82942963 0.29199005 32.81410217 0.3143573 33.82861328 0.33740234 C34.69511505 0.35185394 35.56161682 0.36630554 36.45437622 0.38119507 C39.19016164 0.88262504 40.09128946 1.52040851 41.6796875 3.7890625 C42.04045105 5.78227234 42.04045105 5.78227234 42.02026367 8.0769043 C42.01992378 9.36790291 42.01992378 9.36790291 42.01957703 10.6849823 C42.00409317 11.61007095 41.98860931 12.53515961 41.97265625 13.48828125 C41.96841141 14.43846634 41.96416656 15.38865143 41.95979309 16.36763 C41.94299234 19.40422838 41.90533742 22.44016452 41.8671875 25.4765625 C41.85214247 27.53449563 41.83845375 29.59243915 41.82617188 31.65039062 C41.79308421 36.69686998 41.74129212 41.74285394 41.6796875 46.7890625 C39.2046875 47.2840625 39.2046875 47.2840625 36.6796875 47.7890625 C36.6796875 47.1290625 36.6796875 46.4690625 36.6796875 45.7890625 C37.6696875 45.1290625 38.6596875 44.4690625 39.6796875 43.7890625 C39.97204857 41.16260565 40.07582211 38.77548499 40.04296875 36.1484375 C40.04346725 35.38863586 40.04396576 34.62883423 40.04447937 33.8460083 C40.04213646 32.23536572 40.0323951 30.62471965 40.01586914 29.01416016 C39.99241163 26.56248723 39.9952894 24.11191186 40.00195312 21.66015625 C39.99637153 20.09374357 39.98925864 18.52733546 39.98046875 16.9609375 C39.98138016 16.23259705 39.98229156 15.50425659 39.98323059 14.75384521 C39.92341131 10.39970916 39.27616363 6.83924181 37.6796875 2.7890625 C30.91728516 2.63698604 24.15532318 2.53187904 17.39160156 2.45947266 C15.09065269 2.42929096 12.78981895 2.38834023 10.48925781 2.33642578 C7.18265404 2.26367479 3.87757022 2.22961952 0.5703125 2.203125 C-0.45898376 2.17215729 -1.48828003 2.14118958 -2.54876709 2.10928345 C-7.605756 1.92203157 -7.605756 1.92203157 -11.88195801 4.16473389 C-13.1672923 5.96911918 -13.1672923 5.96911918 -14.3203125 8.7890625 C-14.9803125 8.4590625 -15.6403125 8.1290625 -16.3203125 7.7890625 C-12.23959683 -0.06667643 -8.46907013 -0.21377547 0 0 Z " fill="#7C92AA" transform="translate(91.3203125,150.2109375)"/>
<path d="M0 0 C2.5625 2.25 2.5625 2.25 5 5 C4.6875 7.125 4.6875 7.125 4 9 C4.99 10.485 4.99 10.485 6 12 C6.4375 15.375 6.4375 15.375 6 19 C3.5 21.9375 3.5 21.9375 1 24 C1 23.01 1 22.02 1 21 C0.01 20.34 -0.98 19.68 -2 19 C-1.34 19 -0.68 19 0 19 C0.04254356 17.00045254 0.04080783 14.99958364 0 13 C-1.66342837 11.33657163 -3.7825709 11.63951903 -6.0625 11.4375 C-6.98160156 11.35371094 -7.90070312 11.26992187 -8.84765625 11.18359375 C-9.55792969 11.12300781 -10.26820313 11.06242188 -11 11 C-11 10.67 -11 10.34 -11 10 C-8.69 10 -6.38 10 -4 10 C-3.71125 9.278125 -3.4225 8.55625 -3.125 7.8125 C-2.08333333 5.20833333 -1.04166667 2.60416667 0 0 Z " fill="#535353" transform="translate(541,234)"/>
<path d="M0 0 C1.2375 0.1546875 1.2375 0.1546875 2.5 0.3125 C4.56520632 3.41030948 4.79477024 4.2665481 4.8125 7.8125 C4.82925781 8.5859375 4.84601562 9.359375 4.86328125 10.15625 C4.41572279 12.81272604 3.63320849 13.71259363 1.5 15.3125 C-1.47397616 15.04213853 -2.35446026 14.45803974 -4.5 12.3125 C-4.765625 10 -4.765625 10 -4.75 7.3125 C-4.75515625 6.425625 -4.7603125 5.53875 -4.765625 4.625 C-4.37679717 1.23991063 -3.34120123 0.41765015 0 0 Z " fill="#040404" transform="translate(651.5,239.6875)"/>
<path d="M0 0 C1.2375 0.1546875 1.2375 0.1546875 2.5 0.3125 C4.49825961 3.30988941 4.77550398 3.94597508 4.75 7.3125 C4.75515625 7.993125 4.7603125 8.67375 4.765625 9.375 C4.5 11.3125 4.5 11.3125 2.5 14.3125 C-0.5625 14.5625 -0.5625 14.5625 -3.5 14.3125 C-5.23849628 12.57400372 -4.67216296 10.2338363 -4.6875 7.875 C-4.70167969 6.88628906 -4.71585937 5.89757812 -4.73046875 4.87890625 C-4.41274166 1.34082658 -3.52283699 0.44035462 0 0 Z " fill="#050505" transform="translate(487.5,239.6875)"/>
<path d="M0 0 C0.33 0 0.66 0 1 0 C1.0462955 7.26692328 1.08185493 14.53381488 1.10362434 21.80085564 C1.11407142 25.17506994 1.12824725 28.54918352 1.15087891 31.92333984 C1.17504885 35.80048318 1.18646511 39.67748277 1.1953125 43.5546875 C1.20563507 44.76929657 1.21595764 45.98390564 1.22659302 47.23532104 C1.22674408 48.35633209 1.22689514 49.47734314 1.22705078 50.63232422 C1.231492 51.62271698 1.23593323 52.61310974 1.24050903 53.6335144 C1 56 1 56 -1 58 C-3.52197266 58.22705078 -3.52197266 58.22705078 -6.6640625 58.1953125 C-7.78554687 58.18886719 -8.90703125 58.18242188 -10.0625 58.17578125 C-11.238125 58.15902344 -12.41375 58.14226562 -13.625 58.125 C-15.40003906 58.11146484 -15.40003906 58.11146484 -17.2109375 58.09765625 C-20.14082523 58.07402812 -23.0703134 58.04108514 -26 58 C-26 57.67 -26 57.34 -26 57 C-18.74 57 -11.48 57 -4 57 C-4 56.34 -4 55.68 -4 55 C-3.01 55 -2.02 55 -1 55 C-1 39.16 -1 23.32 -1 7 C-1.99 6.67 -2.98 6.34 -4 6 C-2.69593116 3.98079663 -1.36176581 1.98075027 0 0 Z " fill="#7D93AC" transform="translate(132,69)"/>
<path d="M0 0 C2 2 2 2 2.22705078 5.89892578 C2.22673341 7.58108793 2.21539396 9.26327019 2.1953125 10.9453125 C2.1924826 11.8303244 2.18965271 12.7153363 2.18673706 13.62716675 C2.1755224 16.45991412 2.1504157 19.29234784 2.125 22.125 C2.11497185 24.04296419 2.10584572 25.96093333 2.09765625 27.87890625 C2.07557889 32.58605876 2.04104045 37.29297616 2 42 C7.61 42 13.22 42 19 42 C19.66 43.32 20.32 44.64 21 46 C20.34 45.67 19.68 45.34 19 45 C12.73 44.67 6.46 44.34 0 44 C0 29.48 0 14.96 0 0 Z " fill="#000819" transform="translate(389,25)"/>
<path d="M0 0 C0.33 0 0.66 0 1 0 C1.0694096 10.39612017 1.12276514 20.79218552 1.15543652 31.18848991 C1.17111454 36.01555419 1.1923916 40.84246034 1.22631836 45.66943359 C1.25883589 50.3248666 1.2768369 54.98014719 1.28463173 59.63568497 C1.29018896 61.41476975 1.30104043 63.19384589 1.31719017 64.97286606 C1.33886371 67.45849603 1.34197121 69.94349047 1.34057617 72.42919922 C1.351362 73.17006775 1.36214783 73.91093628 1.3732605 74.67425537 C1.36076355 76.72238159 1.36076355 76.72238159 1 80 C-2.20406462 82.13604308 -2.99600747 82.24208908 -6.66796875 82.1953125 C-8.00698242 82.18564453 -8.00698242 82.18564453 -9.37304688 82.17578125 C-10.76620117 82.15064453 -10.76620117 82.15064453 -12.1875 82.125 C-13.12787109 82.11597656 -14.06824219 82.10695313 -15.03710938 82.09765625 C-17.35832968 82.07409056 -19.67903644 82.04119116 -22 82 C-22 81.67 -22 81.34 -22 81 C-20.97519531 80.93941406 -19.95039063 80.87882812 -18.89453125 80.81640625 C-17.53384305 80.73194974 -16.17316657 80.64730433 -14.8125 80.5625 C-14.13896484 80.52318359 -13.46542969 80.48386719 -12.77148438 80.44335938 C-7.32433764 80.10792733 -7.32433764 80.10792733 -2 79 C-0.51166182 76.02332364 -0.82105003 72.97080848 -0.79467773 69.70458984 C-0.78477814 68.95327286 -0.77487854 68.20195587 -0.76467896 67.4278717 C-0.73303477 64.93892594 -0.70829505 62.44996107 -0.68359375 59.9609375 C-0.66302674 58.23743182 -0.64203033 56.51393121 -0.62062073 54.79043579 C-0.56537393 50.2497976 -0.51597617 45.7091137 -0.46777344 41.168396 C-0.41757744 36.53670168 -0.36188146 31.90507391 -0.30664062 27.2734375 C-0.19902716 18.18234849 -0.09758928 9.09120175 0 0 Z " fill="#0C365F" transform="translate(246,111)"/>
<path d="M0 0 C0.71288681 -0.00029205 1.42577362 -0.00058411 2.16026306 -0.00088501 C4.4977571 0.0004994 6.83492547 0.01601818 9.17236328 0.03173828 C10.80046413 0.03547158 12.42856724 0.03831706 14.05667114 0.04031372 C18.32774126 0.04792523 22.59867389 0.06755222 26.86968994 0.08972168 C31.23358297 0.11023375 35.59749837 0.11932688 39.96142578 0.12939453 C48.51357198 0.1508006 57.06560675 0.18490636 65.61767578 0.22705078 C65.61767578 0.55705078 65.61767578 0.88705078 65.61767578 1.22705078 C64.77322403 1.23513763 63.92877228 1.24322449 63.05873108 1.2515564 C55.07054164 1.32974663 47.08251516 1.41710959 39.09453678 1.51457787 C34.98859548 1.5643598 30.88267767 1.61069024 26.77661133 1.64892578 C22.80832294 1.68600879 18.84024025 1.73242858 14.87212944 1.78511429 C13.36404494 1.80353675 11.85591656 1.8186887 10.34776497 1.83039474 C1.35452474 1.90264848 -6.78365881 2.36082898 -15.38232422 5.22705078 C-15.38232422 6.21705078 -15.38232422 7.20705078 -15.38232422 8.22705078 C-17.88232422 9.91455078 -17.88232422 9.91455078 -20.38232422 11.22705078 C-19.02552154 6.78660565 -17.24879364 4.77540563 -13.38232422 2.22705078 C-8.79265629 0.3659556 -4.93504879 -0.01707629 0 0 Z " fill="#103455" transform="translate(579.38232421875,68.77294921875)"/>
<path d="M0 0 C1.10794922 -0.01283524 2.21589844 -0.02567047 3.35742188 -0.03889465 C4.54916016 -0.04628159 5.74089844 -0.05366852 6.96875 -0.0612793 C8.19658203 -0.06935104 9.42441406 -0.07742279 10.68945312 -0.08573914 C13.28514194 -0.0995642 15.88084881 -0.1102934 18.4765625 -0.11816406 C22.45347117 -0.13543171 26.42956022 -0.17933994 30.40625 -0.22338867 C32.92707722 -0.23351099 35.4479115 -0.24202853 37.96875 -0.2487793 C39.16048828 -0.26628738 40.35222656 -0.28379547 41.58007812 -0.30183411 C43.24200195 -0.29744576 43.24200195 -0.29744576 44.9375 -0.29296875 C46.39833008 -0.30176811 46.39833008 -0.30176811 47.88867188 -0.31074524 C51.16563328 0.30874326 52.36082255 1.6660026 54.46875 4.17700195 C53.38923065 3.69049919 53.38923065 3.69049919 52.28790283 3.19416809 C49.42570363 2.16147058 47.38556253 1.91839579 44.36230469 1.90234375 C43.37067322 1.89281174 42.37904175 1.88327972 41.35736084 1.87345886 C40.29583801 1.87437027 39.23431519 1.87528168 38.140625 1.8762207 C37.03704651 1.87193558 35.93346802 1.86765045 34.79644775 1.86323547 C32.46310104 1.85749821 30.12973645 1.85698746 27.79638672 1.86132812 C24.24545327 1.86447826 20.69536116 1.8410545 17.14453125 1.81567383 C14.87239688 1.81339965 12.60026028 1.81269789 10.328125 1.8137207 C8.74798615 1.79990608 8.74798615 1.79990608 7.13592529 1.78581238 C-0.5637974 1.83356984 -7.04541301 2.85311063 -13.53125 7.17700195 C-14.52125 7.17700195 -15.51125 7.17700195 -16.53125 7.17700195 C-16.86125 8.82700195 -17.19125 10.47700195 -17.53125 12.17700195 C-18.19125 11.84700195 -18.85125 11.51700195 -19.53125 11.17700195 C-17.29391099 5.38624216 -14.94561171 3.7416996 -9.53125 1.17700195 C-6.32261227 0.16086899 -3.35726061 0.03393574 0 0 Z " fill="#0D3558" transform="translate(945.53125,68.822998046875)"/>
<path d="M0 0 C1.62463842 -0.05395478 3.24978541 -0.09277195 4.875 -0.125 C5.77992188 -0.14820313 6.68484375 -0.17140625 7.6171875 -0.1953125 C10 0 10 0 12 2 C12.25 4.5 12.25 4.5 12 7 C10 9 10 9 7.6171875 9.1953125 C6.71226562 9.17210937 5.80734375 9.14890625 4.875 9.125 C3.50988281 9.09792969 3.50988281 9.09792969 2.1171875 9.0703125 C1.41851563 9.04710937 0.71984375 9.02390625 0 9 C0 6.03 0 3.06 0 0 Z " fill="#060606" transform="translate(529,231)"/>
<path d="M0 0 C1.62463842 -0.05395478 3.24978541 -0.09277195 4.875 -0.125 C5.77992188 -0.14820313 6.68484375 -0.17140625 7.6171875 -0.1953125 C10 0 10 0 12 2 C11.75 5.0625 11.75 5.0625 11 8 C7.57067929 9.71466036 3.78283935 9.05404056 0 9 C0 6.03 0 3.06 0 0 Z " fill="#010101" transform="translate(530,245)"/>
<path d="M0 0 C0.81086563 0.01041321 1.62173126 0.02082642 2.45716858 0.03155518 C3.32393723 0.04917908 4.19070587 0.06680298 5.08374023 0.08496094 C5.98100327 0.10145691 6.8782663 0.11795288 7.80271912 0.13494873 C9.69650392 0.17238764 11.59022964 0.21292622 13.48388672 0.25634766 C16.38494084 0.31917582 19.2858194 0.36055383 22.18725586 0.40136719 C24.02777918 0.44040905 25.86827591 0.48073019 27.70874023 0.52246094 C28.57753311 0.53198792 29.44632599 0.54151489 30.34144592 0.55133057 C31.14915939 0.57435242 31.95687286 0.59737427 32.7890625 0.62109375 C33.49869644 0.63521301 34.20833038 0.64933228 34.93946838 0.66387939 C36.82983398 1.06933594 36.82983398 1.06933594 39.82983398 4.06933594 C23.65983398 4.06933594 7.48983398 4.06933594 -9.17016602 4.06933594 C-8.84016602 3.07933594 -8.51016602 2.08933594 -8.17016602 1.06933594 C-5.44696709 0.03685089 -2.88853576 -0.0444683 0 0 Z " fill="#0A375F" transform="translate(722.170166015625,91.9306640625)"/>
<path d="M0 0 C4.875 0.875 4.875 0.875 6 2 C6.0927833 3.38160115 6.11747043 4.76788038 6.11352539 6.15258789 C6.11344986 7.03342545 6.11337433 7.914263 6.11329651 8.8217926 C6.10813522 9.77907761 6.10297394 10.73636261 6.09765625 11.72265625 C6.0962413 12.69786728 6.09482635 13.67307831 6.09336853 14.67784119 C6.08775133 17.80609143 6.07519593 20.93427123 6.0625 24.0625 C6.05748722 26.17773334 6.05292393 28.29296781 6.04882812 30.40820312 C6.03777631 35.60549296 6.02102146 40.80274145 6 46 C5.01 45.67 4.02 45.34 3 45 C3.01571045 43.74340576 3.0314209 42.48681152 3.04760742 41.19213867 C3.10186183 36.53497718 3.13633376 31.87784369 3.16479492 27.22045898 C3.17989179 25.20380966 3.20037115 23.18719321 3.22631836 21.1706543 C3.26266211 18.27384329 3.2797172 15.37746594 3.29296875 12.48046875 C3.30845261 11.57725388 3.32393646 10.674039 3.33988953 9.74345398 C3.34011612 8.90280899 3.34034271 8.062164 3.34057617 7.19604492 C3.34723801 6.45658127 3.35389984 5.71711761 3.36076355 4.95524597 C2.90396853 2.47953406 1.89765205 1.58841637 0 0 Z " fill="#0A365F" transform="translate(383,23)"/>
<path d="M0 0 C0.74362793 0.01047363 1.48725586 0.02094727 2.25341797 0.03173828 C3.46191406 0.04140625 3.46191406 0.04140625 4.69482422 0.05126953 C5.95746094 0.07640625 5.95746094 0.07640625 7.24560547 0.10205078 C8.51984375 0.11558594 8.51984375 0.11558594 9.81982422 0.12939453 C11.9202043 0.15299431 14.02043991 0.18886595 16.12060547 0.22705078 C16.12060547 0.88705078 16.12060547 1.54705078 16.12060547 2.22705078 C10.18060547 2.55705078 4.24060547 2.88705078 -1.87939453 3.22705078 C-1.90001953 6.13517578 -1.92064453 9.04330078 -1.94189453 12.03955078 C-1.95099854 12.95196533 -1.96010254 13.86437988 -1.96948242 14.80444336 C-1.97197998 15.52784912 -1.97447754 16.25125488 -1.97705078 16.99658203 C-1.9822876 17.73497314 -1.98752441 18.47336426 -1.99291992 19.23413086 C-1.95462666 21.43762487 -1.95462666 21.43762487 -0.87939453 24.22705078 C4.73060547 24.55705078 10.34060547 24.88705078 16.12060547 25.22705078 C16.12060547 25.55705078 16.12060547 25.88705078 16.12060547 26.22705078 C13.16203138 26.28084304 10.20442825 26.32062171 7.24560547 26.35205078 C5.98296875 26.3771875 5.98296875 26.3771875 4.69482422 26.40283203 C3.48632812 26.4125 3.48632812 26.4125 2.25341797 26.42236328 C1.50979004 26.43283691 0.76616211 26.44331055 0 26.45410156 C-1.87939453 26.22705078 -1.87939453 26.22705078 -3.87939453 24.22705078 C-4.13818359 22.01220703 -4.13818359 22.01220703 -4.14501953 19.28955078 C-4.14759766 18.31244141 -4.15017578 17.33533203 -4.15283203 16.32861328 C-4.14509766 15.30509766 -4.13736328 14.28158203 -4.12939453 13.22705078 C-4.13712891 12.20353516 -4.14486328 11.18001953 -4.15283203 10.12548828 C-4.15025391 9.14837891 -4.14767578 8.17126953 -4.14501953 7.16455078 C-4.14276367 6.26607422 -4.14050781 5.36759766 -4.13818359 4.44189453 C-3.80058843 1.55258949 -2.96899155 0.35868565 0 0 Z " fill="#0C355A" transform="translate(345.87939453125,68.77294921875)"/>
<path d="M0 0 C2.68590695 -0.29234231 5.13763683 -0.39604554 7.82421875 -0.36328125 C8.99365776 -0.36402901 8.99365776 -0.36402901 10.1867218 -0.36479187 C11.84024597 -0.36244855 13.49377352 -0.35270484 15.1472168 -0.33618164 C17.66032439 -0.31275334 20.17235903 -0.31559803 22.68554688 -0.32226562 C24.29427709 -0.31668299 25.90300286 -0.30956945 27.51171875 -0.30078125 C28.2567717 -0.30169266 29.00182465 -0.30260406 29.76945496 -0.30354309 C34.51971834 -0.24010526 38.52106725 0.36588741 43 2 C43.495 2.99 43.495 2.99 44 4 C28.82 3.67 13.64 3.34 -2 3 C-1.34 2.01 -0.68 1.02 0 0 Z " fill="#0B375F" transform="translate(590,92)"/>
<path d="M0 0 C23.43 0 46.86 0 71 0 C70.01 0.99 69.02 1.98 68 3 C66.20806885 2.70033264 66.20806885 2.70033264 64 2 C61.89230117 1.88543097 59.78150844 1.82376094 57.67089844 1.79467773 C55.74935944 1.7647599 55.74935944 1.7647599 53.78900146 1.73423767 C52.39579386 1.71725591 51.00258501 1.70037701 49.609375 1.68359375 C48.18019017 1.66301206 46.75101127 1.64201527 45.32183838 1.62062073 C41.5670655 1.56552551 37.81223882 1.51606112 34.05737305 1.46777344 C30.22309605 1.41746655 26.3888968 1.36182852 22.5546875 1.30664062 C15.03652425 1.19921264 7.51829618 1.09773384 0 1 C0 0.67 0 0.34 0 0 Z " fill="#000316" transform="translate(575,193)"/>
<path d="M0 0 C1.07454941 0.03185898 1.07454941 0.03185898 2.17080688 0.06436157 C3.6855686 0.11058316 5.2002499 0.15950817 6.71484375 0.2109375 C9.02327418 0.2885318 11.33183783 0.35585334 13.640625 0.421875 C15.11460279 0.46813402 16.58856201 0.51498961 18.0625 0.5625 C18.74911713 0.58234955 19.43573425 0.6021991 20.14315796 0.62265015 C23.74936087 0.75109025 27.14998111 1.0844783 30.6640625 1.9140625 C30.6640625 2.2440625 30.6640625 2.5740625 30.6640625 2.9140625 C16.8040625 2.9140625 2.9440625 2.9140625 -11.3359375 2.9140625 C-9.2011012 -1.35561011 -4.13704538 -0.14314765 0 0 Z " fill="#0B375F" transform="translate(965.3359375,92.0859375)"/>
<path d="M0 0 C1.32 0 2.64 0 4 0 C4 7.26 4 14.52 4 22 C3.01 22 2.02 22 1 22 C1.20625 21.4225 1.4125 20.845 1.625 20.25 C2.24259018 18.00981857 2.24259018 18.00981857 1.03125 16.3125 C-0.41542221 13.06844717 -0.19040601 10.28192443 -0.125 6.75 C-0.10695313 5.48671875 -0.08890625 4.2234375 -0.0703125 2.921875 C-0.04710937 1.95765625 -0.02390625 0.9934375 0 0 Z " fill="#585856" transform="translate(461,236)"/>
<path d="M0 0 C0.66 0 1.32 0 2 0 C3.32 3.96 4.64 7.92 6 12 C2.7 12 -0.6 12 -4 12 C-2.68 8.04 -1.36 4.08 0 0 Z " fill="#070706" transform="translate(32,236)"/>
<path d="M0 0 C2.4375 0.375 2.4375 0.375 5 1 C6.26237731 3.52475462 6.09856404 5.31200466 6.0625 8.125 C6.05347656 9.03507813 6.04445313 9.94515625 6.03515625 10.8828125 C6.02355469 11.58148438 6.01195312 12.28015625 6 13 C5.34 13 4.68 13 4 13 C4 13.66 4 14.32 4 15 C3.01 14.67 2.02 14.34 1 14 C1.04125 12.7625 1.0825 11.525 1.125 10.25 C1.1426751 6.91529778 0.68350903 4.91808231 -1 2 C-0.67 1.34 -0.34 0.68 0 0 Z " fill="#575755" transform="translate(490,237)"/>
<path d="M0 0 C2.31 0.33 4.62 0.66 7 1 C7 15.85 7 30.7 7 46 C6.01 45.67 5.02 45.34 4 45 C4.24398781 44.13196747 4.24398781 44.13196747 4.49290466 43.24639893 C5.30825962 39.6344302 5.12111581 35.98110114 5.09765625 32.296875 C5.09553383 31.04019012 5.09553383 31.04019012 5.09336853 29.75811768 C5.08778197 27.08870843 5.07523194 24.4193838 5.0625 21.75 C5.05748326 19.93750121 5.05292066 18.12500111 5.04882812 16.3125 C5.03781694 11.87496752 5.02056155 7.43749809 5 3 C2.525 2.01 2.525 2.01 0 1 C0 0.67 0 0.34 0 0 Z " fill="#0B365F" transform="translate(448,23)"/>
<path d="M0 0 C1.65 1.65 3.3 3.3 5 5 C4.01 7.31 3.02 9.62 2 12 C-0.77996107 12 -3.42492567 11.78702071 -6.1875 11.5 C-7.53908203 11.36078125 -7.53908203 11.36078125 -8.91796875 11.21875 C-9.60503906 11.1465625 -10.29210937 11.074375 -11 11 C-11 10.67 -11 10.34 -11 10 C-8.69 10 -6.38 10 -4 10 C-3.71125 9.278125 -3.4225 8.55625 -3.125 7.8125 C-2.08333333 5.20833333 -1.04166667 2.60416667 0 0 Z " fill="#4B4B4A" transform="translate(541,234)"/>
<path d="M0 0 C1.670625 0.061875 1.670625 0.061875 3.375 0.125 C3.5 2.5 3.5 2.5 3.375 5.125 C1.375 7.125 1.375 7.125 -1.75 7.25 C-3.173125 7.188125 -3.173125 7.188125 -4.625 7.125 C-5.25 4.75 -5.25 4.75 -5.625 2.125 C-3.625 0.125 -3.625 0.125 0 0 Z " fill="#0D0D0D" transform="translate(157.625,247.875)"/>
<path d="M0 0 C0.78375 0.04125 1.5675 0.0825 2.375 0.125 C2.045 0.785 1.715 1.445 1.375 2.125 C-0.275 2.455 -1.925 2.785 -3.625 3.125 C-3.625 17.315 -3.625 31.505 -3.625 46.125 C-3.955 46.125 -4.285 46.125 -4.625 46.125 C-4.67559881 39.89538023 -4.71069062 33.6658132 -4.73486328 27.43603516 C-4.74493751 25.3155723 -4.75859733 23.19512339 -4.77587891 21.07470703 C-4.80006489 18.03154057 -4.81146869 14.98855734 -4.8203125 11.9453125 C-4.83063507 10.99318878 -4.84095764 10.04106506 -4.85159302 9.06008911 C-4.85174408 8.17932709 -4.85189514 7.29856506 -4.85205078 6.39111328 C-4.856492 5.61389923 -4.86093323 4.83668518 -4.86550903 4.03591919 C-4.453138 0.75950288 -3.15691513 0.15032929 0 0 Z " fill="#0D345C" transform="translate(366.625,22.875)"/>
<path d="M0 0 C1.32 0 2.64 0 4 0 C4.08082094 1.95766281 4.13910778 3.91626728 4.1875 5.875 C4.22230469 6.96554688 4.25710938 8.05609375 4.29296875 9.1796875 C4.19628906 10.11039063 4.09960938 11.04109375 4 12 C3.01 12.66 2.02 13.32 1 14 C0 13 0 13 -0.09765625 10.05859375 C-0.08605469 8.86363281 -0.07445312 7.66867188 -0.0625 6.4375 C-0.05347656 5.23996094 -0.04445313 4.04242188 -0.03515625 2.80859375 C-0.02355469 1.88175781 -0.01195312 0.95492187 0 0 Z " fill="#575756" transform="translate(447,236)"/>
<path d="M0 0 C1 2 1 2 0.5625 3.625 C-0.30728851 6.89065655 -0.30728851 6.89065655 0 14 C5.28 14.33 10.56 14.66 16 15 C16 15.33 16 15.66 16 16 C15.09636719 16.06058594 14.19273437 16.12117188 13.26171875 16.18359375 C11.49248047 16.30927734 11.49248047 16.30927734 9.6875 16.4375 C7.92986328 16.55931641 7.92986328 16.55931641 6.13671875 16.68359375 C2.97409042 16.8867371 2.97409042 16.8867371 0 18 C-0.99 17.34 -1.98 16.68 -3 16 C-3.63751064 9.83739718 -2.42207234 5.65150213 0 0 Z " fill="#000C1C" transform="translate(830,243)"/>
<path d="M0 0 C2.64 0 5.28 0 8 0 C7.125 4.875 7.125 4.875 6 6 C3.5625 6.1875 3.5625 6.1875 1 6 C0.34 5.34 -0.32 4.68 -1 4 C-0.625 1.875 -0.625 1.875 0 0 Z " fill="#050505" transform="translate(257,249)"/>
<path d="M0 0 C1.670625 0.061875 1.670625 0.061875 3.375 0.125 C3.375 1.775 3.375 3.425 3.375 5.125 C1.065 5.455 -1.245 5.785 -3.625 6.125 C-4.285 4.805 -4.945 3.485 -5.625 2.125 C-3.625 0.125 -3.625 0.125 0 0 Z " fill="#060606" transform="translate(591.625,248.875)"/>
<path d="M0 0 C0.165 0.639375 0.33 1.27875 0.5 1.9375 C1.94095352 4.40314903 1.94095352 4.40314903 5.5625 4.75 C10.03560094 5.10292356 14.51624377 5.09341159 19 5 C19.33 5.99 19.66 6.98 20 8 C16.85378318 7.86177801 13.70814434 7.71314916 10.5625 7.5625 C9.66466797 7.52318359 8.76683594 7.48386719 7.84179688 7.44335938 C6.98779297 7.40146484 6.13378906 7.35957031 5.25390625 7.31640625 C4.46314697 7.27974854 3.6723877 7.24309082 2.85766602 7.20532227 C1 7 1 7 0 6 C-0.04080783 4.00041636 -0.04254356 1.99954746 0 0 Z " fill="#000B1E" transform="translate(390,160)"/>
<path d="M0 0 C0.33 0.99 0.66 1.98 1 3 C0.33333333 4.33333333 -0.33333333 5.66666667 -1 7 C-0.67 7.99 -0.34 8.98 0 10 C-2.94837771 11.80178638 -5.89978679 13.47639094 -9 15 C-8.06652642 13.24784894 -7.1280468 11.49836437 -6.1875 9.75 C-5.66542969 8.77546875 -5.14335938 7.8009375 -4.60546875 6.796875 C-3.21034812 4.36644588 -1.73804039 2.19212301 0 0 Z " fill="#738AA7" transform="translate(107,109)"/>
<path d="M0 0 C0 0.66 0 1.32 0 2 C-3.29960141 3.6498007 -6.99127884 3.38258361 -10.625 3.5625 C-11.42679687 3.60568359 -12.22859375 3.64886719 -13.0546875 3.69335938 C-15.0362511 3.79951457 -17.01810271 3.90026855 -19 4 C-15.77774159 1.85182772 -13.84103714 1.46349899 -10.0625 0.875 C-8.50208984 0.62363281 -8.50208984 0.62363281 -6.91015625 0.3671875 C-4 0 -4 0 0 0 Z " fill="#7187A2" transform="translate(89,1)"/>
<path d="M0 0 C2.66376524 3.16896209 3.95944952 6.20519369 5.25 10.125 C5.78367187 11.70667969 5.78367187 11.70667969 6.328125 13.3203125 C7 16 7 16 6 18 C-0.32185629 5.63248503 -0.32185629 5.63248503 0 0 Z " fill="#0A3258" transform="translate(843,106)"/>
<path d="M0 0 C1.07310858 3.27185553 0.89263102 5.42947592 0.0625 8.75 C-0.13214844 9.54921875 -0.32679688 10.3484375 -0.52734375 11.171875 C-0.76130859 12.07679688 -0.76130859 12.07679688 -1 13 C-2.32 13.33 -3.64 13.66 -5 14 C-5.33 12.02 -5.66 10.04 -6 8 C-5.01 9.485 -5.01 9.485 -4 11 C-2.20446585 8.30669878 -1.57303539 6.8539399 -0.875 3.8125 C-0.58625 2.554375 -0.2975 1.29625 0 0 Z " fill="#083359" transform="translate(863,136)"/>
<path d="M0 0 C0 4.33685836 -2.08014014 5.9443327 -5 9 C-5.99 9 -6.98 9 -8 9 C-6.4169423 4.7257442 -3.49431596 2.73468206 0 0 Z " fill="#718BA5" transform="translate(35,24)"/>
<path d="M0 0 C0.33 0 0.66 0 1 0 C1.125 3.375 1.125 3.375 1 7 C0.34 7.66 -0.32 8.32 -1 9 C-1.71408334 10.98356483 -2.38617742 12.98315437 -3 15 C-4.57156655 11.8568669 -3.11705576 9.634536 -2.0625 6.375 C-1.68222656 5.18648437 -1.30195312 3.99796875 -0.91015625 2.7734375 C-0.60980469 1.85820312 -0.30945313 0.94296875 0 0 Z " fill="#0A2F54" transform="translate(844,200)"/>
<path d="M0 0 C0.66 0.99 1.32 1.98 2 3 C1.67 3.99 1.34 4.98 1 6 C0.01 6 -0.98 6 -2 6 C-2 6.66 -2 7.32 -2 8 C-2.66 8 -3.32 8 -4 8 C-4.33 8.99 -4.66 9.98 -5 11 C-5.66 10.67 -6.32 10.34 -7 10 C-3.535 5.05 -3.535 5.05 0 0 Z " fill="#7289A2" transform="translate(74,159)"/>
<path d="M0 0 C0.66 0 1.32 0 2 0 C1.01 2.97 0.02 5.94 -1 9 C-2.32 8.67 -3.64 8.34 -5 8 C-4.21718695 6.66144944 -3.42348123 5.32926356 -2.625 4 C-2.18414062 3.2575 -1.74328125 2.515 -1.2890625 1.75 C-0.86367187 1.1725 -0.43828125 0.595 0 0 Z " fill="#748CA6" transform="translate(116,94)"/>
<path d="M0 0 C0.33 0.66 0.66 1.32 1 2 C0.27720683 3.97125409 -0.45131454 5.94096058 -1.23046875 7.890625 C-2.20220183 10.55425881 -2.6490934 13.19274721 -3 16 C-3.33 16 -3.66 16 -4 16 C-4.46450943 9.49686791 -3.32575612 5.5825192 0 0 Z " fill="#0B3359" transform="translate(225,74)"/>
<path d="M0 0 C0.33 0 0.66 0 1 0 C1 3.63 1 7.26 1 11 C0.34 9.68 -0.32 8.36 -1 7 C-1.99 6.67 -2.98 6.34 -4 6 C-2.69593116 3.98079663 -1.36176581 1.98075027 0 0 Z " fill="#7789A0" transform="translate(132,69)"/>
<path d="M0 0 C4.19360449 0.67097672 7.40334352 2.8558394 11 5 C9.375 5.75 9.375 5.75 7 6 C1.4109589 2.82191781 1.4109589 2.82191781 0 0 Z " fill="#0B335A" transform="translate(366,186)"/>
<path d="M0 0 C1.32 0.33 2.64 0.66 4 1 C2.35 2.65 0.7 4.3 -1 6 C-2.32 4.35 -3.64 2.7 -5 1 C-2.525 1.99 -2.525 1.99 0 3 C0 2.01 0 1.02 0 0 Z " fill="#798FAA" transform="translate(32,168)"/>
<path d="M0 0 C0.66 0.33 1.32 0.66 2 1 C2 1.33 2 1.66 2 2 C3.65 2.33 5.3 2.66 7 3 C7 3.33 7 3.66 7 4 C4.69 4.66 2.38 5.32 0 6 C-0.66 5.34 -1.32 4.68 -2 4 C-2 3.01 -2 2.02 -2 1 C-1.34 0.67 -0.68 0.34 0 0 Z " fill="#4C4C4B" transform="translate(255,236)"/>
<path d="M0 0 C0.33 0 0.66 0 1 0 C1.25 2.3125 1.25 2.3125 1 5 C-1 6.8125 -1 6.8125 -3 8 C-3.66 7.34 -4.32 6.68 -5 6 C-3.35830472 3.97945196 -1.69088222 1.97956942 0 0 Z " fill="#728CA7" transform="translate(23,36)"/>
<path d="M0 0 C0.66 0.33 1.32 0.66 2 1 C0.02 3.97 -1.96 6.94 -4 10 C-5 7 -5 7 -4.25 5 C-3.01451365 3.02322184 -1.71960324 1.56327567 0 0 Z " fill="#758BA7" transform="translate(93,82)"/>
<path d="M0 0 C1.32 0 2.64 0 4 0 C4.33 0.99 4.66 1.98 5 3 C1.125 5 1.125 5 0 5 C0 3.35 0 1.7 0 0 Z " fill="#585857" transform="translate(478,236)"/>
<path d="M0 0 C1.15957207 3.47871621 0.77456651 4.34219645 -0.4375 7.6875 C-0.72496094 8.49574219 -1.01242187 9.30398437 -1.30859375 10.13671875 C-1.65083984 11.05904297 -1.65083984 11.05904297 -2 12 C-2.96160467 8.59461804 -2.97131252 6.44374437 -2 3 C-1.34 2.01 -0.68 1.02 0 0 Z " fill="#0B355D" transform="translate(863,216)"/>
<path d="M0 0 C3.91211733 1.15585285 6.8745041 2.35534962 10 5 C7.69 4.67 5.38 4.34 3 4 C3 3.34 3 2.68 3 2 C2.01 2 1.02 2 0 2 C0 1.34 0 0.68 0 0 Z " fill="#748CA6" transform="translate(142,9)"/>
<path d="M0 0 C-0.66 1.65 -1.32 3.3 -2 5 C-2.99 5 -3.98 5 -5 5 C-4.625 3.0625 -4.625 3.0625 -4 1 C-2 0 -2 0 0 0 Z " fill="#748DA9" transform="translate(50,147)"/>
<path d="M0 0 C0.226875 0.61875 0.45375 1.2375 0.6875 1.875 C2.37929835 4.61410209 3.99244161 5.05024472 7 6 C6.01 6.495 6.01 6.495 5 7 C-0.875 3.25 -0.875 3.25 -2 1 C-1.34 0.67 -0.68 0.34 0 0 Z " fill="#093053" transform="translate(563,185)"/>
<path d="M0 0 C2.97 0 5.94 0 9 0 C9.33 0.99 9.66 1.98 10 3 C6.7 2.34 3.4 1.68 0 1 C0 0.67 0 0.34 0 0 Z " fill="#000510" transform="translate(400,165)"/>
<path d="M0 0 C0.66 0.33 1.32 0.66 2 1 C0.8141763 4.37503669 -0.27573689 6.64722731 -3 9 C-3 6 -3 6 -2 4 C-1.34 4 -0.68 4 0 4 C0 2.68 0 1.36 0 0 Z " fill="#768DA7" transform="translate(186,150)"/>
<path d="M0 0 C0.33 0 0.66 0 1 0 C0.25 6.75 0.25 6.75 -2 9 C-2.33 7.68 -2.66 6.36 -3 5 C-2.34 5 -1.68 5 -1 5 C-0.67 3.35 -0.34 1.7 0 0 Z " fill="#00091A" transform="translate(861,139)"/>
<path d="M0 0 C1.0326802 2.78823655 1.04509293 3.8677274 0.0625 6.75 C-0.288125 7.4925 -0.63875 8.235 -1 9 C-1.99 9 -2.98 9 -4 9 C-2.80100302 5.9168649 -1.52299523 2.93720508 0 0 Z " fill="#7187A0" transform="translate(13,50)"/>
</svg>
