<?xml version="1.0" encoding="UTF-8"?>
<svg version="1.1" xmlns="http://www.w3.org/2000/svg" width="638" height="118">
<path d="M0 0 C3 2.5625 3 2.5625 5 5 C5 5.66 5 6.32 5 7 C5.66 7 6.32 7 7 7 C7.226875 6.4225 7.45375 5.845 7.6875 5.25 C9.9017158 1.45420149 12.84171059 -0.48520471 16.8125 -2.25 C23.60040076 -3.84715312 29.92628857 -3.59413439 36 0 C39.87460035 3.55521898 42.84849331 6.96265712 43.12025452 12.41081238 C43.11803391 13.36345474 43.11581329 14.31609711 43.11352539 15.29760742 C43.11341209 16.91894844 43.11341209 16.91894844 43.11329651 18.57304382 C43.10813522 19.73874405 43.10297394 20.90444427 43.09765625 22.10546875 C43.0962413 23.29981033 43.09482635 24.49415192 43.09336853 25.72468567 C43.0877635 29.54564908 43.07521011 33.36655425 43.0625 37.1875 C43.05748565 39.77538978 43.05292263 42.36328048 43.04882812 44.95117188 C43.03779242 51.30080375 43.02052437 57.65039199 43 64 C37.72 64 32.44 64 27 64 C26.970271 61.90362183 26.970271 61.90362183 26.93994141 59.76489258 C26.86380868 54.5744439 26.7751027 49.38427274 26.68261719 44.1940918 C26.64435921 41.94870487 26.60950079 39.70325731 26.578125 37.45776367 C26.53240583 34.22813263 26.47442193 30.99891778 26.4140625 27.76953125 C26.40251129 26.76727005 26.39096008 25.76500885 26.37905884 24.7323761 C26.35918915 23.79177841 26.33931946 22.85118073 26.31884766 21.88208008 C26.30552399 21.05823318 26.29220032 20.23438629 26.2784729 19.38557434 C25.82547861 15.50493981 24.76685069 12.76685069 22 10 C18.12191063 9.56910118 15.89769286 9.34492683 12.6875 11.6875 C7.80869523 18.3732695 7.84552327 26.15166017 7.68359375 34.1171875 C7.66281265 34.97434357 7.64203156 35.83149963 7.62062073 36.71463013 C7.55558739 39.43467714 7.49645659 42.15481517 7.4375 44.875 C7.39427076 46.72657166 7.3506551 48.57813434 7.30664062 50.4296875 C7.19995379 54.95303331 7.09855806 59.47647007 7 64 C1.72 64 -3.56 64 -9 64 C-9.029729 61.85818237 -9.029729 61.85818237 -9.06005859 59.6730957 C-9.13618343 54.37083428 -9.22489066 49.0688448 -9.31738281 43.7668457 C-9.35564405 41.47295504 -9.39050189 39.17900497 -9.421875 36.88500977 C-9.46758706 33.5858844 -9.52557222 30.28716704 -9.5859375 26.98828125 C-9.59748871 25.96414627 -9.60903992 24.94001129 -9.62094116 23.88484192 C-9.64081085 22.92422348 -9.66068054 21.96360504 -9.68115234 20.97387695 C-9.69447601 20.13226517 -9.70779968 19.29065338 -9.7215271 18.42353821 C-10.04075943 15.64527239 -10.76963353 13.50692561 -12 11 C-15.12860495 9.43569752 -17.55602925 9.64372716 -21 10 C-25.3957045 14.15809885 -27.05859942 18.66391286 -27.31884766 24.60668945 C-27.3602629 26.44202721 -27.39142397 28.27761587 -27.4140625 30.11328125 C-27.43342865 31.08283249 -27.4527948 32.05238373 -27.4727478 33.05131531 C-27.53237436 36.13828828 -27.5788614 39.22529888 -27.625 42.3125 C-27.66319534 44.40952118 -27.70224798 46.50652694 -27.7421875 48.60351562 C-27.83806209 53.73555131 -27.92215577 58.86766043 -28 64 C-33.61 64 -39.22 64 -45 64 C-45 42.55 -45 21.1 -45 -1 C-40.05 -1 -35.1 -1 -30 -1 C-29.67 1.31 -29.34 3.62 -29 6 C-28.46375 5.236875 -27.9275 4.47375 -27.375 3.6875 C-20.24835142 -4.3768655 -9.1458177 -4.8599115 0 0 Z " fill="#939393" transform="translate(78,31)"/>
<path d="M0 0 C6.06849485 4.65721698 9.98458372 12.44784145 11 20 C11.80565376 33.79923759 12.06480791 47.689045 3 59 C-2.80787593 64.3829094 -7.2099819 65.44243616 -15.01171875 65.328125 C-20.1362906 64.76542691 -23.35746239 62.64253761 -27 59 C-27.33 68.24 -27.66 77.48 -28 87 C-33.61 87 -39.22 87 -45 87 C-45 57.96 -45 28.92 -45 -1 C-40.05 -1 -35.1 -1 -30 -1 C-30 1.64 -30 4.28 -30 7 C-29.34 7 -28.68 7 -28 7 C-27.773125 6.4225 -27.54625 5.845 -27.3125 5.25 C-25.08407659 1.42984558 -22.13524191 -0.50641656 -18.125 -2.25 C-11.46956666 -3.847304 -6.00853939 -3.1249486 0 0 Z M-25 13 C-27.79258726 19.09406704 -28.47180204 24.93156029 -28.375 31.5625 C-28.38660156 32.36107422 -28.39820313 33.15964844 -28.41015625 33.98242188 C-28.37818059 40.52144426 -27.1749801 46.07502676 -23.1875 51.4375 C-20.39575008 53.43160709 -18.41573339 53.85767778 -15 54 C-11.64236724 52.75927475 -10.33624323 51.45918982 -8.8125 48.25 C-8.48894531 47.59515625 -8.16539062 46.9403125 -7.83203125 46.265625 C-4.140926 36.21472808 -4.51610198 22.72155476 -9 13 C-10.5451157 10.28351423 -10.5451157 10.28351423 -13 9 C-18.41445289 8.21244322 -21.36527204 8.86044871 -25 13 Z " fill="#939393" transform="translate(180,31)"/>
<path d="M0 0 C5.61 0 11.22 0 17 0 C19.907977 7.29287607 22.04371404 14.7646677 24.1875 22.3125 C24.55903884 23.59966884 24.93078215 24.88677868 25.30273438 26.17382812 C25.65013672 27.39134766 25.99753906 28.60886719 26.35546875 29.86328125 C26.82956177 31.52290894 26.82956177 31.52290894 27.31323242 33.21606445 C28 36 28 36 28 39 C28.66 39 29.32 39 30 39 C30.12310547 37.9982373 30.24621094 36.99647461 30.37304688 35.96435547 C30.9331221 32.05987652 31.92835422 28.35993631 33.03125 24.5703125 C33.32521667 23.55661087 33.32521667 23.55661087 33.62512207 22.52243042 C34.03636424 21.10836074 34.4499262 19.69496379 34.86572266 18.28222656 C35.50388861 16.11177454 36.13330268 13.93891761 36.76171875 11.765625 C39.86107713 1.13892287 39.86107713 1.13892287 41 0 C44.63 0 48.26 0 52 0 C55.63 12.54 59.26 25.08 63 38 C64.92082373 32.87780339 66.60490569 28.13802385 68.0078125 22.91015625 C68.17876434 22.2801622 68.34971619 21.65016815 68.52584839 21.00108337 C69.06255121 19.02252015 69.59433688 17.04269096 70.125 15.0625 C70.83205969 12.42729676 71.54365125 9.79345869 72.2578125 7.16015625 C72.72405029 5.42197632 72.72405029 5.42197632 73.19970703 3.64868164 C74 1 74 1 75 0 C76.85287502 -0.07226502 78.70833878 -0.0838122 80.5625 -0.0625 C81.57441406 -0.05347656 82.58632813 -0.04445313 83.62890625 -0.03515625 C84.41136719 -0.02355469 85.19382812 -0.01195313 86 0 C84.66890809 7.72687555 82.5448302 15.05133944 80.12109375 22.5 C79.56289696 24.23624634 79.56289696 24.23624634 78.99342346 26.00756836 C78.21180346 28.43539752 77.42757839 30.86238939 76.64086914 33.28857422 C75.43269705 37.01481324 74.23226973 40.74347831 73.03320312 44.47265625 C72.27127758 46.83608076 71.50892315 49.19936706 70.74609375 51.5625 C70.20546547 53.23892578 70.20546547 53.23892578 69.65391541 54.94921875 C69.32009354 55.97789063 68.98627167 57.0065625 68.64233398 58.06640625 C68.34858383 58.97334229 68.05483368 59.88027832 67.75218201 60.81469727 C67 63 67 63 66 65 C62.37 65 58.74 65 55 65 C54.55269531 63.453125 54.10539062 61.90625 53.64453125 60.3125 C53.03393995 58.20830844 52.42325791 56.10414321 51.8125 54 C51.52052734 52.989375 51.22855469 51.97875 50.92773438 50.9375 C48.4039645 42.25356065 45.71991044 33.62400503 43 25 C42.67201416 26.14065918 42.34402832 27.28131836 42.00610352 28.45654297 C40.7911066 32.68009159 39.57355622 36.9029005 38.35522461 41.12548828 C37.82783205 42.95471373 37.30113636 44.78414025 36.77514648 46.61376953 C36.01989019 49.24043845 35.26214774 51.866379 34.50390625 54.4921875 C34.26845596 55.31306854 34.03300568 56.13394958 33.79042053 56.97970581 C32.11387171 62.77225659 32.11387171 62.77225659 31 65 C27.37 65 23.74 65 20 65 C14.88064062 49.85591437 9.83707768 34.6899943 5.04364014 19.43920898 C4.59850514 18.02339121 4.15193483 16.60802388 3.70391846 15.19311523 C3.07667773 13.20957244 2.45534828 11.22428104 1.8359375 9.23828125 C1.48063965 8.10430908 1.1253418 6.97033691 0.75927734 5.80200195 C0 3 0 3 0 0 Z " fill="#ED1C24" transform="translate(434,30)"/>
<path d="M0 0 C4.67670003 2.68384499 7.15019616 7.02460435 8.82421875 12.046875 C9.06472778 14.66023254 9.06472778 14.66023254 9.05126953 17.47973633 C9.05111847 18.54045853 9.05096741 19.60118073 9.05081177 20.69404602 C9.0404892 21.8275499 9.03016663 22.96105377 9.01953125 24.12890625 C9.01670135 25.29822189 9.01387146 26.46753754 9.01095581 27.67228699 C8.99977437 31.40142108 8.97467309 35.13031368 8.94921875 38.859375 C8.93918634 41.38997049 8.93006094 43.92056974 8.921875 46.45117188 C8.89984163 52.64983241 8.86532537 58.84831278 8.82421875 65.046875 C3.54421875 65.046875 -1.73578125 65.046875 -7.17578125 65.046875 C-7.20551025 63.0037915 -7.20551025 63.0037915 -7.23583984 60.91943359 C-7.31205746 55.85381961 -7.40075016 50.7884868 -7.49316406 45.72314453 C-7.53138705 43.53309694 -7.56625147 41.342988 -7.59765625 39.15283203 C-7.64345168 36.00010288 -7.70142274 32.84779362 -7.76171875 29.6953125 C-7.77326996 28.72008636 -7.78482117 27.74486023 -7.79672241 26.74008179 C-7.88042625 18.16193529 -7.88042625 18.16193529 -12.17578125 11.046875 C-16.19232655 10.59217176 -18.4575313 10.63188614 -21.98828125 12.671875 C-27.80642151 18.988713 -27.31577279 28.66242051 -27.4921875 36.82421875 C-27.5129686 37.63556778 -27.53374969 38.44691681 -27.55516052 39.28285217 C-27.62003768 41.84994839 -27.67925047 44.41713837 -27.73828125 46.984375 C-27.78152543 48.73503536 -27.82514151 50.48568658 -27.86914062 52.23632812 C-27.97634795 56.50641617 -28.07587899 60.77658493 -28.17578125 65.046875 C-33.45578125 65.046875 -38.73578125 65.046875 -44.17578125 65.046875 C-44.17578125 43.596875 -44.17578125 22.146875 -44.17578125 0.046875 C-39.22578125 0.046875 -34.27578125 0.046875 -29.17578125 0.046875 C-28.84578125 2.356875 -28.51578125 4.666875 -28.17578125 7.046875 C-27.72203125 6.304375 -27.26828125 5.561875 -26.80078125 4.796875 C-19.69687324 -2.64531434 -9.28194972 -3.86595941 0 0 Z " fill="#939393" transform="translate(337.17578125,29.953125)"/>
<path d="M0 0 C4.33493793 3.53824664 6.26998997 6.03654736 7.73046875 11.51953125 C8.03748988 14.65947735 8.07839147 17.78802049 8.109375 20.94140625 C8.12636948 21.84143372 8.14336395 22.74146118 8.16087341 23.66876221 C8.21376387 26.53561446 8.25413977 29.40245694 8.29296875 32.26953125 C8.33721 35.12224591 8.3842409 37.9748612 8.43577576 40.82745361 C8.46717754 42.59719317 8.494227 44.36701773 8.51600647 46.13690186 C8.61205738 51.98084158 9.08733693 57.70963711 9.73046875 63.51953125 C4.45046875 63.51953125 -0.82953125 63.51953125 -6.26953125 63.51953125 C-6.92953125 61.20953125 -7.58953125 58.89953125 -8.26953125 56.51953125 C-8.81222656 57.01324219 -9.35492188 57.50695312 -9.9140625 58.015625 C-10.62949219 58.65628906 -11.34492188 59.29695313 -12.08203125 59.95703125 C-12.78972656 60.59511719 -13.49742187 61.23320313 -14.2265625 61.890625 C-19.06563861 65.74893234 -25.3941162 64.94810927 -31.26953125 64.51953125 C-36.01043876 62.8817632 -39.09637152 60.39783759 -42.26953125 56.51953125 C-44.57340088 51.07402121 -44.68942088 46.1887256 -43.26953125 40.51953125 C-39.43223066 33.12917455 -33.32458032 29.17119893 -25.95703125 25.89453125 C-24.97561157 25.44678345 -24.97561157 25.44678345 -23.97436523 24.98999023 C-19.16340135 22.82942038 -14.32713928 21.02794066 -9.26953125 19.51953125 C-8.85030749 14.98996641 -8.85030749 14.98996641 -11.14453125 11.20703125 C-15.76431773 7.53837728 -20.56732455 8.05843637 -26.26953125 8.51953125 C-29.08097595 9.30710208 -31.57506836 10.36476144 -34.26953125 11.51953125 C-35.25953125 11.51953125 -36.24953125 11.51953125 -37.26953125 11.51953125 C-40.26953125 5.89453125 -40.26953125 5.89453125 -40.26953125 2.51953125 C-28.73805463 -3.21835325 -11.73468676 -7.65481288 0 0 Z M-16.08203125 31.70703125 C-16.71173828 31.99900391 -17.34144531 32.29097656 -17.99023438 32.59179688 C-22.14461473 34.61885549 -24.75164262 36.63880485 -27.26953125 40.51953125 C-28.32043186 44.44289352 -28.6720946 46.56609173 -27.08203125 50.33203125 C-25.15322785 52.65989742 -24.16663486 53.69178736 -21.26953125 54.51953125 C-17.03234314 54.51953125 -15.61447495 53.84879569 -12.51953125 50.89453125 C-7.53374392 44.09718775 -8.03113752 36.58518566 -8.26953125 28.51953125 C-10.86371553 28.51953125 -13.74210539 30.57116774 -16.08203125 31.70703125 Z " fill="#939393" transform="translate(271.26953125,31.48046875)"/>
<path d="M0 0 C4.95 0 9.9 0 15 0 C15 5.61 15 11.22 15 17 C18.96 17 22.92 17 27 17 C27 19.97 27 22.94 27 26 C23.04 26 19.08 26 15 26 C15.11804305 32.0873778 15.24227642 38.17458535 15.37231445 44.26171875 C15.41569577 46.33362366 15.45736846 48.40556507 15.49731445 50.47753906 C15.55493965 53.45128391 15.61865625 56.42484448 15.68359375 59.3984375 C15.70030624 60.32868744 15.71701874 61.25893738 15.73423767 62.21737671 C15.75418289 63.07811798 15.77412811 63.93885925 15.79467773 64.82568359 C15.81799416 65.96485733 15.81799416 65.96485733 15.84178162 67.12704468 C15.89127127 69.09115721 15.89127127 69.09115721 17 71 C19.97 71 22.94 71 26 71 C26.66 74.3 27.32 77.6 28 81 C20.8259109 83.12565603 13.36936962 84.49662412 6.125 81.875 C2.59065934 79.7543956 0.56097203 77.77897803 -1 74 C-1.53459765 70.29664987 -1.46629985 66.64911466 -1.390625 62.9140625 C-1.38213531 61.32868179 -1.38213531 61.32868179 -1.37347412 59.71127319 C-1.35115467 56.3487137 -1.30096481 52.98723528 -1.25 49.625 C-1.22992935 47.33985918 -1.21167957 45.0547016 -1.1953125 42.76953125 C-1.1513041 37.17927348 -1.08230565 31.58981979 -1 26 C-3.97 26 -6.94 26 -10 26 C-10 23.03 -10 20.06 -10 17 C-7.03 17 -4.06 17 -1 17 C-0.67 11.39 -0.34 5.78 0 0 Z " fill="#939393" transform="translate(363,13)"/>
<path d="M0 0 C-0.4794463 4.21912747 -1.16625119 6.79663178 -4 10 C-4.825 9.67 -5.65 9.34 -6.5 9 C-11.49908646 7.57168958 -15.98723765 7.32907922 -21 9 C-22.20827955 11.63776466 -22.20827955 11.63776466 -22 15 C-18.49424466 19.39977318 -13.48428437 22.37352032 -8.875 25.5 C-3.20407784 29.39112505 2.30708786 34.05906024 4 41 C4.57088992 48.07903497 3.42393462 53.02202318 -1.1875 58.6875 C-8.31136776 64.54490238 -13.90250092 65.63010018 -23.2109375 65.40625 C-28.54974922 64.83384132 -33.15268659 63.25737672 -38 61 C-37.33758211 57.44920141 -36.42518229 54.32542534 -35 51 C-34.46632813 51.2165625 -33.93265625 51.433125 -33.3828125 51.65625 C-27.59629037 53.81868734 -22.17697329 54.99628601 -16 54 C-13.1982517 52.5368109 -13.1982517 52.5368109 -12 50 C-11.90908946 46.45448894 -12.80099534 45.21632478 -15.19921875 42.609375 C-17.9632006 40.03428452 -20.79758208 37.87366572 -23.875 35.6875 C-29.6017591 31.45774821 -35.67907149 26.96278553 -38 20 C-38.63818279 14.60160134 -38.36143149 10.16976927 -35.328125 5.56640625 C-25.86319262 -5.59664635 -12.56895502 -3.94688681 0 0 Z " fill="#ED1C24" transform="translate(431,31)"/>
<path d="M0 0 C-0.99 3.3 -1.98 6.6 -3 10 C-4.155 9.67 -5.31 9.34 -6.5 9 C-10.81792243 7.92627151 -14.55625656 7.69872926 -19 8 C-22.22540156 9.67914415 -22.22540156 9.67914415 -22.75 12.6875 C-21.53907937 18.03573276 -17.36455149 20.01551697 -13 23 C0.48685259 32.46055777 0.48685259 32.46055777 3 40 C3.69817396 47.18775819 3.41658878 52.18869898 -1 58 C-5.46038026 62.69843426 -10.08659454 64.72160792 -16.515625 65.3359375 C-24.31778424 65.41755004 -31.18367862 65.15038235 -38 61 C-38.33 60.34 -38.66 59.68 -39 59 C-38.22265625 57.0546875 -38.22265625 57.0546875 -37.0625 54.875 C-36.68222656 54.15054688 -36.30195312 53.42609375 -35.91015625 52.6796875 C-35.45962891 51.84824219 -35.45962891 51.84824219 -35 51 C-34.46632813 51.2165625 -33.93265625 51.433125 -33.3828125 51.65625 C-27.70507568 53.778034 -22.06537684 55.11673003 -16 54 C-13.58157334 52.12801874 -13.06803108 51.27212431 -12.3125 48.25 C-13.76453305 41.38584378 -21.27256009 37.7895914 -26.6875 33.9375 C-32.70395735 29.61265046 -37.50726442 25.61295145 -39 18 C-39.35797033 12.5077124 -38.35108862 8.88383232 -34.8125 4.625 C-24.79427924 -5.68004099 -12.58422029 -3.82305427 0 0 Z " fill="#ED1C24" transform="translate(635,31)"/>
<path d="M0 0 C-0.66241789 3.55079859 -1.57481771 6.67457466 -3 10 C-4.155 9.67 -5.31 9.34 -6.5 9 C-10.81792243 7.92627151 -14.55625656 7.69872926 -19 8 C-19.99 8.66 -20.98 9.32 -22 10 C-22.11805079 12.89224434 -22.11280602 14.38464944 -21 17 C-17.94482162 19.74166913 -14.4514188 21.79242126 -11 24 C-3.63901775 29.28776108 1.57468217 33.40053711 3.875 42.4375 C4.10493264 48.9905802 2.93633574 53.24973901 -1.125 58.3125 C-6.75178703 64.16942146 -11.81605419 65.14941844 -19.8125 65.4375 C-26.49899069 65.31487827 -31.94891616 63.76620976 -38 61 C-37.5205537 56.78087253 -36.83374881 54.20336822 -34 51 C-32.88625 51.495 -31.7725 51.99 -30.625 52.5 C-25.87443221 54.27828741 -21.02234132 54.90990909 -16 54 C-13.57813486 52.12954166 -13.06835205 51.27340819 -12.3125 48.25 C-13.95855323 40.46865744 -24.18534961 35.57424394 -30.265625 31.2109375 C-33.95062469 28.23135203 -36.49255807 25.5223258 -38 21 C-38.50442239 15.7325072 -38.6716659 11.36820832 -36.3125 6.5625 C-25.89165286 -4.98492521 -13.88675641 -4.36070108 0 0 Z " fill="#ED1C24" transform="translate(591,31)"/>
<path d="M0 0 C5.28 0 10.56 0 16 0 C16 31.35 16 62.7 16 95 C10.72 95 5.44 95 0 95 C0 63.65 0 32.3 0 0 Z " fill="#939393" transform="translate(202,0)"/>
<path d="M0 0 C5.28 0 10.56 0 16 0 C16 21.45 16 42.9 16 65 C10.72 65 5.44 65 0 65 C0 43.55 0 22.1 0 0 Z " fill="#ED1C24" transform="translate(527,30)"/>
<path d="M0 0 C5.28 0 10.56 0 16 0 C16 21.45 16 42.9 16 65 C10.72 65 5.44 65 0 65 C0 43.55 0 22.1 0 0 Z " fill="#939393" transform="translate(2,30)"/>
<path d="M0 0 C3.45201639 1.47721422 5.64961936 3.43794001 8.25 6.125 C8.95640625 6.84945313 9.6628125 7.57390625 10.390625 8.3203125 C11.18726563 9.15175781 11.18726563 9.15175781 12 10 C10.52278578 13.45201639 8.56205999 15.64961936 5.875 18.25 C5.15054688 18.95640625 4.42609375 19.6628125 3.6796875 20.390625 C3.12539063 20.92171875 2.57109375 21.4528125 2 22 C-1.45201639 20.52278578 -3.64961936 18.56205999 -6.25 15.875 C-6.95640625 15.15054687 -7.6628125 14.42609375 -8.390625 13.6796875 C-8.92171875 13.12539062 -9.4528125 12.57109375 -10 12 C-8.52278578 8.54798361 -6.56205999 6.35038064 -3.875 3.75 C-3.15054688 3.04359375 -2.42609375 2.3371875 -1.6796875 1.609375 C-1.12539063 1.07828125 -0.57109375 0.5471875 0 0 Z " fill="#ED1C24" transform="translate(534,2)"/>
<path d="M0 0 C3.80635497 3.20760251 7.54563567 6.40746109 11 10 C9.52278578 13.45201639 7.56205999 15.64961936 4.875 18.25 C4.15054687 18.95640625 3.42609375 19.6628125 2.6796875 20.390625 C2.12539062 20.92171875 1.57109375 21.4528125 1 22 C-2.10442031 20.6095501 -4.3656443 18.98428402 -6.8125 16.625 C-7.43769531 16.03976563 -8.06289062 15.45453125 -8.70703125 14.8515625 C-10 13 -10 13 -9.984375 11.0703125 C-8.62487897 8.21105498 -6.71783339 6.43398128 -4.4375 4.25 C-3.61121094 3.45078125 -2.78492188 2.6515625 -1.93359375 1.828125 C-1.29550781 1.22484375 -0.65742188 0.6215625 0 0 Z " fill="#ED1C24" transform="translate(10,2)"/>
</svg>
